<svg xmlns="http://www.w3.org/2000/svg" viewBox="0 0 54.12 54.12"><defs><style>.cls-1{fill:#0f4c81;}.cls-2{opacity:0.2;}</style></defs><g id="Layer_2" data-name="Layer 2"><g id="OBJECTS"><path class="cls-1" d="M1.47,18.3h0A27,27,0,0,1,35.82,1.47h0A27.05,27.05,0,0,1,52.65,35.82h0A27.06,27.06,0,0,1,18.29,52.65h0A27,27,0,0,1,1.47,18.3Z"/><path class="cls-2" d="M1.47,18.3h0A27,27,0,0,1,35.82,1.47h0A27.05,27.05,0,0,1,52.65,35.82h0A27.06,27.06,0,0,1,18.29,52.65h0A27,27,0,0,1,1.47,18.3Z"/></g></g></svg>