<svg xmlns="http://www.w3.org/2000/svg" viewBox="0 0 57.84 57.84"><defs><style>.cls-1{fill:#0f4c81;}</style></defs><g id="Layer_2" data-name="Layer 2"><g id="OBJECTS"><path class="cls-1" d="M52,46.47,11.38,5.86c-.55.42-1.08.86-1.59,1.31L50.67,48.06C51.13,47.54,51.56,47,52,46.47Z"/><path class="cls-1" d="M56.81,36.76,21.08,1c-.74.21-1.48.44-2.19.71L56.11,39C56.37,38.24,56.6,37.51,56.81,36.76Z"/><path class="cls-1" d="M54.78,42,15.85,3.07c-.64.32-1.26.66-1.87,1L53.75,43.87C54.12,43.26,54.46,42.63,54.78,42Z"/><path class="cls-1" d="M57.84,30.53,27.32,0c-.89.05-1.77.14-2.64.26l32.9,32.9A25.18,25.18,0,0,0,57.84,30.53Z"/><path class="cls-1" d="M57.19,22.61,35.24.65A28.33,28.33,0,0,0,31.78.1l26,26A30.25,30.25,0,0,0,57.19,22.61Z"/><path class="cls-1" d="M54.73,15.78A29.1,29.1,0,0,0,42.06,3.11Z"/><path class="cls-1" d="M27,57.84l-27-27a29.74,29.74,0,0,0,.4,3.3L23.72,57.44A28,28,0,0,0,27,57.84Z"/><path class="cls-1" d="M33.92,57.47.37,23.92c-.14.85-.26,1.7-.33,2.57L31.35,57.8C32.22,57.73,33.08,57.62,33.92,57.47Z"/><path class="cls-1" d="M17.48,55.57,2.28,40.36A28.92,28.92,0,0,0,8,49l.9.9A29.08,29.08,0,0,0,17.48,55.57Z"/><path class="cls-1" d="M44.4,53.42l-40-40c-.37.6-.73,1.21-1.07,1.83L42.57,54.49C43.2,54.16,43.81,53.8,44.4,53.42Z"/><path class="cls-1" d="M48.52,50.27,7.58,9.33c-.47.5-.91,1-1.34,1.56L47,51.6C47.49,51.18,48,50.73,48.52,50.27Z"/><path class="cls-1" d="M39.59,55.87,2,18.26c-.28.7-.53,1.41-.76,2.13L37.45,56.63C38.18,56.41,38.89,56.15,39.59,55.87Z"/></g></g></svg>