<svg xmlns="http://www.w3.org/2000/svg" xmlns:xlink="http://www.w3.org/1999/xlink" viewBox="0 0 138.71 140.22"><defs><style>.cls-1{isolation:isolate;}.cls-2{fill:url(#linear-gradient);}.cls-3{fill:url(#linear-gradient-2);}.cls-4{fill:url(#radial-gradient);}.cls-5{mix-blend-mode:overlay;opacity:0.7;fill:url(#linear-gradient-3);}.cls-6{fill:url(#linear-gradient-4);}</style><linearGradient id="linear-gradient" x1="-368.07" y1="62.14" x2="-328.3" y2="116.41" gradientTransform="translate(434.69 52.87) rotate(5.5)" gradientUnits="userSpaceOnUse"><stop offset="0" stop-color="#ed1d77"/><stop offset="0.01" stop-color="#e91d78"/><stop offset="0.23" stop-color="#b72089"/><stop offset="0.33" stop-color="#a3218f"/><stop offset="0.44" stop-color="#810d7a"/><stop offset="0.5" stop-color="#761277"/><stop offset="0.57" stop-color="#611a71"/><stop offset="0.66" stop-color="#5c1e76"/><stop offset="0.77" stop-color="#4f2a85"/><stop offset="0.9" stop-color="#3a3e9d"/><stop offset="1" stop-color="#2254b8"/></linearGradient><linearGradient id="linear-gradient-2" x1="-398.12" y1="-20.01" x2="-371.62" y2="139.01" gradientTransform="translate(434.69 52.87) rotate(5.5)" gradientUnits="userSpaceOnUse"><stop offset="0" stop-color="#ed1d77"/><stop offset="0.01" stop-color="#e91d78"/><stop offset="0.23" stop-color="#b72089"/><stop offset="0.33" stop-color="#a3218f"/><stop offset="0.44" stop-color="#810d7a"/><stop offset="0.54" stop-color="#761277"/><stop offset="0.68" stop-color="#611a71"/><stop offset="0.72" stop-color="#5c1e76"/><stop offset="0.78" stop-color="#4f2a85"/><stop offset="0.84" stop-color="#3a3e9d"/><stop offset="0.9" stop-color="#2254b8"/><stop offset="0.9" stop-color="#2d51b4"/><stop offset="0.92" stop-color="#4c49ab"/><stop offset="0.94" stop-color="#7e3b9b"/><stop offset="0.97" stop-color="#c22985"/><stop offset="0.99" stop-color="#ed1d77"/></linearGradient><radialGradient id="radial-gradient" cx="-338.67" cy="167.82" r="191.45" gradientTransform="translate(434.69 52.87) rotate(5.5)" gradientUnits="userSpaceOnUse"><stop offset="0.28" stop-color="#008cff"/><stop offset="0.52" stop-color="#9435ff"/><stop offset="0.7" stop-color="#d124dc"/><stop offset="0.75" stop-color="#d629d1"/><stop offset="0.84" stop-color="#e235b2"/><stop offset="0.95" stop-color="#f64981"/><stop offset="1" stop-color="#ff526b"/></radialGradient><linearGradient id="linear-gradient-3" x1="298.26" y1="70.42" x2="248.02" y2="231.09" gradientTransform="translate(-203.8 -64.89) rotate(-2.86)" gradientUnits="userSpaceOnUse"><stop offset="0.08" stop-color="#fff"/><stop offset="1" stop-color="#fff" stop-opacity="0"/></linearGradient><linearGradient id="linear-gradient-4" x1="-328.55" y1="16.08" x2="-378.22" y2="83.6" gradientTransform="translate(434.69 52.87) rotate(5.5)" gradientUnits="userSpaceOnUse"><stop offset="0" stop-color="#f2f9ff"/><stop offset="0.8" stop-color="#c0d6f2"/><stop offset="1" stop-color="#b3cdec"/></linearGradient></defs><g id="Layer_2" data-name="Layer 2"><g id="OBJECTS"><g class="cls-1"><polygon class="cls-2" points="87.21 121.52 70.28 127.52 96.8 137.08 113.72 131.08 87.21 121.52"/><path class="cls-3" d="M17.27,55.92c.09-.47.18-.94.29-1.39.06-.26.12-.52.19-.77.13-.47.28-.92.44-1.37.08-.22.14-.44.23-.65A19.21,19.21,0,0,1,19.23,50l0-.09c.17-.32.36-.61.54-.91s.26-.44.4-.66.42-.56.64-.84.28-.4.44-.59.59-.62.89-.91c.12-.12.23-.26.35-.37a15.22,15.22,0,0,1,1.39-1.13L82.73,2.5A13.54,13.54,0,0,1,86.05.76l-16.93,6A13.54,13.54,0,0,0,65.8,8.5L7,50.45A15.22,15.22,0,0,0,5.6,51.58c-.15.14-.28.3-.43.44s-.55.55-.81.85-.29.39-.44.58-.44.55-.64.85-.27.45-.41.67-.37.58-.53.89h0l0,.08a19.21,19.21,0,0,0-.81,1.79c-.09.21-.15.43-.23.65-.16.45-.31.91-.44,1.37-.07.26-.13.51-.19.77-.11.46-.2.92-.28,1.39,0,.26-.09.52-.13.78-.07.52-.12,1-.16,1.59,0,.17,0,.33,0,.49s0,.11,0,.17c0,.23,0,.47,0,.7q0,.61,0,1.23c0,.26,0,.53,0,.79s.05.78.09,1.17.07.55.11.83.12.77.19,1.16.11.55.17.83.18.78.28,1.16.14.55.22.82.25.8.39,1.2c.09.25.17.51.27.76.16.44.35.87.53,1.3.1.21.18.43.28.64.29.63.61,1.27,1,1.89L31.27,128.8a22.76,22.76,0,0,0,11.27,10.33,16.47,16.47,0,0,0,4.39,1c.49,0,1,.06,1.46.06a13.93,13.93,0,0,0,1.45-.1,13.75,13.75,0,0,0,2.82-.66l16.93-6c-7.35,2.61-16.32-1.61-21.39-10.65L20.48,73.43q-.53-.95-1-1.89c-.1-.22-.19-.43-.28-.65-.19-.43-.37-.85-.53-1.29-.1-.25-.18-.51-.27-.76q-.21-.6-.39-1.2c-.08-.27-.15-.54-.22-.82s-.2-.77-.29-1.16-.11-.56-.16-.83-.14-.78-.19-1.16-.08-.55-.11-.83S17,62.06,17,61.67s0-.53,0-.79c0-.41,0-.82,0-1.23,0-.24,0-.47,0-.7s0-.44,0-.66c0-.54.09-1.07.16-1.59C17.18,56.43,17.23,56.18,17.27,55.92Z"/><path class="cls-4" d="M135.14,60.78,107.43,11.4C101.56,1,90.5-3,82.73,2.5l-58.81,42C16.15,50,14.61,63,20.48,73.43L48.2,122.8c5.87,10.46,16.94,14.46,24.7,8.92l14.31-10.2,26.51,9.56L117.41,100l14.31-10.2C139.48,84.23,141,71.23,135.14,60.78Z"/><path class="cls-5" d="M135.14,60.78,107.43,11.4C101.56,1,90.5-3,82.73,2.5l-58.81,42C16.15,50,14.61,63,20.48,73.43L48.2,122.8c5.87,10.46,16.94,14.46,24.7,8.92l14.31-10.2,26.51,9.56L117.41,100l14.31-10.2C139.48,84.23,141,71.23,135.14,60.78Zm-3.8,28.45L116.79,99.6l-3.62,30.58-26.06-9.4L72.52,131.19a12.7,12.7,0,0,1-8.73,2.3c-5.85-.56-11.47-4.68-15-11L21.05,73.1C15.35,62.94,16.81,50.33,24.3,45L83.11,3A12.8,12.8,0,0,1,91.85.72c5.84.56,11.45,4.68,15,11L134.57,61.1C140.28,71.27,138.83,83.89,131.34,89.23Z"/><path class="cls-6" d="M94.37,48.29C90.06,40.61,82,37.68,76.26,41.74c-3.91,2.79-5.65,8.14-5,13.69-4.17-3-9.2-3.55-13.11-.77-5.69,4.07-6.82,13.58-2.51,21.26,4.6,8.19,12.37,11,18.63,12.51A75.41,75.41,0,0,0,82.8,90l8.33.87L94,82c.14-.46,1.43-4.53,2.43-9.34C97.89,65.6,99,56.48,94.37,48.29Z"/></g></g></g></svg>