<svg xmlns="http://www.w3.org/2000/svg" xmlns:xlink="http://www.w3.org/1999/xlink" viewBox="0 0 95.74 84.46"><defs><style>.cls-1{fill:none;}.cls-2{isolation:isolate;}.cls-3{clip-path:url(#clip-path);}.cls-4{fill:#616b85;}.cls-5{fill:#656f8a;}.cls-6{fill:#69738f;}.cls-7{fill:#6c7794;}.cls-8{fill:#707b99;}.cls-9{fill:#747f9e;}.cls-10{fill:#7883a3;}.cls-11{fill:#7b87a8;}.cls-12{fill:#7f8bad;}.cls-13{fill:url(#linear-gradient);}.cls-14{fill:url(#radial-gradient);}.cls-15{mix-blend-mode:overlay;fill:url(#linear-gradient-2);}.cls-16{fill:url(#linear-gradient-3);}</style><clipPath id="clip-path" transform="translate(0 0)"><path class="cls-1" d="M81.88,16.54c9.19,8.27,13.69,18.81,13.53,29.18.11-1.12.21-2.24.32-3.35C95.89,32,91.39,21.45,82.2,13.19,63.82-3.34,33.6-4.49,14.73,10.62,6.13,17.51,1.36,26.58.46,36L.14,39.34C1,29.94,5.81,20.86,14.41,14,33.28-1.13,63.49,0,81.88,16.54Z"/></clipPath><linearGradient id="linear-gradient" x1="-4244.33" y1="413.34" x2="-4168.2" y2="362.13" gradientTransform="matrix(-0.95, 0.31, 0.31, 0.95, -4069.64, 1009.79)" gradientUnits="userSpaceOnUse"><stop offset="0" stop-color="#a81c69"/><stop offset="0.08" stop-color="#89125a"/><stop offset="0.13" stop-color="#7a0d52"/><stop offset="0.28" stop-color="#700d52"/><stop offset="0.58" stop-color="#610d52"/><stop offset="0.66" stop-color="#670e53"/><stop offset="0.76" stop-color="#761157"/><stop offset="0.86" stop-color="#90155e"/><stop offset="0.98" stop-color="#b41b67"/><stop offset="1" stop-color="#bc1c69"/></linearGradient><radialGradient id="radial-gradient" cx="-4203" cy="467.91" r="150.96" gradientTransform="matrix(-0.95, 0.31, 0.31, 0.95, -4069.64, 1009.79)" gradientUnits="userSpaceOnUse"><stop offset="0.34" stop-color="#da334f"/><stop offset="0.68" stop-color="#ff597d"/><stop offset="0.99" stop-color="#ffa19a"/></radialGradient><linearGradient id="linear-gradient-2" x1="-4232.38" y1="327.62" x2="-4198.94" y2="407.1" gradientTransform="matrix(-0.95, 0.31, 0.31, 0.95, -4069.64, 1009.79)" gradientUnits="userSpaceOnUse"><stop offset="0.08" stop-color="#fff"/><stop offset="1" stop-color="#fff" stop-opacity="0"/></linearGradient><linearGradient id="linear-gradient-3" x1="-4231.91" y1="354.45" x2="-4195.59" y2="409.11" gradientTransform="matrix(-0.95, 0.31, 0.31, 0.95, -4069.64, 1009.79)" gradientUnits="userSpaceOnUse"><stop offset="0" stop-color="#f2f9ff"/><stop offset="0.96" stop-color="#d0bcff"/><stop offset="1" stop-color="#ceb9ff"/></linearGradient></defs><g class="cls-2"><g id="Layer_2" data-name="Layer 2"><g id="OBJECTS"><g class="cls-2"><g class="cls-3"><g class="cls-2"><path class="cls-4" d="M.46,36,.14,39.34C1,29.94,5.81,20.86,14.41,14A49.48,49.48,0,0,1,39.65,3.74L40,.38A49.64,49.64,0,0,0,14.73,10.62C6.13,17.51,1.37,26.58.46,36" transform="translate(0 0)"/><path class="cls-5" d="M40,.38l-.32,3.36A55.77,55.77,0,0,1,47,3.36L47.29,0A55.82,55.82,0,0,0,40,.38" transform="translate(0 0)"/><path class="cls-6" d="M47.29,0,47,3.36A58.55,58.55,0,0,1,53,3.77L53.35.42A53.47,53.47,0,0,0,47.29,0" transform="translate(0 0)"/><path class="cls-7" d="M53.35.42,53,3.77q2.76.35,5.48.94l.32-3.35A53.61,53.61,0,0,0,53.35.42" transform="translate(0 0)"/><path class="cls-8" d="M58.83,1.36l-.32,3.35c1.75.4,3.49.87,5.19,1.43L64,2.79c-1.7-.56-3.44-1-5.19-1.43" transform="translate(0 0)"/><path class="cls-9" d="M64,2.79,63.7,6.14a53.38,53.38,0,0,1,5.11,2l.33-3.35a52,52,0,0,0-5.12-2" transform="translate(0 0)"/><path class="cls-10" d="M69.14,4.76l-.33,3.35a53.27,53.27,0,0,1,5.31,2.74l.32-3.35a51.09,51.09,0,0,0-5.3-2.74" transform="translate(0 0)"/><path class="cls-11" d="M74.44,7.5l-.32,3.35a50.08,50.08,0,0,1,6,4.21l.32-3.35a49,49,0,0,0-6-4.21" transform="translate(0 0)"/><path class="cls-12" d="M80.47,11.71l-.32,3.35c.59.48,1.16,1,1.73,1.48A40.18,40.18,0,0,1,94.49,37.19l.32-3.35A40.11,40.11,0,0,0,82.2,13.19c-.57-.51-1.14-1-1.73-1.48" transform="translate(0 0)"/><path class="cls-11" d="M94.81,33.84l-.32,3.35a35.38,35.38,0,0,1,.89,6.51l.32-3.35a35.15,35.15,0,0,0-.89-6.51" transform="translate(0 0)"/><path class="cls-10" d="M95.7,40.35l-.32,3.35a34.8,34.8,0,0,1-.12,4.79l.32-3.36a34.65,34.65,0,0,0,.12-4.78" transform="translate(0 0)"/></g></g></g><path class="cls-13" d="M10.77,68.56c-.5-.52-1-1.06-1.44-1.6l-.55-.65q-.9-1.09-1.71-2.22v0c-.55-.76-1-1.54-1.53-2.32l-.41-.7c-.34-.58-.67-1.17-1-1.76-.13-.23-.25-.47-.37-.71C3.39,57.79,3,57,2.69,56.19v0c-.34-.82-.63-1.64-.9-2.47l-.23-.74c-.19-.61-.36-1.23-.51-1.85l-.13-.46c0-.09,0-.17-.05-.26-.21-.94-.39-1.88-.52-2.83L.28,47C.17,46.18.1,45.34.05,44.5c0-.12,0-.25,0-.38a2.09,2.09,0,0,1,0-.25c0-.51,0-1,0-1.53,0-.25,0-.49,0-.74,0-.75.06-1.5.13-2.25h0L.46,36c-.07.75-.11,1.51-.13,2.26,0,.25,0,.5,0,.75,0,.5,0,1,0,1.52,0,.21,0,.43,0,.64,0,.84.12,1.68.23,2.52l.06.51c.14,1,.31,1.9.53,2.84.05.24.11.48.17.72.15.62.32,1.23.51,1.85.08.24.15.49.23.73.27.83.56,1.66.9,2.48l0,0c.32.8.69,1.6,1.08,2.39l.37.71c.31.59.63,1.17,1,1.76l.41.7c.48.78,1,1.55,1.53,2.31v0c.54.76,1.12,1.49,1.71,2.23l.56.65c.46.54.93,1.07,1.43,1.6.2.21.39.42.6.63.69.7,1.4,1.4,2.15,2.07.56.52,1.14,1,1.74,1.49.85.7,1.73,1.35,2.62,2,.19.14.38.28.58.41.88.6,1.78,1.19,2.69,1.73.19.12.39.22.58.33.59.35,1.19.68,1.79,1l.78.4c.6.3,1.2.59,1.81.87l.68.31c.71.31,1.43.61,2.15.89l.2.08c.79.31,1.59.59,2.39.86l.78.24c.54.17,1.09.34,1.63.49l.93.25c.51.14,1,.26,1.53.38l.94.22,1.69.33c.29,0,.57.11.86.15.7.12,1.4.22,2.11.31.14,0,.28.05.43.06.9.11,1.81.2,2.72.26l.77,0c.68,0,1.35.07,2,.08h.79c1.07,0,2.14,0,3.2,0l.52,0c1,0,2-.14,2.93-.25l.53,0c1-.12,2-.27,3-.45l.67-.13q1.34-.25,2.64-.57l.46-.11c1-.25,1.95-.53,2.91-.83l.68-.22c.87-.29,1.73-.6,2.59-.94l.34-.13c.93-.37,1.85-.79,2.76-1.22l.66-.32c.85-.42,1.7-.87,2.53-1.34l.19-.1c.88-.51,1.73-1,2.57-1.62.2-.14.41-.27.61-.42.84-.58,1.67-1.18,2.47-1.82A38,38,0,0,0,94.18,52.09a34.78,34.78,0,0,0,1.4-7h0l-.32,3.36C94.36,57.89,89.59,67,81,73.84c-.8.64-1.63,1.24-2.47,1.82l-.61.42c-.84.56-1.7,1.1-2.57,1.61l-.19.11c-.83.47-1.68.91-2.54,1.34l-.65.32c-.91.43-1.83.84-2.76,1.22l-.35.13q-1.27.5-2.58.93L65.6,82q-1.44.47-2.91.84l-.46.11c-.87.21-1.75.4-2.63.57l-.68.12q-1.5.27-3,.45l-.17,0-.36,0c-1,.11-2,.19-2.93.25l-.52,0c-1.06,0-2.13.07-3.2.06h-.31l-.48,0c-.68,0-1.35,0-2-.09l-.77,0c-.91-.07-1.82-.15-2.72-.26h-.06L42,84c-.7-.09-1.4-.19-2.1-.31L39,83.52c-.57-.1-1.13-.21-1.69-.33-.15,0-.3,0-.45-.09L36.4,83l-1.53-.38-.93-.25c-.55-.15-1.09-.32-1.63-.49l-.61-.19-.17,0c-.8-.27-1.6-.55-2.39-.86l-.21-.08c-.72-.28-1.43-.58-2.14-.89l-.21-.09-.47-.23c-.61-.28-1.21-.56-1.81-.86l-.78-.41c-.6-.32-1.2-.65-1.79-1L21.28,77l-.13-.08c-.92-.55-1.81-1.13-2.7-1.74l-.57-.4c-.9-.64-1.78-1.29-2.63-2h0c-.59-.48-1.16-1-1.73-1.48-.75-.68-1.46-1.37-2.14-2.07C11.16,69,11,68.77,10.77,68.56Z" transform="translate(0 0)"/><path class="cls-14" d="M14.73,10.62C33.6-4.49,63.82-3.34,82.2,13.19s18,42.18-.88,57.29-49.09,14-67.48-2.57S-4.15,25.74,14.73,10.62Z" transform="translate(0 0)"/><path class="cls-15" d="M13.84,67.91c18.39,16.54,48.6,17.69,67.48,2.57s19.27-40.76.88-57.29S33.6-4.49,14.73,10.62-4.54,51.39,13.84,67.91ZM.8,38.3C1.1,27.8,6.15,18.1,15,11A46.85,46.85,0,0,1,29.66,3.14c18.06-6,38.55-1.88,52.22,10.4,8.93,8,13.68,18.42,13.37,29.27C95,53.31,89.89,63,81,70.11A46.81,46.81,0,0,1,66.38,78c-18.06,6-38.56,1.88-52.23-10.41C5.23,59.54.49,49.15.8,38.3Z" transform="translate(0 0)"/><path class="cls-16" d="M42,20.45a1.34,1.34,0,0,0-.43.61L31,52.49c-.34,1,.75,2,2,1.78l37.59-7.11a1.53,1.53,0,0,0,.74-.33,1.24,1.24,0,0,0,0-2L44.29,20.53A1.87,1.87,0,0,0,42,20.45Z" transform="translate(0 0)"/></g></g></g></svg>