<svg xmlns="http://www.w3.org/2000/svg" xmlns:xlink="http://www.w3.org/1999/xlink" viewBox="0 0 207.53 252.76"><defs><style>.cls-1{isolation:isolate;}.cls-2{fill:url(#linear-gradient);}.cls-3{fill:url(#linear-gradient-2);}.cls-4{fill:url(#linear-gradient-3);}.cls-5{fill:url(#linear-gradient-4);}.cls-6{fill:url(#radial-gradient);}.cls-7{fill:#fbfbfb;}</style><linearGradient id="linear-gradient" x1="183.63" y1="512.74" x2="325.58" y2="709.34" gradientTransform="matrix(0.99, -0.14, 0.14, 0.99, -262.71, -440.81)" gradientUnits="userSpaceOnUse"><stop offset="0" stop-color="#f2f9ff"/><stop offset="0.06" stop-color="#dbe9f5"/><stop offset="0.09" stop-color="#d1e2f1"/><stop offset="0.15" stop-color="#bed6ea"/><stop offset="0.22" stop-color="#b0cee6"/><stop offset="0.3" stop-color="#a8c8e3"/><stop offset="0.47" stop-color="#a6c7e2"/><stop offset="0.77" stop-color="#a0c4df"/><stop offset="0.87" stop-color="#88adcf"/><stop offset="0.92" stop-color="#8bafd1"/><stop offset="0.95" stop-color="#94b7d7"/><stop offset="0.98" stop-color="#a4c5e0"/><stop offset="0.98" stop-color="#a6c7e2"/></linearGradient><linearGradient id="linear-gradient-2" x1="274.28" y1="820.13" x2="233.69" y2="642.95" gradientTransform="matrix(0.99, -0.14, 0.14, 0.99, -262.71, -440.81)" gradientUnits="userSpaceOnUse"><stop offset="0" stop-color="#f2f9ff"/><stop offset="0.02" stop-color="#f0f8fe"/><stop offset="0.02" stop-color="#e9f3fb"/><stop offset="0.03" stop-color="#dceaf6"/><stop offset="0.03" stop-color="#dbe9f5"/><stop offset="0.15" stop-color="#d9e8f4"/><stop offset="0.21" stop-color="#d1e3f2"/><stop offset="0.26" stop-color="#c4daed"/><stop offset="0.3" stop-color="#b2cfe6"/><stop offset="0.32" stop-color="#a6c7e2"/><stop offset="0.77" stop-color="#a0c4df"/><stop offset="0.87" stop-color="#88adcf"/><stop offset="0.92" stop-color="#8bafd1"/><stop offset="0.95" stop-color="#94b7d7"/><stop offset="0.98" stop-color="#a4c5e0"/><stop offset="0.98" stop-color="#a6c7e2"/></linearGradient><linearGradient id="linear-gradient-3" x1="-201.83" y1="-40.34" x2="-329.9" y2="143.85" gradientTransform="matrix(1, 0.09, -0.09, 1, 374.03, 85.22)" gradientUnits="userSpaceOnUse"><stop offset="0" stop-color="#f2f9ff"/><stop offset="0.8" stop-color="#c0d6f2"/><stop offset="1" stop-color="#b3cdec"/></linearGradient><linearGradient id="linear-gradient-4" x1="-213.69" y1="-45.25" x2="-322.94" y2="164.1" xlink:href="#linear-gradient-3"/><radialGradient id="radial-gradient" cx="294.68" cy="723.39" r="214.31" gradientTransform="matrix(0.99, -0.14, 0.14, 0.99, -262.71, -440.81)" gradientUnits="userSpaceOnUse"><stop offset="0.3" stop-color="#42c352"/><stop offset="0.48" stop-color="#58ce5e"/><stop offset="0.99" stop-color="#95ee81"/></radialGradient></defs><g id="Layer_2" data-name="Layer 2"><g id="OBJECTS"><g class="cls-1"><path class="cls-2" d="M181.39,196.7l-15.68,11.89A60.22,60.22,0,0,1,155.05,215c-12.69,6-27.6,7.73-43.36,5.1l15.68-11.89c15.76,2.63,30.67.89,43.35-5.1A60.3,60.3,0,0,0,181.39,196.7Zm-121.47,0L75.6,184.82c-1.76-1.33-3.49-2.72-5.2-4.14-.53-.44-1-.88-1.56-1.33-1.19-1-2.38-2.06-3.55-3.12-.59-.54-1.18-1.08-1.76-1.63q-1.77-1.66-3.5-3.39c-.47-.48-1-.94-1.42-1.42-1.59-1.63-3.16-3.29-4.68-5-.21-.23-.4-.47-.6-.7q-2-2.24-3.88-4.55c-.48-.58-.94-1.18-1.42-1.77-1-1.24-1.94-2.48-2.89-3.75-.49-.66-1-1.31-1.46-2q-1.41-1.95-2.77-3.95c-.41-.6-.83-1.2-1.23-1.81-1.27-1.93-2.52-3.88-3.71-5.87-1.08-1.79-2.1-3.59-3.09-5.39L32,133.35c-.68-1.29-1.35-2.58-2-3.87-.3-.6-.6-1.2-.89-1.8-.66-1.38-1.3-2.77-1.91-4.15-.2-.45-.41-.89-.6-1.34-.78-1.81-1.53-3.62-2.22-5.43-.16-.41-.3-.82-.46-1.24-.53-1.41-1-2.83-1.52-4.24-.2-.6-.39-1.2-.59-1.8-.41-1.28-.81-2.57-1.18-3.85l-.49-1.69q-.7-2.53-1.3-5c0-.12-.06-.23-.08-.34-.42-1.79-.78-3.58-1.11-5.36-.1-.53-.18-1.06-.28-1.59-.21-1.27-.42-2.53-.59-3.8L16.54,86c-.16-1.31-.3-2.62-.42-3.92,0-.45-.09-.9-.12-1.35-.14-1.72-.23-3.44-.29-5.14,0-.35,0-.69,0-1,0-1.36,0-2.71,0-4,0-.55,0-1.1.05-1.65,0-1.17.1-2.34.18-3.5,0-.52.07-1.05.11-1.56.13-1.45.28-2.89.47-4.31,0-.18,0-.36.07-.54.22-1.59.49-3.16.79-4.71.09-.45.19-.89.28-1.34.24-1.11.49-2.22.77-3.31.18-.69.35-1.37.54-2.05.09-.31.17-.62.26-.92.34-1.13.69-2.25,1.07-3.35l.13-.36c.35-1,.71-2,1.1-2.92.12-.31.25-.61.37-.92.37-.87.74-1.73,1.13-2.58.1-.21.19-.42.29-.62.48-1,1-2,1.52-3,.13-.25.27-.49.4-.73.43-.78.88-1.54,1.33-2.3l.49-.8c.59-.95,1.2-1.89,1.84-2.8l.13-.17c.6-.86,1.23-1.69,1.88-2.52l.59-.74c.56-.69,1.14-1.37,1.73-2l.48-.55c.74-.81,1.5-1.61,2.28-2.38.19-.19.38-.36.57-.54.63-.61,1.28-1.21,1.94-1.79l.71-.62c.85-.73,1.72-1.44,2.61-2.12L26.13,24.68c-.9.68-1.76,1.39-2.61,2.12l-.71.62c-.67.58-1.32,1.18-1.95,1.79l-.56.53c-.79.78-1.55,1.58-2.29,2.39l-.47.54c-.6.67-1.17,1.36-1.74,2-.19.25-.39.49-.59.74-.64.83-1.27,1.66-1.88,2.52l-.12.17C12.57,39.06,12,40,11.36,41l-.48.8c-.46.76-.9,1.52-1.33,2.3-.14.24-.27.48-.4.73-.54,1-1,2-1.53,3-.1.2-.19.41-.28.62C7,49.27,6.57,50.13,6.21,51c-.13.3-.26.61-.38.92-.38,1-.75,1.93-1.1,2.92,0,.12-.08.24-.13.36-.38,1.1-.73,2.22-1.06,3.35-.09.3-.18.61-.26.92s-.25.83-.36,1.26c-.07.26-.12.53-.18.79-.28,1.09-.54,2.19-.77,3.31-.1.45-.2.89-.29,1.34-.3,1.55-.57,3.12-.79,4.71l-.06.54C.64,72.84.48,74.28.36,75.73c0,.51-.08,1-.11,1.56C.16,78.45.1,79.61.06,80.79c0,.55,0,1.09,0,1.64,0,1.34,0,2.69,0,4,0,.35,0,.69,0,1,0,1.7.15,3.42.28,5.14,0,.45.09.9.13,1.35.12,1.3.25,2.61.42,3.92.07.59.15,1.18.23,1.76.18,1.26.38,2.53.6,3.8.09.53.17,1.06.27,1.59.33,1.78.7,3.56,1.11,5.36l.09.34c.39,1.67.83,3.36,1.3,5,.15.56.32,1.13.49,1.69.37,1.28.76,2.57,1.18,3.85.19.6.38,1.2.59,1.8.48,1.41,1,2.83,1.51,4.24.16.41.3.83.46,1.24q1.05,2.72,2.22,5.43c.19.45.4.89.6,1.34q.92,2.07,1.92,4.15c.29.6.58,1.2.88,1.8.64,1.29,1.31,2.58,2,3.87.29.56.58,1.11.88,1.66,1,1.81,2,3.61,3.09,5.4,1.19,2,2.44,3.94,3.71,5.87.41.61.83,1.21,1.24,1.81q1.35,2,2.76,4l1.46,2q1.42,1.89,2.9,3.74c.47.6.94,1.19,1.42,1.78q1.89,2.31,3.87,4.55l.6.7c1.53,1.71,3.09,3.37,4.68,5,.47.48,1,.94,1.43,1.42q1.72,1.72,3.49,3.39l1.77,1.63c.51.46,1,.95,1.53,1.4s1.34,1.15,2,1.72c.51.44,1,.89,1.55,1.32C56.43,194,58.16,195.38,59.92,196.71Z"/><polygon class="cls-3" points="75.6 184.82 59.92 196.71 79.83 252.76 95.5 240.87 75.6 184.82"/><path class="cls-4" d="M187.23,69.07c-15.78-26.29-38.49-47.29-63.94-59.14S72.7-3.22,52.48,6.34C10.8,26,3.4,86.16,36,140.41A157.47,157.47,0,0,0,75.6,184.82l19.9,56.05,31.87-32.62c15.76,2.63,30.67.89,43.35-5.1C212.39,183.47,219.8,123.31,187.23,69.07Z"/><path class="cls-5" d="M187.23,69.07c-15.78-26.29-38.49-47.29-63.94-59.14S72.7-3.22,52.48,6.34C10.8,26,3.4,86.16,36,140.41A157.47,157.47,0,0,0,75.6,184.82l19.9,56.05,31.87-32.62c15.76,2.63,30.67.89,43.35-5.1C212.39,183.47,219.8,123.31,187.23,69.07ZM170.51,202.71a65.28,65.28,0,0,1-18.91,5.55,79.92,79.92,0,0,1-24.15-.49l-.26,0L95.7,240,76,184.52l-.12-.09a157.57,157.57,0,0,1-39.5-44.27C17.65,109,11.47,73.85,19.84,46.26,25.39,28,36.75,14.31,52.69,6.78a65.38,65.38,0,0,1,19-5.6c16-2.21,33.72,1,51.38,9.19,25.36,11.81,48,32.75,63.72,59,18.73,31.19,24.92,66.3,16.54,93.9C197.8,181.53,186.45,195.18,170.51,202.71Z"/><path class="cls-6" d="M174.45,75.09c-13.11-21.85-32-39.31-53.13-49.16s-42-10.91-58.85-3C27.82,39.3,21.66,89.3,48.73,134.39a130.54,130.54,0,0,0,35.76,39l3.35,2.39,11.77,33.17,18.91-19.34,3.36.68c14.12,2.89,27.55,1.61,38.86-3.72C195.38,170.19,201.54,120.19,174.45,75.09Z"/><path class="cls-7" d="M169.69,122.39c-1.88-6.48-4.84-11.4-5.93-12.21s-2.7-.82-5.33-1.15-15.5-1.9-17.73-1.91a5.87,5.87,0,0,0-2.4.32c-.8.38-1.23,1.19-1.1,2.92.22,3.06-.07,10.31-.19,12.46-.07,1.23-.42,2-1.2,2.37a4.76,4.76,0,0,1-2.53.18,65.31,65.31,0,0,1-22.53-5A100.6,100.6,0,0,1,90,108.28a4.93,4.93,0,0,1-2.18-5.41c.19-1.49.17-3.76.25-5.65a20,20,0,0,0-.57-5A7.14,7.14,0,0,0,84.77,88C83.55,87,72.57,76.57,68,72.5c-3.87-3.42-5.41-2.81-6.81-2.24-.81.32-1.68.73-2.57,1.15l-1.07.5c-1.27.6-2.94,2.18-3.2,5.46S52.77,88.9,60,101s21.06,20.6,23,21.79,29.44,21.08,54.55,21.87c13.94.44,19.59-.82,22.76-2.32A27.7,27.7,0,0,0,164,140.1C167.18,138.06,171.57,128.88,169.69,122.39Z"/></g></g></g></svg>