<svg xmlns="http://www.w3.org/2000/svg" xmlns:xlink="http://www.w3.org/1999/xlink" viewBox="0 0 64.39 50.38"><defs><style>.cls-1{isolation:isolate;}.cls-2{fill:url(#radial-gradient);}.cls-3{mix-blend-mode:overlay;fill:url(#linear-gradient);}.cls-4{fill:url(#linear-gradient-2);}.cls-5{fill:url(#linear-gradient-3);}</style><radialGradient id="radial-gradient" cx="-3192.56" cy="-9.23" r="61.46" gradientTransform="matrix(-1, 0.04, 0.04, 1, -3139.21, 195)" gradientUnits="userSpaceOnUse"><stop offset="0" stop-color="#da334f"/><stop offset="0.68" stop-color="#ff597d"/><stop offset="0.99" stop-color="#ffa19a"/></radialGradient><linearGradient id="linear-gradient" x1="-3162.22" y1="-59.85" x2="-3187.51" y2="-8.46" gradientTransform="matrix(-1, 0.04, 0.04, 1, -3139.21, 195)" gradientUnits="userSpaceOnUse"><stop offset="0.08" stop-color="#fff"/><stop offset="0.16" stop-color="#fff" stop-opacity="0.95"/><stop offset="0.32" stop-color="#fff" stop-opacity="0.8"/><stop offset="0.54" stop-color="#fff" stop-opacity="0.57"/><stop offset="0.8" stop-color="#fff" stop-opacity="0.26"/><stop offset="1" stop-color="#fff" stop-opacity="0"/></linearGradient><linearGradient id="linear-gradient-2" x1="-3174.1" y1="-42.32" x2="-3180.72" y2="-21.24" gradientTransform="matrix(-1, 0.04, 0.04, 1, -3139.21, 195)" gradientUnits="userSpaceOnUse"><stop offset="0" stop-color="#fff"/><stop offset="0.88" stop-color="#ffc2ff"/><stop offset="1" stop-color="#ffb9ff"/></linearGradient><linearGradient id="linear-gradient-3" x1="10.7" y1="15.7" x2="61.78" y2="39.31" gradientUnits="userSpaceOnUse"><stop offset="0" stop-color="#ed1d77"/><stop offset="0.01" stop-color="#e01b77"/><stop offset="0.05" stop-color="#af1479"/><stop offset="0.09" stop-color="#91107a"/><stop offset="0.1" stop-color="#860e7a"/><stop offset="0.19" stop-color="#830d7a"/><stop offset="0.57" stop-color="#810d7a"/><stop offset="0.63" stop-color="#810d7a"/><stop offset="0.73" stop-color="#840d7a"/><stop offset="0.8" stop-color="#8c0f7a"/><stop offset="0.85" stop-color="#9b1179"/><stop offset="0.9" stop-color="#b01478"/><stop offset="0.93" stop-color="#be1678"/><stop offset="0.98" stop-color="#ed1d77"/></linearGradient></defs><g id="Layer_2" data-name="Layer 2"><g id="OBJECTS"><g class="cls-1"><path class="cls-2" d="M1.59,24,10.72,7.64C13.94,1.88,21-1.31,26.42.52L57.31,10.87c5.46,1.83,7.27,8,4.06,13.75L52.24,41C49,46.75,42,49.94,36.54,48.11L5.64,37.76C.19,35.93-1.62,29.78,1.59,24Z"/><path class="cls-3" d="M5.64,37.76l30.9,10.35C42,49.94,49,46.75,52.24,41l9.13-16.37c3.21-5.77,1.4-11.92-4.06-13.75L26.42.52C21-1.31,13.94,1.88,10.72,7.64L1.59,24C-1.62,29.78.19,35.93,5.64,37.76ZM.69,33a10.59,10.59,0,0,1,1-8.91L10.82,7.69A14.92,14.92,0,0,1,22.67.12a10.29,10.29,0,0,1,3.71.5L57.28,11a8,8,0,0,1,5,4.67,10.59,10.59,0,0,1-1,8.91L52.14,40.94a14.93,14.93,0,0,1-11.85,7.57h0a10.29,10.29,0,0,1-3.71-.5L5.68,37.65A7.94,7.94,0,0,1,.69,33Z"/><path class="cls-4" d="M39.75,18.13a.5.5,0,0,1,.23.77L32.23,32.79a.8.8,0,0,1-.88.4.44.44,0,0,1-.23-.18L23.6,22.25c-.24-.34.07-.91.57-1l15.26-3.13a.56.56,0,0,1,.32,0"/><path class="cls-5" d="M62.55,15.21l-1.43-1.76c2.28,2.8,2.53,7.08.25,11.17L52.24,41C49,46.75,42,49.94,36.54,48.11L5.64,37.76a8.22,8.22,0,0,1-3.8-2.58l1.43,1.75a8.12,8.12,0,0,0,3.8,2.58L38,49.87c5.45,1.83,12.48-1.37,15.69-7.13L62.8,26.37C65.08,22.29,64.83,18,62.55,15.21Z"/></g></g></g></svg>