<svg xmlns="http://www.w3.org/2000/svg" viewBox="0 0 534.15 406.59"><defs><style>.cls-1{fill:#8ee4fd;}.cls-11,.cls-14,.cls-17,.cls-18,.cls-2,.cls-20,.cls-5{fill:none;}.cls-2{stroke:#8ee4fd;stroke-width:1.23px;}.cls-11,.cls-2,.cls-6{stroke-miterlimit:10;}.cls-3{fill:#64e4e6;}.cls-4{fill:#2cd0d1;}.cls-11,.cls-17,.cls-20,.cls-5{stroke:#0b334c;}.cls-14,.cls-17,.cls-18,.cls-20,.cls-5{stroke-linecap:round;stroke-linejoin:round;}.cls-5{stroke-width:0.93px;}.cls-25,.cls-6{fill:#fff;}.cls-6{stroke:#1f5b99;}.cls-11,.cls-6{stroke-width:1.15px;}.cls-7{fill:#1f5b99;}.cls-8{fill:#00a2dd;}.cls-9{fill:#fcb13a;}.cls-10{fill:#f64652;}.cls-12{fill:#0b334c;}.cls-13{fill:#114d73;}.cls-14,.cls-18{stroke:#fff;}.cls-14,.cls-17{stroke-width:0.31px;}.cls-15{fill:#184778;}.cls-16{fill:#fa9778;}.cls-18,.cls-20{stroke-width:0.33px;}.cls-19{fill:#ffcba1;}.cls-21{fill:#ffb285;}.cls-22{fill:#84d3eb;}.cls-23{fill:#51bad9;}.cls-24{fill:#cc6f49;}.cls-26{fill:#c4533a;}</style></defs><g id="Layer_2" data-name="Layer 2"><g id="OBJECTS"><path class="cls-1" d="M70.28,401.59a1.23,1.23,0,0,1-1.06-.61c-1.41-2.39-2.85-4.93-4.28-7.55a1.24,1.24,0,1,1,2.17-1.18c1.42,2.59,2.84,5.11,4.23,7.48a1.23,1.23,0,0,1-.43,1.69A1.22,1.22,0,0,1,70.28,401.59Zm440.22-4.7h-.15a1.22,1.22,0,0,1-1.07-1.37c.32-2.58.74-5.4,1.28-8.61a1.23,1.23,0,1,1,2.43.42c-.53,3.17-1,5.95-1.27,8.49A1.22,1.22,0,0,1,510.5,396.89ZM62,386.43a1.25,1.25,0,0,1-1.1-.67c-1.28-2.52-2.58-5.13-3.86-7.77a1.23,1.23,0,0,1,2.22-1.07c1.27,2.62,2.56,5.22,3.84,7.71a1.23,1.23,0,0,1-.54,1.66A1.14,1.14,0,0,1,62,386.43Zm451.34-6.59-.24,0a1.24,1.24,0,0,1-1-1.45c.53-2.75,1.1-5.59,1.7-8.49a1.24,1.24,0,0,1,1.46-.95,1.22,1.22,0,0,1,1,1.45c-.6,2.89-1.17,5.72-1.7,8.46A1.23,1.23,0,0,1,513.33,379.84Zm-458.86-9a1.22,1.22,0,0,1-1.12-.72c-1.19-2.6-2.37-5.26-3.53-7.92a1.24,1.24,0,0,1,2.27-1c1.14,2.64,2.32,5.29,3.5,7.87a1.24,1.24,0,0,1-.61,1.64A1.3,1.3,0,0,1,54.47,370.87Zm462.34-8-.26,0a1.22,1.22,0,0,1-.94-1.46l1.81-8.45a1.22,1.22,0,0,1,1.46-1,1.23,1.23,0,0,1,1,1.46L518,361.93A1.25,1.25,0,0,1,516.81,362.91ZM47.6,355a1.23,1.23,0,0,1-1.14-.76c-1.1-2.67-2.18-5.38-3.22-8.05a1.23,1.23,0,1,1,2.3-.89c1,2.65,2.11,5.35,3.2,8a1.23,1.23,0,0,1-.67,1.61A1.35,1.35,0,0,1,47.6,355Zm472.82-9a1.06,1.06,0,0,1-.25,0,1.23,1.23,0,0,1-.95-1.46c.59-2.85,1.18-5.68,1.74-8.46a1.23,1.23,0,1,1,2.41.49c-.55,2.78-1.14,5.62-1.74,8.48A1.23,1.23,0,0,1,520.42,346ZM41.34,338.91a1.22,1.22,0,0,1-1.15-.81c-1-2.7-2-5.45-2.9-8.16a1.23,1.23,0,1,1,2.33-.8c.93,2.69,1.9,5.42,2.88,8.11a1.24,1.24,0,0,1-.73,1.59A1.29,1.29,0,0,1,41.34,338.91Zm482.46-9.86a.82.82,0,0,1-.22,0,1.23,1.23,0,0,1-1-1.43c.56-3.06,1-5.91,1.44-8.49a1.23,1.23,0,0,1,2.44.38c-.41,2.63-.88,5.43-1.46,8.55A1.21,1.21,0,0,1,523.8,329.05ZM35.72,322.57a1.23,1.23,0,0,1-1.17-.86c-.89-2.78-1.76-5.57-2.56-8.28a1.23,1.23,0,1,1,2.36-.71c.8,2.7,1.66,5.47,2.55,8.24a1.23,1.23,0,0,1-.8,1.55A1.21,1.21,0,0,1,35.72,322.57ZM526.38,312h-.13a1.24,1.24,0,0,1-1.1-1.36c.17-1.68.3-3.25.37-4.68,0-1.18,0-2.46-.09-3.75a1.24,1.24,0,0,1,1.17-1.3,1.23,1.23,0,0,1,1.29,1.18c.07,1.33.1,2.65.1,3.94q-.12,2.28-.39,4.86A1.23,1.23,0,0,1,526.38,312ZM30.81,306a1.22,1.22,0,0,1-1.19-.91c-.77-2.82-1.5-5.64-2.17-8.4a1.24,1.24,0,0,1,2.4-.59c.67,2.74,1.39,5.55,2.15,8.34a1.23,1.23,0,0,1-.87,1.51A1.25,1.25,0,0,1,30.81,306Zm495-11.25a1.23,1.23,0,0,1-1.22-1.06c-.39-2.71-.92-5.53-1.58-8.39a1.24,1.24,0,0,1,2.41-.55c.67,2.92,1.21,5.81,1.61,8.59a1.24,1.24,0,0,1-1,1.4Zm-499.1-5.54a1.23,1.23,0,0,1-1.2-1c-.62-2.88-1.18-5.75-1.67-8.52a1.23,1.23,0,1,1,2.43-.43c.49,2.74,1,5.58,1.65,8.44a1.23,1.23,0,0,1-.95,1.46A1.15,1.15,0,0,1,26.72,289.21ZM522,277.92a1.24,1.24,0,0,1-1.18-.88c-.79-2.63-1.69-5.36-2.69-8.14a1.23,1.23,0,0,1,2.32-.83c1,2.81,1.93,5.59,2.73,8.26a1.22,1.22,0,0,1-.82,1.53A1.13,1.13,0,0,1,522,277.92ZM23.7,272.2a1.24,1.24,0,0,1-1.22-1.07c-.41-2.95-.75-5.85-1-8.63a1.24,1.24,0,0,1,2.46-.23c.25,2.74.59,5.61,1,8.52a1.23,1.23,0,0,1-1.05,1.4Zm492.49-10.54a1.24,1.24,0,0,1-1.14-.77l-.54-1.3c-1-2.18-1.94-4.37-2.91-6.57a1.24,1.24,0,0,1,2.26-1c1,2.2,1.94,4.39,2.92,6.59.19.47.38.91.56,1.35a1.24,1.24,0,0,1-.68,1.61A1.27,1.27,0,0,1,516.19,261.66ZM22.14,255a1.25,1.25,0,0,1-1.24-1.19c0-1.61-.08-3.21-.09-4.77,0-1.33,0-2.65.07-3.95a1.18,1.18,0,0,1,1.28-1.19,1.23,1.23,0,0,1,1.19,1.27c-.05,1.27-.07,2.56-.07,3.87,0,1.53,0,3.1.09,4.68A1.23,1.23,0,0,1,22.18,255Zm487.14-9.16a1.24,1.24,0,0,1-1.14-.75c-1.13-2.65-2.25-5.31-3.34-8a1.23,1.23,0,1,1,2.28-.93q1.64,4,3.33,7.94a1.23,1.23,0,0,1-.65,1.62A1.15,1.15,0,0,1,509.28,245.84ZM23,237.78l-.2,0a1.23,1.23,0,0,1-1-1.42,66.56,66.56,0,0,1,2-8.56,1.24,1.24,0,0,1,2.36.73,65,65,0,0,0-1.94,8.24A1.23,1.23,0,0,1,23,237.78Zm479.79-7.94a1.23,1.23,0,0,1-1.15-.8c-1.08-2.85-2-5.52-2.94-8.16a1.23,1.23,0,0,1,2.34-.79c.89,2.61,1.84,5.25,2.91,8.08a1.23,1.23,0,0,1-.72,1.59A1.11,1.11,0,0,1,502.77,229.84ZM28,221.31a1.14,1.14,0,0,1-.51-.11,1.22,1.22,0,0,1-.61-1.63,68.9,68.9,0,0,1,4.16-7.74,1.23,1.23,0,1,1,2.09,1.3,68.08,68.08,0,0,0-4,7.46A1.22,1.22,0,0,1,28,221.31Zm469.19-7.82a1.24,1.24,0,0,1-1.18-.88c-.84-2.84-1.6-5.66-2.27-8.39a1.24,1.24,0,0,1,2.4-.59c.65,2.69,1.41,5.48,2.24,8.28a1.23,1.23,0,0,1-.83,1.53A1.12,1.12,0,0,1,497.22,213.49ZM37.1,206.68a1.24,1.24,0,0,1-1-2A86.4,86.4,0,0,1,42,198.13a1.24,1.24,0,0,1,1.76,1.74,81.1,81.1,0,0,0-5.66,6.34A1.21,1.21,0,0,1,37.1,206.68Zm456-10a1.22,1.22,0,0,1-1.21-1c-.35-1.82-.66-3.67-.94-5.51-.11-1.12-.19-2.17-.25-3.21a1.25,1.25,0,0,1,1.17-1.3,1.27,1.27,0,0,1,1.3,1.17c.05,1,.13,2,.23,3,.26,1.74.57,3.56.91,5.35a1.23,1.23,0,0,1-1,1.44ZM49.31,194.5a1.21,1.21,0,0,1-.94-.43,1.23,1.23,0,0,1,.13-1.74c2.19-1.86,4.43-3.73,6.68-5.54a1.23,1.23,0,0,1,1.55,1.92c-2.23,1.8-4.46,3.65-6.62,5.5A1.23,1.23,0,0,1,49.31,194.5Zm13.45-10.83a1.23,1.23,0,0,1-1-.49,1.24,1.24,0,0,1,.23-1.73c2.29-1.73,4.65-3.46,7-5.13a1.23,1.23,0,1,1,1.44,2c-2.33,1.67-4.67,3.38-6.93,5.1A1.25,1.25,0,0,1,62.76,183.67ZM492,179.54h-.05a1.23,1.23,0,0,1-1.18-1.29c.13-2.92.36-5.76.6-8.66a1.23,1.23,0,1,1,2.45.21c-.23,2.87-.46,5.68-.59,8.56A1.23,1.23,0,0,1,492,179.54Zm-415.14-5.9a1.25,1.25,0,0,1-1-.54,1.23,1.23,0,0,1,.34-1.71c2.38-1.6,4.82-3.19,7.27-4.73a1.23,1.23,0,1,1,1.31,2.09c-2.42,1.53-4.85,3.1-7.21,4.69A1.22,1.22,0,0,1,76.83,173.64Zm14.61-9.2a1.23,1.23,0,0,1-.63-2.29c2.47-1.46,5-2.91,7.52-4.31a1.23,1.23,0,1,1,1.2,2.15c-2.5,1.39-5,2.83-7.46,4.28A1.22,1.22,0,0,1,91.44,164.44Zm401.79-2.12h-.08A1.23,1.23,0,0,1,492,161c.15-2.44.22-4.63.22-6.68l-.21-1.71a1.24,1.24,0,0,1,1.06-1.38,1.25,1.25,0,0,1,1.39,1.07l.22,1.79a.76.76,0,0,1,0,.15c0,2.12-.07,4.38-.22,6.91A1.24,1.24,0,0,1,493.23,162.32Zm-386.7-6.27a1.23,1.23,0,0,1-.57-2.32c2.52-1.32,5.12-2.64,7.73-3.92a1.24,1.24,0,0,1,1.09,2.22c-2.59,1.27-5.17,2.58-7.68,3.88A1.17,1.17,0,0,1,106.53,156.05Zm15.5-7.61a1.23,1.23,0,0,1-.52-2.35q3-1.4,6.08-2.74l1.08-1.08a1.23,1.23,0,1,1,1.74,1.74l-1.24,1.25a1.39,1.39,0,0,1-.38.25q-3.13,1.38-6.24,2.82A1.22,1.22,0,0,1,122,148.44Zm369.85-3.27a1.23,1.23,0,0,1-1.2-1,47.36,47.36,0,0,0-2.35-8.06,1.24,1.24,0,0,1,.68-1.61,1.25,1.25,0,0,1,1.61.69,49.43,49.43,0,0,1,2.47,8.49,1.23,1.23,0,0,1-1,1.46Zm-355.41-5.83a1.23,1.23,0,0,1-.63-2.3c2.9-1.71,5.19-3.17,7.19-4.59a1.24,1.24,0,0,1,1.43,2c-2.07,1.46-4.41,2.95-7.37,4.69A1.17,1.17,0,0,1,136.47,139.34Zm348.86-10a1.26,1.26,0,0,1-1-.51c-.52-.73-1.09-1.45-1.69-2.15-1.25-1.43-2.56-2.84-3.88-4.18a1.23,1.23,0,1,1,1.75-1.73c1.36,1.37,2.7,2.82,4,4.3.64.75,1.25,1.53,1.82,2.31a1.24,1.24,0,0,1-.27,1.73A1.31,1.31,0,0,1,485.33,129.34Zm-334.92-.11a1.24,1.24,0,0,1-.86-2.12,40.24,40.24,0,0,0,4.88-5.65.93.93,0,0,1,.13-.15q.36-.36.72-.69a1.24,1.24,0,0,1,1.67,1.82q-.28.25-.57.54a44,44,0,0,1-5.11,5.9A1.24,1.24,0,0,1,150.41,129.23Zm12.38-11.93a1.25,1.25,0,0,1-.88-.37,1.23,1.23,0,0,1,0-1.74l.05,0c1.59-1.93,3.35-4.1,5.29-6.56a1.24,1.24,0,0,1,1.73-.2,1.22,1.22,0,0,1,.2,1.73c-2,2.47-3.72,4.66-5.39,6.69l-.13.13A1.25,1.25,0,0,1,162.79,117.3ZM473.3,117a1.24,1.24,0,0,1-.79-.29c-2.15-1.81-4.42-3.55-6.77-5.18a1.24,1.24,0,0,1-.3-1.72,1.23,1.23,0,0,1,1.71-.31c2.41,1.68,4.74,3.47,7,5.32a1.24,1.24,0,0,1,.14,1.74A1.22,1.22,0,0,1,473.3,117Zm-14.14-9.88a1.19,1.19,0,0,1-.62-.17c-2-1.17-4.16-2.32-6.36-3.42l-1.15-.49a1.23,1.23,0,0,1-.66-1.62,1.22,1.22,0,0,1,1.61-.65l1.25.53q3.45,1.72,6.55,3.52a1.23,1.23,0,0,1-.62,2.3Zm-285.62-3.35a1.24,1.24,0,0,1-1-2l1.9-2.45,3.4-4.38a1.23,1.23,0,1,1,1.94,1.52l-3.4,4.37-1.89,2.45A1.26,1.26,0,0,1,173.54,103.78ZM443.45,100A1.22,1.22,0,0,1,443,100c-2.61-.91-5.35-1.79-8.15-2.61a1.23,1.23,0,0,1,.69-2.37c2.84.83,5.63,1.72,8.28,2.65a1.23,1.23,0,0,1-.41,2.4ZM426.9,95.18a1.54,1.54,0,0,1-.3,0c-2.65-.65-5.39-1.27-8.38-1.9a1.24,1.24,0,0,1,.51-2.42c3,.64,5.78,1.27,8.46,1.92a1.24,1.24,0,0,1-.29,2.44ZM410,91.59l-.22,0q-4.23-.78-8.49-1.52a1.23,1.23,0,1,1,.42-2.43q4.28.73,8.52,1.52a1.24,1.24,0,0,1-.23,2.45ZM184.19,90.17a1.2,1.2,0,0,1-.77-.28,1.23,1.23,0,0,1-.19-1.73c2-2.47,3.78-4.66,5.5-6.71a1.24,1.24,0,0,1,1.89,1.6c-1.71,2-3.5,4.2-5.47,6.65A1.21,1.21,0,0,1,184.19,90.17ZM393,88.61h-.21l-8.52-1.48a1.23,1.23,0,0,1-1-1.43,1.22,1.22,0,0,1,1.43-1l8.5,1.47a1.23,1.23,0,0,1-.2,2.45Zm-17-3a.91.91,0,0,1-.23,0c-3-.59-5.82-1.16-8.49-1.75a1.23,1.23,0,0,1,.53-2.41c2.65.58,5.41,1.15,8.43,1.74a1.24,1.24,0,0,1-.24,2.45Zm-16.92-3.46a.82.82,0,0,1-.22,0c-2.83-.51-5.7-1.17-8.52-2a1.23,1.23,0,0,1,.65-2.38c2.76.76,5.56,1.4,8.31,1.91a1.23,1.23,0,0,1-.22,2.44Zm-16.63-4.56a1.31,1.31,0,0,1-.43-.08c-1.9-.69-3.82-1.46-5.71-2.27l-2.36-1.06a1.23,1.23,0,1,1,1-2.24l2.31,1c1.84.79,3.72,1.53,5.58,2.22a1.23,1.23,0,0,1-.42,2.39ZM195.37,77a1.22,1.22,0,0,1-.91-2.06c2.07-2.27,4-4.32,6-6.28a1.23,1.23,0,1,1,1.73,1.76c-2,1.93-3.9,3.95-5.94,6.18A1.23,1.23,0,0,1,195.37,77ZM326.66,70.5a1.25,1.25,0,0,1-.55-.14c-2.57-1.29-5.13-2.63-7.7-4a1.23,1.23,0,0,1,1.15-2.18c2.55,1.34,5.1,2.67,7.66,4a1.24,1.24,0,0,1-.56,2.34Zm-119-5.59a1.22,1.22,0,0,1-.94-.43,1.24,1.24,0,0,1,.14-1.74c2.27-1.94,4.57-3.75,6.86-5.4a1.23,1.23,0,0,1,1.44,2c-2.23,1.61-4.48,3.38-6.7,5.28A1.2,1.2,0,0,1,207.71,64.91Zm103.64-2.43a1.3,1.3,0,0,1-.57-.14c-2.55-1.34-5.09-2.68-7.65-4a1.23,1.23,0,0,1-.54-1.66,1.22,1.22,0,0,1,1.65-.54c2.57,1.3,5.13,2.64,7.69,4a1.23,1.23,0,0,1-.58,2.32Zm-89.63-7.61a1.23,1.23,0,0,1-.62-2.3,85.52,85.52,0,0,1,7.79-4,1.24,1.24,0,0,1,1,2.26,81.67,81.67,0,0,0-7.56,3.87A1.16,1.16,0,0,1,221.72,54.87Zm74.2-.15a1.14,1.14,0,0,1-.51-.11c-2.78-1.29-5.35-2.4-7.86-3.4a1.24,1.24,0,0,1,.91-2.3c2.55,1,5.17,2.15,8,3.46A1.23,1.23,0,0,1,297,54,1.22,1.22,0,0,1,295.92,54.72Zm-16-6.33a1.19,1.19,0,0,1-.37-.06,84.93,84.93,0,0,0-8.22-2.16,1.24,1.24,0,1,1,.5-2.42c2.74.58,5.59,1.32,8.46,2.23a1.23,1.23,0,0,1-.37,2.41Zm-42.43-.54a1.23,1.23,0,0,1-.37-2.41q1.54-.49,3.15-.93c1.77-.49,3.58-.91,5.36-1.24a1.23,1.23,0,0,1,.45,2.42c-1.71.32-3.45.72-5.16,1.19-1,.29-2,.59-3,.91A1.26,1.26,0,0,1,237.45,47.85ZM263,44.91h-.11a63,63,0,0,0-8.46-.19,1.23,1.23,0,1,1-.11-2.46,64.61,64.61,0,0,1,8.79.19,1.23,1.23,0,0,1-.11,2.46Z"/><path class="cls-1" d="M11.1,200.51A5.55,5.55,0,1,1,5.55,195,5.54,5.54,0,0,1,11.1,200.51Z"/><circle class="cls-1" cx="519.97" cy="140.07" r="14.19" transform="translate(110.15 489.4) rotate(-55.52)"/><circle class="cls-2" cx="516.27" cy="119.09" r="15.42"/><circle class="cls-1" cx="162.84" cy="34.59" r="9.87"/><circle class="cls-2" cx="177.02" cy="37.68" r="10.49"/><circle class="cls-2" cx="27.14" cy="170.29" r="6.17"/><circle class="cls-2" cx="517.5" cy="209.15" r="6.78"/><path class="cls-3" d="M392.91,135.13s-3.09-72.16-25.29-90S365.77,121.56,392.91,135.13Z"/><path class="cls-4" d="M386.54,125.66A41.14,41.14,0,0,1,380,92.55c.6-2.49,1.51-5.06,3.47-6.72a9.68,9.68,0,0,1,8-1.71,28.43,28.43,0,0,1,7.81,3.12c-.93-5.66-.76-11.77-.73-17.51,0-4.79.42-9.76,2.72-14S408.23,48.31,413,49c5.45.75,9,6,11.8,10.69a47.39,47.39,0,0,1,10.58-20.86c4.75-5.42,11.95-9.9,18.88-7.92,5.83,1.67,9.67,7.63,10.42,13.65s-1,12-3.33,17.67a99.5,99.5,0,0,1-9.26,17.49c4.26-.46,10.24,0,12.84,3.43C466.78,85.57,467,89,466.24,92c-1.18,4.67-4.42,8.61-8.25,11.53s-8.26,4.93-12.65,6.91c6.38,2.6,10,10.83,7.32,17.16-1.6,3.73-4.85,6.5-8.28,8.65a44.51,44.51,0,0,1-31.45,5.95A41.33,41.33,0,0,1,386.54,125.66Z"/><line class="cls-5" x1="453.76" y1="33.56" x2="406.27" y2="129.99"/><line class="cls-5" x1="410.38" y1="50.83" x2="428.89" y2="83.73"/><line class="cls-5" x1="404.21" y1="54.74" x2="425.8" y2="90.31"/><line class="cls-5" x1="448.21" y1="104.29" x2="419.02" y2="104.7"/><path class="cls-4" d="M398.33,130.52s-33.39-55.13-58.43-59.6S371.27,131.55,398.33,130.52Z"/><line class="cls-5" x1="339.04" y1="75.3" x2="377.28" y2="112.52"/><path class="cls-3" d="M85.53,381.85s-39.06-82.65-5.76-102S91.29,382.27,91.29,382.27Z"/><path class="cls-4" d="M84.3,373.22S62.91,310.3,45.23,310.3s-4.52,33.31,34.13,64.56Z"/><line class="cls-5" x1="41.63" y1="314.62" x2="70.32" y2="359.03"/><path class="cls-4" d="M43,401.59s-13.36-12.75-7.4-24.46,23.23-8,23.23-8-7.61-16,6-23.24,24.68,10.9,24.68,10.9,7.4-20.77,37.21-20.15,28,32.49,28,32.49,7.4-6.79,16.86-.62,0,17.89,0,17.89,9.25,2.67,8.64,15Z"/><path class="cls-6" d="M92.76,97.71h319a8,8,0,0,1,8,8V311.13a0,0,0,0,1,0,0h-335a0,0,0,0,1,0,0V105.7A8,8,0,0,1,92.76,97.71Z"/><path class="cls-7" d="M92.76,97.71h319a8,8,0,0,1,8,8v8.05a0,0,0,0,1,0,0h-335a0,0,0,0,1,0,0V105.7A8,8,0,0,1,92.76,97.71Z"/><circle class="cls-8" cx="331.22" cy="214.44" r="8.02" transform="translate(46.64 487.77) rotate(-76.76)"/><circle class="cls-9" cx="357.54" cy="214.44" r="8.02" transform="translate(-46.91 315.63) rotate(-45)"/><circle class="cls-10" cx="383.86" cy="214.44" r="8.02" transform="translate(-50.4 145.53) rotate(-20.17)"/><rect class="cls-11" x="188.81" y="133.07" width="121.3" height="156.28"/><rect class="cls-6" x="305.54" y="206.69" width="9.03" height="9.03"/><rect class="cls-6" x="305.54" y="284.83" width="9.03" height="9.03"/><rect class="cls-6" x="305.54" y="128.84" width="9.03" height="9.03"/><rect class="cls-6" x="184.25" y="128.84" width="9.03" height="9.03"/><rect class="cls-6" x="183.82" y="206.69" width="9.03" height="9.03"/><rect class="cls-6" x="183.82" y="284.27" width="9.03" height="9.03"/><rect class="cls-6" x="244.94" y="129.12" width="9.03" height="9.03" transform="translate(115.82 383.09) rotate(-90)"/><rect class="cls-6" x="244.94" y="283.14" width="9.03" height="9.03" transform="translate(-38.19 537.11) rotate(-90)"/><path class="cls-9" d="M290.25,188.36a41,41,0,0,0-39.73-41c-22.81-.72-42.25,18-42.37,40.8a40.87,40.87,0,0,0,11.46,28.67,37,37,0,0,1,10.58,25.59V244h38v-1.6a36,36,0,0,1,10.26-25.29A40.9,40.9,0,0,0,290.25,188.36Z"/><path class="cls-12" d="M230.28,243.51h37.83a0,0,0,0,1,0,0v22.24a9.63,9.63,0,0,1-9.63,9.63H239.91a9.63,9.63,0,0,1-9.63-9.63V243.51A0,0,0,0,1,230.28,243.51Z"/><path class="cls-13" d="M266.51,263.33l-35.87-7.26a3.15,3.15,0,0,1-2.52-3.08h0a3.13,3.13,0,0,1,3.76-3.07l35.88,7.26a3.15,3.15,0,0,1,2.51,3.08h0A3.13,3.13,0,0,1,266.51,263.33Z"/><path class="cls-12" d="M266.51,256.93l-35.87-7.26a3.16,3.16,0,0,1-2.52-3.08h0a3.13,3.13,0,0,1,3.76-3.07l35.88,7.26a3.14,3.14,0,0,1,2.51,3.08h0A3.14,3.14,0,0,1,266.51,256.93Z"/><path class="cls-12" d="M266.51,269.73l-35.87-7.26a3.15,3.15,0,0,1-2.52-3.08h0a3.14,3.14,0,0,1,3.76-3.07l35.88,7.26a3.15,3.15,0,0,1,2.51,3.08h0A3.13,3.13,0,0,1,266.51,269.73Z"/><path class="cls-12" d="M253.44,247.17l-2.12-.27c1.81-14.08,4-28.25,6.5-42.3a23,23,0,0,1-8.62,2.89,21.85,21.85,0,0,1-8.23-.35,190,190,0,0,1,8.19,37.28l-2.12.25a188.43,188.43,0,0,0-8.61-38.41,14.12,14.12,0,0,1-2.11-1.16,12.45,12.45,0,0,1-4.89-6.39,2.88,2.88,0,0,1,5.17-2.42,28.37,28.37,0,0,1,2.55,5.56c.33.92.66,1.85,1,2.78a18.4,18.4,0,0,0,8.78.74,20.33,20.33,0,0,0,9.43-3.64q.92-5.08,1.9-10.13a5.32,5.32,0,0,1,1.1-2.67,2.84,2.84,0,0,1,2-.92,2.16,2.16,0,0,1,1.64.61,3,3,0,0,1,.78,1.91,12.18,12.18,0,0,1-.66,5.67,16.34,16.34,0,0,1-4.78,6.65C257.64,217.55,255.34,232.42,253.44,247.17Zm-19.23-50.1a.87.87,0,0,0-.36.08.69.69,0,0,0-.39.9,10.29,10.29,0,0,0,3.92,5.19l-.24-.67a27.15,27.15,0,0,0-2.34-5.15A.69.69,0,0,0,234.21,197.07Zm29.2-6.94a.71.71,0,0,0-.48.23,3.48,3.48,0,0,0-.59,1.65c-.46,2.37-.92,4.75-1.36,7.14a14.37,14.37,0,0,0,2.11-3.72,10.28,10.28,0,0,0,.53-4.69,1.27,1.27,0,0,0-.15-.6Z"/><line class="cls-14" x1="232.54" y1="243.43" x2="268.11" y2="250.94"/><line class="cls-14" x1="230.38" y1="262.25" x2="266.77" y2="269.96"/><path class="cls-12" d="M168.68,301.57h14.57a2.32,2.32,0,0,1,2.32,2.32v17.69a2.4,2.4,0,0,1-2.4,2.4H168.76a2.4,2.4,0,0,1-2.4-2.4V303.89A2.32,2.32,0,0,1,168.68,301.57Z"/><rect class="cls-9" x="166.35" y="308.13" width="11.21" height="10.4"/><path class="cls-9" d="M166.09,302.41v.51a.93.93,0,0,0,.9.93,3.59,3.59,0,0,1,1.55.33c1,.55,1.68,1.62,2.76,2a3.83,3.83,0,0,0,3.25-.75c1.19-.79,2.22-1.86,3.69-2.15a2.57,2.57,0,0,1,1.9.33c1.15.79,1,2.16,1,3.38a8.18,8.18,0,0,0,.4,2.24,3.07,3.07,0,0,0,1,1.58,1.36,1.36,0,0,0,1.74-.09,2,2,0,0,0,.37-1.06,12.93,12.93,0,0,0,0-2.85,4.81,4.81,0,0,1,0-1.56,1.56,1.56,0,0,1,.57-.92,1,1,0,0,0,.43-.77v-1.13a1.21,1.21,0,0,0-1.21-1.2H167.3A1.21,1.21,0,0,0,166.09,302.41Z"/><rect class="cls-15" x="70.43" y="323.86" width="7.4" height="77.61"/><rect class="cls-7" x="42.88" y="323.86" width="7.4" height="77.61"/><rect class="cls-15" x="156.66" y="323.86" width="7.4" height="77.61"/><rect class="cls-7" x="184.2" y="323.86" width="7.4" height="77.61"/><rect class="cls-7" x="43.07" y="323.87" width="148.52" height="7.4"/><path class="cls-16" d="M160.46,264.48c-2.18-1.12-3.13-.58-7.36-1.5-.64-.14-1.44-.28-2.33-.41-1.23,4.92-2.62,9.81-3.51,14.83-.08.46-.15.92-.22,1.38,2.31-.16,4.61-.29,6.92-.37-2,12.95-4.53,28.55-6.39,41.53,1.41.23,2.33,1.21,3.93.62,4.78-8.44,12.47-32.44,13.89-39s1.38-5,1.41-7.05C166.91,267.43,166.06,267.33,160.46,264.48Z"/><line class="cls-17" x1="154.28" y1="277.31" x2="153.97" y2="278.54"/><path class="cls-7" d="M151.93,319.6s-2.52,1.66-4.41,0l-.4,1.1a8.74,8.74,0,0,0-.53,3V324h13.2a2.28,2.28,0,0,0-1.5-2.13Z"/><path class="cls-16" d="M110.82,307.93c-2.22-.3-4.4-.59-6.55-1,.09,1.21.18,2.4.28,3.56-15.17-1.07-38.34,2.43-43.09,3.2l-.88.14-.4,4.09,1.23.16L106,323.79l4.15.53a10.71,10.71,0,0,0,12-9.51l.53-5,0-.43C118.73,309,114.79,308.45,110.82,307.93Z"/><path class="cls-17" d="M104.63,310.61a26.37,26.37,0,0,1,3.93,1.31"/><path class="cls-7" d="M61.45,318s-1.61-2.55.09-4.41l-1.09-.42a8.7,8.7,0,0,0-3-.6h-.31l-.29,13.2h0A2.27,2.27,0,0,0,59,324.33Z"/><path class="cls-10" d="M108.35,260.55s-4.73,12.54-4.73,16.86v31l18.92,2.06,6-29.2,23.44-1.43,3.29-18.51-18.45-3Z"/><line class="cls-17" x1="129.79" y1="271.45" x2="128.55" y2="281.11"/><line class="cls-17" x1="153.12" y1="261.27" x2="149.88" y2="279.23"/><line class="cls-17" x1="104.16" y1="306.22" x2="122.28" y2="308.3"/><line class="cls-17" x1="128.91" y1="278.92" x2="149.96" y2="278"/><path class="cls-17" d="M109.41,263s-3.78,10.1-3.78,14.81-.08,28.52-.08,28.52"/><line class="cls-17" x1="114.11" y1="262.96" x2="107.02" y2="270.75"/><path class="cls-16" d="M167.59,232.6a2.4,2.4,0,0,0-3.26-.62s-.05,0-.07.05l-.07.05c-2.3,1.64-4.7,3.31-7.09,4.87s-4.82,3.13-7.28,4.61c-3.75,2.25-7.56,4.4-11.42,6.26-.36-1-.69-2-1-3-.75-2.34-1.42-4.7-2.06-7.07-.61.34-1.21.67-1.75.92a52.79,52.79,0,0,1-7.91,3c.68,2.16,1.4,4.32,2.22,6.45.44,1.15.91,2.3,1.39,3.44q1,2.51,2.21,5l0,0a4,4,0,0,0,5.27,1.79c.65-.33,1.28-.66,1.91-1,.94-.51,1.88-1,2.79-1.57,1.73-1,3.42-2,5.05-3.13,1.27-.83,2.49-1.7,3.71-2.56s2.42-1.77,3.6-2.68a146.76,146.76,0,0,0,13.33-11.59l.14-.15A2.39,2.39,0,0,0,167.59,232.6Z"/><path class="cls-16" d="M164.1,232.56s1.58-4.27,2.26-4.23.67,2.28.67,2.28,3.91-3.12,4.42-2.78-2.48,3.08-2.48,3.08,2.88-1.73,3.43-1.32-3.07,2.72-3.07,2.72,3.25-1.05,3.53-.36-3.73,1.74-3.73,1.74,2.43-.22,2.53.3-5.23,2.06-5.23,2.06Z"/><path class="cls-7" d="M126.45,245s-6.79-16.27-1.78-19.58,8.48,2.16,8.79,3.62,3.32,13.18,3.32,13.18Z"/><path class="cls-16" d="M125.74,221.1v-9.53h-7.49v9.53a2.08,2.08,0,0,1-2.08,2.08h0c8.5,12.36,11.72,0,11.72,0h-.07A2.08,2.08,0,0,1,125.74,221.1Z"/><path class="cls-12" d="M125.74,217.58v1.58a4,4,0,0,1-1.09-.06,9.17,9.17,0,0,1-5.36-2.82,9.28,9.28,0,0,1-1-1.76v-.24a3.81,3.81,0,0,0,.38.53,9.06,9.06,0,0,0,5.35,2.82A4,4,0,0,0,125.74,217.58Z"/><path class="cls-7" d="M133.33,226.73a15.48,15.48,0,0,0-4-3.24l.55-.46-4-1.44-2.06,6.58-5.52-7.07-4,1.21.62.38a8.22,8.22,0,0,0-7,7.67c-.38,5.56-1,29.07-1.07,33a.47.47,0,0,0,.53.48l20.18-2.22,1.65-2.06,2.26,2.26,9.2-2.83S135.08,229.09,133.33,226.73Z"/><polyline class="cls-17" points="123.78 230.47 123.78 228.15 114.73 222.64"/><line class="cls-17" x1="129.22" y1="223.6" x2="123.79" y2="228.15"/><rect class="cls-17" x="128.57" y="233.71" width="5.36" height="1.04"/><line class="cls-17" x1="129.22" y1="259.42" x2="129.22" y2="251.19"/><rect class="cls-7" x="167.74" y="224.96" width="2.88" height="9.29" rx="0.16" transform="translate(413.17 377.29) rotate(157.57)"/><path class="cls-7" d="M168.15,228.3l-2.54-6.16-6.47,2.67a1.81,1.81,0,0,1-2.36-1l-1.72-4.18a1.81,1.81,0,0,1,1-2.36l6.69-2.76.37.91-6.69,2.76a.81.81,0,0,0-.44.45.77.77,0,0,0,0,.63l1.72,4.18a.83.83,0,0,0,1.08.44l7.37-3,2.92,7.07Z"/><rect class="cls-9" x="157.18" y="210.81" width="19.74" height="5.1" rx="1.03" transform="translate(402.87 346.84) rotate(157.57)"/><path class="cls-16" d="M171.88,231.29a4.13,4.13,0,0,0-.44-1.26c0-.65-.87-1.37-.87-1.37s.38-1-.26-1.31c-.41-.22-1.09.3-1.53.7-.71.43-1.25.78-1.25.78s.2-2.22-.47-2.32-1.8,2.35-2.35,3.46l-.07,0-.06,0c-2.45,1.43-5,2.87-7.5,4.21s-5.09,2.69-7.66,4A133.32,133.32,0,0,1,136,244c-1.89-1.65-3.74-3.38-5.54-5.17-.82-.8-1.62-1.62-2.41-2.44-1.35,1.08-2.68,2.17-4,3.29-.64.72-1.28,1.43-1.9,2.14s-1,1.14-1.48,1.71c1,.9,1.91,1.8,2.9,2.67l1.1,1c1.93,1.66,3.92,3.29,6,4.82l.54.39a5.81,5.81,0,0,0,5.65.65h0c2.25-1,4.44-2,6.58-3.11.55-.3,1.09-.58,1.64-.89,1.34-.7,2.62-1.47,3.93-2.21s2.57-1.55,3.83-2.35a150.3,150.3,0,0,0,14.28-10.35h0a37.19,37.19,0,0,0,3.87-1h0a3.39,3.39,0,0,0,1.25-.37C172.75,232.32,171.88,231.29,171.88,231.29Zm-2.53.8h0Z"/><polygon class="cls-12" points="129.38 237.7 122.54 245.21 124.62 247.06 129.38 237.7"/><path class="cls-17" d="M132.56,246.21a33.47,33.47,0,0,1,3.55-2.21"/><path class="cls-17" d="M137.44,252.68s21-10.89,29.92-18.71l2.11-.51"/><path class="cls-7" d="M122.13,245.77,110.18,232.9s-2.29-5.3,1.38-7.79,7.33.23,8.72,1.85,9.33,10.56,9.33,10.56Z"/><polyline class="cls-17" points="111.87 234.9 122.05 245.93 122.59 245.31"/><line class="cls-17" x1="120.41" y1="244.13" x2="128.45" y2="236.49"/><path class="cls-16" d="M129.73,203.79a7.34,7.34,0,0,0-14.4,2.85l-.15,0a2.07,2.07,0,0,0-1.13,2.68,3.42,3.42,0,0,0,2.78,1.93,14.16,14.16,0,0,0,1.8,3.52,9.06,9.06,0,0,0,5.35,2.82,4,4,0,0,0,3.4-.9,10.58,10.58,0,0,0,2.6-3.15,6.54,6.54,0,0,0,.66-1.94,7.26,7.26,0,0,0,.07-1.29A37,37,0,0,0,129.73,203.79Z"/><path class="cls-12" d="M125.28,207.9c.21.65.44,1.19.59,1.85a2,2,0,0,1,0,1.1,1.14,1.14,0,0,1-.88.65,1.58,1.58,0,0,0,.39-.78,3.68,3.68,0,0,0-.14-.83A3.23,3.23,0,0,1,125.28,207.9Z"/><path class="cls-12" d="M123.43,206.31a5.77,5.77,0,0,0-1.1,0,1.68,1.68,0,0,0-.94.52h0a.13.13,0,0,1-.19,0,.14.14,0,0,1,0-.15,1.61,1.61,0,0,1,.39-.58,1.65,1.65,0,0,1,.64-.37,1.89,1.89,0,0,1,1.4.1.25.25,0,0,1,.11.33.27.27,0,0,1-.24.14Z"/><path class="cls-12" d="M127.08,205.84a1.89,1.89,0,0,1,1.4-.1,1.55,1.55,0,0,1,.63.37,1.63,1.63,0,0,1,.4.58.14.14,0,0,1-.07.18.13.13,0,0,1-.15,0h0a1.65,1.65,0,0,0-.93-.52,5.77,5.77,0,0,0-1.1,0h0a.26.26,0,0,1-.27-.24A.26.26,0,0,1,127.08,205.84Z"/><path class="cls-12" d="M128.64,208.85c0,.59-.3,1.06-.66,1.06s-.66-.47-.66-1.06.3-1.06.66-1.06S128.64,208.27,128.64,208.85Z"/><path class="cls-12" d="M123.35,208.85c0,.59-.3,1.06-.66,1.06s-.66-.47-.66-1.06.3-1.06.66-1.06S123.35,208.27,123.35,208.85Z"/><path class="cls-12" d="M125.16,214.09a1.38,1.38,0,0,1-.53.13,1,1,0,0,1-.52-.16,3,3,0,0,0,.52,0C124.81,214.09,125,214.06,125.16,214.09Z"/><path class="cls-12" d="M126.39,213a2.06,2.06,0,0,1-1.51.83,1.51,1.51,0,0,1-.87-.26,1.77,1.77,0,0,1-.56-.66,2.07,2.07,0,0,0,1.43.61A3.33,3.33,0,0,0,126.39,213Z"/><path class="cls-12" d="M122.68,212.57s-.06-1.15,2.42-1.1c0,0,1.65,0,1.94,1.14C127,212.61,125.83,213.62,122.68,212.57Z"/><path class="cls-12" d="M116.36,202.65l-.06,0a3.24,3.24,0,0,0-3.83,2,2.77,2.77,0,0,0-.12.41,8.08,8.08,0,0,0,1.29,6.66,9.41,9.41,0,0,0,4.61,3.38v-.84a18.06,18.06,0,0,1-1.43-3,3.31,3.31,0,0,1-2.76-1.92,2,2,0,0,1,.19-1.91,1.51,1.51,0,0,1,2.07-.34,2.26,2.26,0,0,1,1,1.22s.87.15,1.18-.21a14.36,14.36,0,0,0,0-2.78A2.81,2.81,0,0,0,116.36,202.65Z"/><path class="cls-12" d="M131.79,205.55a4.17,4.17,0,0,0,0-.5c0-.11,0-.21,0-.33a.22.22,0,0,0,0-.08.28.28,0,0,0,0-.09c-.32-2.83-2.45-2.08-2.45-2.08a9.83,9.83,0,0,1,.37,1,65.78,65.78,0,0,1,1.05,6.87,5.24,5.24,0,0,1,0,.8,11.36,11.36,0,0,0,.71-2.53c.12-.74.27-1.56.35-2.35A5.39,5.39,0,0,0,131.79,205.55Z"/><polygon class="cls-9" points="328.02 375.01 322.69 382.14 328.23 382.14 328.02 375.01"/><polygon class="cls-9" points="371.68 375.01 377.01 382.14 371.47 382.14 371.68 375.01"/><rect class="cls-9" x="328.02" y="375.01" width="43.69" height="23.34"/><polygon class="cls-9" points="374.69 384.6 325.03 384.6 328.02 375.01 371.71 375.01 374.69 384.6"/><polygon class="cls-12" points="371.67 375.08 373.98 382.1 375.91 382.1 371.67 375.08"/><polygon class="cls-12" points="371.67 384.57 328.01 384.57 328.01 388.04 371.67 384.57"/><path class="cls-12" d="M274.76,373.7l2.48,5.95H256.63s-2.27,3.44-4.51,7.66a12.36,12.36,0,0,0,6.26,17.27,27.6,27.6,0,0,0,25.27-2.37c13.68-3.6,31-9.29,36.17-16.06C326.43,377.45,274.76,373.7,274.76,373.7Z"/><path class="cls-18" d="M277,380s-2.75,11,3.09,12.34,27.32-5.39,26.55-11.78"/><line class="cls-18" x1="279.27" y1="379.54" x2="294.37" y2="377.45"/><path class="cls-18" d="M259.77,388.91l9.37.33s.33,11.46-4,11.79S257.46,397.5,259.77,388.91Z"/><path class="cls-18" d="M256.36,381.75a108.1,108.1,0,0,0,20.05.66"/><path class="cls-8" d="M293.69,403.74a2.93,2.93,0,0,1-1-5.6c5.79-2.62,13.49-5.66,16-4.6C312.11,395,304.78,404.52,293.69,403.74Z"/><path class="cls-19" d="M303.84,347.73c-.47-2-1-4-1.17-4.72,0-.11-.07-.23-.1-.33-.45-1.54-.89-3.07-1.38-4.59a151.34,151.34,0,0,0-6.78-17.55c.09-1.6.23-5.15-.2-5.22s-1.23,2.43-1.23,2.43.4-4.4-.39-4.37-.92,3.67-.92,3.67-1-4.48-1.62-4.08.08,3.93.08,3.93-1.65-4-2.18-3.61,1.18,5.44,1.18,5.44-2.24-.81-2.54-.15,2,2.51,3,3.39h0s0,0,0,.07v.08c.81,2.91,1.62,5.91,2.32,8.9s1.37,6,2,9c.32,1.6.61,3.22.88,4.82a123.85,123.85,0,0,1-12.42,1.48c-1,.07-2,.12-3,.17.23,2.56.36,5.14.42,7.73,0,1.06.09,2.11.18,3.16,1.15-.11,2.3-.22,3.45-.37,3.22-.42,6.43-.93,9.63-1.62,1-.23,2.05-.46,3.08-.73s2.88-.81,4.63-1.35A4.66,4.66,0,0,0,303.84,347.73Z"/><path class="cls-20" d="M294.67,344.7a22.24,22.24,0,0,0,1.16,4.79"/><path class="cls-10" d="M281.59,357.51s-18.73,3.41-22.59-1.76,2.32-9.26,3.53-9.37,18-.22,18-.22Z"/><path class="cls-19" d="M269.74,345.15V335h-8v10.18a2.19,2.19,0,0,1-2.07,2.32l-.62.12c11.51,9.5,13-.23,13-.23H272A2.22,2.22,0,0,1,269.74,345.15Z"/><path class="cls-12" d="M269.75,341.21v2.34a7.72,7.72,0,0,1-2.56-1.84,8.1,8.1,0,0,1-.95-1.42,12.34,12.34,0,0,0,3.1.88A2.59,2.59,0,0,0,269.75,341.21Z"/><path class="cls-10" d="M261.17,346.73s9.73.09,10.94.64,6.83,5.95,7.61,9.26-4,13.11-3.42,15,2.69,8,2.69,8H255.81s3-11.45.22-18.29S254,347,261.17,346.73Z"/><path class="cls-19" d="M343.79,382.47c-.09-.65-5.36-1.53-5.36-1.53s1.78-1.59,1.33-2.16-3.13.53-4.37,1l-.07,0-.08,0c-2.95-.67-6-1.38-8.93-2.17s-5.93-1.61-8.85-2.5a135.79,135.79,0,0,1-16.93-6.27,107.84,107.84,0,0,1-15.32-9q-2.47-1.69-4.87-3.5c-.34.63-.68,1.26-1,1.89-1.32,2.55-2.62,5.34-4.11,8q2,1.37,4.15,2.65c2.77,1.67,5.6,3.27,8.53,4.73a92.21,92.21,0,0,0,9.06,3.9c3.1,1.1,6.2,2.09,9.33,2.87,1.55.42,3.12.77,4.68,1.13s3.13.67,4.7.95a155.92,155.92,0,0,0,18.69,2.33c1.38.84,4.41,2.61,4.68,2.27s-1.56-2.23-1.56-2.23,3.68,2.42,4,1.72-2.8-2.55-2.8-2.55,4.42,1.23,4.35.5-3.5-1.78-3.5-1.78S343.87,383.11,343.79,382.47Z"/><path class="cls-10" d="M278.61,369.08s-19.17-8.6-17.4-16.86,9.25-4.52,12-1.54,12,9.14,12,9.14Z"/><path class="cls-20" d="M277,368.42s-11.82-6.95-15.12-11.16"/><line class="cls-20" x1="281.2" y1="356.93" x2="272.28" y2="349.82"/><path class="cls-19" d="M277.43,333.5a2.85,2.85,0,0,0-.47-.45,3.34,3.34,0,0,1-.87-1.2,46.8,46.8,0,0,0-1.18-5.67,7.84,7.84,0,1,0-15,4.56c1.09,3.12,2.4,6.29,3.59,7.64a9.67,9.67,0,0,0,5.82,2.79,4.34,4.34,0,0,0,3.6-1.09,11.29,11.29,0,0,0,2.64-3.47,6.68,6.68,0,0,0,.45-1.28l1.24-.95a.87.87,0,0,0,.26-.28A.6.6,0,0,0,277.43,333.5Z"/><path class="cls-21" d="M272.48,334.85a1.86,1.86,0,1,1-1.86-1.86A1.86,1.86,0,0,1,272.48,334.85Z"/><path class="cls-12" d="M273.86,328.93a5.71,5.71,0,0,0-1.17,0,1.76,1.76,0,0,0-1,.55h0a.14.14,0,0,1-.24-.15,1.74,1.74,0,0,1,.42-.63,1.78,1.78,0,0,1,.68-.39,2,2,0,0,1,1.49.1.27.27,0,0,1,.12.36.27.27,0,0,1-.25.15Z"/><path class="cls-12" d="M273.28,337.05a1.59,1.59,0,0,1-.57-.1c-.16-.1-.36-.18-.45-.37a3.74,3.74,0,0,0,.51.22C272.93,336.9,273.11,336.94,273.28,337.05Z"/><path class="cls-12" d="M275,336.43a2.21,2.21,0,0,1-1.82.19,1.51,1.51,0,0,1-.75-.61,1.81,1.81,0,0,1-.29-.89,2.18,2.18,0,0,0,1.16,1.19A3.69,3.69,0,0,0,275,336.43Z"/><path class="cls-12" d="M274.12,332a3.17,3.17,0,0,0-1.16-.17,5.86,5.86,0,0,0-1.17.23,1.25,1.25,0,0,1,.46-.51,1.34,1.34,0,0,1,.68-.22A1.24,1.24,0,0,1,274.12,332Z"/><path class="cls-12" d="M275.75,323.81a7,7,0,0,0-3-4.18,7.72,7.72,0,0,0-2.84-1A10.24,10.24,0,0,0,263,319.8a13.38,13.38,0,0,0-2,1.43,12.38,12.38,0,0,0-2.15,2.25c-1,1.46-1.29,3.41-1.61,5.18a25.91,25.91,0,0,1-2.88,7.59,19.27,19.27,0,0,0-1.53,3.37,5.57,5.57,0,0,0,0,3.65,4.53,4.53,0,0,0,2.88,2.56,41.63,41.63,0,0,0,5.37.59,5.92,5.92,0,0,0,4.18-1.11c4.68-3.63-1.75-10.88-1.75-10.88-3.85-2.81-.6-4.63-.6-4.63a13,13,0,0,0,2.23.06,3.44,3.44,0,0,1,.52,2.58,12.38,12.38,0,0,0,2.25-3.07,14.72,14.72,0,0,0,6.58-4.25,9.32,9.32,0,0,1,.37,1.05c.21.8.41,1.6.58,2.4A8.22,8.22,0,0,0,275.75,323.81Z"/><polygon class="cls-1" points="308.61 17.68 320.53 24.47 333.07 0 308.61 17.68"/><polygon class="cls-22" points="308.61 17.68 308.2 26.73 315.81 21.79 308.61 17.68"/><polygon class="cls-23" points="308.2 26.73 303.88 16.45 333.07 0 308.61 17.68 308.2 26.73"/><polygon class="cls-1" points="333.07 0 294.01 12.95 303.88 16.45 333.07 0"/><polygon class="cls-1" points="487.15 229.86 442.46 229.86 442.46 178.46 476.12 178.46 487.15 190.47 487.15 229.86"/><polygon class="cls-1" points="476.12 178.46 473.05 190.61 487.15 190.47 476.12 178.46"/><polyline class="cls-5" points="475.97 178.36 473.09 190.7 487.07 190.59"/><path class="cls-8" d="M115.19,81.82a11.71,11.71,0,0,1,9,.94l-8.65-28.59L89.46,62.08a11.72,11.72,0,1,0-20.62,6.24L42.71,76.23l8.66,28.59a11.71,11.71,0,1,1,4.74,15.69l8.66,28.58,26.12-7.9a11.72,11.72,0,1,0,22.86-2.1,11.61,11.61,0,0,0-2.24-4.14L137.63,127,129,98.45a11.72,11.72,0,1,1-13.79-16.63Z"/><line class="cls-5" x1="66.15" y1="145.31" x2="89.28" y2="138.52"/><line class="cls-5" x1="91.75" y1="64.82" x2="114.57" y2="57.57"/><path class="cls-24" d="M447.18,386.27l.76,11.91,4.14-.2s1.11-4.85,2.34-11.71Z"/><path class="cls-12" d="M447.84,397s2.53,1.67,4.44,0l.4,1.1a9.15,9.15,0,0,1,.54,3v.32H439.94a2.24,2.24,0,0,1,1.5-2.14Z"/><path class="cls-24" d="M468,386.27l1.26,12,4.13-.31s.92-4.84,1.93-11.71Z"/><path class="cls-12" d="M469.18,397s2.53,1.67,4.44,0l.4,1.1a8.89,8.89,0,0,1,.53,3v.32H461.27a2.27,2.27,0,0,1,1.5-2.13Z"/><path class="cls-24" d="M443.68,267.26c-.16.37-.31.75-.47,1.12a101.74,101.74,0,0,1-7.67,14.87,129.33,129.33,0,0,1-10.32,13.52q-2.82,3.27-5.78,6.44c-2,2.13-4,4.22-6,6.24l-.06.05a2.4,2.4,0,0,0,3.11,3.64,146.2,146.2,0,0,0,13.89-11.41c1.11-1,2.18-2.07,3.26-3.12s2.13-2.14,3.16-3.26a91.8,91.8,0,0,0,6-7,89.81,89.81,0,0,0,5.25-7.68c1.59-2.63,3-5.33,4.4-8.07.37-.75.71-1.51,1.07-2.26A88.45,88.45,0,0,1,443.68,267.26Z"/><path class="cls-24" d="M413.91,309.43s-4.5.85-4.57,1.53,2.15,1.06,2.15,1.06-3.75,3.35-3.5,3.91,3.47-1.94,3.47-1.94-2.2,2.56-1.88,3.18,3.21-2.59,3.21-2.59-1.58,3.05-1,3.44,2.35-3.41,2.35-3.41-.62,2.38-.12,2.56,2.92-4.85,2.92-4.85Z"/><path class="cls-9" d="M458.43,259.39l-.27.78c-2,5.58-5.17,12.33-5.17,12.33l-.43-.16-3-1.14-1.64-.63h0l-.07,0-4.77-1.82-.42-.16s.66-1.57,1.53-3.74h0c.6-1.49,1.3-3.25,2-5,.06-.17.13-.35.2-.52.22-.58.43-1.15.63-1.7l0,0c.31-.84.6-1.64.83-2.34s.39-1.17.52-1.62a6.2,6.2,0,0,1,2.19-3.21,11.61,11.61,0,0,1,3.86-1.91l.06,0h0l.58-.17h0l.08,0h0c1.18-.16,3.27,2,4.27,4.46a.08.08,0,0,1,0,0,4.68,4.68,0,0,1,.18.48s0,0,0,.06C460,254.23,459.39,256.61,458.43,259.39Z"/><path class="cls-24" d="M465.38,248.87a14.48,14.48,0,0,1-2.36,2.78,7.72,7.72,0,0,1-1.18.87,5.6,5.6,0,0,1-1.06.5,5,5,0,0,1-1.1.22h-.31A3.93,3.93,0,0,1,458,253a5.73,5.73,0,0,1-1.82-1,.18.18,0,0,1-.07-.05,10,10,0,0,1-1.48-1.52c-.2-.26-.38-.51-.52-.73s-.35-.54-.43-.68l-.08-.14h.3a2.12,2.12,0,0,0,1.22-.58.47.47,0,0,0,.1-.1h0a2.09,2.09,0,0,0,.53-1.39v-9.59h7.54v2.71h0v6.87a2.11,2.11,0,0,0,.3,1.08,2,2,0,0,0,.57.61,1.67,1.67,0,0,0,.51.27A1.87,1.87,0,0,0,465.38,248.87Z"/><path class="cls-12" d="M463.29,239.91v.24a8.58,8.58,0,0,1-1.06,1.77,9.14,9.14,0,0,1-5.38,2.84,4.07,4.07,0,0,1-1.1.06v-1.59a4.06,4.06,0,0,0,1.77.05,9.13,9.13,0,0,0,5.39-2.84C463,240.29,463.16,240.11,463.29,239.91Z"/><path class="cls-9" d="M467.89,269.83c-.57,2.28-.85,4.12-.43,5,1.24,2.57,2.27,4.89,2.27,4.89h-24a21.31,21.31,0,0,0,2.4-3.66,14.26,14.26,0,0,0,1.24-3.27h0a7.69,7.69,0,0,0,.21-1.58,5.67,5.67,0,0,0-.25-2l0-.09c-1.19-3.52-2.83-6.49-3.1-9,0-.1,0-.19,0-.28a4.85,4.85,0,0,1,.19-1.83,11.63,11.63,0,0,1,1.49-2.77,32.19,32.19,0,0,1,3.67-4.35c.2-.2.4-.39.59-.56a18.72,18.72,0,0,1,1.56-1.31l.22-.15c.2-.15.4-.27.59-.39h0l.16-.08,0,0,.54-.25v.15a5.8,5.8,0,0,0,.91,3.68l0,.05a2.75,2.75,0,0,0,1.68,1l.14,0a2.62,2.62,0,0,0,1.51-.25l.05,0c2.14-1,3.78-4.39,4-4.83v0c0,.16,0,.45.58.65a2.67,2.67,0,0,0,.56.14,6.71,6.71,0,0,0,.87.06h.25a5.12,5.12,0,0,1,2.49.6,6.17,6.17,0,0,1,3.32,6.1,2.29,2.29,0,0,1,0,.25c-.34,3.31-2.14,8.45-3.31,12.65,0,.21-.11.41-.16.62S468,269.57,467.89,269.83Z"/><path class="cls-12" d="M476.15,353.84c2.29,11.46,1.63,24.78.5,34.75H465.8l-7.1-70.21,0-.32,0,.35-2.34,35.53c1.74,9.56.47,23.93-1,34.65h-9.77c-1.14-18.73-3.14-51.39-4.42-71,0,0,0-.07,0-.11-.22-3.42-.43-6.44-.6-8.91-.2-2.94-.36-5.1-.47-6.26a34.28,34.28,0,0,1,1.18-10.73c.16-.66.33-1.32.51-2,.73-2.68,1.61-5.3,2.47-7.67.22-.6.43-1.17.65-1.73.62-1.66,1.22-3.15,1.71-4.37.59-1.49,1-2.58,1.19-3.13a6.28,6.28,0,0,0,.07-2.19s0-.07,0-.1h0c-.06-.55-.15-1.16-.27-1.79-.3-1.57-.74-3.31-1.17-4.81a8.69,8.69,0,0,1-.21-3.72,7.13,7.13,0,0,1,.18-.8,8.46,8.46,0,0,1,.63-1.7l0,0a8.75,8.75,0,0,1,.69-1.13l4-5.52.43-.6.81-1.13.67-.32h0l.82-.38.24-.11,0,0,.54-.25v.06h0l0,.08-.57,2.16-.29,1.11-1.93,7.32,6,.54.86.08,2.3-6.27.25-.68,1.69-4.57v0l0-.05h0l2,.81,0,.13-.22,1.18-.7,3.92-1.22,6.8,3.76,7.64.33.66.4.83,2.57,5.22s.3.9.88,2.59c1.31,3.79,4,11.53,7.69,21.92C484.37,314.57,476.15,353.84,476.15,353.84Z"/><polyline class="cls-14" points="454.3 248.98 451.14 259.62 459.93 260.31 464.25 248.21"/><line class="cls-14" x1="455.3" y1="320.37" x2="462.4" y2="316.21"/><line class="cls-14" x1="457.08" y1="291.15" x2="475.12" y2="291.15"/><path class="cls-14" d="M469.34,291.23s.61,13.72,7.78,14.41"/><path class="cls-14" d="M472.57,291.23s5,10.79,4.71,16.8-3.86,46.65-3.86,46.65v32"/><path class="cls-14" d="M456.54,319.45l-1.78,34.46s-.45,16.59-1.52,33.25"/><rect class="cls-25" x="371.3" y="248.33" width="80.6" height="80.6" transform="translate(-90.79 270.48) rotate(-32.97)"/><rect class="cls-1" x="379.11" y="256.14" width="64.97" height="64.97" transform="matrix(0.84, -0.54, 0.54, 0.84, -90.79, 270.48)"/><path class="cls-4" d="M450.12,288.32l6.41,9.88L402,333.56l-9.62-14.83c1.89-5.7,5.4-10.93,10.52-14,4.32-2.61,9.41-3.52,14.38-4.39C425.91,298.83,439.94,291.51,450.12,288.32Z"/><path class="cls-9" d="M417,269a7,7,0,1,1-9.67-2.06A7,7,0,0,1,417,269Z"/><polygon class="cls-17" points="423.51 232.87 355.92 276.75 399.55 344.45 467.4 300.65 423.51 232.87"/><path class="cls-24" d="M461.86,267.63c0,1.28,0,2.55,0,3.82q-.07,2.94-.27,5.85c-3.22-.15-6.48-.43-9.73-.79q-4.31-.48-8.59-1.14c-2.86-.41-5.75-.93-8.54-1.45h-.07s0,0-.06,0h0c-.9-.86-3-2.76-3.43-2.51s.34,2.37.34,2.37-4.88-1.2-5.2-.68,3.56,1.77,3.56,1.77-3.36-.37-3.69.24,4,1.19,4,1.19-3.42.42-3.38,1.16,4.14,0,4.14,0-2.31.82-2.18,1.34,3.39,0,4.9-.22h0a146.12,146.12,0,0,0,17,5c1.46.35,2.95.65,4.43.94s3,.56,4.46.77l1.17.17c1,.15,2.42.3,3.88.44a5.79,5.79,0,0,0,6.28-4.71v-.05c.21-1.27.39-2.55.54-3.82.24-1.78.41-3.54.56-5.31.09-1.17.15-2.34.2-3.52A48,48,0,0,1,461.86,267.63Z"/><path class="cls-9" d="M472.76,254.76c0,.46,0,.82,0,1,0,1.08-.38,13.42-.38,13.42h-.24l-4-.14-.62,0-5.63-.2h-.31s1.17-8.68,2.69-15a39,39,0,0,1,1.08-3.83c.16-.44.31-.83.47-1.17C472.12,248.7,472.74,252.74,472.76,254.76Z"/><path class="cls-24" d="M467.51,235a3.43,3.43,0,0,1-2.8,1.94,17.7,17.7,0,0,1-1.42,3h0c-.13.2-.26.38-.38.53a9.13,9.13,0,0,1-5.39,2.84,4.06,4.06,0,0,1-1.77,0,4,4,0,0,1-1.65-.86,10.55,10.55,0,0,1-2.61-3.17,6.4,6.4,0,0,1-.67-2,7.21,7.21,0,0,1-.07-1.29,36.49,36.49,0,0,1,1-6.6,7.38,7.38,0,0,1,14.48,2.86l.16.05A2.07,2.07,0,0,1,467.51,235Z"/><path class="cls-26" d="M458.49,237.46a1.76,1.76,0,1,0,1.75-1.76A1.76,1.76,0,0,0,458.49,237.46Z"/><path class="cls-26" d="M453.39,237.46a1.75,1.75,0,0,1-1.75,1.76h-.15a6.4,6.4,0,0,1-.67-2,7.21,7.21,0,0,1-.07-1.29,1.68,1.68,0,0,1,.89-.25A1.75,1.75,0,0,1,453.39,237.46Z"/><path class="cls-12" d="M456.21,233.48a3.29,3.29,0,0,1,0,2,4.41,4.41,0,0,0-.15.84,1.75,1.75,0,0,0,.4.78,1.1,1.1,0,0,1-.88-.66,2,2,0,0,1,0-1.1C455.76,234.69,456,234.14,456.21,233.48Z"/><path class="cls-12" d="M457.91,231.41a1.91,1.91,0,0,1,1.41-.09,1.63,1.63,0,0,1,.64.36,1.6,1.6,0,0,1,.39.59.14.14,0,0,1-.07.18.12.12,0,0,1-.15,0h0a1.7,1.7,0,0,0-.95-.52,5,5,0,0,0-1.1,0h0a.26.26,0,0,1-.27-.24A.29.29,0,0,1,457.91,231.41Z"/><path class="cls-12" d="M454.24,231.88a5,5,0,0,0-1.1,0,1.67,1.67,0,0,0-.95.52h0a.13.13,0,0,1-.19,0,.16.16,0,0,1,0-.16,1.6,1.6,0,0,1,.39-.59,1.63,1.63,0,0,1,.64-.36,1.91,1.91,0,0,1,1.41.09.26.26,0,0,1,.11.34.27.27,0,0,1-.24.14Z"/><ellipse class="cls-12" cx="453.49" cy="234.45" rx="0.66" ry="1.06"/><path class="cls-12" d="M458.15,234.45c0,.58.3,1.06.67,1.06s.66-.48.66-1.06-.3-1.07-.66-1.07S458.15,233.86,458.15,234.45Z"/><path class="cls-12" d="M457.74,238.46c.16-.1.33-.13.48-.23a2.18,2.18,0,0,0,.47-.21c-.08.18-.26.26-.41.36A1.42,1.42,0,0,1,457.74,238.46Z"/><path class="cls-12" d="M456.15,237.88a3.44,3.44,0,0,0,1.61-.11,2.06,2.06,0,0,0,1.09-1.12,1.85,1.85,0,0,1-.27.84,1.43,1.43,0,0,1-.71.57A2.06,2.06,0,0,1,456.15,237.88Z"/><path class="cls-12" d="M474.92,246.42c-.53-2.55-1.47-5.1-3.55-6.67a9.63,9.63,0,0,0-.21-6.05,7.8,7.8,0,0,0-3.91-4.46c.2-1.46-4.46-10.32-13.88-6.24-2.13.92-3.12,3.46-2.83,6.16a7.74,7.74,0,0,0-2.4,5.26,14.94,14.94,0,0,0,.94,5.83,32.64,32.64,0,0,0,1.26,3.14,4.13,4.13,0,0,0-1.3,2.74,5.58,5.58,0,0,0,.66,3,6.11,6.11,0,0,0,.86,1.28,11.61,11.61,0,0,1,3.86-1.91l.24-.11,0,0a4.23,4.23,0,0,1,.54-.25v.06a2.09,2.09,0,0,0,.53-1.39v-3.54a4,4,0,0,1-1.65-.86,10.55,10.55,0,0,1-2.61-3.17,6.4,6.4,0,0,1-.67-2,7.21,7.21,0,0,1-.07-1.29,28.77,28.77,0,0,1,.58-4.66,6.62,6.62,0,0,0,4.79-2s.75,4.54,6.21,4c0,0-.33,2.25.83,2.42.87.13,2.37-2.32,3.07-3.57l.15.05a2.07,2.07,0,0,1,1.13,2.69,3.43,3.43,0,0,1-2.8,1.94,17.7,17.7,0,0,1-1.42,3h0v6.87a2.11,2.11,0,0,0,.3,1.08l2,.81,0,.13h.25c6.33-.11,6.95,3.93,7,5.95a11.24,11.24,0,0,0,2.4-5.15A10.08,10.08,0,0,0,474.92,246.42Z"/></g></g></svg>