<svg xmlns="http://www.w3.org/2000/svg" viewBox="0 0 2670 2000"><g id="Layer_2" data-name="Layer 2"><g id="Слой_1" data-name="Слой 1"><rect width="2670" height="2000" style="fill:#fff"/><path d="M405,1941.1C223.41,1743.38-24.77,1539.23,72.55,1230.85c64-202.84,221-259.38,351.4-384.46,64.38-61.72,23.89-151.57,22.69-240.74-2.73-228.37,252.13-405.58,486.43-401.88,253.79,4,363.65,259.16,576.54,272.84,83.6,1.28,158.46-47.78,232.42-86.75,219.16-115.48,566.91-41.84,584.48,237.42,4.54,150.82-167.11,393.45,4.87,472.77,137.06,63.22,275.53,86.5,300.23,312.61C2663.94,1708.61,2493,1871,2270.3,1947.2Z" style="fill:#e3eaff"/><path d="M523.74,815.65H776.42a56.63,56.63,0,0,1,56.63,56.63V990.07a56.62,56.62,0,0,1-56.63,56.63h-1.88l20.28,68a3.22,3.22,0,0,1-5,3.48l-93.62-71.43H523.74a56.62,56.62,0,0,1-56.63-56.63V872.28A56.63,56.63,0,0,1,523.74,815.65Z" style="fill:#fff"/><path d="M776.3,914.56H533.71a28,28,0,0,1-28-28h0a28,28,0,0,1,28-28H776.3a28,28,0,0,1,28,28h0A28,28,0,0,1,776.3,914.56Z" style="fill:#e3eaff"/><path d="M776.3,1000.17H533.71a28,28,0,0,1-28-28h0a28,28,0,0,1,28-28H776.3a28,28,0,0,1,28,28h0A28,28,0,0,1,776.3,1000.17Z" style="fill:#e3eaff"/><path d="M2070.1,497.7H1794.54a61.76,61.76,0,0,0-61.77,61.76V687.92a61.77,61.77,0,0,0,61.77,61.76h2l-22.12,74.09a3.52,3.52,0,0,0,5.5,3.8l102.1-77.89h188a61.77,61.77,0,0,0,61.76-61.76V559.46A61.76,61.76,0,0,0,2070.1,497.7Z" style="fill:#fff"/><rect x="1765.4" y="550.21" width="327.29" height="56.06" rx="24.92" style="fill:#e3eaff"/><rect x="1774.38" y="634.97" width="185.99" height="56.06" rx="28.03" style="fill:#e3eaff"/><path d="M231.17,1449.49q15.66-11.84,37.6-11.84c31.57,0,48.28,17.18,48.28,41.32,0,13.92-6.73,28.08-20.42,42.24-17.41,18.34-29.95,27.39-37.84,27.39a13.07,13.07,0,0,1-13.23-13.23c0-6.5,6-13,16.48-22.51a9.92,9.92,0,0,1,1.86-1.63c11.84-10.91,15.55-16.94,15.55-24.37,0-9.29-6.27-14.39-15.32-14.39a50,50,0,0,0-14.86,2.78q-8.7,2.79-12.53,2.79a14.48,14.48,0,0,1-13.93-14.86C222.81,1458.31,225.6,1453.67,231.17,1449.49ZM263,1604.31c-14.16,0-23.68-10.68-23.68-23.67,0-11.15,9.52-21.82,23.68-21.82,12.3,0,21.82,10.67,21.82,21.82C284.79,1593.4,275.74,1604.31,263,1604.31Z" style="fill:#fff"/><path d="M2127.52,928.62q10.29-7.79,24.73-7.79c20.76,0,31.75,11.3,31.75,27.17,0,9.16-4.43,18.47-13.44,27.79-11.44,12.06-19.69,18-24.88,18a8.6,8.6,0,0,1-8.7-8.7c0-4.28,4-8.55,10.84-14.81a6.81,6.81,0,0,1,1.22-1.07c7.79-7.17,10.23-11.14,10.23-16,0-6.1-4.12-9.46-10.08-9.46a32.8,32.8,0,0,0-9.77,1.83,31.31,31.31,0,0,1-8.24,1.83,9.51,9.51,0,0,1-9.16-9.77C2122,934.42,2123.85,931.36,2127.52,928.62Zm20.91,101.82a15.17,15.17,0,0,1-15.57-15.58c0-7.32,6.26-14.34,15.57-14.34a14.63,14.63,0,0,1,14.35,14.34C2162.78,1023.26,2156.83,1030.44,2148.43,1030.44Z" style="fill:#fff"/><path d="M2584.11,1492.77H2294.29a9.28,9.28,0,0,1-9.28-9.28V1234a9.28,9.28,0,0,1,18.56,0v240.19h280.54a9.28,9.28,0,0,1,0,18.56Z" style="fill:#fff"/><path d="M2316.23,1431.79a9.28,9.28,0,0,1-6.67-15.73l93.67-96.89a9.28,9.28,0,0,1,11.72-1.34l44.3,28.73,46.71-54.27a9.27,9.27,0,1,1,14.06,12.1l-52,60.42a9.29,9.29,0,0,1-12.08,1.73l-44.69-29L2322.9,1429A9.25,9.25,0,0,1,2316.23,1431.79Z" style="fill:#fff"/><polygon points="2520.22 1332.07 2507.01 1305.29 2478.56 1296.21 2541.89 1264.76 2520.22 1332.07" style="fill:#fff"/><path d="M637,588.08a56.15,56.15,0,1,1,56.14-56.15A56.21,56.21,0,0,1,637,588.08Zm0-96.82a40.68,40.68,0,1,0,40.68,40.67A40.72,40.72,0,0,0,637,491.26Z" style="fill:#fff"/><path d="M2349.81,1034.92a41.12,41.12,0,1,1,41.12-41.12A41.16,41.16,0,0,1,2349.81,1034.92Zm0-70.92a29.8,29.8,0,1,0,29.79,29.8A29.84,29.84,0,0,0,2349.81,964Z" style="fill:#e3eaff"/><path d="M191,1260.35a36.93,36.93,0,1,1,36.93-36.93A37,37,0,0,1,191,1260.35Zm0-63.68a26.76,26.76,0,1,0,26.76,26.75A26.78,26.78,0,0,0,191,1196.67Z" style="fill:#fff"/><circle cx="2150.18" cy="424.32" r="20.09" transform="translate(1386.92 2478.76) rotate(-80.78)" style="fill:#fff"/><path d="M409.51,796.24A39.5,39.5,0,1,1,370,756.74,39.5,39.5,0,0,1,409.51,796.24Z" style="fill:#e3eaff"/><path d="M2290.3,346.43a29.7,29.7,0,1,1-29.7-29.69A29.7,29.7,0,0,1,2290.3,346.43Z" style="fill:#e3eaff"/><path d="M2435.61,1059.44a25.35,25.35,0,1,1-25.35-25.34A25.35,25.35,0,0,1,2435.61,1059.44Z" style="fill:#e3eaff"/><path d="M2216.21,500a31.6,31.6,0,1,1-31.6-31.6A31.6,31.6,0,0,1,2216.21,500Z" style="fill:#fff"/><path d="M762.87,442.59a32.05,32.05,0,1,1-32-32A32.05,32.05,0,0,1,762.87,442.59Z" style="fill:#fff"/><path d="M2278.69,1958.41H381.42a11.2,11.2,0,0,1-11.2-11.21h0a11.2,11.2,0,0,1,11.2-11.21H2278.69a11.21,11.21,0,0,1,11.21,11.21h0A11.21,11.21,0,0,1,2278.69,1958.41Z" style="fill:#201d40"/><polygon id="v-2" points="1009.02 976.95 1009.05 976.95 1038.18 977.06 1044.77 1045.84 1010.78 1063.79 974.52 1046.04 980.38 977.06 1009.02 976.95" style="fill:#f37a50"/><path d="M929,946.59c17.93,44.79,61,69.69,96.15,55.61s49.16-61.8,31.24-106.58-61-69.69-96.15-55.61S911.09,901.81,929,946.59Z" style="fill:#f37a50"/><path d="M1041.1,910.31a6.59,6.59,0,1,0,1.65-9.17A6.59,6.59,0,0,0,1041.1,910.31Z"/><path d="M991.75,930.46a7.13,7.13,0,1,0,1.78-9.93A7.14,7.14,0,0,0,991.75,930.46Z"/><path d="M1031.1,920.83c8.9,7,20,15.5,20,15.5s.12,10.73-12.43,15.39c4.54-4.12,8.52-9.6,3.8-15.93S1031.1,920.83,1031.1,920.83Z" style="fill:#de623c"/><path d="M978.76,926.17a3.29,3.29,0,0,1-3.2-4c1.15-4.83,6-14,16-14a3.29,3.29,0,0,1,0,6.58c-7.43,0-9.62,8.86-9.64,8.95A3.3,3.3,0,0,1,978.76,926.17Z" style="fill:#201d40"/><path d="M1034.2,896.38a2.66,2.66,0,0,1-1.38-.38,2.74,2.74,0,0,1-1-3.75c.12-.2,3-5,8.44-6,3.72-.69,7.56.53,11.42,3.62a2.74,2.74,0,1,1-3.42,4.28c-2.56-2-4.92-2.9-7-2.51a7.84,7.84,0,0,0-4.71,3.41A2.75,2.75,0,0,1,1034.2,896.38Z" style="fill:#201d40"/><path d="M904.54,913.14c-15.16-43.16,21.76-68,21.76-68s-9.9-.89-11.09-14.8a36.61,36.61,0,0,0,23-.5c49.22-17.82,83.11-17.58,83.11,3.48,0,7.5,32.51,2.36,29.78,52.79.2-3.56-11.42-24.29-22.4-26.36s-1.06,12.6-24,15.75c-23.15,3.18-40.17-2.44-54.3,10.61-11.07,11.38-13.81,69.31-12.13,72.8C934.46,951,911.2,932.11,904.54,913.14Z" style="fill:#201d40"/><path d="M1063.18,920.83s2.09,26.28-1.7,34.41c-3.94-10.54-12.41.63-20.36,1.68-19.22,2.54-53.89-3.87-57.33,25C960.31,989.31,938.31,939,938.31,939c-1.35,56.16,39.75,88,98.89,78.71C1076.17,1011.59,1079.78,957.34,1063.18,920.83Z" style="fill:#201d40"/><path d="M1022.67,974.68a50.09,50.09,0,0,1-11.86-4.65,2.19,2.19,0,0,1,2.06-3.87c9.1,4.86,17.26,6.25,24.24,4.11a22.91,22.91,0,0,0,12.63-10,2.19,2.19,0,0,1,3.88,2,26.86,26.86,0,0,1-15.15,12.12A29.59,29.59,0,0,1,1022.67,974.68Z" style="fill:#de623c"/><path d="M937.76,939.41C947.65,945,952,956,947.43,964.12s-16.25,10.16-26.14,4.6S907.07,952.1,911.62,944,927.87,933.85,937.76,939.41Z" style="fill:#f37a50"/><path d="M936.25,963.66a2.49,2.49,0,0,0,.76-.85c2.72-5,2.27-10.17-1.19-13.73a12,12,0,0,0-13.62-2.49,2.48,2.48,0,1,0,2.24,4.42,7.08,7.08,0,0,1,7.82,1.53c1.93,2,2.07,4.79.38,7.91a2.48,2.48,0,0,0,3.61,3.21Z" style="fill:#de623c"/><path d="M1042.72,1895.52c6.2-16.83,19.44-18.7,19.44-18.7,25.75,35.53,89,13.72,86.89,61.78-96.16-.62-136.12,0-136.12,0,.12-11,2-37.23,4.24-47.49l5,.92Z"/><path d="M898.84,1896.45c6.2-16.83,19.45-18.7,19.45-18.7,25.75,35.53,89,13.73,86.89,61.78-96.16-.62-136.13,0-136.13,0,.13-11,2-37.23,4.25-47.49l5,.92Z"/><path d="M1106.68,1334.43s15.61,227.71,9.27,278.33-28.8,115.53-26.26,283c-31.35,7.85-76.76,0-76.76,0s-6.74-189.33,26.4-273.9c-13.47-82.15-56.71-270.3-56.71-270.3Z" style="fill:#201d40"/><path d="M1047.34,1340.65s-31.52,255.64-46.95,304.13-45.53,89.49-73.47,254.44c-32.21,1.61-62.21,0-62.21,0s4.34-209.24,54.52-256.82c1.69-83.3-8.12-300.1-8.12-300.1Z" style="fill:#2c2858"/><g id="v"><path id="h-5" d="M902,1050.52s54.76-19.16,73-10.37c56.73,27.31,69.74,0,69.74,0,18.13,1.56,72.86,10.37,72.86,10.37,0,61.12,4.08,122.45,3,168.7-.79,40.27,6.89,149.88,6.89,149.88s-60.37,15.82-117.47,16.24c-57.11-.38-115.23-15.6-115.23-15.6s3.05-111,5.58-152.27C899.55,1171.22,902,1111.48,902,1050.52Z" style="fill:#e62552"/></g><g id="c"><path id="c-2" data-name="c" d="M1215,1141.36c-22.6-53.92-89.67-88.22-97.33-90.84l-15.56,69.23a405.51,405.51,0,0,1,55.61,39.66c-4,19.28-3.31,38.18-14.46,62.56,0,0,9.69-13.37,21.64-5.46,11.62,7.69,33-8,33-8S1232.22,1182.54,1215,1141.36Z" style="fill:#c4204a"/></g><g id="c-3" data-name="c"><g id="c-4" data-name="c"><g id="c-5" data-name="c"><path id="c-6" data-name="c" d="M1202.36,1277.62a5.5,5.5,0,0,0,1.18.24h1.28a6.1,6.1,0,0,0,5.2-4.26l60.25-194.25a5.5,5.5,0,0,0,.24-1.18,4.84,4.84,0,0,0,0-.76,3.69,3.69,0,0,0,0-.47,3.14,3.14,0,0,0-.08-.4,6.09,6.09,0,0,0-4.19-4.85,6.24,6.24,0,0,0-1.14-.24,5.74,5.74,0,0,0-1.31,0H1112.13l-60.78,206.41h151.12Z" style="fill:#95a6db"/><path id="c-7" data-name="c" d="M1113.51,1071.69a6.12,6.12,0,0,0-7.66,4L1046,1269.48l-.14.46a6.11,6.11,0,0,0,4,7.63v0a6.12,6.12,0,0,0,7.66-4l60-194.21A6.12,6.12,0,0,0,1113.51,1071.69Z" style="fill:#768fdb"/></g></g><path id="c-8" data-name="c" d="M1228.1,1194.93a5.94,5.94,0,0,1,1.81-.79,2.83,2.83,0,0,0-.2-.28c-3.77-5.7-3.52-12.5.56-15.21a6.73,6.73,0,0,1,2.18-.91c-1.06-4.21-.11-8.24,2.81-10.17a6.86,6.86,0,0,1,3.91-1.09c-1.33-4.14-.27-8.49,3-10.65,4.09-2.71,10-1,13.23,3.9s2.52,11-1.56,13.69a7.68,7.68,0,0,1-3.39,1.22c2.72,5.3,2.17,11.1-1.52,13.54a6.46,6.46,0,0,1-2.18.92c1.07,4.21.11,8.23-2.8,10.16a6.78,6.78,0,0,1-3.62,1.1c1.35,3.62.5,7.52-2.37,9.43-3.45,2.28-8.45.81-11.17-3.3S1224.65,1197.21,1228.1,1194.93Z" style="fill:#f37a50"/><path d="M1041.63,1182.65l13.83-8s3.82-19.61,26-20.08c-2.55,8.22-6.21,20.08-6.21,20.08s10.93,8.48,36.85-6c25.33-5.69,14.51,12.78,22.91,14.11,12.39,2-9,26.31-34.33,30-32.74,4.82-36.62-1.88-36.62-1.88l-18.52,6.47Z" style="fill:#f37a50"/><path id="c-9" data-name="c" d="M913.69,1203.6c46.21-3.23,125-26,125-26,12.62,19.35,9.13,45,9.13,45-71.77,62.92-179.77,83.26-212.91,68.11-30.26-13.82-8.9-198,67.06-240.19h0C928.06,1094.59,913.69,1203.6,913.69,1203.6Z" style="fill:#8a284c"/></g><path d="M1658.48,1878.44c-25.75,34.34-89,13.27-86.89,59.72,96.16-.6,136.12,0,136.12,0-.12-10.67-2-36-4.24-45.91Z"/><path d="M1802.35,1879.33c-25.74,34.35-89,13.28-86.89,59.73,96.16-.6,136.13,0,136.13,0-.13-10.67-2-36-4.25-45.91Z"/><path d="M1614,1354.08s-15.61,220.14-9.26,269.08,28.8,111.68,26.25,273.56c31.35,7.59,76.76,0,76.76,0s6.74-183-26.4-264.8c13.48-79.41,56.72-261.3,56.72-261.3Z" style="fill:#201d40"/><path d="M1673.3,1360.1s31.53,247.14,47,294,45.53,86.51,73.46,246c32.22,1.56,70.61-6.37,70.61-6.37s-12.74-195.91-62.91-241.91c-1.7-80.53,8.11-290.12,8.11-290.12Z" style="fill:#2c2858"/><path d="M1801.7,955.78c-17.09,42.7-58.13,66.43-91.67,53s-46.87-58.91-29.78-101.61,58.13-66.44,91.66-53S1818.78,913.08,1801.7,955.78Z" style="fill:#f37a50"/><path d="M1694.83,921.19a6.28,6.28,0,1,1-1.57-8.74A6.28,6.28,0,0,1,1694.83,921.19Z"/><path d="M1741.88,940.4a6.8,6.8,0,1,1-1.69-9.47A6.8,6.8,0,0,1,1741.88,940.4Z"/><path d="M1704.37,931.22c-8.49,6.69-19.11,14.77-19.11,14.77s-.11,10.24,11.86,14.68c-4.33-3.93-8.13-9.15-3.63-15.19S1704.37,931.22,1704.37,931.22Z" style="fill:#de623c"/><path d="M1754.26,936.3a3.12,3.12,0,0,1-3-2.4c-.09-.34-2.19-8.51-9.19-8.54a3.14,3.14,0,1,1,0-6.27c9.56,0,14.16,8.75,15.26,13.35a3.11,3.11,0,0,1-3.06,3.86Z"/><path d="M1701.41,907.9a2.61,2.61,0,0,1-2.25-1.27,7.55,7.55,0,0,0-4.53-3.28c-2-.35-4.21.46-6.64,2.4a2.61,2.61,0,0,1-3.26-4.08c3.68-2.95,7.34-4.11,10.88-3.45a12.85,12.85,0,0,1,8.05,5.75,2.61,2.61,0,0,1-.93,3.57A2.55,2.55,0,0,1,1701.41,907.9Z"/><path d="M1789.77,960.24c-12.35-39.74,3.27-60.85,3.27-60.85-10.61-2.12-14.73,1.55-14.73,1.55-5.79-11.88-1.3-20.4-1.3-20.4-21.93-8.55-32.85,5.65-52.64,10.44-27.09,6.55-60.56-4.26-63.69-37.33a5.65,5.65,0,0,1,8.81-5.21,24.93,24.93,0,0,0,14.76,4.31,26.57,26.57,0,0,1-6-15.26,5.64,5.64,0,0,1,9.32-4.39c5.63,4.68,16.09,9.11,34.72,5.62,12.4-2.32,40.78-22.18,58.47-18.3,14.45,3.17,25.92,15.47,30.86,33.08,0,0,35.53,3.68,39.1,42.79,3.5,38.42-41,67.9-41,67.9Z"/><path d="M1784.93,953.61c-9.41,5.33-13.5,15.89-9.14,23.59s15.53,9.62,24.94,4.29,13.5-15.89,9.14-23.6S1794.34,948.28,1784.93,953.61Z" style="fill:#f37a50"/><path d="M1786.45,976.72a2.45,2.45,0,0,1-.72-.81c-2.61-4.79-2.21-9.68,1.08-13.09a11.4,11.4,0,0,1,13-2.43,2.37,2.37,0,0,1-2.12,4.23,6.74,6.74,0,0,0-7.46,1.49c-1.83,1.89-2,4.57-.33,7.53a2.37,2.37,0,0,1-3.43,3.08Z" style="fill:#de623c"/><path d="M1687.21,974.32a2,2,0,0,1,2.11-3,165.69,165.69,0,0,0,18.66,2.93,167.87,167.87,0,0,0,18.89.43,2,2,0,0,1,1.55,3.34c-3.61,4-10.85,10-21.58,9.09S1690,979,1687.21,974.32Z" style="fill:#fff"/><path d="M1642.07,1030.26s1.61-4.35-136.78-3.23l-37.1,43.85c38.4,30.79,167,36.26,167,36.26Z" style="fill:#201d40"/><polygon points="1692.36 1026.69 1736 1022.62 1778.23 1034.4 1730.65 1083.36 1692.36 1026.69" style="fill:#95a6db"/><path d="M1707.49,1049.17c17.79,14.6,21.42,24.69,59.21,5.17l5.66-58.09-61.51-4.85Z" style="fill:#f37a50"/><path d="M1789.44,1057.78h0l-12.94-5.12,1.73-18.26-35.88,28.81-10.13,1.61-9.68-3.39-30.18-34.73-1.55,18.28-11.41,2.29h0l-41.16,6.66-4.9,228.45-16.24,77.72c54.62,18.17,115.69,22.7,175.73,14.42l-2-78,42.65-223.26Z" style="fill:#95a6db"/><polygon points="1724.33 1087.9 1698.55 1262.32 1712.82 1282.16 1731.44 1267.86 1737.77 1089.35 1724.33 1087.9" style="fill:#2c2858"/><polygon points="1722.8 1067.31 1732.22 1064.82 1741.82 1069.01 1737.76 1089.69 1724.24 1088.48 1722.8 1067.31" style="fill:#2c2858"/><path d="M1691.76,1028.16l-6.47,210.69-27.89,135.67s-44.1-4.44-71.2-30.23l34.73-102.13,11.87-213.44Z" style="fill:#2c2858"/><polygon points="1691.76 1028.16 1685.33 1236.03 1653.23 1076.72 1691.76 1028.16" style="fill:#494c7f"/><path d="M1781.53,1041.63l-57.27,341.58s76,9.34,107.25-11.21l-17-112.29,20.73-190.63Z" style="fill:#2c2858"/><polygon points="1781.53 1041.63 1748.06 1241.84 1807.99 1090.79 1781.53 1041.63" style="fill:#494c7f"/><path d="M1403.1,840.76c3,10.65,4,22.15,17.47,27.89,0,0-2,35.37-.5,64.38,0,0,32.71-36.89,32.7-36.92-1.87-11.69-3.39-33.81-1.59-46.36.47-3.26,1.11-6.5,1.62-9.77,1.41-7.93,3.74-16.05-1.09-25.62-18.67-37-12.39-49.15-15-51-4.18-1.85-14,5.6-8.45,23.77,5.38,17.58,4,26.21,4,26.21s-14.11-2.66-19.11,2.27C1411,817.91,1399.54,828.3,1403.1,840.76Z" style="fill:#f37a50"/><path d="M1410.69,890.6c19.06-6.35,29.1-9.21,43.93-9.21,35.05,104.45,60,143.81,49.61,173.8-8.69,25-36.18,23-49.61,4.26C1436.88,1034.74,1421.19,940.86,1410.69,890.6Z" style="fill:#201d40"/><polygon points="1835.28 1069.08 1945.7 1241.84 2076.85 1315.89 2036.43 1356.14 1904.85 1298.46 1814.55 1171.05 1835.28 1069.08" style="fill:#201d40"/><path d="M1732.22,1064.82s-16.24,16.4-31.18,20.6l-17.66-46.7,9-12Z" style="fill:#fff"/><path d="M1732.22,1064.82a78.27,78.27,0,0,0,27,25.82l25.7-42.68-6.71-13.56Z" style="fill:#fff"/><g id="с"><path id="с-2" data-name="с" d="M1852.41,1556.64H888.23c-22.66,0-41-12.36-41-27.61h0c0-15.25,18.37-27.61,41-27.61h964.18c22.66,0,41,12.36,41,27.61h0C1893.45,1544.28,1875.07,1556.64,1852.41,1556.64Z" style="fill:#95a6db"/><path d="M1249.6,1945.71h0a13,13,0,0,1-10.9-20.12l254.58-390.13,21.79,14.22L1260.5,1939.81A13,13,0,0,1,1249.6,1945.71Z" style="fill:#95a6db"/><path d="M1491.05,1945.71h0a13,13,0,0,0,10.89-20.12l-254.57-390.13-21.8,14.22,254.58,390.13A13,13,0,0,0,1491.05,1945.71Z" style="fill:#95a6db"/></g><g id="с-3" data-name="с"><path id="с-4" data-name="с" d="M1890.79,1939.53h0a12.46,12.46,0,0,1-12.46-12.46V1706.24h24.93v220.83A12.46,12.46,0,0,1,1890.79,1939.53Z" style="fill:#768fdb"/><path id="с-5" data-name="с" d="M1978.25,1939.53h0a12.46,12.46,0,0,1-12.46-12.46V1706.24h24.92v220.83A12.46,12.46,0,0,1,1978.25,1939.53Z" style="fill:#768fdb"/><path id="с-6" data-name="с" d="M2093,1939.53h0a12.46,12.46,0,0,1-12.47-12.46V1706.24h24.93v220.83A12.46,12.46,0,0,1,2093,1939.53Z" style="fill:#768fdb"/><path id="с-7" data-name="с" d="M2180.46,1939.53h0a12.46,12.46,0,0,1-12.46-12.46V1706.24h24.93v220.83A12.46,12.46,0,0,1,2180.46,1939.53Z" style="fill:#768fdb"/><path id="с-8" data-name="с" d="M2042.56,1378.51V1641.3a5.41,5.41,0,0,1-5.41,5.41H1874.22a29.77,29.77,0,0,0-29.77,29.77h0a29.77,29.77,0,0,0,29.77,29.76h198.11a29.76,29.76,0,0,0,29.76-29.76v-298a29.76,29.76,0,0,0-29.76-29.76h0A29.77,29.77,0,0,0,2042.56,1378.51Z" style="fill:#95a6db"/><rect id="с-9" data-name="с" x="2072.33" y="1348.75" width="128.82" height="302.79" style="fill:#95a6db"/><path id="с-10" data-name="с" d="M2171.38,1378.51V1641.3a5.41,5.41,0,0,1-5.41,5.41H2003a29.77,29.77,0,0,0-29.77,29.77h0a29.77,29.77,0,0,0,29.77,29.76h198.11a29.77,29.77,0,0,0,29.76-29.76v-298a29.77,29.77,0,0,0-29.76-29.76h0A29.77,29.77,0,0,0,2171.38,1378.51Z" style="fill:#768fdb"/></g><g id="с-11" data-name="с"><path id="с-12" data-name="с" d="M837.65,1939.53h0a12.46,12.46,0,0,0,12.46-12.46V1706.24H825.19v220.83A12.46,12.46,0,0,0,837.65,1939.53Z" style="fill:#768fdb"/><path id="с-13" data-name="с" d="M750.19,1939.53h0a12.46,12.46,0,0,0,12.47-12.46V1706.24H737.73v220.83A12.46,12.46,0,0,0,750.19,1939.53Z" style="fill:#768fdb"/><path id="с-14" data-name="с" d="M635.44,1939.53h0a12.46,12.46,0,0,0,12.46-12.46V1706.24H623v220.83A12.46,12.46,0,0,0,635.44,1939.53Z" style="fill:#768fdb"/><path id="с-15" data-name="с" d="M548,1939.53h0a12.46,12.46,0,0,0,12.46-12.46V1706.24H535.52v220.83A12.46,12.46,0,0,0,548,1939.53Z" style="fill:#768fdb"/><path id="с-16" data-name="с" d="M685.88,1378.51V1641.3a5.42,5.42,0,0,0,5.42,5.41H854.23A29.76,29.76,0,0,1,884,1676.48h0a29.76,29.76,0,0,1-29.76,29.76H656.12a29.77,29.77,0,0,1-29.77-29.76v-298a29.77,29.77,0,0,1,29.77-29.76h0A29.76,29.76,0,0,1,685.88,1378.51Z" style="fill:#95a6db"/><rect id="с-17" data-name="с" x="527.3" y="1348.75" width="128.82" height="302.79" transform="translate(1183.42 3000.29) rotate(180)" style="fill:#95a6db"/><path id="с-18" data-name="с" d="M557.06,1378.51V1641.3a5.42,5.42,0,0,0,5.42,5.41H725.41a29.76,29.76,0,0,1,29.76,29.77h0a29.76,29.76,0,0,1-29.76,29.76H527.3a29.76,29.76,0,0,1-29.76-29.76v-298a29.76,29.76,0,0,1,29.76-29.76h0A29.76,29.76,0,0,1,557.06,1378.51Z" style="fill:#768fdb"/></g><path d="M1976.26,1278.09c-27.49-9.92-70-31.6-41.73-71.22s27.5-22.33,17.34-70.46,24.06-86,56.69-76.41,41,36,80.94,29.3,73.22,30.72,58.17,63.15-21.48,48-7.41,66,77.5,37.29,51,80.3-38.58,40.37-29.39,62.41-12,47.15-48.77,43.72-70.05-17.33-83.53-58.38S1976.26,1278.09,1976.26,1278.09Z" style="fill:#2c2858"/><path d="M1879,1903.25l-21.72,6.49L1840.93,1893c.78-1.16,0-12.36-2.5-24.3L1879,1862C1880.63,1874.34,1879,1890.76,1879,1903.25Z" style="fill:#f37a50"/><path d="M1857.45,1905.83c-5.17-13.56-16.21-15.07-16.21-15.07-21.46,28.62-74.16,11.06-72.41,49.77,80.14-.49,113.44,0,113.44,0-.1-8.89-1.69-30-3.54-38.25l-4.17.74Z" style="fill:#e62552"/><path d="M1734.54,1907.29l-22.62,1.54-13-13.85c1-1,3.48-18.11,3.64-30.31l38.12,1.69A353.52,353.52,0,0,1,1734.54,1907.29Z" style="fill:#f37a50"/><path d="M1714.38,1905.83c-5.17-13.56-16.21-15.07-16.21-15.07-21.46,28.62-74.16,11.06-72.41,49.77,80.14-.49,113.44,0,113.44,0-.1-8.89-1.69-30-3.54-38.25l-4.17.74Z" style="fill:#e62552"/><path d="M1963.26,1529.09c-61.74,8.31-235.67,72.77-245.37,84.43-20,24.09-9.47,155.15-19,263.3l50.56,3c24.22-88.07,22.29-126.08,33.24-227.1,0,0,198.71,14.88,270.51-33.59C2127.26,1569.14,2013.19,1517.25,1963.26,1529.09Z" style="fill:#0e6a41"/><path d="M1882.8,1400.69c14.59,2.49,20.21,14.2,23.73,35.76-55.59,32.75-138.17,35.08-138.17,35.08l-26.32-13S1808.26,1434.66,1882.8,1400.69Z" style="fill:#de623c"/><path d="M2034.8,1339.07c-24.33,35.35-117.52,111.37-133,113.76l-18.69-52.3s91-98.49,107.56-115.89C2019.33,1254.43,2074.63,1281.43,2034.8,1339.07Z" style="fill:#de623c"/><path d="M1932.31,1333.41c19.51-21,44.92-68.46,78-65.09s35.45,38.46,25.49,57.35-44.38,65.45-44.38,65.45Z" style="fill:#ff4f78"/><path d="M1938.3,1422.34c14,4.83,22,49,18.08,52.35-60.08,23.79-185.08-1.94-185.08-1.94l-6.64-22.64S1859.31,1444.31,1938.3,1422.34Z" style="fill:#f37a50"/><path d="M2136,1566.2c-13.74-70.88-19.66-96-25.37-129.36-14.1-82.45,27.37-140.39-43.73-179.9l-51.82,8.35c-41.89,44.08-67.69,84.09-69.9,111.73-3,35.65,32.34,55,32.34,55l-14.24,97.07s-3.34,7.92,55.09,19S2136,1566.2,2136,1566.2Z" style="fill:#e62552"/><path d="M2093.39,1349.12c-24.33,35.76-128.28,126.64-143.9,127.45l-11.19-54.23s94.44-110.67,111-128.28C2077.92,1263.51,2133.21,1290.82,2093.39,1349.12Z" style="fill:#f37a50"/><path d="M1994,1349.37c18.15-26.41,54.77-75.14,87.83-71.77s35.45,38.46,25.49,57.35S2063,1400.4,2063,1400.4Z" style="fill:#ff4f78"/><path d="M1764.66,1450.11c-19.11-4.7-60.66-18.66-77.39,25.1,4.19,8,19.58-11.79,26.19-13.63,10.49-2.92,19.49,2.59,27.42,10.18,11.39,10.88,30.42,1,30.42,1Z" style="fill:#f37a50"/><path d="M1749.79,1501H1570.26v-24.11H1773.9A24.11,24.11,0,0,1,1749.79,1501Z" style="fill:#ff4f78"/><path d="M1478,1349.52,1570.26,1501l21.34-11.22L1488.07,1317h0A24.1,24.1,0,0,0,1478,1349.52Z" style="fill:#ff4f78"/><path d="M2090.6,1189.4c-8.73,36.46-39,60.46-67.66,53.61s-44.77-42-36-78.44,39-60.45,67.66-53.6S2099.33,1152.94,2090.6,1189.4Z" style="fill:#f37a50"/><path d="M2076.73,1208.61l-47.59,29.5s-4.22,21-6.33,27.85c-4.35,14.08,12.31,20.24,26.4,11.47s17.67-20.49,17.67-20.49Z" style="fill:#f37a50"/><path d="M1983.62,1150.65c13.53,1.16,42.82-1.18,53.51-13.85,7.62,25.72,40,50.21,66.78,61.69,1.07-26.39.88-75-46.44-95.12C2020.3,1087.52,1983.62,1150.65,1983.62,1150.65Z" style="fill:#2c2858"/><path d="M2000.32,1174.15a5.12,5.12,0,1,1-2.3-6.87A5.13,5.13,0,0,1,2000.32,1174.15Z"/><path d="M2040.54,1184.07a5.54,5.54,0,1,1-2.49-7.43A5.54,5.54,0,0,1,2040.54,1184.07Z"/><path d="M2046.67,1179.48a1.92,1.92,0,0,1-.89-.91c-2.78-6-10.28-7.16-10.36-7.17a1.94,1.94,0,0,1-1.63-2.19,1.92,1.92,0,0,1,2.17-1.63c.4.05,9.65,1.45,13.32,9.37a1.94,1.94,0,0,1-.94,2.56A1.92,1.92,0,0,1,2046.67,1179.48Z" style="fill:#2c2858"/><path d="M1989.15,1166.73a1.85,1.85,0,0,1-.51-.37,1.94,1.94,0,0,1,0-2.73,13.53,13.53,0,0,1,13.44-3.29,1.92,1.92,0,0,1-1.25,3.64,9.7,9.7,0,0,0-9.48,2.4A1.92,1.92,0,0,1,1989.15,1166.73Z" style="fill:#2c2858"/><path d="M2003.61,1185.29c-2.81,2.89-5.27,5.87-8,7.56a2,2,0,0,0-.66,2.7c2.16,3.84,8.49,7,12.37,8.65a.54.54,0,0,0,.57-.9c-3.92-3.44-5.6-6-6.31-7.35a2.42,2.42,0,0,1,0-2.19c.8-1.59,2.4-4.83,3.48-7.5A.91.91,0,0,0,2003.61,1185.29Z" style="fill:#de623c"/><path d="M2076.82,1189.64c-7,5.41-9,14.41-4.58,20.11s13.66,5.92,20.62.51,9-14.42,4.58-20.12S2083.78,1184.22,2076.82,1189.64Z" style="fill:#f37a50"/><path d="M2080.78,1208.1a1.94,1.94,0,0,1-.68-.57c-2.67-3.56-2.92-7.55-.67-10.69a9.29,9.29,0,0,1,10.17-3.49,1.93,1.93,0,1,1-1.21,3.66,5.5,5.5,0,0,0-5.83,2.08c-1.25,1.75-1,3.92.62,6.12a1.93,1.93,0,0,1-.38,2.7A2,2,0,0,1,2080.78,1208.1Z" style="fill:#de623c"/><path d="M2032.35,1540.35c-61.74,8.31-235.94,64.77-245.64,76.43-20,24.09,24.56,127.24,38.82,260h59.6c-.63-94.62,6.93-181.67-22.18-212.51,0,0,167-11.15,250.2-11.15C2155.58,1653.16,2179.06,1509.79,2032.35,1540.35Z" style="fill:#3f964f"/><path d="M2001,1216a1.57,1.57,0,0,1,1.44-2.5,111.38,111.38,0,0,0,29.56,0,1.57,1.57,0,0,1,1.44,2.5c-2.54,3.42-7.78,8.6-16.23,8.59S2003.54,1219.39,2001,1216Z" style="fill:#fff"/><path d="M815.37,1438.39c-11.79,7.85-8.52,50.61-4.07,52.78,61.31,7.49,164.86-43.3,164.86-43.3l4.05-22.72S893.73,1439.63,815.37,1438.39Z" style="fill:#f37a50"/><path d="M680.66,1364.26c21.92,35,117.85,125.67,132.74,127l12.68-51.38S740,1330.72,724.79,1313.29C698.59,1283.06,644.77,1307.1,680.66,1364.26Z" style="fill:#f37a50"/><path d="M733.09,1177c2.64-35.89-7.74-67.59-36.35-83.74-29-16.36-65.33-.31-65.33-.31h0s-30.76-10.94-58.62,19.76-6.79,57.71-18.2,80.1c-6.75,13.26-41.08,16-32.21,59.18,2.56,12.46,17.54,20.84,30.23,21.67,22.29,1.47,43-7.15,52.08,1.47,29.78,28.4,95.77,18.13,105-7.85,2.87-8.06,62.23,7.53,56.31-47.33C763,1192.13,730.73,1209,733.09,1177Z" style="fill:#2c2858"/><polygon points="678.7 1292.98 631.57 1284.28 613.9 1307.79 651.45 1384.79 706.7 1337.91 678.7 1292.98" style="fill:#f37a50"/><path d="M739.79,1478.64c-.81-14.65,22.87-74.82,10.4-105.1-9.07-24.36-24.24-65.26-42.81-72.08-8.76-3.22-17.77-5.46-28.68-8.48,0,0,6.16,30.7-6.68,31.73-24.7,2-40.45-40.43-40.45-40.43-13.32-1.27-74.42,18.8-74.39,23.82.14,39.29,32.07,96.63,42.51,139.12,4.11,45.88-11.9,100.79-12,106,0,0,98.29,27.64,156.55-4.44C745.5,1544.32,740.9,1498.87,739.79,1478.64Z" style="fill:#3f964f"/><path d="M602.52,1506.09s-21.7,54.74-27,89.2,24.57,56.57,24.57,56.57H848.43S875,1608.75,867.36,1579s-25.27-34.5-25.27-34.5Z" style="fill:#3f964f"/><path d="M851.76,1542.94c-31.7-4.47-123.72,31.27-163,108.92H798.57Z" style="fill:#de623c"/><path d="M817,1571.52a87.5,87.5,0,0,0,11.09-15.78c9.26-16.3,31.56-19.06,44.15-5.17,45.77,50.46,143.34,165.49,165.09,179.81,6.15,4,42,24.69,76.1,20.61,0,0,16.83,6.4,5.62,19.77-5.77,6.87-92.41,14-92.41,14l-6.75-25.44c-50.43-37.32-113.21-34.64-166.44-102.87C824.13,1618.85,817,1571.52,817,1571.52Z" style="fill:#de623c"/><path d="M1044.18,1799.41,1079,1822l4.79-5.71L1055.56,1790c16.06-12.67,53.27-2.1,53.27-2.1,12.18-7.87,35.94-33.4,38.39-47.08-7.81-9.72-33.79,10.28-33.79,10.28,1,4.33-7.26,19.34-13.79,21.9-28.39,6.13-56.68-1.94-79.76-13.66C1019.88,1759.3,1000.59,1788.53,1044.18,1799.41Z" style="fill:#e62552"/><path d="M816.48,1578.38a16.4,16.4,0,0,0-12,13.53c-2.48,17.62-15.31,53.28,2,90.63,42.59,91.7,67.74,152.12,72.2,175.78-11.12,20.84,33.24,77.75,33.9,81.48l31.93-10s-18.32-27.25-24.92-37.92c-15.71-25.41-18.28-56.59-20.83-80.76-10.9-103.19,7.84-168.34-66.82-228.87C827.56,1578.67,822,1576.9,816.48,1578.38Z" style="fill:#f37a50"/><path d="M862.82,1902l3.14,41.44,7.45.35,3.82-38.48c19.82,5.09,34,41.09,34,41.09,13.65,4.91,48.36,8.32,60.72,2,3-12.11-28.66-20.64-28.66-20.64-2.87,3.39-19.78,6-25.78,2.32-22.08-18.86-34.08-46.24-38.76-71.71C878.72,1858.32,845,1860.71,862.82,1902Z" style="fill:#e62552"/><path d="M666.79,1254.49l-38.27-5.73,3.05,35.52s7.32,16.09,15.82,17.18L678.7,1293Z" style="fill:#f37a50"/><path d="M593.11,1203.13c9.88,41.26,44.16,68.41,76.56,60.66s50.67-47.5,40.79-88.76-44.16-68.41-76.56-60.65S583.23,1161.87,593.11,1203.13Z" style="fill:#f37a50"/><path d="M695.27,1185.87a5.8,5.8,0,1,0,2.61-7.77A5.79,5.79,0,0,0,695.27,1185.87Z"/><path d="M649.76,1197.1a6.27,6.27,0,1,0,2.82-8.41A6.28,6.28,0,0,0,649.76,1197.1Z"/><path d="M642.82,1191.9a2.15,2.15,0,0,0,1-1c3.14-6.78,11.64-8.1,11.72-8.12a2.18,2.18,0,0,0-.61-4.32c-.45.07-10.91,1.64-15.07,10.61a2.18,2.18,0,0,0,1.06,2.89A2.16,2.16,0,0,0,642.82,1191.9Z" style="fill:#2c2858"/><path d="M707.91,1177.47a2,2,0,0,0,.58-.42,2.17,2.17,0,0,0,0-3.08,15.3,15.3,0,0,0-15.2-3.73,2.18,2.18,0,0,0,1.41,4.13,11,11,0,0,1,10.73,2.7A2.17,2.17,0,0,0,707.91,1177.47Z" style="fill:#2c2858"/><path d="M691.55,1198.47c3.18,3.27,6,6.64,9,8.56a2.3,2.3,0,0,1,.76,3.06c-2.46,4.34-9.61,7.92-14,9.79a.62.62,0,0,1-.65-1c4.43-3.88,6.34-6.74,7.14-8.31a2.8,2.8,0,0,0,0-2.49c-.91-1.79-2.72-5.45-3.94-8.48A1,1,0,0,1,691.55,1198.47Z" style="fill:#de623c"/><path d="M608.71,1203.39c7.87,6.13,10.19,16.32,5.18,22.76s-15.47,6.71-23.34.58-10.19-16.32-5.18-22.76S600.83,1197.27,608.71,1203.39Z" style="fill:#f37a50"/><path d="M604.22,1224.28a2.05,2.05,0,0,0,.77-.64c3-4,3.31-8.54.76-12.09a10.51,10.51,0,0,0-11.51-4,2.18,2.18,0,1,0,1.37,4.14,6.24,6.24,0,0,1,6.6,2.35c1.42,2,1.17,4.44-.7,6.93a2.18,2.18,0,0,0,2.71,3.26Z" style="fill:#de623c"/><path d="M655.73,1231.37a1.73,1.73,0,0,1,1.59-2.77,123.55,123.55,0,0,0,32.75,0,1.74,1.74,0,0,1,1.6,2.77c-2.81,3.79-8.61,9.53-18,9.53S658.53,1235.16,655.73,1231.37Z" style="fill:#fff"/><path d="M592.31,1199.48c38.68-5.18,92.8-44.58,97.24-64.81-7.48-24.29-47.34-36.5-69.85-25.24S575.93,1168.91,592.31,1199.48Z" style="fill:#2c2858"/><path d="M954.14,1492h0a9.8,9.8,0,0,1-6.27-12.36l59.7-182.89a9.8,9.8,0,0,1,12.36-6.28h0a9.81,9.81,0,0,1,6.28,12.37l-59.7,182.89A9.81,9.81,0,0,1,954.14,1492Z" style="fill:#fff"/><path d="M985.86,1426.42,998,1389.16s10.54,21.43,0,41.78-20.58,21.26-20.58,21.26Z" style="fill:#f37a50"/><path d="M968.48,1416.45c-3.08-7.24-10.32-25.33-3.08-25.25s8.43,8.87,8.43,8.87Z" style="fill:#f37a50"/><path d="M370.41,1307.54c16.42-16.56,5.65-33.55,5.65-33.55,9-1.93,56.54,70.07,77,115.83,35.75-36,98.74-84.69,115.77-87.53,0,0,23-6.18,31.24,21.61,7.37,24.79-21.37,42.37-21.37,42.37s-123,86.8-141.14,79.09C409.3,1433.35,383.69,1330,370.41,1307.54Z" style="fill:#f37a50"/><path d="M344.74,1305.49c10,.62,22.44-4.35,26.31,4.65l19.8-9.65,1.2-12c-17-27.26-58.5-35-62.6-35.36-10.67-.93-15.63-2-16.46-.61s-3.45,10.93,12,12.79c19.42,2.33,6.53,17.86-32.89,3.08-9.87-3.71-28.44,1.1-21.72,8.31C277.82,1284.7,299.09,1302.71,344.74,1305.49Z" style="fill:#f37a50"/><path d="M1417.52,750.3a78.63,78.63,0,0,1-4.45,26.1c-14.54,41.74-63.07,72.4-120.72,72.4s-106.17-30.66-120.7-72.4a78.64,78.64,0,0,1-4.46-26.1Z" style="fill:#3f964f"/><path d="M1417.52,750.3a78.63,78.63,0,0,1-4.45,26.1H1171.65a78.64,78.64,0,0,1-4.46-26.1Z" style="fill:#0e6a41"/><path d="M1554.47,328.05c0-144.64-117.15-261.91-261.74-262.11-142.6-.2-259.89,114.72-262.45,257.3a261,261,0,0,0,54.91,165.39c44.72,57.61,69.55,128.18,69.55,201.11V691H1430v-1.28c0-73,25-143.61,69.74-201.36A260.89,260.89,0,0,0,1554.47,328.05Z" style="fill:#ffe91d"/><path d="M1332,661.37a6.53,6.53,0,0,1-2.2-.38,6.71,6.71,0,0,1-4.13-8.53c.31-.89,31.22-89.94,53.68-180.62C1419.17,311.1,1398.68,285,1388,281.2c-31.33-11.09-56.28,5.32-71.69,21a134.1,134.1,0,0,0-12.95,15.51,254.48,254.48,0,0,1,17.78,37.87c13.88,37.08,17.57,71.72,9.87,92.65-5.94,16.15-18.57,24.34-35.56,23.06-16-1.21-27.76-10.49-33.91-26.84-7.06-18.75-6.15-46.32,2.5-75.65a202,202,0,0,1,23.53-51.68c-9.24-14.62-19.95-27.2-31.56-35.67-17.25-12.57-33.45-13.12-48.15-1.63-30.35,23.73-31.52,95.1-3.36,206.38,21.71,85.8,53.56,165.13,53.88,165.92a6.7,6.7,0,0,1-12.43,5c-.32-.8-32.47-80.85-54.41-167.52-30-118.56-27.3-192.7,8.07-220.35,19.42-15.18,42.26-14.7,64.29,1.36,11,8,22,20.12,31.86,34.88a141.47,141.47,0,0,1,11-12.68c25.65-26.16,56.09-34.78,85.73-24.29,18.45,6.53,26,31.37,23.14,75.93-2.12,32.86-10,76.82-23.29,130.63-22.61,91.28-53.7,180.84-54,181.74A6.71,6.71,0,0,1,1332,661.37Zm-36.78-331.08a190.38,190.38,0,0,0-18.31,42.35c-7.73,26.19-8.78,51.29-2.81,67.13,4.3,11.44,11.62,17.39,22.37,18.2,11.1.83,18.08-3.72,22-14.32C1327.34,419.51,1316.56,370.2,1295.23,330.29Z" style="fill:#fff"/><rect x="1128.57" y="658.02" width="327.58" height="100.85" rx="49.39" style="fill:#3f964f"/><path d="M1737.65,338.83H1652a22.09,22.09,0,0,1-22.09-22.09h0A22.09,22.09,0,0,1,1652,294.65h85.7a22.09,22.09,0,0,1,22.09,22.09h0A22.09,22.09,0,0,1,1737.65,338.83Z" style="fill:#ffe91d"/><path d="M932.76,338.83h-85.7A22.09,22.09,0,0,1,825,316.74h0a22.09,22.09,0,0,1,22.09-22.09h85.7a22.09,22.09,0,0,1,22.09,22.09h0A22.09,22.09,0,0,1,932.76,338.83Z" style="fill:#ffe91d"/><path d="M987.23,157.5,919,105.6a22.1,22.1,0,0,1-4.2-30.95h0a22.08,22.08,0,0,1,30.95-4.2L1014,122.34a22.09,22.09,0,0,1,4.2,31h0A22.09,22.09,0,0,1,987.23,157.5Z" style="fill:#ffe91d"/><path d="M1593.12,157.5l68.2-51.9a22.08,22.08,0,0,0,4.2-30.95h0a22.08,22.08,0,0,0-31-4.2l-68.2,51.89a22.1,22.1,0,0,0-4.21,31h0A22.1,22.1,0,0,0,1593.12,157.5Z" style="fill:#ffe91d"/><path d="M987.23,503.37,919,555.27a22.1,22.1,0,0,0-4.2,31h0a22.08,22.08,0,0,0,30.95,4.2L1014,538.53a22.09,22.09,0,0,0,4.2-31h0A22.09,22.09,0,0,0,987.23,503.37Z" style="fill:#ffe91d"/><path d="M1593.12,503.37l68.2,51.9a22.08,22.08,0,0,1,4.2,31h0a22.08,22.08,0,0,1-31,4.2l-68.2-51.89a22.1,22.1,0,0,1-4.21-31h0A22.1,22.1,0,0,1,1593.12,503.37Z" style="fill:#ffe91d"/><path id="Vector_25" data-name="Vector 25" d="M1349.2,1408.54s-19.71-37.18-27.59-76.63c-6.85-33.7-6.53-74-5.69-95.45a4.94,4.94,0,0,1,9.16-2.38c12.41,20.28,34.84,61,39.88,97.86a765.07,765.07,0,0,1,7,76.63Z" style="fill:#3f964f"/><path id="Vector_26" data-name="Vector 26" d="M1369.82,1408.54s13.14-45.46,27.59-75.78c10.51-22,34.42-48.45,46.7-61.22a3.37,3.37,0,0,1,5.75,3c-3.15,16.81-10.44,50-22.35,72.58-16.55,31.45-44.13,61.46-44.13,61.46Z" style="fill:#3f964f"/><path id="Vector_27" data-name="Vector 27" d="M1302.24,1368.21a4.59,4.59,0,0,1,5.56-6.45,78.65,78.65,0,0,1,27,15.67c14.7,13.36,17.44,28.58,17.44,28.58l-5.06,1.7S1319.83,1402.72,1302.24,1368.21Z" style="fill:#0e6a41"/><path id="Vector_28" data-name="Vector 28" d="M1405.1,1261.91a5,5,0,0,0-9.13-2.58c-10.26,14.28-27.48,42.42-33.12,76.91-7,43,1.16,72.33,1.16,72.33h5.81s21.39-40.54,29.73-68C1407.42,1314.66,1406.41,1280.24,1405.1,1261.91Z" style="fill:#0e6a41"/><path id="Vector_29" data-name="Vector 29" d="M1383.38,1408.54s12.3-41,54.4-56.58a3,3,0,0,1,3.82,4c-5.55,13.54-21.37,45.88-48.09,52.6Z" style="fill:#0e6a41"/><path id="Vector_23" data-name="Vector 23" d="M1420.64,1401.61H1323.2l12.51,99.83h72.42Z" style="fill:#768fdb"/><path d="M1315.87,1479.67V1494h3.9a3.43,3.43,0,0,1,3.43,3.43v.58a3.43,3.43,0,0,1-3.43,3.43H1153.51a4,4,0,0,1-4-4v-20.64a4,4,0,0,1,4-4h166.26a3.42,3.42,0,0,1,3.43,3.43h0a3.42,3.42,0,0,1-3.43,3.42Z" style="fill:#e62552"/><path d="M1170.95,1479.68h145.42a0,0,0,0,1,0,0V1494a0,0,0,0,1,0,0H1170.95a2.91,2.91,0,0,1-2.91-2.91v-8.5A2.91,2.91,0,0,1,1170.95,1479.68Z" style="fill:#fff"/><path d="M1134.82,1448.74v15.85h-3.9a3.62,3.62,0,0,0-3.43,3.8v.64a3.62,3.62,0,0,0,3.43,3.79h166.26a4.22,4.22,0,0,0,4-4.42v-22.83a4.22,4.22,0,0,0-4-4.42H1130.92a3.62,3.62,0,0,0-3.43,3.8h0a3.62,3.62,0,0,0,3.43,3.79Z" style="fill:#3f964f"/><path d="M1137.39,1448.74h145.27a0,0,0,0,1,0,0v15.85a0,0,0,0,1,0,0H1137.39a3.06,3.06,0,0,1-3.06-3.06v-9.73A3.06,3.06,0,0,1,1137.39,1448.74Z" transform="translate(2416.98 2913.33) rotate(180)" style="fill:#fff"/><rect x="1141.04" y="1400.75" width="163.74" height="25.71" rx="6.06" style="fill:#e62552"/><rect x="1151.74" y="1426.46" width="163.74" height="14.69" rx="4.58" style="fill:#768fdb"/></g></g></svg>