<svg xmlns="http://www.w3.org/2000/svg" viewBox="0 0 500 372.06"><g id="Layer_2" data-name="Layer 2"><g id="Background_Complete" data-name="Background Complete"><rect x="322.53" y="346.26" width="8.69" height="0.25" style="fill:#ebebeb"/><rect x="396.59" y="334.26" width="19.19" height="0.25" style="fill:#ebebeb"/><rect x="52.46" y="335.94" width="43.19" height="0.25" style="fill:#ebebeb"/><rect x="104.56" y="335.94" width="6.33" height="0.25" style="fill:#ebebeb"/><rect x="131.47" y="340.16" width="93.68" height="0.25" style="fill:#ebebeb"/><path d="M238.4,282.85H45.3a5.71,5.71,0,0,1-5.71-5.71V5.71A5.71,5.71,0,0,1,45.3,0H238.4a5.71,5.71,0,0,1,5.71,5.71V277.14A5.71,5.71,0,0,1,238.4,282.85ZM45.3.25a5.47,5.47,0,0,0-5.46,5.46V277.14a5.47,5.47,0,0,0,5.46,5.46H238.4a5.47,5.47,0,0,0,5.46-5.46V5.71A5.47,5.47,0,0,0,238.4.25Z" style="fill:#ebebeb"/><path d="M454.7,282.85H261.6a5.71,5.71,0,0,1-5.71-5.71V5.71A5.71,5.71,0,0,1,261.6,0H454.7a5.71,5.71,0,0,1,5.71,5.71V277.14A5.71,5.71,0,0,1,454.7,282.85ZM261.6.25a5.47,5.47,0,0,0-5.46,5.46V277.14a5.47,5.47,0,0,0,5.46,5.46H454.7a5.47,5.47,0,0,0,5.46-5.46V5.71A5.47,5.47,0,0,0,454.7.25Z" style="fill:#ebebeb"/><rect y="327.45" width="500" height="0.25" style="fill:#ebebeb"/><polygon points="130.68 63.48 137.97 58.8 141.95 66.51 150.61 66.1 150.21 74.76 157.91 78.74 153.23 86.04 157.91 93.34 150.21 97.32 150.61 105.98 141.95 105.58 137.97 113.28 130.68 108.6 123.38 113.28 119.4 105.58 110.74 105.98 111.14 97.32 103.44 93.34 108.12 86.04 103.44 78.74 111.14 74.76 110.74 66.1 119.4 66.51 123.38 58.8 130.68 63.48" style="fill:#e6e6e6"/><path d="M127.91,97.18l-8.67-8.67a2.54,2.54,0,0,1,0-3.59h0a2.52,2.52,0,0,1,3.59,0L127.91,90l10.61-10.6a2.52,2.52,0,0,1,3.59,0h0a2.54,2.54,0,0,1,0,3.59Z" style="fill:#fafafa"/><polygon points="401.86 140.03 407.58 136.36 410.7 142.4 417.5 142.08 417.18 148.87 423.22 151.99 419.55 157.72 423.22 163.44 417.18 166.56 417.5 173.35 410.7 173.03 407.58 179.07 401.86 175.41 396.14 179.07 393.02 173.03 386.23 173.35 386.54 166.56 380.5 163.44 384.17 157.72 380.5 151.99 386.54 148.87 386.23 142.08 393.02 142.4 396.14 136.36 401.86 140.03" style="fill:#e6e6e6"/><path d="M399.69,166.45l-6.8-6.8a2,2,0,0,1,0-2.82h0a2,2,0,0,1,2.82,0l4,4L408,152.5a2,2,0,0,1,2.82,0h0a2,2,0,0,1,0,2.81Z" style="fill:#fafafa"/><path d="M131.41,236l11.15,5.69a4.74,4.74,0,0,0,5.62-1l8.53-9.15a4.71,4.71,0,0,0,1.2-4l-4.43-25.16a7.56,7.56,0,0,0-8.76-6.13l-14.12,2.49a7.56,7.56,0,0,0-6.13,8.76l4.43,25.15A4.77,4.77,0,0,0,131.41,236Zm12.7-1.95a2.38,2.38,0,1,1-1.92,2.75A2.37,2.37,0,0,1,144.11,234.08Z" style="fill:#e6e6e6"/><rect x="131.59" y="223.99" width="21.91" height="2.37" transform="translate(322.02 422.18) rotate(170)" style="fill:#fafafa"/><rect x="127.93" y="203.25" width="21.91" height="2.37" transform="translate(311.16 381.65) rotate(170)" style="fill:#fafafa"/><path d="M169.52,73.19l7.68,8.23a4.25,4.25,0,0,0,5.05.89l10-5.11a4.27,4.27,0,0,0,2.26-3l4-22.62A6.8,6.8,0,0,0,193,43.66l-12.69-2.24a6.81,6.81,0,0,0-7.88,5.51l-4,22.62A4.23,4.23,0,0,0,169.52,73.19Zm11.33,2.26a2.14,2.14,0,1,1-2.47,1.73A2.13,2.13,0,0,1,180.85,75.45Z" style="fill:#f0f0f0"/><rect x="172.41" y="66.38" width="19.7" height="2.13" transform="translate(350.05 165.51) rotate(-170)" style="fill:#fafafa"/><rect x="175.7" y="47.73" width="19.7" height="2.13" transform="matrix(-0.98, -0.17, 0.17, -0.98, 359.81, 129.07)" style="fill:#fafafa"/><path d="M355.38,48.79h0a9.35,9.35,0,0,0-13-2.29l-4,2.77-2.78-4a9.34,9.34,0,0,0-13-2.3h0a9.34,9.34,0,0,0-2.3,13l13.51,19.3,19.3-13.51A9.36,9.36,0,0,0,355.38,48.79Z" style="fill:#ebebeb"/><path d="M383.12,50.59h0a4.58,4.58,0,0,0-6.38-1.12l-1.94,1.36-1.36-1.94a4.58,4.58,0,0,0-6.38-1.13h0a4.58,4.58,0,0,0-1.12,6.38l6.61,9.45L382,57A4.57,4.57,0,0,0,383.12,50.59Z" style="fill:#ebebeb"/><path d="M87.36,142.41A25.32,25.32,0,0,0,70,173.73c2.51,8.73,17.82,23.36,28.24,32.55A8.5,8.5,0,0,0,112,202.34c4-13.32,9.19-33.84,6.69-42.57A25.31,25.31,0,0,0,87.36,142.41ZM97.56,178a11.69,11.69,0,1,1,8-14.45A11.68,11.68,0,0,1,97.56,178Z" style="fill:#e0e0e0"/><path d="M91.32,141.27A25.33,25.33,0,0,0,74,172.59c2.51,8.73,17.82,23.37,28.24,32.55A8.49,8.49,0,0,0,116,201.2c4-13.31,9.19-33.84,6.69-42.57A25.32,25.32,0,0,0,91.32,141.27Zm10.2,35.57a11.68,11.68,0,1,1,8-14.45A11.68,11.68,0,0,1,101.52,176.84Z" style="fill:#f5f5f5"/><path d="M382.91,78.08a22,22,0,0,0-27.27,15.11c-2.18,7.6,2.37,25.47,5.83,37.07a7.39,7.39,0,0,0,12,3.43c9.08-8,22.41-20.74,24.59-28.35A22,22,0,0,0,382.91,78.08Zm-8.88,31a10.17,10.17,0,1,1,12.59-7A10.18,10.18,0,0,1,374,109.05Z" style="fill:#e0e0e0"/><path d="M386.36,79.06a22.06,22.06,0,0,0-27.27,15.12c-2.18,7.6,2.37,25.47,5.83,37.07a7.4,7.4,0,0,0,12,3.43c9.07-8,22.4-20.74,24.58-28.35A22,22,0,0,0,386.36,79.06Zm-8.88,31a10.17,10.17,0,1,1,12.58-7A10.18,10.18,0,0,1,377.48,110Z" style="fill:#f5f5f5"/></g><g id="Shadow"><ellipse id="_Path_" data-name="&lt;Path&gt;" cx="250" cy="360.74" rx="193.89" ry="11.32" style="fill:#f5f5f5"/></g><g id="Device"><path d="M188.5,132.92h10.7a3.75,3.75,0,0,1,3.79,4.15l-2,22.57a4.62,4.62,0,0,1-4.51,4.15H185.8a3.75,3.75,0,0,1-3.79-4.15l2-22.57A4.62,4.62,0,0,1,188.5,132.92Z" style="fill:#407bff"/><path d="M308.2,128.1h16.72a5.85,5.85,0,0,1,5.92,6.48l-2.06,23.57a7.22,7.22,0,0,1-7,6.48H305a5.85,5.85,0,0,1-5.91-6.48l2.06-23.57A7.22,7.22,0,0,1,308.2,128.1Z" style="isolation:isolate;opacity:0.2"/><path d="M304.77,167.26H321.5a5.84,5.84,0,0,1,5.91,6.48l-2.06,23.57a7.21,7.21,0,0,1-7.05,6.48H301.58a5.85,5.85,0,0,1-5.92-6.48l2.07-23.57A7.2,7.2,0,0,1,304.77,167.26Z" style="isolation:isolate;opacity:0.2"/><path d="M218.51,83.91h93.16a21.14,21.14,0,0,1,21.39,23.44L313.18,334.52A26.09,26.09,0,0,1,287.69,358H194.53a21.14,21.14,0,0,1-21.39-23.44L193,107.35A26.09,26.09,0,0,1,218.51,83.91Z" style="fill:#407bff"/><path d="M218.51,83.91h93.16a21.14,21.14,0,0,1,21.39,23.44L313.18,334.52A26.09,26.09,0,0,1,287.69,358H194.53a21.14,21.14,0,0,1-21.39-23.44L193,107.35A26.09,26.09,0,0,1,218.51,83.91Z" style="isolation:isolate;opacity:0.2"/><path d="M215.5,83.91h93.17a21.14,21.14,0,0,1,21.39,23.44L310.18,334.52A26.09,26.09,0,0,1,284.69,358H191.53a21.13,21.13,0,0,1-21.39-23.44L190,107.35A26.1,26.1,0,0,1,215.5,83.91Z" style="fill:#407bff"/><path d="M327.26,107.35,307.39,334.52a23,23,0,0,1-22.46,20.64H191.77a18.61,18.61,0,0,1-18.84-20.64l19.88-227.17a23,23,0,0,1,22.45-20.64h93.16A18.61,18.61,0,0,1,327.26,107.35Z" style="fill:#fff"/><g style="opacity:0.1"><path d="M191.77,355.16h35.32L284.15,86.71h-45L182.57,352.88A19.32,19.32,0,0,0,191.77,355.16Z"/><polygon points="305.75 86.71 297.19 86.71 240.12 355.16 248.69 355.16 305.75 86.71"/></g><path d="M234.53,86a6,6,0,0,0,6,6.62h41.5A7.39,7.39,0,0,0,289.26,86Z" style="fill:#407bff"/><path d="M306.73,94h9.42a1.29,1.29,0,0,1,1.3,1.42l-.36,4.11a1.59,1.59,0,0,1-1.55,1.42h-9.42a1.28,1.28,0,0,1-1.3-1.42l.36-4.11A1.59,1.59,0,0,1,306.73,94Z" style="fill:#407bff"/><path d="M206.15,94h12.61a1.46,1.46,0,0,1,1.47,1.61l-.33,3.74a1.79,1.79,0,0,1-1.75,1.6H205.54a1.45,1.45,0,0,1-1.46-1.6l.32-3.74A1.79,1.79,0,0,1,206.15,94Z" style="fill:#407bff;isolation:isolate"/><path d="M206.15,94h12.61a1.46,1.46,0,0,1,1.47,1.61l-.33,3.74a1.79,1.79,0,0,1-1.75,1.6H205.54a1.45,1.45,0,0,1-1.46-1.6l.32-3.74A1.79,1.79,0,0,1,206.15,94Z" style="fill:#fff;isolation:isolate;opacity:0.4"/><path d="M304.22,95.21h1.48a.47.47,0,0,1,.48.52l-.31,3.53a.59.59,0,0,1-.57.53h-1.48a.48.48,0,0,1-.48-.53l.31-3.53A.58.58,0,0,1,304.22,95.21Z" style="fill:#407bff"/><path d="M314.28,95.21h1.49a.47.47,0,0,1,.47.52l-.31,3.53a.58.58,0,0,1-.56.53h-1.49a.47.47,0,0,1-.47-.53l.31-3.53A.57.57,0,0,1,314.28,95.21Z" style="fill:#fff"/><path d="M311.09,95.21h1.49a.47.47,0,0,1,.47.52l-.31,3.53a.58.58,0,0,1-.56.53h-1.49a.47.47,0,0,1-.47-.53l.31-3.53A.57.57,0,0,1,311.09,95.21Z" style="fill:#fff"/><path d="M327.83,158l-2,23.23a4.64,4.64,0,0,0,3.74-4.08l1.32-15.08A3.72,3.72,0,0,0,327.83,158Z" style="fill:#407bff"/><path d="M327.83,158l-2,23.23a4.64,4.64,0,0,0,3.74-4.08l1.32-15.08A3.72,3.72,0,0,0,327.83,158Z" style="isolation:isolate;opacity:0.2"/><path d="M330,132.92l-2,23.23a4.62,4.62,0,0,0,3.73-4.07L333,137A3.73,3.73,0,0,0,330,132.92Z" style="fill:#407bff"/><path d="M330,132.92l-2,23.23a4.62,4.62,0,0,0,3.73-4.07L333,137A3.73,3.73,0,0,0,330,132.92Z" style="isolation:isolate;opacity:0.2"/><path d="M273.51,102.67H242.35a10.51,10.51,0,0,0-10.27,9.44l-1.61,18.44a8.51,8.51,0,0,0,8.61,9.44H248l-.63,7.18a1.89,1.89,0,0,0,3.29,1.42L260,140h10.24a10.51,10.51,0,0,0,10.27-9.44l1.61-18.44A8.51,8.51,0,0,0,273.51,102.67Z" style="fill:#407bff"/><path d="M264.19,111.48H249.24l-.1-3.09h-8.23c.11.71.17,1.06.28,1.77h5.94c0,.53.05.79.08,1.32.17,2.62.26,3.93.43,6.55,0,.71.07,1.06.11,1.77.17,2.62.26,3.93.42,6.55.1,1.4.14,2.1.23,3.5h16.42l.57-1.77H249.76l0-1.73h17c.88-2.62,1.32-3.93,2.19-6.55.24-.71.36-1.06.59-1.77.88-2.62,1.32-3.93,2.19-6.55Zm-14.9,1.77h5.3c-.11,1.92-.16,2.87-.27,4.78h-4.88Zm.36,11.33-.15-4.78h4.72c-.11,1.91-.17,2.87-.28,4.78Zm10.17,0h-4.29c.17-1.91.26-2.87.43-4.78h4.72C260.34,121.71,260.17,122.67,259.82,124.58ZM261,118h-4.88c.18-1.91.26-2.86.43-4.78h5.31C261.51,115.17,261.34,116.12,261,118Zm4.7,6.55h-4.29c.41-1.91.61-2.87,1-4.78h4.71C266.57,121.71,266.28,122.67,265.7,124.58Zm2-6.55H262.8c.41-1.91.61-2.86,1-4.78h5.3C268.54,115.17,268.25,116.12,267.68,118Z" style="fill:#fff"/><path d="M249.28,131.51a2.34,2.34,0,0,0-2.29,2.1,1.9,1.9,0,0,0,1.92,2.1,2.34,2.34,0,0,0,2.29-2.1A1.9,1.9,0,0,0,249.28,131.51Z" style="fill:#fff"/><path d="M264.21,131.51a2.33,2.33,0,0,0-2.28,2.1,1.9,1.9,0,0,0,1.92,2.1,2.33,2.33,0,0,0,2.28-2.1A1.9,1.9,0,0,0,264.21,131.51Z" style="fill:#fff"/></g><g id="Box"><rect x="260.27" y="233.23" width="35.63" height="35.63" style="fill:#407bff"/><rect x="295.89" y="233.23" width="21.88" height="35.63" style="fill:#407bff"/><polygon points="289.09 224.29 253.46 224.29 260.27 233.23 295.89 233.23 289.09 224.29" style="fill:#407bff"/><rect x="295.89" y="233.23" width="21.88" height="35.63" style="fill:#fff;opacity:0.30000000000000004"/><polygon points="289.09 224.29 253.46 224.29 260.27 233.23 295.89 233.23 289.09 224.29" style="fill:#fff;opacity:0.4"/><polygon points="302.34 224.29 324.22 224.29 317.78 233.23 295.89 233.23 302.34 224.29" style="fill:#407bff"/><rect x="260.27" y="233.23" width="35.63" height="35.63" style="fill:#fff;opacity:0.6000000000000001"/><polygon points="302.34 224.29 324.22 224.29 317.78 233.23 295.89 233.23 302.34 224.29" style="fill:#fff;opacity:0.2"/><rect x="306.35" y="267.97" width="89.8" height="89.8" style="fill:#407bff"/><rect x="306.35" y="267.97" width="89.8" height="89.8" style="fill:#fff;opacity:0.4"/><rect x="251.17" y="267.97" width="55.16" height="89.8" style="fill:#407bff"/><rect x="251.17" y="267.97" width="55.16" height="89.8" style="fill:#fff;opacity:0.6000000000000001"/><polygon points="268.21 267.98 268.21 292.09 270.4 293.25 272.29 291.67 275.28 293.25 278.12 291.67 280.32 293.25 282.84 291.67 284.27 292.96 284.27 267.98 268.21 267.98" style="fill:#fff;opacity:0.5"/><polygon points="284.27 357.77 284.27 333.65 282.08 332.5 280.19 334.07 277.2 332.5 274.36 334.07 272.16 332.5 269.64 334.07 268.21 332.78 268.21 357.77 284.27 357.77" style="fill:#fff;opacity:0.5"/><path d="M343,304.59l1.27,5.14c.13.55.2.83.34,1.38l1.27,5.14h13.32c-.07.54-.1.81-.16,1.35H346.77l.32,1.39H360c.17-1.1.25-1.65.42-2.74.31-2.06.47-3.08.78-5.14.09-.55.13-.83.21-1.38.31-2.06.47-3.08.78-5.14.07-.41.1-.62.16-1H367c.13-.55.2-.83.34-1.39h-6.45c-.12,1-.18,1.46-.29,2.43H343Zm17,5.14h-3.82c0-1.5.06-2.25.11-3.75h4.15C360.22,307.48,360.14,308.23,360,309.73Zm-4,5.13c0-1.5.07-2.25.11-3.75h3.7l-.45,3.75Zm-5-3.75h3.69c0,1.5,0,2.25,0,3.75h-3.37C351.23,313.36,351.16,312.61,351,311.11Zm-.47-5.13h4.15c0,1.5,0,2.25,0,3.75H350.9C350.76,308.23,350.69,307.48,350.56,306Zm-4.6,5.13h3.7c.18,1.5.28,2.25.47,3.75h-3.37Zm-1.1-5.13H349c.18,1.5.28,2.25.46,3.75h-3.82Z" style="fill:#fff"/><circle cx="359.16" cy="321.94" r="1.65" style="fill:#fff"/><circle cx="347.45" cy="321.94" r="1.65" style="fill:#fff"/><g style="opacity:0.5"><path d="M266.59,304.59l1.27,5.14c.13.55.2.83.34,1.38l1.27,5.14h13.32c-.07.54-.1.81-.16,1.35H270.38l.32,1.39h12.87c.17-1.1.25-1.65.42-2.74.31-2.06.47-3.08.78-5.14.08-.55.13-.83.21-1.38.31-2.06.47-3.08.78-5.14l.16-1h4.66c.13-.55.2-.83.34-1.39h-6.45c-.12,1-.18,1.46-.29,2.43H266.59Zm17,5.14h-3.82l.11-3.75H284C283.83,307.48,283.74,308.23,283.57,309.73Zm-4,5.13c.05-1.5.07-2.25.11-3.75h3.7l-.45,3.75Zm-4.95-3.75h3.69c0,1.5,0,2.25,0,3.75H275C274.84,313.36,274.77,312.61,274.64,311.11Zm-.48-5.13h4.16c0,1.5,0,2.25,0,3.75h-3.82Zm-4.59,5.13h3.7l.46,3.75h-3.36Zm-1.1-5.13h4.16c.18,1.5.28,2.25.46,3.75h-3.82Z" style="fill:#fff"/><circle cx="282.77" cy="321.94" r="1.65" style="fill:#fff"/><circle cx="271.06" cy="321.94" r="1.65" style="fill:#fff"/></g></g><g id="Character_2" data-name="Character 2"><path d="M363.36,196.52s3.12,22.39,5.92,26.24,15.38,14.54,15.38,14.54l7.95-1.15,5.33,5-3.86,2.67L389.83,242a40.92,40.92,0,0,1-7.22.18c-4.06-.25-19.92-11-22.84-16.61s-6.22-26.38-6.22-26.38Z" style="fill:#ce7a63"/><path d="M366,203l-.8.14c-.55-5.26-2.75-21.25-8.78-17.14-5.79,3.95-4.16,15.15-3.32,19.34l-1,.18.88,2.76,13.33-2.55Z" style="fill:#407bff"/><path d="M361,192.41l-1.47-3.15-4.61,4.64-2.65,4a43.76,43.76,0,0,0,.86,7.44l-1,.18.88,2.76,7.52-1.44A51.16,51.16,0,0,0,361,192.41Z" style="opacity:0.2"/><path d="M361.46,152.24s15.9,3.43,7.45,11l-7-6.11Z" style="fill:#263238"/><polygon points="383.53 320.13 373.41 344.92 366.39 342.19 372.05 317.55 383.53 320.13" style="fill:#ce7a63"/><polygon points="372.55 315.8 368.56 333.17 377.21 335.1 384.03 318.37 372.55 315.8" style="isolation:isolate;opacity:0.2"/><path d="M375,344.34c1.29,2.92,2.16,5.34,7.44,8.46,1.15.66-.8,3.7-3.67,2.42-4.74-2.14-3.5-2.18-7.56-4-3.41-1.5-5.95-2.41-8.73-3.57a.82.82,0,0,1-.2-.12h0a1.12,1.12,0,0,1-.23-1.56l4.1-5.61a.69.69,0,0,1,.82-.23l6.64,2.87A2.65,2.65,0,0,1,375,344.34Z" style="fill:#263238"/><path d="M406.18,261.87c-1.29,16-24.27,68.89-24.27,68.89L368.27,327s10.42-50.81,17.22-59.22c0,0-2.22,0-5.79.07-12.43.11-41.24.09-49.55-2.12-5.93-1.58-18.32-4.75-15-24.59l15.36-.53,17.89-.62S408,240,406.18,261.87Z" style="fill:#263238"/><path d="M379.7,267.81c-12.43.11-41.24.09-49.55-2.12-5.93-1.58-18.32-4.75-15-24.59l15.36-.53c12.09,1.43,27.89,3.82,38.66,8.45,5.24,2.25,8.88,6.31,9.95,11.09A56.66,56.66,0,0,1,379.7,267.81Z" style="isolation:isolate;opacity:0.2"/><polygon points="359.81 319.25 354.75 344.52 347.14 344.16 348.04 318.89 359.81 319.25" style="fill:#ce7a63"/><polygon points="359.81 319.25 348.04 318.89 347.52 334.01 356.79 334.33 359.81 319.25" style="isolation:isolate;opacity:0.2"/><path d="M355.91,345.12c1.24,3,2,5.51,7.33,8.86,1.14.74-.94,3.78-3.81,2.37-4.76-2.33-3.49-2.33-7.58-4.25-3.45-1.64-6-2.65-8.79-3.91l-.21-.11h0a1.13,1.13,0,0,1-.19-1.6l4.35-5.62a.68.68,0,0,1,.83-.19l6.66,3.11A2.69,2.69,0,0,1,355.91,345.12Z" style="fill:#263238"/><path d="M306.17,241.08s-4.35,15.62,2.84,21.79c10.05,8.64,46.36,6,46.36,6-6.27,20.08-9.07,59.95-9.07,59.95h13.61s18.54-54.54,15.8-68.65-51.38-19.08-51.38-19.08Z" style="fill:#263238"/><polygon points="367.06 328.54 382.5 332.43 385.65 325.82 368.69 321.01 367.06 328.54" style="fill:#407bff"/><polygon points="344.95 330.73 360.7 331.54 362.33 324.61 344.95 323.8 344.95 330.73" style="fill:#407bff"/><path d="M352.17,219.44c4-11.79,9-20.76,9.58-30.81-13.69-19.76-40.46-8.08-40.46-8.08-16.2,30.39-15.12,60.53-15.12,60.53,36.81,0,38.92-.63,38.92-.63S345.22,235.24,352.17,219.44Z" style="fill:#407bff"/><path d="M339.81,180c.59,3.47,1.82,9.75,3.28,10.67,2,1.21,5-.49,5-.49s2.43,3.29,5,1.1a13.9,13.9,0,0,0,3.3-4.92,14.2,14.2,0,0,1-2.83,3.44c-2.6,2.18-5-1.1-5-1.1s-3,1.69-5,.49C342.24,188.37,340.7,183.39,339.81,180Z" style="isolation:isolate;opacity:0.2"/><polygon points="343.11 175.17 346.76 176.42 343.9 178.92 343.11 175.17" style="fill:#407bff"/><polygon points="343.11 175.17 346.76 176.42 343.9 178.92 343.11 175.17" style="opacity:0.2"/><path d="M354.71,178.93l1,2.94s-5.22,5.47-6.72,5.53-5.9-10.27-5.9-10.27c5.81-2.63,5.27-5.52,5.27-5.52Z" style="fill:#ce7a63"/><path d="M352.81,184.72c1.54-1.41,2.92-2.85,2.92-2.85l-1-2.94-5.65-6.54C348.34,175.24,347.62,181.18,352.81,184.72Z" style="isolation:isolate;opacity:0.2"/><path d="M357.69,184a17.29,17.29,0,0,1-4.08,5.82c-2.61,2.18-5-1.1-5-1.1s-3,1.7-5,.49S339,176.94,339,176.94l4.11-1.77,5.66,12,7.63-6.3Z" style="fill:#407bff"/><path d="M348.16,161.52a10.12,10.12,0,0,1,15.13-8.84c7.26,3.91,7.46,15.33,5.3,22a10,10,0,0,1-17.41,3.38c-3.56-4.38-3.1-8.88-3-16.58Z" style="fill:#ce7a63"/><path d="M361.68,166.3c.42,0,.68.6.57,1.21s-.48,1-.89,1-.67-.61-.57-1.22S361.26,166.26,361.68,166.3Z" style="fill:#263238"/><path d="M368.61,167.6c.43,0,.69.59.59,1.21s-.49,1-.91,1-.66-.6-.57-1.22S368.19,167.55,368.61,167.6Z" style="fill:#263238"/><path d="M359.82,164.84a2.87,2.87,0,0,1,2.56-.48h0a.35.35,0,0,0,.45-.23h0a.38.38,0,0,0-.22-.46,3.53,3.53,0,0,0-3.28.64h0a.32.32,0,0,0,.11.58A.34.34,0,0,0,359.82,164.84Z" style="fill:#263238"/><path d="M370.36,166.79h0a.37.37,0,0,0,.12-.5,3.77,3.77,0,0,0-2.79-1.9h0a.36.36,0,0,0-.33.28h0a.35.35,0,0,0,.27.44,3.09,3.09,0,0,1,2.24,1.58.34.34,0,0,0,.28.18A.32.32,0,0,0,370.36,166.79Z" style="fill:#263238"/><path d="M364.5,174.42a3.58,3.58,0,0,0,3,0,23.85,23.85,0,0,1-2-5.87Z" style="fill:#ba4d3c"/><path d="M347.68,166.51c-3-10.91,1.85-13.75,7.09-15.7s8.15-.08,9.82,1.76c.52.57,1.56,2.32-1.8,2.55a26.33,26.33,0,0,1-6.07-.47,2.21,2.21,0,0,0-2.14.84c-1.16,1.52-3,4.35-3,6.84a6.48,6.48,0,0,1-1.94,5.12Z" style="fill:#263238"/><path d="M343.9,221.29h0a1.32,1.32,0,1,1-1.33,1.31A1.31,1.31,0,0,1,343.91,221.29Z" style="fill:#407bff"/><path d="M341,235.24h0a1.33,1.33,0,1,1-1.34,1.32A1.32,1.32,0,0,1,341,235.24Z" style="fill:#407bff"/><path d="M347.76,164c2.12.38,3.14,3.37,3.16,5.33,0,2.11-1.5,3.69-3.37,2.44a6.88,6.88,0,0,1-2.8-4.14C344.34,165.57,345.65,163.63,347.76,164Z" style="fill:#ce7a63"/><path d="M357.44,174.31a37.38,37.38,0,0,1,6.66,2.59,4.19,4.19,0,0,1-5.24.72A2.45,2.45,0,0,1,357.44,174.31Z" style="fill:#263238"/><path d="M360.51,177a4.91,4.91,0,0,0-3-.53,2.85,2.85,0,0,0,1.33,1.13,4.74,4.74,0,0,0,3,.53A2.82,2.82,0,0,0,360.51,177Z" style="fill:#a02724"/><path d="M357.68,174.36a1.09,1.09,0,0,0,.42,1.06,27.2,27.2,0,0,0,4.39,1.59,1.47,1.47,0,0,0,1.4-.21A44.32,44.32,0,0,0,357.68,174.36Z" style="fill:#fff"/><rect x="365.32" y="244.89" width="18.1" height="2.91" transform="translate(747.42 494.69) rotate(-179.69)" style="fill:#263238"/><path d="M342.43,244.79h23a1.36,1.36,0,0,1,1.36,1.36v1.54a0,0,0,0,1,0,0H342.43a0,0,0,0,1,0,0v-2.91A0,0,0,0,1,342.43,244.79Z" transform="translate(707.93 494.37) rotate(-179.69)" style="fill:#263238"/><path d="M342.43,244.79h23a1.36,1.36,0,0,1,1.36,1.36v1.54a0,0,0,0,1,0,0H342.43a0,0,0,0,1,0,0v-2.91A0,0,0,0,1,342.43,244.79Z" transform="translate(707.93 494.37) rotate(-179.69)" style="fill:#fff;opacity:0.30000000000000004"/><rect x="360.25" y="245.76" width="2.91" height="1.03" transform="translate(722.09 494.49) rotate(-179.69)" style="fill:#263238"/><rect x="355.72" y="245.74" width="2.91" height="1.03" transform="translate(713.02 494.43) rotate(-179.69)" style="fill:#263238"/><polygon points="370.28 244.87 368.35 244.86 376.05 218.63 377.98 218.65 370.28 244.87" style="fill:#263238"/><polygon points="370.28 244.87 368.35 244.86 376.05 218.63 377.98 218.65 370.28 244.87" style="fill:#fff;opacity:0.30000000000000004"/><polygon points="369.57 244.87 403.54 245.05 411.24 218.82 377.27 218.64 369.57 244.87" style="fill:#263238"/><polygon points="369.57 244.87 403.54 245.05 411.24 218.82 377.27 218.64 369.57 244.87" style="fill:#fff;opacity:0.6000000000000001"/><path d="M367.91,244.86l35.36.19c.59,0,1.07.65,1.07,1.46s-.49,1.45-1.09,1.44l-35.36-.19c-.59,0-1.07-.65-1.07-1.45S367.31,244.86,367.91,244.86Z" style="fill:#263238"/><path d="M367.91,244.86l35.36.19c.59,0,1.07.65,1.07,1.46s-.49,1.45-1.09,1.44l-35.36-.19c-.59,0-1.07-.65-1.07-1.45S367.31,244.86,367.91,244.86Z" style="fill:#fff;opacity:0.5"/><path d="M366.82,246.31c0,.8.48,1.45,1.07,1.45s1.08-.64,1.09-1.44-.48-1.46-1.07-1.46S366.83,245.5,366.82,246.31Z" style="fill:#263238"/><path d="M366.82,246.31c0,.8.48,1.45,1.07,1.45s1.08-.64,1.09-1.44-.48-1.46-1.07-1.46S366.83,245.5,366.82,246.31Z" style="fill:#fff;opacity:0.30000000000000004"/><path d="M333.43,220.58c-1.63-2.25-3.36-10.55-4.57-17.4l1.57-.3-.37-2.84-.82.15c-.57-5.37-2.79-21.48-8.8-18-1.75,3.41-3.29,6.83-4.63,10.21a42.07,42.07,0,0,0,.86,10.07l-1,.18.92,2.87,2.13-.41c1.27,6.62,3.12,15,4.84,18.32,2.26,4.37,12,11.65,18.52,15.19,7.33-1.3,9-2.22,9-2.22a4.18,4.18,0,0,1-.51-.9l-1.18.17S336.34,224.58,333.43,220.58Z" style="opacity:0.2"/><path d="M331.64,193.42s2.14,23.38,4.86,27.52,15.25,15.83,15.25,15.83l8.3-.81,5.28,5.49L361.2,244l-4.32-2.18a42.44,42.44,0,0,1-7.5-.17c-4.19-.46-20.12-12.35-22.88-18.34s-5.17-27.67-5.17-27.67Z" style="fill:#ce7a63"/><path d="M333.5,198.47l-.83.15c-.57-5.46-2.86-22.07-9.11-17.8-6,4.1-4.33,15.74-3.45,20.09l-1,.18L320,204l13.84-2.65Z" style="fill:#407bff"/><path d="M405.29,185.93H385.66a6,6,0,0,0-6,5.95V203.5a6,6,0,0,0,6,5.95h5.61V214a1.27,1.27,0,0,0,2.16.9l5.41-5.42h6.45a6,6,0,0,0,5.95-5.95V191.88A6,6,0,0,0,405.29,185.93Z" style="fill:#407bff"/><path d="M400.54,191.48h-9.43c-.09-.78-.14-1.17-.23-1.95h-5.19c.11.45.17.67.28,1.12h3.74c.05.33.08.5.13.83.25,1.65.38,2.48.63,4.13.06.45.1.67.17,1.12.25,1.65.37,2.47.62,4.12.14.88.21,1.32.34,2.21H402c.1-.45.15-.67.26-1.12h-9.85c-.05-.43-.08-.65-.13-1.09h10.71l1-4.12c.11-.45.16-.67.28-1.12.4-1.65.61-2.48,1-4.13Zm-9.29,1.12h3.34c0,1.2.05,1.81.09,3H391.6Zm.85,7.14c-.15-1.21-.22-1.81-.36-3h3c0,1.2.05,1.8.09,3Zm6.41,0H395.8c0-1.21,0-1.81,0-3h3C398.67,197.93,398.62,198.53,398.51,199.74Zm.38-4.13h-3.08c0-1.2,0-1.81,0-3h3.34C399.05,193.8,399,194.41,398.89,195.61Zm3.32,4.13h-2.7c.15-1.21.22-1.81.38-3h3Zm.89-4.13H400c.16-1.2.23-1.81.38-3h3.34C403.48,193.8,403.35,194.41,403.1,195.61Z" style="fill:#fff"/><path d="M392.24,204.1a1.33,1.33,0,1,0,1.33,1.33A1.33,1.33,0,0,0,392.24,204.1Z" style="fill:#fff"/><circle cx="401.66" cy="205.43" r="1.32" style="fill:#fff"/></g><g id="Bag"><path d="M131.22,278.6l-2.39-.12.56-10.84a14.28,14.28,0,0,1,14.08-13.38,12.72,12.72,0,0,1,12.8,13.51l-.57,10.83-2.39-.12.57-10.84a10.31,10.31,0,0,0-10.41-11,11.85,11.85,0,0,0-11.68,11.11Z" style="fill:#263238"/><polygon points="182.49 273.79 111.82 273.79 109.42 357.63 119.9 355.24 130.38 357.63 184.89 357.63 182.49 273.79" style="fill:#407bff"/><polygon points="182.49 273.79 111.82 273.79 109.42 357.63 119.9 355.24 130.38 357.63 184.89 357.63 182.49 273.79" style="fill:#fff;opacity:0.6000000000000001"/><polygon points="130.38 357.63 119.9 355.24 109.42 357.63 111.82 273.79 127.99 273.79 130.38 357.63" style="fill:#407bff"/><polygon points="130.38 357.63 119.9 355.24 109.42 357.63 111.82 273.79 127.99 273.79 130.38 357.63" style="fill:#fff;opacity:0.30000000000000004"/><path d="M167.53,278.6,167,267.77a11.85,11.85,0,0,0-11.69-11.11,10.31,10.31,0,0,0-10.4,11l.57,10.84-2.39.12-.57-10.83a12.7,12.7,0,0,1,12.79-13.51,14.27,14.27,0,0,1,14.08,13.38l.57,10.84Z" style="fill:#263238"/><g style="opacity:0.2"><path d="M167.53,278.6,167,267.77a11.85,11.85,0,0,0-11.69-11.11,10.31,10.31,0,0,0-10.4,11l.57,10.84-2.39.12-.57-10.83a12.7,12.7,0,0,1,12.79-13.51,14.27,14.27,0,0,1,14.08,13.38l.57,10.84Z" style="fill:#fff"/></g><rect x="138.74" y="304.41" width="35.54" height="7.99" rx="1.34" style="fill:#fff"/><path d="M98.74,304.66l-1.61-.09.38-7.27a9.57,9.57,0,0,1,9.44-9,8.51,8.51,0,0,1,8.58,9.05l-.38,7.27-1.6-.09.38-7.27a6.92,6.92,0,0,0-7-7.36,7.94,7.94,0,0,0-7.83,7.45Z" style="fill:#263238"/><polygon points="133.11 301.43 85.73 301.43 84.13 357.63 91.15 356.03 98.18 357.63 134.72 357.63 133.11 301.43" style="fill:#407bff"/><polygon points="98.18 357.63 91.15 356.03 84.13 357.63 85.73 301.43 96.57 301.43 98.18 357.63" style="fill:#407bff"/><polygon points="98.18 357.63 91.15 356.03 84.13 357.63 85.73 301.43 96.57 301.43 98.18 357.63" style="opacity:0.2"/><path d="M123.08,304.66l-.38-7.27a8,8,0,0,0-7.84-7.45,6.9,6.9,0,0,0-7,7.36l.38,7.27-1.6.09-.39-7.27a8.52,8.52,0,0,1,8.58-9.05,9.57,9.57,0,0,1,9.44,9l.38,7.26Z" style="fill:#263238"/><g style="opacity:0.2"><path d="M123.08,304.66l-.38-7.27a8,8,0,0,0-7.84-7.45,6.9,6.9,0,0,0-7,7.36l.38,7.27-1.6.09-.39-7.27a8.52,8.52,0,0,1,8.58-9.05,9.57,9.57,0,0,1,9.44,9l.38,7.26Z" style="fill:#fff"/></g><rect x="103.78" y="321.96" width="23.82" height="5.35" rx="1.34" style="fill:#fff"/></g><g id="Character_1" data-name="Character 1"><polygon points="171.68 352.15 164.07 351.35 164.45 333.58 172.06 334.37 171.68 352.15" style="fill:#b55b52"/><polygon points="236.06 326.64 229.25 330.12 219.01 315.44 225.83 311.97 236.06 326.64" style="fill:#b55b52"/><path d="M227.83,329.17l7-5a.59.59,0,0,1,.8.07l4.74,5a1.23,1.23,0,0,1-.2,1.82c-2.47,1.69-3.75,2.39-6.83,4.58-1.89,1.36-4.52,3.53-7.13,5.39s-4.6-.62-3.68-1.63c4.13-4.53,3.87-6.53,4.53-9.09A2,2,0,0,1,227.83,329.17Z" style="fill:#263238"/><path d="M163.42,350.39l8.55.9a.6.6,0,0,1,.55.58l.27,6.87a1.22,1.22,0,0,1-1.36,1.22c-3-.36-4.39-.68-8.15-1.08-2.32-.24-9-.69-12.18-1s-3-3.51-1.67-3.65c6.09-.66,10.49-2,12.67-3.47A2,2,0,0,1,163.42,350.39Z" style="fill:#263238"/><g style="opacity:0.2"><polygon points="164.45 333.58 164.25 342.74 171.87 343.54 172.06 334.38 164.45 333.58"/><polygon points="225.83 311.97 219.01 315.45 224.29 323.01 231.11 319.53 225.83 311.97"/></g><path d="M168.09,180S160.2,238.7,160,262c-.24,24.28,2.84,78.77,2.84,78.77l10.29,1.08s4.18-53.6,5.84-77.4c1.82-25.94,11.9-83.79,11.9-83.79Z" style="fill:#263238"/><polygon points="173.95 342.35 161.87 341.09 161.39 337.15 174.96 338.09 173.95 342.35" style="fill:#407bff"/><path d="M181,195.06c-8.12,15.11-2.9,43.3-.53,53.8,1.87-15.6,4.81-34.65,7.07-48.64C186.66,192.24,184.77,188.1,181,195.06Z" style="opacity:0.6000000000000001"/><path d="M176.29,180.24s5.11,61.47,9.8,81.3c5.57,23.54,35.75,60.73,35.75,60.73l9.3-4.73s-20.45-41.33-24.88-53.78c-9.47-26.57.58-65.41-7.11-82.8Z" style="fill:#263238"/><polygon points="232.46 317.48 220.92 323.35 217.85 320.35 231.11 312.83 232.46 317.48" style="fill:#407bff"/><path d="M225.14,332.31h-.09a1,1,0,0,1-.8-.61.61.61,0,0,1,0-.62c.49-.85,3.25-1,3.56-1a.18.18,0,0,1,.17.1.16.16,0,0,1,0,.2C227.31,331.12,226.1,332.34,225.14,332.31Zm2.25-1.84c-1.1.08-2.57.33-2.83.78a.26.26,0,0,0,0,.27.69.69,0,0,0,.53.42C225.61,332,226.46,331.46,227.39,330.47Z" style="fill:#407bff"/><path d="M227.56,330.45c-.95,0-2.68-.54-3-1.26a.64.64,0,0,1,.21-.77.92.92,0,0,1,.76-.24c1.11.11,2.39,1.9,2.45,2a.19.19,0,0,1,0,.18.2.2,0,0,1-.15.1Zm-2.13-1.92a.6.6,0,0,0-.43.16c-.17.16-.15.27-.12.35.22.49,1.65,1,2.58,1-.46-.58-1.32-1.48-2-1.55Z" style="fill:#407bff"/><path d="M160.43,351.43a2.83,2.83,0,0,1-1.8-.67,1,1,0,0,1-.24-.91.6.6,0,0,1,.36-.44c1-.42,3.86,1.45,4.18,1.66a.18.18,0,0,1,.08.2.17.17,0,0,1-.16.13A12.83,12.83,0,0,1,160.43,351.43Zm-1.2-1.72a.72.72,0,0,0-.34,0,.22.22,0,0,0-.14.18.64.64,0,0,0,.15.6c.42.47,1.66.67,3.38.56A10.06,10.06,0,0,0,159.23,349.71Z" style="fill:#407bff"/><path d="M162.81,351.4l-.07,0c-.86-.5-2.49-2.33-2.26-3.18.06-.2.23-.44.73-.44a1.3,1.3,0,0,1,1,.42c.87.89.84,3,.83,3.05a.16.16,0,0,1-.09.15A.14.14,0,0,1,162.81,351.4Zm-1.49-3.27h-.11c-.33,0-.36.13-.38.17-.13.51.95,1.93,1.82,2.59a4.26,4.26,0,0,0-.73-2.45A.91.91,0,0,0,161.32,348.13Z" style="fill:#407bff"/><path d="M164.81,148.75a76.69,76.69,0,0,1-9.48,10.51,37.35,37.35,0,0,1-6,4.57,16.77,16.77,0,0,1-4.06,1.8,10,10,0,0,1-2.78.38,7.6,7.6,0,0,1-1.67-.2,7,7,0,0,1-.86-.25,5.88,5.88,0,0,1-.95-.43,5.63,5.63,0,0,1-1.81-1.55,6.61,6.61,0,0,1-.91-1.55,9.71,9.71,0,0,1-.69-2.52,21.82,21.82,0,0,1-.15-4,51.57,51.57,0,0,1,1-7.12,94,94,0,0,1,3.76-13.27l4.14,1.08c-.59,4.35-1.14,8.78-1.47,13.09a51.28,51.28,0,0,0-.16,6.27,12.91,12.91,0,0,0,.33,2.64,2.46,2.46,0,0,0,.25.7c.06.1,0-.21-.58-.59-.21-.1-.14-.08-.19-.1l0,0s0,0,0,0a5.26,5.26,0,0,0,.51-.16,10.8,10.8,0,0,0,2-1.09,37,37,0,0,0,4.51-3.81c1.49-1.44,2.92-3,4.33-4.62s2.82-3.3,4.11-4.88Z" style="fill:#b55b52"/><path d="M163.14,137.75c-3.13-.87-12.42,11-12.42,11l8.88,9.91s10.41-9.4,10-13.61C169.21,140.65,167.72,139,163.14,137.75Z" style="fill:#407bff"/><path d="M144.44,135l-.35-6.24-6,5s.91,4.83,3.94,5.79l1.87-2.63A3,3,0,0,0,144.44,135Z" style="fill:#b55b52"/><polygon points="140.18 123.68 135.38 128.09 138.08 133.74 144.09 128.79 140.18 123.68" style="fill:#b55b52"/><path d="M137.74,135.73l-1.39-.5a1.71,1.71,0,0,1-1.08-1.91l2.11-11.22,3.79,1.38L140,134.32A1.69,1.69,0,0,1,137.74,135.73Z" style="fill:#263238"/><path d="M147.73,121.47c.24-.64.47-1.29.68-1.92a11.16,11.16,0,0,0-3.35-3.44c-.5,1.23-1,2.51-1.49,3.85s-.93,2.64-1.33,3.91a11.24,11.24,0,0,0,4.78-.48C147.26,122.76,147.5,122.12,147.73,121.47Z" style="fill:#263238"/><path d="M145.22,120.56a23.61,23.61,0,0,0,1.27-4.82l-12.43-4.52-3.38,9.29L143.12,125A24,24,0,0,0,145.22,120.56Z" style="fill:#407bff"/><path d="M145.22,120.56a23.61,23.61,0,0,0,1.27-4.82l-12.43-4.52-3.38,9.29L143.12,125A24,24,0,0,0,145.22,120.56Z" style="fill:#fff;opacity:0.6000000000000001"/><path d="M137.29,111.53c-.56-.21-14-14-15.5-14.59s-5.13,4.89-7.81,12.25-3.52,13.8-1.89,14.4,20.68-1.41,21.25-1.21,2.09-2,3.18-5S138,111.77,137.29,111.53Z" style="fill:#407bff"/><path d="M137.29,111.53c-.56-.21-14-14-15.5-14.59s-5.13,4.89-7.81,12.25-3.52,13.8-1.89,14.4,20.68-1.41,21.25-1.21,2.09-2,3.18-5S138,111.77,137.29,111.53Z" style="fill:#fff;opacity:0.4"/><path d="M119.9,111.34c-2.68,7.36-6.18,12.84-7.81,12.25s-.79-7,1.89-14.4,6.18-12.84,7.81-12.25S122.58,104,119.9,111.34Z" style="fill:#407bff"/><path d="M116,109.9c-.18.49-.35,1-.51,1.45a12,12,0,0,0,3.33,2.88c.38-.92.76-1.89,1.13-2.89s.69-2,1-2.94a12,12,0,0,0-4.4.07C116.3,108.94,116.12,109.41,116,109.9Z" style="fill:#263238"/><path d="M116,109.9c-.18.49-.35,1-.51,1.45a12,12,0,0,0,3.33,2.88c.38-.92.76-1.89,1.13-2.89s.69-2,1-2.94a12,12,0,0,0-4.4.07C116.3,108.94,116.12,109.41,116,109.9Z" style="fill:#fff;opacity:0.7000000000000001"/><path d="M160.52,144.72c.46,6.65-1.09,10.61-2.19,12.52l1.27,1.41s5.87-5.3,8.63-9.73C165.13,144.33,160,137.73,160.52,144.72Z" style="opacity:0.2"/><circle cx="195.48" cy="99.35" r="7.55" style="fill:#263238"/><path d="M194.67,102.79a4.75,4.75,0,1,1-4.75-4.74A4.75,4.75,0,0,1,194.67,102.79Z" style="fill:#407bff"/><path d="M174.84,96.9s-10-.82-10,16.38c0,11.78,5.72,17.23,12.73,13.27,0,0,15.46-1.27,17.24-15.42S185.65,91.71,174.84,96.9Z" style="fill:#263238"/><path d="M161.1,138.2s-3.55,1.55,7,45.8l31-2.25c-1.44-12.58-2-20.36,2.13-46.68a90.48,90.48,0,0,0-13.29-.78,99.64,99.64,0,0,0-14.08,1C167.85,136.3,161.1,138.2,161.1,138.2Z" style="fill:#407bff"/><path d="M185.38,118.54c-.56,4.6-.84,13,2.55,15.75,0,0-.9,4.68-9.32,5.29-9.25.68-4.76-4.27-4.76-4.27,5-1.57,4.56-5.31,3.43-8.76Z" style="fill:#b55b52"/><path d="M182.08,121.81l-4.8,4.73a14.88,14.88,0,0,1,.62,2.47c1.91-.42,4.4-2.73,4.46-4.76A6.76,6.76,0,0,0,182.08,121.81Z" style="opacity:0.2"/><path d="M190.56,110.9c-1.73,7.39-2.31,10.56-6.74,13.75-6.66,4.8-15.36,1-15.87-6.71-.46-7,2.45-17.91,10.28-19.63A10.35,10.35,0,0,1,190.56,110.9Z" style="fill:#b55b52"/><path d="M177.81,110.85c-.1.61-.51,1-.9,1s-.64-.62-.54-1.23.52-1,.91-1S177.92,110.24,177.81,110.85Z" style="fill:#263238"/><path d="M170.94,109.67c-.11.61-.51,1-.91,1s-.64-.61-.53-1.22.51-1.05.91-1S171,109.07,170.94,109.67Z" style="fill:#263238"/><path d="M170.58,108.51l-1.39-.67S169.74,109.11,170.58,108.51Z" style="fill:#263238"/><path d="M173.36,111.13a16.55,16.55,0,0,1-2.83,3.51,2.65,2.65,0,0,0,2.1.78Z" style="fill:#a02724"/><path d="M191.42,118.09a5.54,5.54,0,0,1-3.38,2.57c-1.88.49-2.78-1.21-2.22-3,.5-1.58,2.09-3.74,4-3.44A2.49,2.49,0,0,1,191.42,118.09Z" style="fill:#b55b52"/><path d="M180.81,109.92a.36.36,0,0,1-.34-.26,4.24,4.24,0,0,0-2.56-2.29.36.36,0,1,1,.23-.69,5,5,0,0,1,3,2.77.36.36,0,0,1-.24.45Z" style="fill:#263238"/><path d="M169.41,106.14a.33.33,0,0,1-.3-.18.36.36,0,0,1,.13-.49,3.59,3.59,0,0,1,3.3-.22.36.36,0,0,1,.16.49.37.37,0,0,1-.49.15h0a2.88,2.88,0,0,0-2.61.21A.31.31,0,0,1,169.41,106.14Z" style="fill:#263238"/><path d="M177.45,109.69l-1.39-.67S176.62,110.29,177.45,109.69Z" style="fill:#263238"/><path d="M173.23,117.31a40.57,40.57,0,0,1,7.73-.85c-.59,1.75-1.77,3.21-4.7,3.33A2.67,2.67,0,0,1,173.23,117.31Z" style="fill:#263238"/><path d="M177.55,118.37a5.37,5.37,0,0,0-3.14,1,3.11,3.11,0,0,0,1.85.43,5.3,5.3,0,0,0,3.14-1A3.11,3.11,0,0,0,177.55,118.37Z" style="fill:#a02724"/><path d="M173.49,117.24a1.18,1.18,0,0,0,.94.81,29.77,29.77,0,0,0,5-.67,1.6,1.6,0,0,0,1.25-.9A47.16,47.16,0,0,0,173.49,117.24Z" style="fill:#fff"/><path d="M169.24,105.47A14,14,0,0,0,175,101s0,5.33,2.17,4.92-1.09-4.92-1.09-4.92,5,2.22,6.71,6.56,3.66,9.07,7.51,7.9,3-13.48-2.67-16.55l-8-1.44-2.36.34A9,9,0,0,0,173.8,99h0a9,9,0,0,0-3.56,4.11Z" style="fill:#263238"/><path d="M187.91,106.11c-.37-.78-2.14-.72-4,.14s-1.89,1.67-1.52,2.45,1,1.24,2.86.38S188.28,106.89,187.91,106.11Zm-4.29,2c-.26-.56-.21-1.14,1.09-1.75s2.57-.66,2.83-.1-.57,1.5-1.87,2.12S183.89,108.7,183.62,108.14Z" style="fill:#407bff"/><path d="M197.8,145.33l-2.35-2-1.74.78a26.5,26.5,0,0,0,4.43,17.45c.15-3.32.46-7.08,1-11.56C198.4,147.3,197.8,145.33,197.8,145.33Z" style="opacity:0.2"/><path d="M229.48,169.7l-1.27.13-.6-5.74a7.6,7.6,0,0,1,6.28-8.19,6.74,6.74,0,0,1,7.83,6l.61,5.73-1.27.13-.6-5.73a5.47,5.47,0,0,0-6.37-4.9,6.29,6.29,0,0,0-5.21,6.8Z" style="fill:#263238"/><path d="M205.91,144c.18.86.42,1.93.65,2.9s.5,2,.78,3c.56,2,1.15,3.93,1.86,5.82a39.6,39.6,0,0,0,5.39,10.3l.21.27.1.13a.68.68,0,0,0-.12-.11,1.55,1.55,0,0,0-.55-.31c-.3-.09-.29,0-.09,0a7.08,7.08,0,0,0,2.07-.44,36.14,36.14,0,0,0,5.36-2.47c3.63-2,7.3-4.28,10.85-6.6l2.77,3.27a78.61,78.61,0,0,1-10.12,8.86,37.87,37.87,0,0,1-6.12,3.68,14.11,14.11,0,0,1-4.2,1.26,7.28,7.28,0,0,1-3.31-.36,6,6,0,0,1-1.92-1.16l-.41-.4-.16-.18-.32-.34a34,34,0,0,1-4.3-6,48.88,48.88,0,0,1-3.09-6.35,67.53,67.53,0,0,1-2.28-6.54c-.31-1.11-.6-2.22-.86-3.34s-.5-2.2-.7-3.48Z" style="fill:#b55b52"/><path d="M201.22,135.07c3.17.71,8.72,12.18,8.72,12.18l-12.46,8.45s-5-8.61-4-12.72C194.5,138.7,197.6,134.25,201.22,135.07Z" style="fill:#407bff"/><path d="M231.9,156.49l7.24-4-1.52,7.63s-4.68,1.48-7-.73Z" style="fill:#b55b52"/><polygon points="245.49 153.52 243.87 159.84 237.62 160.13 239.14 152.5 245.49 153.52" style="fill:#b55b52"/><path d="M248.53,166.68l-1.2-5.64a6.29,6.29,0,0,0-7.05-4.86,5.47,5.47,0,0,0-4.55,6.63l1.2,5.64-1.24.26-1.2-5.64a6.74,6.74,0,0,1,5.59-8.15,7.6,7.6,0,0,1,8.5,5.85l1.2,5.64Z" style="fill:#263238"/><g style="opacity:0.30000000000000004"><path d="M248.53,166.68l-1.2-5.64a6.29,6.29,0,0,0-7.05-4.86,5.47,5.47,0,0,0-4.55,6.63l1.2,5.64-1.24.26-1.2-5.64a6.74,6.74,0,0,1,5.59-8.15,7.6,7.6,0,0,1,8.5,5.85l1.2,5.64Z" style="fill:#fff"/></g><polygon points="255.99 162.91 218.9 168.78 224.61 212.98 229.91 210.85 235.61 211.23 264.21 206.7 255.99 162.91" style="fill:#407bff"/><polygon points="255.99 162.91 218.9 168.78 224.61 212.98 229.91 210.85 235.61 211.23 264.21 206.7 255.99 162.91" style="fill:#fff;opacity:0.6000000000000001"/><polygon points="235.61 211.23 229.91 210.85 224.61 212.98 218.9 168.78 227.38 167.44 235.61 211.23" style="fill:#407bff"/><polygon points="235.61 211.23 229.91 210.85 224.61 212.98 218.9 168.78 227.38 167.44 235.61 211.23" style="fill:#fff;opacity:0.30000000000000004"/><rect x="235.65" y="183.15" width="18.55" height="3.16" rx="1.51" transform="translate(-25.88 40.59) rotate(-9)" style="fill:#fff"/></g></g></svg>