<svg xmlns="http://www.w3.org/2000/svg" xmlns:xlink="http://www.w3.org/1999/xlink" viewBox="0 0 583.69 411.62"><defs><style>.cls-1{isolation:isolate;}.cls-2{fill:url(#linear-gradient);}.cls-3{fill:url(#linear-gradient-2);}.cls-4{fill:url(#linear-gradient-3);}.cls-5{fill:url(#linear-gradient-4);}.cls-6{fill:#fff;}.cls-7{fill:url(#linear-gradient-5);}.cls-8{fill:url(#linear-gradient-6);}.cls-116,.cls-117,.cls-9{fill:none;stroke-linecap:round;}.cls-116,.cls-9{stroke:#fff;}.cls-9{stroke-miterlimit:10;}.cls-10{fill:url(#linear-gradient-7);}.cls-11{fill:url(#linear-gradient-8);}.cls-12{fill:url(#linear-gradient-9);}.cls-13{fill:url(#linear-gradient-10);}.cls-100,.cls-104,.cls-106,.cls-14,.cls-33,.cls-36,.cls-38,.cls-47,.cls-49,.cls-51,.cls-55,.cls-83,.cls-84,.cls-85,.cls-89,.cls-90,.cls-91,.cls-95,.cls-96,.cls-97{mix-blend-mode:multiply;}.cls-14{fill:url(#linear-gradient-11);}.cls-15{fill:url(#linear-gradient-12);}.cls-118,.cls-16{fill:#8fabd8;}.cls-17{fill:url(#linear-gradient-13);}.cls-18{fill:url(#linear-gradient-14);}.cls-19{fill:url(#linear-gradient-15);}.cls-20{fill:url(#linear-gradient-16);}.cls-21{fill:url(#linear-gradient-17);}.cls-22{fill:url(#linear-gradient-18);}.cls-23{fill:url(#linear-gradient-19);}.cls-24{fill:url(#linear-gradient-20);}.cls-25{fill:url(#linear-gradient-21);}.cls-26{fill:url(#linear-gradient-22);}.cls-27{fill:url(#linear-gradient-23);}.cls-28{fill:url(#linear-gradient-24);}.cls-29{fill:#ffa49a;}.cls-30{fill:#283770;}.cls-31{fill:#182670;}.cls-32{fill:url(#linear-gradient-25);}.cls-100,.cls-104,.cls-106,.cls-33,.cls-36,.cls-38,.cls-47,.cls-49,.cls-51,.cls-82,.cls-83,.cls-84,.cls-85,.cls-88,.cls-89,.cls-90,.cls-91,.cls-94,.cls-95,.cls-96,.cls-97{opacity:0.5;}.cls-33{fill:url(#linear-gradient-26);}.cls-34{fill:url(#linear-gradient-27);}.cls-35{fill:url(#linear-gradient-28);}.cls-36{fill:url(#linear-gradient-29);}.cls-37{fill:url(#linear-gradient-30);}.cls-38{fill:url(#linear-gradient-31);}.cls-39{fill:#ff8189;}.cls-40{fill:#1a246e;}.cls-41{fill:#2f397f;}.cls-42{fill:#ef9795;}.cls-43{fill:url(#linear-gradient-32);}.cls-44{fill:#f3b2ad;}.cls-45{fill:#203647;}.cls-46{fill:url(#linear-gradient-33);}.cls-47{fill:url(#linear-gradient-34);}.cls-48{fill:url(#linear-gradient-35);}.cls-49{fill:url(#linear-gradient-36);}.cls-50{fill:url(#linear-gradient-37);}.cls-51{fill:url(#linear-gradient-38);}.cls-52{fill:#d76b66;opacity:0.32;}.cls-53{fill:#09085f;}.cls-54{fill:url(#linear-gradient-39);}.cls-55,.cls-57{fill:#e9c886;}.cls-56{fill:url(#linear-gradient-40);}.cls-57,.cls-82,.cls-88,.cls-94{mix-blend-mode:screen;}.cls-58{fill:url(#linear-gradient-41);}.cls-59{fill:url(#linear-gradient-42);}.cls-60{fill:url(#linear-gradient-43);}.cls-61{fill:url(#linear-gradient-44);}.cls-62{fill:url(#linear-gradient-45);}.cls-63{fill:url(#linear-gradient-46);}.cls-64{fill:url(#linear-gradient-47);}.cls-65{fill:url(#linear-gradient-48);}.cls-66{fill:url(#linear-gradient-49);}.cls-67{fill:url(#linear-gradient-50);}.cls-68{fill:url(#linear-gradient-51);}.cls-69{fill:url(#linear-gradient-52);}.cls-70{fill:url(#linear-gradient-53);}.cls-71{fill:url(#linear-gradient-54);}.cls-72{fill:url(#linear-gradient-55);}.cls-73{fill:url(#linear-gradient-56);}.cls-74{fill:url(#linear-gradient-57);}.cls-75{fill:url(#linear-gradient-58);}.cls-76{fill:url(#linear-gradient-59);}.cls-77{fill:url(#linear-gradient-60);}.cls-78{fill:url(#linear-gradient-61);}.cls-79{fill:url(#linear-gradient-62);}.cls-80{fill:url(#linear-gradient-63);}.cls-81{fill:url(#linear-gradient-64);}.cls-82{fill:url(#linear-gradient-65);}.cls-83{fill:url(#linear-gradient-66);}.cls-84{fill:url(#linear-gradient-67);}.cls-85{fill:url(#linear-gradient-68);}.cls-86{fill:url(#linear-gradient-69);}.cls-87{fill:url(#linear-gradient-70);}.cls-88{fill:url(#linear-gradient-71);}.cls-89{fill:url(#linear-gradient-72);}.cls-90{fill:url(#linear-gradient-73);}.cls-91{fill:url(#linear-gradient-74);}.cls-92{fill:url(#linear-gradient-75);}.cls-93{fill:url(#linear-gradient-76);}.cls-94{fill:url(#linear-gradient-77);}.cls-95{fill:url(#linear-gradient-78);}.cls-96{fill:url(#linear-gradient-79);}.cls-97{fill:url(#linear-gradient-80);}.cls-98{fill:#222842;}.cls-99{fill:url(#linear-gradient-81);}.cls-100{fill:url(#linear-gradient-82);}.cls-101{fill:url(#linear-gradient-83);}.cls-102{fill:url(#linear-gradient-84);}.cls-103{fill:url(#linear-gradient-85);}.cls-104{fill:url(#linear-gradient-86);}.cls-105{fill:url(#linear-gradient-87);}.cls-106{fill:url(#linear-gradient-88);}.cls-107{fill:url(#linear-gradient-89);}.cls-108{fill:url(#linear-gradient-90);}.cls-109{fill:url(#linear-gradient-91);}.cls-110{fill:url(#linear-gradient-92);}.cls-111{fill:url(#linear-gradient-93);}.cls-112{fill:url(#linear-gradient-94);}.cls-113{fill:url(#linear-gradient-95);}.cls-114{fill:url(#linear-gradient-96);}.cls-115{fill:url(#linear-gradient-97);}.cls-116,.cls-117{stroke-linejoin:round;}.cls-117{stroke:#232230;}.cls-118{font-size:88.09px;font-family:Montserrat-ExtraBold, Montserrat ExtraBold;font-weight:800;}</style><linearGradient id="linear-gradient" x1="271.66" y1="405.83" x2="271.66" y2="55.12" gradientUnits="userSpaceOnUse"><stop offset="0" stop-color="#dfedf2"/><stop offset="1" stop-color="#e8f8ff"/></linearGradient><linearGradient id="linear-gradient-2" x1="100.45" y1="405.83" x2="100.45" y2="55.12" gradientTransform="translate(73.24 -52.88) rotate(45)" xlink:href="#linear-gradient"/><linearGradient id="linear-gradient-3" x1="461.68" y1="405.83" x2="461.68" y2="55.12" xlink:href="#linear-gradient"/><linearGradient id="linear-gradient-4" x1="283.99" y1="405.83" x2="283.99" y2="55.12" xlink:href="#linear-gradient"/><linearGradient id="linear-gradient-5" x1="556.45" y1="405.83" x2="556.45" y2="55.12" xlink:href="#linear-gradient"/><linearGradient id="linear-gradient-6" x1="64.39" y1="405.83" x2="64.39" y2="55.12" xlink:href="#linear-gradient"/><linearGradient id="linear-gradient-7" x1="482.84" y1="405.83" x2="482.84" y2="55.12" xlink:href="#linear-gradient"/><linearGradient id="linear-gradient-8" x1="352.03" y1="74.8" x2="408.69" y2="150.8" gradientUnits="userSpaceOnUse"><stop offset="0" stop-color="#71d2f9"/><stop offset="1" stop-color="#51b9f8"/></linearGradient><linearGradient id="linear-gradient-9" x1="283.99" y1="-16305.39" x2="283.99" y2="-16053.99" gradientTransform="matrix(1, 0, 0, -1, 0, -15941.67)" gradientUnits="userSpaceOnUse"><stop offset="0" stop-color="#cbe1f2"/><stop offset="1" stop-color="#aed2ed"/></linearGradient><linearGradient id="linear-gradient-10" x1="283.99" y1="-16351.84" x2="283.99" y2="-16296.85" xlink:href="#linear-gradient-9"/><linearGradient id="linear-gradient-11" x1="258.15" y1="-16307.7" x2="309.83" y2="-16307.7" xlink:href="#linear-gradient-9"/><linearGradient id="linear-gradient-12" x1="283.99" y1="-16358.92" x2="283.99" y2="-16334.2" xlink:href="#linear-gradient-9"/><linearGradient id="linear-gradient-13" x1="99.95" y1="137.5" x2="194.92" y2="137.5" gradientTransform="matrix(1, 0, 0, 1, 0, 0)" xlink:href="#linear-gradient-9"/><linearGradient id="linear-gradient-14" x1="208.13" y1="84.12" x2="122.88" y2="161.99" gradientUnits="userSpaceOnUse"><stop offset="0" stop-color="#dd5954"/><stop offset="1" stop-color="#e0483d"/></linearGradient><linearGradient id="linear-gradient-15" x1="316.7" y1="291" x2="316.7" y2="347.17" gradientTransform="translate(156.95 -101.43) rotate(24.04)" xlink:href="#linear-gradient-8"/><linearGradient id="linear-gradient-16" x1="316.7" y1="291" x2="316.7" y2="347.17" xlink:href="#linear-gradient-8"/><linearGradient id="linear-gradient-17" x1="316.7" y1="291" x2="316.7" y2="347.17" xlink:href="#linear-gradient-8"/><linearGradient id="linear-gradient-18" x1="300.2" y1="291" x2="300.2" y2="347.17" xlink:href="#linear-gradient-8"/><linearGradient id="linear-gradient-19" x1="300.2" y1="291" x2="300.2" y2="347.17" xlink:href="#linear-gradient-8"/><linearGradient id="linear-gradient-20" x1="316.7" y1="291" x2="316.7" y2="347.17" xlink:href="#linear-gradient-8"/><linearGradient id="linear-gradient-21" x1="316.7" y1="291" x2="316.7" y2="347.17" xlink:href="#linear-gradient-8"/><linearGradient id="linear-gradient-22" x1="333.2" y1="291" x2="333.2" y2="347.17" xlink:href="#linear-gradient-8"/><linearGradient id="linear-gradient-23" x1="333.2" y1="291" x2="333.2" y2="347.17" xlink:href="#linear-gradient-8"/><linearGradient id="linear-gradient-24" x1="316.7" y1="310.25" x2="316.7" y2="318.84" gradientTransform="matrix(1, 0, 0, 1, 0, 0)" xlink:href="#linear-gradient-9"/><linearGradient id="linear-gradient-25" x1="513.5" y1="486.68" x2="498.89" y2="268.89" gradientUnits="userSpaceOnUse"><stop offset="0" stop-color="#283770"/><stop offset="1" stop-color="#141a5a"/></linearGradient><linearGradient id="linear-gradient-26" x1="492.44" y1="346.78" x2="489.78" y2="307.17" xlink:href="#linear-gradient-25"/><linearGradient id="linear-gradient-27" x1="469.64" y1="236.97" x2="469.64" y2="291.2" gradientUnits="userSpaceOnUse"><stop offset="0" stop-color="#49a5f7"/><stop offset="1" stop-color="#1c6ceb"/></linearGradient><linearGradient id="linear-gradient-28" x1="462.21" y1="230.36" x2="462.21" y2="284.59" gradientTransform="translate(123.81 -147.6) rotate(21.44)" xlink:href="#linear-gradient-27"/><linearGradient id="linear-gradient-29" x1="469.49" y1="249.63" x2="469.49" y2="270.38" xlink:href="#linear-gradient-27"/><linearGradient id="linear-gradient-30" x1="485.12" y1="236.44" x2="485.12" y2="290.92" xlink:href="#linear-gradient-27"/><linearGradient id="linear-gradient-31" x1="495.91" y1="251.49" x2="495.91" y2="272.1" xlink:href="#linear-gradient-27"/><linearGradient id="linear-gradient-32" x1="495.17" y1="236.25" x2="495.17" y2="286.1" xlink:href="#linear-gradient-27"/><linearGradient id="linear-gradient-33" x1="375.93" y1="-16241.69" x2="375.93" y2="-16344.99" gradientTransform="translate(760.16 -15941.67) rotate(180)" xlink:href="#linear-gradient-25"/><linearGradient id="linear-gradient-34" x1="367.88" y1="-16270.52" x2="368.41" y2="-16254.14" gradientTransform="translate(760.16 -15941.67) rotate(180)" xlink:href="#linear-gradient-25"/><linearGradient id="linear-gradient-35" x1="411.75" y1="232.16" x2="411.75" y2="293.63" xlink:href="#linear-gradient-27"/><linearGradient id="linear-gradient-36" x1="404.11" y1="258.58" x2="410.73" y2="258.58" xlink:href="#linear-gradient-27"/><linearGradient id="linear-gradient-37" x1="368.24" y1="232.17" x2="368.24" y2="293.62" gradientTransform="matrix(-1, 0, 0, 1, 760.16, 0)" xlink:href="#linear-gradient-27"/><linearGradient id="linear-gradient-38" x1="373.1" y1="255.88" x2="380.13" y2="269.71" xlink:href="#linear-gradient-27"/><linearGradient id="linear-gradient-39" x1="379.84" y1="273.76" x2="379.84" y2="306.59" gradientTransform="translate(501.02 -171.68) rotate(67.96)" gradientUnits="userSpaceOnUse"><stop offset="0" stop-color="#f7cf00"/><stop offset="1" stop-color="#ffa900"/></linearGradient><linearGradient id="linear-gradient-40" x1="364.19" y1="-16247.61" x2="393.04" y2="-16218.75" gradientTransform="matrix(0.61, 0.8, 0.8, -0.61, 13063.51, -9841.41)" gradientUnits="userSpaceOnUse"><stop offset="0" stop-color="#fae080"/><stop offset="1" stop-color="#f4bb58"/></linearGradient><linearGradient id="linear-gradient-41" x1="385.35" y1="232.17" x2="385.35" y2="293.62" gradientTransform="matrix(-1, 0, 0, 1, 760.16, 0)" xlink:href="#linear-gradient-27"/><linearGradient id="linear-gradient-42" x1="1978.6" y1="-16238.35" x2="1978.6" y2="-16160.32" gradientTransform="matrix(1, 0, 0, -1, -1551.28, -15941.67)" xlink:href="#linear-gradient-25"/><linearGradient id="linear-gradient-43" x1="423.96" y1="198.87" x2="463.59" y2="198.87" xlink:href="#linear-gradient-8"/><linearGradient id="linear-gradient-44" x1="438.47" y1="162.87" x2="459.14" y2="203.54" xlink:href="#linear-gradient-27"/><linearGradient id="linear-gradient-45" x1="78.78" y1="221.5" x2="78.78" y2="242.55" xlink:href="#linear-gradient-8"/><linearGradient id="linear-gradient-46" x1="339.66" y1="87.54" x2="339.66" y2="110.05" xlink:href="#linear-gradient-8"/><linearGradient id="linear-gradient-47" x1="318.34" y1="48.88" x2="252.07" y2="165.1" xlink:href="#linear-gradient-8"/><linearGradient id="linear-gradient-48" x1="257.61" y1="85.42" x2="299.48" y2="143.42" gradientTransform="matrix(1, 0, 0, 1, 0, 0)" xlink:href="#linear-gradient-9"/><linearGradient id="linear-gradient-49" x1="273.58" y1="73.88" x2="315.46" y2="131.88" gradientTransform="matrix(1, 0, 0, 1, 0, 0)" xlink:href="#linear-gradient-9"/><linearGradient id="linear-gradient-50" x1="272.1" y1="74.95" x2="313.98" y2="132.95" gradientTransform="matrix(1, 0, 0, 1, 0, 0)" xlink:href="#linear-gradient-9"/><linearGradient id="linear-gradient-51" x1="266.62" y1="78.91" x2="308.5" y2="136.91" gradientTransform="matrix(1, 0, 0, 1, 0, 0)" xlink:href="#linear-gradient-9"/><linearGradient id="linear-gradient-52" x1="248.65" y1="91.88" x2="290.52" y2="149.88" gradientTransform="matrix(1, 0, 0, 1, 0, 0)" xlink:href="#linear-gradient-9"/><linearGradient id="linear-gradient-53" x1="264.62" y1="80.35" x2="306.5" y2="138.35" gradientTransform="matrix(1, 0, 0, 1, 0, 0)" xlink:href="#linear-gradient-9"/><linearGradient id="linear-gradient-54" x1="263.15" y1="81.42" x2="305.02" y2="139.42" gradientTransform="matrix(1, 0, 0, 1, 0, 0)" xlink:href="#linear-gradient-9"/><linearGradient id="linear-gradient-55" x1="257.67" y1="85.37" x2="299.54" y2="143.37" gradientTransform="matrix(1, 0, 0, 1, 0, 0)" xlink:href="#linear-gradient-9"/><linearGradient id="linear-gradient-56" x1="239.69" y1="98.35" x2="281.57" y2="156.35" gradientTransform="matrix(1, 0, 0, 1, 0, 0)" xlink:href="#linear-gradient-9"/><linearGradient id="linear-gradient-57" x1="255.67" y1="86.82" x2="297.54" y2="144.82" gradientTransform="matrix(1, 0, 0, 1, 0, 0)" xlink:href="#linear-gradient-9"/><linearGradient id="linear-gradient-58" x1="254.19" y1="87.88" x2="296.06" y2="145.88" gradientTransform="matrix(1, 0, 0, 1, 0, 0)" xlink:href="#linear-gradient-9"/><linearGradient id="linear-gradient-59" x1="248.71" y1="91.84" x2="290.59" y2="149.84" gradientTransform="matrix(1, 0, 0, 1, 0, 0)" xlink:href="#linear-gradient-9"/><linearGradient id="linear-gradient-60" x1="272.98" y1="74.32" x2="314.85" y2="132.32" gradientTransform="matrix(1, 0, 0, 1, 0, 0)" xlink:href="#linear-gradient-9"/><linearGradient id="linear-gradient-61" x1="259.9" y1="95.64" x2="274.78" y2="95.64" xlink:href="#linear-gradient-8"/><linearGradient id="linear-gradient-62" x1="259.9" y1="114.51" x2="274.78" y2="114.51" xlink:href="#linear-gradient-8"/><linearGradient id="linear-gradient-63" x1="144.36" y1="360.36" x2="201.88" y2="414.44" gradientUnits="userSpaceOnUse"><stop offset="0" stop-color="#ffe2b1"/><stop offset="1" stop-color="#ffd496"/></linearGradient><linearGradient id="linear-gradient-64" x1="175.71" y1="384.2" x2="228.71" y2="384.2" gradientTransform="translate(404.09 768.41) rotate(-180)" gradientUnits="userSpaceOnUse"><stop offset="0" stop-color="#eec787"/><stop offset="1" stop-color="#ffd496"/></linearGradient><linearGradient id="linear-gradient-65" x1="140.21" y1="361.37" x2="199.62" y2="361.37" xlink:href="#linear-gradient-63"/><linearGradient id="linear-gradient-66" x1="124.74" y1="404.96" x2="174.36" y2="404.96" gradientTransform="matrix(1, 0, 0, 1, 0, 0)" xlink:href="#linear-gradient-64"/><linearGradient id="linear-gradient-67" x1="134.43" y1="404.96" x2="184.05" y2="404.96" gradientTransform="matrix(1, 0, 0, 1, 0, 0)" xlink:href="#linear-gradient-64"/><linearGradient id="linear-gradient-68" x1="144.11" y1="404.96" x2="193.74" y2="404.96" gradientTransform="matrix(1, 0, 0, 1, 0, 0)" xlink:href="#linear-gradient-64"/><linearGradient id="linear-gradient-69" x1="187.38" y1="306.54" x2="244.89" y2="360.62" xlink:href="#linear-gradient-63"/><linearGradient id="linear-gradient-70" x1="218.73" y1="330.39" x2="271.73" y2="330.39" gradientTransform="translate(490.12 660.77) rotate(-180)" xlink:href="#linear-gradient-64"/><linearGradient id="linear-gradient-71" x1="183.23" y1="307.55" x2="242.64" y2="307.55" xlink:href="#linear-gradient-63"/><linearGradient id="linear-gradient-72" x1="167.76" y1="351.14" x2="217.38" y2="351.14" gradientTransform="matrix(1, 0, 0, 1, 0, 0)" xlink:href="#linear-gradient-64"/><linearGradient id="linear-gradient-73" x1="177.44" y1="351.14" x2="227.07" y2="351.14" gradientTransform="matrix(1, 0, 0, 1, 0, 0)" xlink:href="#linear-gradient-64"/><linearGradient id="linear-gradient-74" x1="187.13" y1="351.14" x2="236.75" y2="351.14" gradientTransform="matrix(1, 0, 0, 1, 0, 0)" xlink:href="#linear-gradient-64"/><linearGradient id="linear-gradient-75" x1="205.17" y1="360.36" x2="262.68" y2="414.44" xlink:href="#linear-gradient-63"/><linearGradient id="linear-gradient-76" x1="236.51" y1="384.2" x2="289.52" y2="384.2" gradientTransform="translate(525.69 768.41) rotate(-180)" xlink:href="#linear-gradient-64"/><linearGradient id="linear-gradient-77" x1="201.01" y1="361.37" x2="260.43" y2="361.37" xlink:href="#linear-gradient-63"/><linearGradient id="linear-gradient-78" x1="185.54" y1="404.96" x2="235.17" y2="404.96" gradientTransform="matrix(1, 0, 0, 1, 0, 0)" xlink:href="#linear-gradient-64"/><linearGradient id="linear-gradient-79" x1="195.23" y1="404.96" x2="244.85" y2="404.96" gradientTransform="matrix(1, 0, 0, 1, 0, 0)" xlink:href="#linear-gradient-64"/><linearGradient id="linear-gradient-80" x1="204.92" y1="404.96" x2="254.54" y2="404.96" gradientTransform="matrix(1, 0, 0, 1, 0, 0)" xlink:href="#linear-gradient-64"/><linearGradient id="linear-gradient-81" x1="110.89" y1="395.41" x2="110.89" y2="295.51" xlink:href="#linear-gradient-25"/><linearGradient id="linear-gradient-82" x1="122.98" y1="317.92" x2="128.41" y2="317.92" xlink:href="#linear-gradient-25"/><linearGradient id="linear-gradient-83" x1="133.94" y1="395.41" x2="133.94" y2="295.51" xlink:href="#linear-gradient-25"/><linearGradient id="linear-gradient-84" x1="128.66" y1="227.52" x2="128.66" y2="306.33" xlink:href="#linear-gradient-27"/><linearGradient id="linear-gradient-85" x1="111.75" y1="233.09" x2="111.75" y2="300.67" xlink:href="#linear-gradient-27"/><linearGradient id="linear-gradient-86" x1="112.9" y1="253.39" x2="114.07" y2="261.89" xlink:href="#linear-gradient-27"/><linearGradient id="linear-gradient-87" x1="127.07" y1="228.56" x2="127.07" y2="297.68" xlink:href="#linear-gradient-27"/><linearGradient id="linear-gradient-88" x1="136.01" y1="254.31" x2="142.19" y2="254.31" xlink:href="#linear-gradient-27"/><linearGradient id="linear-gradient-89" x1="143.42" y1="228.5" x2="143.42" y2="297.59" xlink:href="#linear-gradient-27"/><linearGradient id="linear-gradient-90" x1="127.67" y1="193" x2="127.67" y2="221.83" gradientUnits="userSpaceOnUse"><stop offset="0" stop-color="#162959"/><stop offset="1" stop-color="#0b1b38"/></linearGradient><linearGradient id="linear-gradient-91" x1="423.88" y1="189.77" x2="314.36" y2="117.95" xlink:href="#linear-gradient"/><linearGradient id="linear-gradient-92" x1="337.76" y1="137.88" x2="337.76" y2="176.87" xlink:href="#linear-gradient-8"/><linearGradient id="linear-gradient-93" x1="350.47" y1="137.88" x2="350.47" y2="176.87" xlink:href="#linear-gradient-8"/><linearGradient id="linear-gradient-94" x1="363.19" y1="137.88" x2="363.19" y2="176.87" xlink:href="#linear-gradient-8"/><linearGradient id="linear-gradient-95" x1="375.9" y1="137.88" x2="375.9" y2="176.87" xlink:href="#linear-gradient-8"/><linearGradient id="linear-gradient-96" x1="388.62" y1="137.88" x2="388.62" y2="176.87" xlink:href="#linear-gradient-8"/><linearGradient id="linear-gradient-97" x1="401.33" y1="137.88" x2="401.33" y2="176.87" xlink:href="#linear-gradient-8"/></defs><g class="cls-1"><g id="Layer_2" data-name="Layer 2"><g id="OBJECTS"><path class="cls-2" d="M271.66,41.51c-140.6,0-254.57,114-254.57,254.57A253.48,253.48,0,0,0,44.45,411H498.87a253.61,253.61,0,0,0,27.36-114.93C526.23,155.49,412.25,41.51,271.66,41.51Z"/><circle class="cls-3" cx="100.45" cy="61.97" r="19.11" transform="translate(-14.4 89.18) rotate(-45)"/><circle class="cls-4" cx="461.68" cy="87.34" r="4"/><circle class="cls-5" cx="283.99" cy="20.16" r="7.89"/><circle class="cls-6" cx="402.03" cy="104.62" r="4"/><circle class="cls-7" cx="556.45" cy="344.87" r="11.2"/><circle class="cls-6" cx="513.32" cy="215.5" r="18.33" transform="translate(41.62 511.18) rotate(-54.85)"/><path class="cls-6" d="M50.09,386A14.93,14.93,0,1,1,35.17,371,14.93,14.93,0,0,1,50.09,386Z"/><circle class="cls-8" cx="64.39" cy="152.66" r="24.33"/><circle class="cls-6" cx="212.74" cy="39.02" r="39.02" transform="translate(-3.29 49.64) rotate(-13.21)"/><line class="cls-9" x1="46.09" y1="207.25" x2="143.1" y2="207.25"/><line class="cls-9" x1="486.18" y1="310.29" x2="583.19" y2="310.29"/><line class="cls-9" x1="323.54" y1="76.5" x2="420.54" y2="76.5"/><path class="cls-6" d="M58.29,347H54.58v-3.71a1,1,0,1,0-2,0V347h-3.7a1,1,0,1,0,0,2h3.7v3.71a1,1,0,1,0,2,0V349h3.71a1,1,0,0,0,0-2Z"/><path class="cls-10" d="M490,108.63h-5.64V103a1.49,1.49,0,1,0-3,0v5.65H475.7a1.49,1.49,0,0,0,0,3h5.65v5.64a1.49,1.49,0,0,0,3,0v-5.64H490a1.49,1.49,0,1,0,0-3Z"/><path class="cls-6" d="M465.33,376.73h-3.71V373a1,1,0,1,0-2,0v3.71H456a1,1,0,0,0,0,2h3.7v3.71a1,1,0,1,0,2,0v-3.71h3.71a1,1,0,0,0,0-2Z"/><path class="cls-6" d="M118.54,310.83v-10a1.78,1.78,0,0,0-1.78-1.78h-2.58a1.63,1.63,0,0,1-1.59-1.25,35.46,35.46,0,0,0-4.47-10.84,1.66,1.66,0,0,1,.22-2.06l1.81-1.81a1.76,1.76,0,0,0,0-2.51l-7.09-7.1a1.78,1.78,0,0,0-2.51,0l-1.82,1.82a1.66,1.66,0,0,1-2,.21A35.42,35.42,0,0,0,85.83,271a1.64,1.64,0,0,1-1.25-1.6v-2.57a1.78,1.78,0,0,0-1.77-1.78h-10A1.78,1.78,0,0,0,71,266.84v2.57a1.63,1.63,0,0,1-1.25,1.6,35.42,35.42,0,0,0-10.85,4.47,1.65,1.65,0,0,1-2-.22L55,273.45a1.78,1.78,0,0,0-2.51,0l-7.09,7.1a1.78,1.78,0,0,0,0,2.51l1.81,1.81a1.65,1.65,0,0,1,.22,2.05A35.62,35.62,0,0,0,43,297.77,1.63,1.63,0,0,1,41.4,299H38.82A1.78,1.78,0,0,0,37,300.8v10a1.78,1.78,0,0,0,1.78,1.78H41.4A1.63,1.63,0,0,1,43,313.86a35.71,35.71,0,0,0,4.47,10.84,1.66,1.66,0,0,1-.21,2.05l-1.82,1.82a1.78,1.78,0,0,0,0,2.51l7.09,7.1a1.78,1.78,0,0,0,2.51,0l1.82-1.82a1.65,1.65,0,0,1,2-.22,35.77,35.77,0,0,0,10.85,4.47A1.63,1.63,0,0,1,71,342.2v2.59a1.77,1.77,0,0,0,1.78,1.77h10a1.77,1.77,0,0,0,1.77-1.77V342.2a1.63,1.63,0,0,1,1.25-1.59,35.77,35.77,0,0,0,10.85-4.47,1.65,1.65,0,0,1,2,.22l1.82,1.82a1.78,1.78,0,0,0,2.51,0l7.09-7.1a1.76,1.76,0,0,0,0-2.51l-1.82-1.82a1.66,1.66,0,0,1-.21-2.05,35.71,35.71,0,0,0,4.47-10.84,1.63,1.63,0,0,1,1.59-1.25h2.58A1.78,1.78,0,0,0,118.54,310.83Zm-40.75,18.5a23.51,23.51,0,1,1,23.5-23.52A23.51,23.51,0,0,1,77.79,329.33Z"/><path class="cls-11" d="M436,137.75v-10a1.77,1.77,0,0,0-1.77-1.78h-2.58a1.63,1.63,0,0,1-1.6-1.25,35.27,35.27,0,0,0-4.47-10.85,1.65,1.65,0,0,1,.22-2l1.81-1.81a1.77,1.77,0,0,0,0-2.52l-7.09-7.09a1.78,1.78,0,0,0-2.51,0l-1.81,1.81a1.66,1.66,0,0,1-2.06.22,35.22,35.22,0,0,0-10.84-4.47,1.63,1.63,0,0,1-1.25-1.6V93.76A1.78,1.78,0,0,0,400.24,92h-10a1.78,1.78,0,0,0-1.78,1.78v2.57a1.63,1.63,0,0,1-1.25,1.6,35.27,35.27,0,0,0-10.85,4.47,1.65,1.65,0,0,1-2.05-.22l-1.81-1.81a1.79,1.79,0,0,0-2.52,0l-7.09,7.09a1.79,1.79,0,0,0,0,2.52l1.82,1.81a1.66,1.66,0,0,1,.21,2,35.77,35.77,0,0,0-4.47,10.85,1.63,1.63,0,0,1-1.59,1.25h-2.58a1.78,1.78,0,0,0-1.78,1.78v10a1.78,1.78,0,0,0,1.78,1.77h2.58a1.63,1.63,0,0,1,1.59,1.25,35.67,35.67,0,0,0,4.47,10.85,1.65,1.65,0,0,1-.21,2l-1.82,1.82a1.78,1.78,0,0,0,0,2.51l7.09,7.09a1.77,1.77,0,0,0,2.52,0l1.81-1.81a1.66,1.66,0,0,1,2.06-.22,35.44,35.44,0,0,0,10.84,4.46,1.63,1.63,0,0,1,1.25,1.6v2.59a1.78,1.78,0,0,0,1.78,1.77h10a1.78,1.78,0,0,0,1.78-1.77v-2.59a1.63,1.63,0,0,1,1.25-1.6,35.44,35.44,0,0,0,10.84-4.46,1.66,1.66,0,0,1,2.05.21l1.82,1.82a1.76,1.76,0,0,0,2.51,0l7.09-7.09a1.76,1.76,0,0,0,0-2.51l-1.81-1.82a1.65,1.65,0,0,1-.22-2A35.52,35.52,0,0,0,430,140.77a1.64,1.64,0,0,1,1.59-1.25h2.59A1.77,1.77,0,0,0,436,137.75Zm-40.75,18.49a23.51,23.51,0,1,1,23.5-23.51A23.5,23.5,0,0,1,395.22,156.24Z"/><path class="cls-6" d="M46.33,277.09v-5.7a1,1,0,0,0-1-1H43.85a.91.91,0,0,1-.9-.71,20.39,20.39,0,0,0-2.54-6.16.94.94,0,0,1,.12-1.17l1-1a1,1,0,0,0,0-1.43l-4-4a1,1,0,0,0-1.43,0l-1,1a1,1,0,0,1-1.17.12,20.14,20.14,0,0,0-6.16-2.54.93.93,0,0,1-.71-.91v-1.46a1,1,0,0,0-1-1H20.31a1,1,0,0,0-1,1v1.46a.93.93,0,0,1-.71.91A19.9,19.9,0,0,0,12.43,257a1,1,0,0,1-1.17-.12l-1-1a1,1,0,0,0-1.43,0l-4,4a1,1,0,0,0,0,1.43l1,1a.92.92,0,0,1,.12,1.16,20.56,20.56,0,0,0-2.54,6.17.91.91,0,0,1-.9.71H1a1,1,0,0,0-1,1v5.7a1,1,0,0,0,1,1H2.48a.92.92,0,0,1,.9.71A20.35,20.35,0,0,0,5.92,285a.94.94,0,0,1-.12,1.17l-1,1a1,1,0,0,0,0,1.43l4,4a1,1,0,0,0,1.43,0l1-1a.94.94,0,0,1,1.17-.13A20.14,20.14,0,0,0,18.59,294a.93.93,0,0,1,.71.91v1.47a1,1,0,0,0,1,1H26a1,1,0,0,0,1-1v-1.47a.93.93,0,0,1,.71-.91,20.14,20.14,0,0,0,6.16-2.54.94.94,0,0,1,1.17.13l1,1a1,1,0,0,0,1.43,0l4-4a1,1,0,0,0,0-1.43l-1-1a.94.94,0,0,1-.12-1.17A20.35,20.35,0,0,0,43,278.81a.92.92,0,0,1,.9-.71h1.47A1,1,0,0,0,46.33,277.09Zm-23.17,9A11.85,11.85,0,1,1,35,274.24,11.84,11.84,0,0,1,23.16,286.09Z"/><rect class="cls-12" x="112.56" y="125" width="342.86" height="235.81" rx="20.74"/><path class="cls-6" d="M447,146.64V321.58a5.82,5.82,0,0,1-5.81,5.82H126.79a5.83,5.83,0,0,1-5.82-5.82V146.64a13.91,13.91,0,0,1,13.91-13.91H433.11A13.9,13.9,0,0,1,447,146.64Z"/><polygon class="cls-13" points="316.7 411.11 251.28 411.11 258.15 371.24 259.95 360.81 308.03 360.81 309.83 371.24 316.7 411.11"/><polygon class="cls-14" points="309.83 371.24 258.15 371.24 259.95 360.81 308.03 360.81 309.83 371.24"/><rect class="cls-15" x="229.6" y="402.54" width="108.77" height="8.57"/><rect class="cls-16" x="182.53" y="269.81" width="202.91" height="6.05"/><rect class="cls-6" x="100.45" y="106.17" width="93.97" height="62.65" rx="5.65"/><path class="cls-17" d="M188.77,105.67H106.11a6.16,6.16,0,0,0-6.16,6.15v51.35a6.16,6.16,0,0,0,6.16,6.15h82.66a6.16,6.16,0,0,0,6.15-6.15V111.82A6.16,6.16,0,0,0,188.77,105.67Zm5.15,6.15v9.51H179.26V106.67h9.51A5.16,5.16,0,0,1,193.92,111.82Zm-47,26.18v14.66H132.28V138Zm-14.66-1V122.33h14.66V137Zm15.66,1H162.6v14.66H147.94Zm0-1V122.33H162.6V137Zm15.66-14.67h14.66V137H163.6Zm0-1V106.67h14.66v14.66Zm-1,0H147.94V106.67H162.6Zm-15.66,0H132.28V106.67h14.66Zm-15.66,0H116.62V106.67h14.66Zm0,1V137H116.62V122.33ZM115.62,137H101V122.33h14.67Zm0,1v14.66H101V138Zm1,0h14.66v14.66H116.62Zm14.66,15.66v14.66H116.62V153.66Zm1,0h14.66v14.66H132.28Zm15.66,0H162.6v14.66H147.94Zm15.66,0h14.66v14.66H163.6Zm0-1V138h14.66v14.66ZM179.26,138h14.66v14.66H179.26Zm0-1V122.33h14.66V137Zm-73.15-30.33h9.51v14.66H101v-9.51A5.16,5.16,0,0,1,106.11,106.67ZM101,163.17v-9.51h14.67v14.66h-9.51A5.16,5.16,0,0,1,101,163.17Zm87.82,5.15h-9.51V153.66h14.66v9.51A5.16,5.16,0,0,1,188.77,168.32Z"/><path class="cls-18" d="M212.72,93.39,201.36,96a.8.8,0,0,0-.41,1.32l1.68,1.8L161.06,138l-17.28-16.18a1.91,1.91,0,0,0-2.65,0L103.5,159.47a.81.81,0,0,0,0,1.15l3.86,3.87a.82.82,0,0,0,1.16,0l34.08-34.08,17.15,16.06a1.9,1.9,0,0,0,2.61,0l45.11-42.15,1.42,1.53a.8.8,0,0,0,1.35-.31l3.42-11.14A.8.8,0,0,0,212.72,93.39Z"/><circle class="cls-19" cx="316.7" cy="317.91" r="34.18" transform="translate(-102.02 156.56) rotate(-24.04)"/><circle class="cls-6" cx="316.7" cy="317.91" r="28.68" transform="translate(-102.27 157.2) rotate(-24.12)"/><path class="cls-20" d="M320,298.82a3.25,3.25,0,1,1-3.25-3.25A3.25,3.25,0,0,1,320,298.82Z"/><path class="cls-21" d="M322.38,304.94a5.45,5.45,0,0,0-1.47-1,9.78,9.78,0,0,0-8.42,0,5.15,5.15,0,0,0-1.47,1c-1.39,1.46-1.52,4.85-1.52,4.85h14.4S323.76,306.4,322.38,304.94Z"/><path class="cls-22" d="M302.88,323.09a2.68,2.68,0,1,1-2.68-2.68A2.68,2.68,0,0,1,302.88,323.09Z"/><path class="cls-23" d="M304.88,328.14a4.31,4.31,0,0,0-1.22-.81,8,8,0,0,0-6.93,0,4.25,4.25,0,0,0-1.21.81c-1.14,1.19-1.25,4-1.25,4h11.86S306,329.33,304.88,328.14Z"/><path class="cls-24" d="M319.38,323.09a2.68,2.68,0,1,1-2.68-2.68A2.68,2.68,0,0,1,319.38,323.09Z"/><path class="cls-25" d="M321.38,328.14a4.31,4.31,0,0,0-1.22-.81,8,8,0,0,0-6.93,0,4.25,4.25,0,0,0-1.21.81c-1.14,1.19-1.25,4-1.25,4h11.86S322.52,329.33,321.38,328.14Z"/><path class="cls-26" d="M335.88,323.09a2.68,2.68,0,1,1-2.68-2.68A2.68,2.68,0,0,1,335.88,323.09Z"/><path class="cls-27" d="M337.88,328.14a4.31,4.31,0,0,0-1.22-.81,8,8,0,0,0-6.93,0,4.25,4.25,0,0,0-1.21.81c-1.14,1.19-1.25,4-1.25,4h11.86S339,329.33,337.88,328.14Z"/><path class="cls-28" d="M330.73,314H317.2v-2.67a.5.5,0,0,0-.5-.5.5.5,0,0,0-.5.5V314H302.66a3,3,0,0,0-3,3v1.79a.5.5,0,0,0,.5.5.51.51,0,0,0,.5-.5V317a2,2,0,0,1,2-2H316.2v3.75a.5.5,0,0,0,.5.5.51.51,0,0,0,.5-.5V315h13.53a2,2,0,0,1,2,2v1.79a.5.5,0,0,0,.5.5.51.51,0,0,0,.5-.5V317A3,3,0,0,0,330.73,314Z"/><path class="cls-29" d="M530.94,398.94l-3.37-7,8-2.75,1.87,5.91s.75,2-.62,3.25S530.94,398.94,530.94,398.94Z"/><path class="cls-30" d="M530.94,398.94s5.79-.11,6.5-3.87a9.77,9.77,0,0,1,4,4.42,39.93,39.93,0,0,0-2.44,5.93c-.77,2.68-4.59,5.2-8.33,5.25h-5.58s-2.93-.62,3-4.38C530.64,404.64,530.94,398.94,530.94,398.94Z"/><path class="cls-31" d="M485.75,235.28l19.38,23.23s13.32-8.12-8.43-29.52c-1.39-1.37-3.18-3-4.73-4.84a8.37,8.37,0,0,1-1-1.56h-4.27C486.5,224.48,483.74,229.66,485.75,235.28Z"/><path class="cls-29" d="M485.29,398.57l.58,5.11s2.85,1.7,5.1,1.36,2.51-1.36,2.51-1.36l.21-6.08Z"/><path class="cls-30" d="M493.48,403.68s-1.29.82-4.52.58a24.43,24.43,0,0,1-3.09-.58s-12.71,4.79-12.77,6,1.55,1,1.55,1h19.21S496.24,407.61,493.48,403.68Z"/><path class="cls-32" d="M536.46,390.41c-3,2.39-8.41,3.81-8.41,3.81-5.63-11.41-21.78-44.24-23.76-49.71-2-4.06-5.82-10.55-9.88-20.87-.12,2.11-.25,4.42-.42,6.81v0a163.69,163.69,0,0,1-2.42,19.9,46.88,46.88,0,0,1,3,15.73c.1,7.74-.43,16.55-.53,24.18,0,2.09-.09,6.73,0,8.32a44.17,44.17,0,0,1-9.12.5c-1.72-12-5.91-41.18-7-49.84-1.83-8.62-4.26-28.48-5.93-43.88-.71-6.5-.57-12.32-.88-15.72l20.3-9.18a58.73,58.73,0,0,1,4.22,6.51l6.67-.89s.9,1.53,2.8,4.2a28.26,28.26,0,0,1,4.68,9.73c.44,1.55,2.54,11,3.06,13.62,2.17,11.22,3.72,22.76,5,27.08.92.72,3.86,3.38,6,9.19,1.89,5.18,5.92,20.24,9.4,31.43C534.37,384.84,535.56,388.09,536.46,390.41Z"/><path class="cls-33" d="M494.41,323.64c-.12,2.11-.25,4.42-.42,6.81-1.2-5.08-7.58-21-7.58-21a20.1,20.1,0,0,0,2.94.37C490.1,312.22,494.41,323.64,494.41,323.64Z"/><path class="cls-31" d="M470.68,210.85a8.14,8.14,0,0,0,.44,8.56,22.41,22.41,0,0,1,2.4,6.32,28.5,28.5,0,0,0-1.29,17.73s6.12-5.22,8.38-6.27.45-13.93.45-13.93-1.56-7.19-1.81-7.89-4.77-6.08-4.77-6.08Z"/><path class="cls-29" d="M462.24,247s-3.79-7.8-4.1-8.86a7.45,7.45,0,0,0-.89-2.67c-.66-.91-2.48-1.44-3-1.84s-1.36-1-2.19-1.66c-.39-.32-.8.23-.6,1.17A4.21,4.21,0,0,0,452.7,235a11.43,11.43,0,0,1-2.57-1c-1.52-.76-2.25-2.11-3.21-2.28s-.86.39-.43,1,1.28,1.51,1.89,2.13l-1-.48a13.43,13.43,0,0,0-2.22-1.84c-.71-.33-1.24-.1-1.16.27a20.85,20.85,0,0,0,2,2.81,7.64,7.64,0,0,0,1.24.85c.4.52.79,1,.93,1.17.33.4,4.54,2.59,4.89,2.79s3.56,9.13,3.56,9.13Z"/><path class="cls-34" d="M472.75,235.51c-2,1.27-4.37,4.68-6.44,10.45a.06.06,0,0,1,0,0c-1.57,4.29-2.83,8.14-3.81,11.35l3.84,13.72a2.59,2.59,0,0,0,1.05-.23,6,6,0,0,0,2.41-2.34,64.43,64.43,0,0,0,3.79-6.95c1.81-3.74,3.21-7.11,3.21-7.11Z"/><path class="cls-35" d="M461.13,244.62s-2.53,1.1-3.64,1.6a27.6,27.6,0,0,0-2.61,1.25c2.15,6.1,6.37,21.61,11.45,23.6l1.44-14.17C465.38,252.38,461.13,244.62,461.13,244.62Z"/><path class="cls-36" d="M473.67,258.16l-.09,3.39a64.43,64.43,0,0,1-3.79,6.95,6,6,0,0,1-2.41,2.34h0c-.09-2.27-2.09-13.58-2.07-15.64s3-6.61,3-6.61Z"/><path class="cls-37" d="M471.47,236.66a21.39,21.39,0,0,1-1.81,8.92c-2.06,5.08-4.22,7.64-3.12,11.83a157.11,157.11,0,0,1,3.95,20.25,79.9,79.9,0,0,1,.34,12.73s6,5.52,33.16-3.14a30.66,30.66,0,0,1-5.77-18c.19-10.44,3.55-14.08,3.55-18.33,0-2.55.77-7.17-1.53-10.88-1.52-2.47-3.81-3.69-8.77-5.73-3.18-.29-11.29-1.11-16.08-.42A12.92,12.92,0,0,0,471.47,236.66Z"/><polygon class="cls-38" points="493.62 251.06 495.29 267.08 498.2 265.66 493.62 251.06"/><path class="cls-29" d="M491.47,234.35c-1,2.64-9,6.07-13.31,5.12-3.77-.82-3.67-4.74-2.77-5.54.93-.51,2-1.09,2.57-1.48a8,8,0,0,0,.25-1.35c.16-1.43.24-3.47.27-5.07,0-1.43,0-2.52,0-2.52l3.07-5.18s6-3,5.43,0c-.69,3.92-.24,13.63.17,13.94A23.42,23.42,0,0,0,491.47,234.35Z"/><path class="cls-39" d="M484.42,224.85a10.91,10.91,0,0,1-6.21,6.25c.16-1.43.24-3.47.27-5.07Z"/><path class="cls-29" d="M485.92,223a11.75,11.75,0,0,1-1,1.34h0c-2.71,3.16-6.86,5.38-8.93,4.88-3-.72-4.45-3.52-5.07-6.84-1.15-6,.42-13.68.42-13.68,2.41-8.2,17.3-3,17.85,2.93S485.92,223,485.92,223Z"/><path class="cls-31" d="M490.64,215.85c1.19-2.75,1.39-6.25-2.92-7.81,0,0-1.47-5.24-7.85-4.74-9.12.71-14.36,7-10,13.24,0,0,12.38.09,13-4.69,0,0-.38,4.33,2.75,6.36a14.32,14.32,0,0,1,1.07,4.38H491A7.88,7.88,0,0,1,490.64,215.85Z"/><rect class="cls-40" x="472.03" y="251.94" width="24.28" height="34.59" transform="translate(-69.74 259.97) rotate(-28.12)"/><rect class="cls-41" x="472.03" y="251.94" width="24.28" height="34.59" transform="translate(-66.61 209.67) rotate(-22.91)"/><path class="cls-42" d="M486.69,267.07l-7.86,2.27a8.2,8.2,0,0,1-2.27.18c-.9-.13-2.27-.77-3.11-.95-.55-.11-2,.63-3.14,1.19a7.33,7.33,0,0,0-1.27.63c-.22.35.39.89.93.83a15.39,15.39,0,0,0,1.93-.35l.16.05a6.57,6.57,0,0,0-2.2,1.2,1.15,1.15,0,0,0-.17.75.86.86,0,0,0,.84.7,1.2,1.2,0,0,0-.06.52.87.87,0,0,0,.79.7,1,1,0,0,0-.05.48c0,.32.29.63.86.7h0c.05.42.55,1,1.54.88a8.39,8.39,0,0,0,2.23-.81L476,276l2.28-1.25,10.1-1.33Z"/><path class="cls-43" d="M505.24,271.81c-1.25.95-4,1.39-7.12,1.6-3.39.25-9.64.58-12.62.53a21,21,0,0,1-1.78-6.21c2.58-.82,12.9-3.23,12.9-3.23s-3-13.63-3.79-17c-1.24-5.58.29-9.82.68-12.31a16,16,0,0,1,8.28,6.39C505.29,247,508.55,269.32,505.24,271.81Z"/><path class="cls-29" d="M484.42,217.57s.63-2.74,2.59-1.64c1.36.75.76,5.31-1.33,5.49"/><path class="cls-44" d="M369,405.32l1.36-5.67c-2.33.4-6.13-.73-7.65-.93l.15,6.6A6.42,6.42,0,0,0,369,405.32Z"/><path class="cls-45" d="M402.75,292.24v0Z"/><path class="cls-44" d="M398.86,405.32l.26-4.31a23.56,23.56,0,0,1-6.55,0l.15,4.35A6.42,6.42,0,0,0,398.86,405.32Z"/><path class="cls-46" d="M362.18,399.81c1.6.91,6.26,1.63,8.51.9,0,0,10-45.42,11.3-51,1.68-7.29,4.59-16.1,6.33-24.06,0,4.12.34,9.49.74,14.05v0c.46,5.28,1,9.48,1,9.48-.35,3.34-1,19.5.29,29.77.87,6.62.92,22,.92,22a23.74,23.74,0,0,0,8.79.11s5.5-50.74,5.74-54.69c1-16.62.28-53.42.2-54.14,0,.26-1.91,1.92-7.77,1.59-8.08-.45-23.31-1.6-23.31-1.6-4.47,2.51-5.31,15.44-5.15,21.7.19,2.94-1.34,23-2.3,34.52-2.95,6.93-3,18.73-3.56,27.39C363,389.37,362.18,399.81,362.18,399.81Z"/><path class="cls-30" d="M403,405s-3-2.39-4-2.39c-.78,0-1.15.47-1.87.74a3.93,3.93,0,0,1-1.05.22c-2.55,0-3.48-.71-3.48-.71a9.69,9.69,0,0,0-.95,7.88h19.43C411.66,406.11,405.43,405.78,403,405Z"/><path class="cls-30" d="M371.43,404a5.73,5.73,0,0,0-2.22-1.38,6.89,6.89,0,0,0-5.38.24,4.45,4.45,0,0,1-1-.06,4,4,0,0,1-1,1.64c-3.72,3.9-1.53,6.31-1.53,6.31h11.87C373.83,408.69,374.16,405.12,371.43,404Z"/><path class="cls-47" d="M388.32,325.64c0,1.58,0,3.33.12,5.16l4.72-16.17a28.37,28.37,0,0,1,2.46-3.33L391.24,313C390.57,316.6,388.32,325.64,388.32,325.64Z"/><path class="cls-29" d="M409,261.06a58.46,58.46,0,0,0,9.93-4.9c.62,1.49,2.59,6.27,3.18,7.59,6-6.51,13.56-14.55,13.56-14.55s5,2.92,4.21,3.72-15.45,24.39-19.56,24.39C416.87,277.31,413.5,271,409,261.06Z"/><path class="cls-48" d="M419.82,257.2a41.12,41.12,0,0,1-9.09,4.63c-.82.31-1.53.56-2.1.74q-.51-.93-1-1.89c-1.19-2.22-2.77-2.27-3.5-2.15a1.85,1.85,0,0,0-.42.11L410.06,239s2.6,2.55,5.88,9.63C417,250.89,418.5,254.05,419.82,257.2Z"/><path class="cls-49" d="M410.73,261.83c-.82.31-1.53.56-2.1.74q-.51-.93-1-1.89c-1.19-2.22-2.77-2.27-3.5-2.15l.59-2.2,4.68-1.75Z"/><path class="cls-50" d="M410.06,239c-1.62-1.75-6.92-4.66-10-5.42a22.67,22.67,0,0,0-3.07-.16,75.73,75.73,0,0,0-9.43.68c-4.65.66-12.14,7.25-13,9.07-2.27,5,.61,21.64-.38,37.47-2.26,7.88-1.56,12.76-1.37,13,1.57,1.82,17.25,1.94,22.28,1.94,4.49,0,10.51-1.29,10.9-2.72.24-.9.55-6.59.51-15.58.95-11.42,3.1-25.59,3.78-27.44C411.24,247.47,411.89,241,410.06,239Z"/><polygon class="cls-51" points="381.15 256.34 379.09 268.29 372.88 270.84 381.15 256.34"/><path class="cls-29" d="M387.59,234.14s4.5,5.53,10.19,4.25c2.59-.59,2.31-4.77,2.31-4.77a2.39,2.39,0,0,1-1.64-.9,8.65,8.65,0,0,1-.46-1.54c-.35-1.49-.76-3.54-.76-3.54l-2-.74-6.19-2.32a55.46,55.46,0,0,1-.62,8.46A1.5,1.5,0,0,1,387.59,234.14Z"/><path class="cls-52" d="M392.46,227s.39,3.53,5.53,4.15c-.35-1.49-.76-3.54-.76-3.54l-2-.74Z"/><path class="cls-29" d="M395.28,210.19c1,.27,4.58-1.51,5.31-.42s2.3,8.26,2.69,9.74c.25.94,1.33,6.93-.74,8.81s-8.28.21-9,0c-1.84-.6-5.3-2.52-5.78-4.24l-.25-10.44Z"/><path class="cls-29" d="M402.41,215.89s2,3.56,2.26,4.15-1.93,1.44-1.93,1.44"/><path class="cls-53" d="M403.23,207.05a9.35,9.35,0,0,0-1.06-1.31c-.57-.75-.85-1.79-1.68-2.26s-2-.1-3.05.06a6,6,0,0,1-3.43-.46c-.38-.16-.73-.37-1.11-.5a3.42,3.42,0,0,0-3.07.42c-.27.19-.52.42-.8.6a6.2,6.2,0,0,1-3.18.62,3.89,3.89,0,0,0-3,1.09c-.93,1.18-.44,3.05-1.34,4.25-.64.86-1.92,1.24-2.23,2.27a5.08,5.08,0,0,0,.13,2c.16,1.66-.85,3.5,0,4.93a6.17,6.17,0,0,0,2,1.64,16.64,16.64,0,0,0,1.18,1.41,11,11,0,0,0,.45,1.41,3.61,3.61,0,0,0,2.87,1.5,28.44,28.44,0,0,0,3.07,2l.71-1s-2.09-3.13-.87-5.16c1.36-1.77,2.89.24,3.79,1.08a.2.2,0,0,0,.34-.14,7.31,7.31,0,0,1,.16-2.71c.32-.83.95-1.41,1.06-2a3.72,3.72,0,0,0,0-.88.92.92,0,0,1,.26-.8.93.93,0,0,1,.73-.13,4.88,4.88,0,0,0,.75.12c.67,0,1.18-.56,1.7-1a1.07,1.07,0,0,1,.36-.2,1.24,1.24,0,0,1,.43,0,4.72,4.72,0,0,0,2.66-.57,1.84,1.84,0,0,0,1-1.09c.07-.29,0-.6.11-.88l.07-.09.14-.11a3.28,3.28,0,0,0,.54-1A3.85,3.85,0,0,0,403.23,207.05Z"/><circle class="cls-54" cx="374.49" cy="289.35" r="17.43" transform="translate(-62.83 108.48) rotate(-15.22)"/><path class="cls-55" d="M383.41,301.07a14.73,14.73,0,1,1,2.8-20.63A14.73,14.73,0,0,1,383.41,301.07Z"/><path class="cls-56" d="M383,300.59a14.12,14.12,0,1,1,2.69-19.79A14.11,14.11,0,0,1,383,300.59Z"/><path class="cls-57" d="M381.89,288.71l0-.27a6.05,6.05,0,0,0-.63-2,1,1,0,0,1,.3-1.29l.24-.18a1,1,0,1,0-1.26-1.65l-.45.34a1,1,0,0,1-1.18,0,4,4,0,0,0-4.72.07c-1.9,1.45-1.59,3.64-1,5.79.48,1.78.34,2.76-.49,3.39s-2.15.38-3-.75a5.83,5.83,0,0,1-1.16-3.07l0-.41a1,1,0,0,0-1.45-.87c-.89.28-.75,1.56-.75,1.56v.24a6.33,6.33,0,0,0,.76,2.58,1.07,1.07,0,0,1-.28,1.33l-.31.23a1,1,0,0,0-.2,1.45l0,0a1,1,0,0,0,1.45.2l.51-.39a1,1,0,0,1,1.18,0,4.23,4.23,0,0,0,5-.06c1.66-1.27,2.06-3,1.31-5.75-.57-2.15-.51-2.94.25-3.52.61-.47,1.65-.57,2.6.68a5.12,5.12,0,0,1,1.07,2.63l.05.38a1.06,1.06,0,0,0,1.45.91C382,290,381.89,288.71,381.89,288.71Z"/><path class="cls-29" d="M384.8,304.34a25.25,25.25,0,0,0-1.81-2.53,31.27,31.27,0,0,0-3-2.82l-2.83-17.3a78,78,0,0,0-2.34-7.62s2.19-8,3.81-15.27c-7.16-2.21-7.83-8.13-9.82-9.21-1.23,5.54-4.47,14.4-5,21.22h0a12.83,12.83,0,0,0-.07,3.22,10.77,10.77,0,0,0,.9,4.27,75.7,75.7,0,0,0,6.07,13.56c3.36,6,4.8,8.18,4.8,8.18s.34,4.24.84,5.15,1.09,2.15,1.74,2.17.81-.26.81-.26a2.35,2.35,0,0,0,.91,0,1,1,0,0,0,.63-.6,1.17,1.17,0,0,0,.85,0,.74.74,0,0,0,.41-.54s1,0,1.26-.63c.14-.32-.39-1.41-.39-1.41a1.91,1.91,0,0,0,1.3.91C384.82,305.05,384.9,304.7,384.8,304.34Z"/><path class="cls-58" d="M382.73,250.59l1.72-15.39s-8.14,3.06-12.88,8.43c-2.32,2.63-5.52,11.78-6.39,18.15,1.93,1.06,5.05,2.45,13,3C379.6,260.64,382.28,253.75,382.73,250.59Z"/><path class="cls-29" d="M392.09,221a3.67,3.67,0,0,1,.44,1.85c.11,1.45-.09,3.48-.93,3.71s-2.45-1-3-2.46c-.46-1.28-.89-3.54.75-4.27S392.09,221,392.09,221Z"/><path class="cls-59" d="M412.57,276.21h23.5a1.08,1.08,0,0,0,1.07-.9l6-34.76a1.08,1.08,0,0,0-1.07-1.26h-23.5a1.08,1.08,0,0,0-1.07.89l-6,34.76A1.09,1.09,0,0,0,412.57,276.21Z"/><path class="cls-29" d="M442.33,245.77a8.13,8.13,0,0,1,.81,3c0,1.42-1.07,4.11-2.13,4.64a7.36,7.36,0,0,1-3.71.32,1,1,0,0,1-.61-.62,9.06,9.06,0,0,1-1.54-.21.77.77,0,0,1-.36-1.08,3.34,3.34,0,0,1-1.37-.23,1,1,0,0,1,.05-1.55,4.36,4.36,0,0,1,1.31-.62,1.75,1.75,0,0,1,.64-1.14,10.65,10.65,0,0,1,3.37-.83C439.92,247.36,441.76,247.34,442.33,245.77Z"/><circle class="cls-60" cx="443.78" cy="198.87" r="19.82"/><path class="cls-61" d="M466.45,194.09l-22.67,4.78-5.63-22.46a22.67,22.67,0,0,1,5.63-.69A23.19,23.19,0,0,1,466.45,194.09Z"/><rect class="cls-6" x="61.99" y="221.21" width="28.61" height="28.61" rx="4.95"/><path class="cls-62" d="M64,236.75a20.05,20.05,0,0,1,12,10s5.66-14.12,17.62-20c0,0-8.93-.82-18,12.7C75.54,239.43,70,235.1,64,236.75Z"/><rect class="cls-6" x="322.87" y="85.87" width="28.61" height="28.61" rx="4.95"/><path class="cls-63" d="M324.85,101.41a20.09,20.09,0,0,1,12,10s5.66-14.13,17.62-20c0,0-8.93-.82-18.05,12.7C336.42,104.09,330.85,99.76,324.85,101.41Z"/><rect class="cls-64" x="253.78" y="76.5" width="56.51" height="72.11" rx="1.95"/><rect class="cls-6" x="257.68" y="79.75" width="48.71" height="65.11" rx="1.27"/><path class="cls-16" d="M272.63,74.08h18.82a2,2,0,0,1,2,2V82a0,0,0,0,1,0,0H270.61a0,0,0,0,1,0,0V76.1A2,2,0,0,1,272.63,74.08Z"/><path class="cls-65" d="M270,103.34H262.8a2.21,2.21,0,0,1-2.21-2.21V94a2.21,2.21,0,0,1,2.21-2.21H270A2.22,2.22,0,0,1,272.16,94v7.14A2.22,2.22,0,0,1,270,103.34ZM262.8,92.78A1.21,1.21,0,0,0,261.59,94v7.14a1.21,1.21,0,0,0,1.21,1.21H270a1.21,1.21,0,0,0,1.21-1.21V94A1.21,1.21,0,0,0,270,92.78Z"/><path class="cls-66" d="M301.59,94.94H275.26a.5.5,0,0,1-.5-.5.5.5,0,0,1,.5-.5h26.33a.5.5,0,0,1,.5.5A.5.5,0,0,1,301.59,94.94Z"/><path class="cls-67" d="M301.59,98.06H275.26a.5.5,0,0,1,0-1h26.33a.5.5,0,0,1,0,1Z"/><path class="cls-68" d="M289.42,101.18H275.26a.5.5,0,0,1-.5-.5.5.5,0,0,1,.5-.5h14.16a.5.5,0,0,1,.5.5A.5.5,0,0,1,289.42,101.18Z"/><path class="cls-69" d="M270,122.21H262.8a2.21,2.21,0,0,1-2.21-2.2v-7.15a2.21,2.21,0,0,1,2.21-2.21H270a2.22,2.22,0,0,1,2.21,2.21V120A2.22,2.22,0,0,1,270,122.21Zm-7.15-10.56a1.21,1.21,0,0,0-1.21,1.21V120a1.21,1.21,0,0,0,1.21,1.2H270a1.21,1.21,0,0,0,1.21-1.2v-7.15a1.21,1.21,0,0,0-1.21-1.21Z"/><path class="cls-70" d="M301.59,113.82H275.26a.5.5,0,0,1-.5-.5.5.5,0,0,1,.5-.5h26.33a.5.5,0,0,1,.5.5A.5.5,0,0,1,301.59,113.82Z"/><path class="cls-71" d="M301.59,116.93H275.26a.5.5,0,0,1-.5-.5.5.5,0,0,1,.5-.5h26.33a.5.5,0,0,1,.5.5A.5.5,0,0,1,301.59,116.93Z"/><path class="cls-72" d="M289.42,120.05H275.26a.5.5,0,0,1-.5-.5.5.5,0,0,1,.5-.5h14.16a.5.5,0,0,1,.5.5A.5.5,0,0,1,289.42,120.05Z"/><path class="cls-73" d="M270,141.09H262.8a2.22,2.22,0,0,1-2.21-2.21v-7.15a2.21,2.21,0,0,1,2.21-2.21H270a2.22,2.22,0,0,1,2.21,2.21v7.15A2.22,2.22,0,0,1,270,141.09Zm-7.15-10.57a1.21,1.21,0,0,0-1.21,1.21v7.15a1.21,1.21,0,0,0,1.21,1.21H270a1.22,1.22,0,0,0,1.21-1.21v-7.15a1.21,1.21,0,0,0-1.21-1.21Z"/><path class="cls-74" d="M301.59,132.69H275.26a.5.5,0,0,1-.5-.5.5.5,0,0,1,.5-.5h26.33a.5.5,0,0,1,.5.5A.5.5,0,0,1,301.59,132.69Z"/><path class="cls-75" d="M301.59,135.8H275.26a.5.5,0,0,1-.5-.5.5.5,0,0,1,.5-.5h26.33a.5.5,0,0,1,.5.5A.5.5,0,0,1,301.59,135.8Z"/><path class="cls-76" d="M289.42,138.92H275.26a.5.5,0,0,1,0-1h14.16a.5.5,0,0,1,0,1Z"/><rect class="cls-77" x="267.34" y="85.41" width="30" height="3.75" rx="0.94"/><path class="cls-78" d="M259.9,95.65a10.08,10.08,0,0,1,6,5s2.84-7.1,8.85-10.06c0,0-4.49-.41-9.07,6.37C265.71,97,262.92,94.82,259.9,95.65Z"/><path class="cls-79" d="M259.9,114.52a10.08,10.08,0,0,1,6,5s2.84-7.09,8.85-10.06c0,0-4.49-.41-9.07,6.38C265.71,115.87,262.92,113.69,259.9,114.52Z"/><rect class="cls-80" x="141.62" y="357.3" width="56.21" height="53.82"/><rect class="cls-81" x="197.83" y="357.3" width="8.42" height="53.82" transform="translate(404.09 768.41) rotate(180)"/><rect class="cls-82" x="165.01" y="357.3" width="9.44" height="8.15"/><rect class="cls-83" x="145.45" y="401.02" width="7.89" height="7.89" rx="1.22"/><rect class="cls-84" x="155.14" y="401.02" width="7.89" height="7.89" rx="1.22"/><rect class="cls-85" x="164.83" y="401.02" width="7.89" height="7.89" rx="1.22"/><rect class="cls-86" x="184.64" y="303.48" width="56.21" height="53.82"/><rect class="cls-87" x="240.85" y="303.48" width="8.42" height="53.82" transform="translate(490.12 660.77) rotate(180)"/><rect class="cls-88" x="208.02" y="303.48" width="9.44" height="8.15"/><rect class="cls-89" x="188.47" y="347.2" width="7.89" height="7.89" rx="1.22"/><rect class="cls-90" x="198.15" y="347.2" width="7.89" height="7.89" rx="1.22"/><rect class="cls-91" x="207.84" y="347.2" width="7.89" height="7.89" rx="1.22"/><rect class="cls-92" x="202.43" y="357.3" width="56.21" height="53.82"/><rect class="cls-93" x="258.64" y="357.3" width="8.42" height="53.82" transform="translate(525.69 768.41) rotate(180)"/><rect class="cls-94" x="225.81" y="357.3" width="9.44" height="8.15"/><rect class="cls-95" x="206.26" y="401.02" width="7.89" height="7.89" rx="1.22"/><rect class="cls-96" x="215.94" y="401.02" width="7.89" height="7.89" rx="1.22"/><rect class="cls-97" x="225.63" y="401.02" width="7.89" height="7.89" rx="1.22"/><path class="cls-42" d="M90.41,398a15.11,15.11,0,0,0,4.2,1l1.94-3.13-6.17-5.7s-1.45,4-2.25,5.68C88.13,395.91,88.32,397.16,90.41,398Z"/><path class="cls-98" d="M101.17,407.37a29.6,29.6,0,0,0-4.07-2.51c-2.11-2.59-2-5.16-2.49-5.8a23.12,23.12,0,0,1-4.15-1.25c-2.1-.88-2.33-1.9-2.33-1.9A12.43,12.43,0,0,0,83,402s8.08,6.79,10.37,8.61H102A3,3,0,0,0,101.17,407.37Z"/><path class="cls-98" d="M134.4,403.52s1.32.84,4.6.59a24.07,24.07,0,0,0,3.16-.59,35.77,35.77,0,0,0,3.72,1.52c2.13.74,5,1.51,7,2.94a2.85,2.85,0,0,1,1.23,2.66H134.66a1.12,1.12,0,0,1-1-.62A6.14,6.14,0,0,1,134.4,403.52Z"/><path class="cls-99" d="M110.19,288.48A32.81,32.81,0,0,0,106.68,302c-.19,3.8.36,7.7.55,11.75.17,3.47.53,32.26.53,32.26s-6,10.32-8.18,16.49S89,393.44,89,393.44c2.62,3.25,7.33,3.6,7.33,3.6s16.59-25.6,25.15-47c.37-.92,4.6-19.44,5-21.32.34-1.51.63-2.84.88-4,.06-.27.12-.55.18-.81.31-1.47.6-2.92.89-4.34,2.78-14,4.42-25.64,4.42-25.64Z"/><path class="cls-100" d="M128.41,319.61c-.29,1.42-.58,2.87-.89,4.34-.06.26-.12.54-.18.81-.25,1.13-.54,2.46-.88,4-.76-4.41-2.13-9.77-3.08-14.91-1.37-7.37,1.25-6.69,1.25-6.69Z"/><path class="cls-42" d="M134.15,399.35c.21,2.27.25,4.17.25,4.17,2.52,1.8,7.76,0,7.76,0s.09-2,.23-4.17Z"/><path class="cls-101" d="M144.4,290H122c-1.24,4.41-1.54,7.33-.86,14.67s4.61,13.87,5.51,17.82,5,24.19,5,24.19-1.6,12.65-1.71,19.19c-.09,5.22,2.2,26.38,3.39,34.61a39.21,39.21,0,0,0,9.29,0s2.82-30.49,4.15-53.93c.6-10.45.21-19.42.33-23.8C147.65,301.76,144.4,290,144.4,290Z"/><path class="cls-29" d="M137.87,216.64a77,77,0,0,0-1-8.12c-.4-4.76-7-5.26-10.87-5.12s-11,4.39-6.34,14.46a4.3,4.3,0,0,0,3.22,2.76,47.78,47.78,0,0,1-.3,13.33,27.68,27.68,0,0,0,9.91-.07c1.24-.2,2-.4,2-.4-.6-4.16-.8-6-.94-7.13,2.66.31,3.64-.62,3.64-.62C138.48,224,138.12,220.33,137.87,216.64Z"/><path class="cls-102" d="M121.73,232.66l.87-3.76s5.1-2.3,12.38,1.16l.6,2"/><path class="cls-29" d="M106.67,258.73s-1.06,8.18-.69,9.87,8.13,6.94,8.13,6.94.37-14.56-.31-16S106.67,258.73,106.67,258.73Z"/><path class="cls-103" d="M117.86,262.66a40,40,0,0,1-7.46-.58,14,14,0,0,1-4.77-1.54c1.83-16.88,7.37-22.46,7.37-22.46l4.37,22.1Z"/><path class="cls-104" d="M117.86,262.66a40,40,0,0,1-7.46-.58c0-3.92,0-8.5,0-8.5l4.26,1.08,2.66,5.52Z"/><path class="cls-105" d="M143,278.83a114.91,114.91,0,0,0,2.72,15.74c-23.93,7.27-37.27,1.83-38.3.67.79-3.91,6.44-24.68,4.47-33.19-2.17-9.41-2.17-17.46-.27-21.77,2.76-6.22,13.68-9.12,13.68-9.12,2-.56,9.41-.95,13.28,1.33l7.93,4.65c1.34,3.86-3.13,9.32-4.26,13.85a1.2,1.2,0,0,0,0,.23,57.21,57.21,0,0,0-.22,6.18C142,263.08,142.23,271.51,143,278.83Z"/><path class="cls-106" d="M142.19,251.22a57.21,57.21,0,0,0-.22,6.18l-6-5.58Z"/><path class="cls-29" d="M185.51,225c-.15-.72-1.06-1.16-1.06-1.16a1.89,1.89,0,0,0-1.13-1.49c-.19-.18-.26-.67-.67-.9a6.17,6.17,0,0,0-1.13-.46s1.89-2.83,2.49-3.81c.79-1.26.59-2.4.05-2.49s-1.91,2-2.66,2.84-3.07,2.24-3.75,3.29-1.39,4.7-1.59,5.86c-.88,1-4.36,4.78-7.26,8-1.16,1.3-3.48,3.83-5,5.31-.75.75-3.42,3.73-4.51,5.12l-3.23-2.06a37.82,37.82,0,0,1-5.24,11.46c5.84,2.05,11.39,3.24,13.11,2.14a4.17,4.17,0,0,0,.47-.36.48.48,0,0,0,.16-.13c2.94-3,7.41-11.52,11-17.88,2.18-3.87,4.19-6.86,4.73-7.66a3.3,3.3,0,0,0,3.16-2.18s0,1.68.85,1.58c.28,0,.49-.61.76-1.24a12.17,12.17,0,0,0,.74-2.14A7.81,7.81,0,0,0,185.51,225Z"/><path class="cls-107" d="M141.9,234.61c-4.44-2-8.79-.72-10.51,1.55,0,0-4.75,5.4-1.12,10.86,2.53,3.8,11.41,8.33,21,11.71a48,48,0,0,0,6.65-14.56C152.64,240.81,146.6,237,141.9,234.61Z"/><path class="cls-108" d="M138.45,202.1c-.61.05-1.25.72-1.65,1.47.44-1.4,1-4.69-1.38-6.06s-3.62.78-6.6,2.83c-2.29,1.57-4.71.34-7.84,1.61-5.17,2.11-3.89,6.73-3.89,6.73-1.87.89-2.89,3.64-1.23,8s5.71,7,6.33,8.21c1.29,2.57,7,.77,7.29-.28.61-2.08.21-6.25-.37-6.91-1.41-1.59-2-3.6-1.07-4.43,1.59-1.38,2.48,1.72,2.48,1.72l1.61.77a12.6,12.6,0,0,0,.58-4C141.67,210.26,141.46,201.87,138.45,202.1Z"/><path class="cls-29" d="M131.44,215.93a4.46,4.46,0,0,0-1.11-3c-.89-.79-3.17-.15-2.94,2.22s2.22,3.86,3.43,3.3C131.52,218.13,131.48,216.55,131.44,215.93Z"/><rect class="cls-109" x="327.34" y="128.78" width="84.42" height="50.71" rx="3.75"/><rect class="cls-110" x="333.76" y="161.07" width="8" height="14.65"/><rect class="cls-111" x="346.47" y="152.56" width="8" height="23.16"/><rect class="cls-112" x="359.19" y="169.07" width="8" height="6.65"/><rect class="cls-113" x="371.9" y="154.88" width="8" height="20.84"/><rect class="cls-114" x="384.62" y="157.57" width="8" height="18.15"/><rect class="cls-115" x="397.33" y="142.04" width="8" height="33.68"/><line class="cls-116" x1="330.67" y1="138.66" x2="408.42" y2="138.66"/><circle class="cls-6" cx="403.39" cy="133.79" r="1.94"/><circle class="cls-6" cx="395.32" cy="133.79" r="1.94"/><circle class="cls-6" cx="387.25" cy="133.79" r="1.94"/><line class="cls-117" x1="24.24" y1="411.12" x2="543.74" y2="411.12"/></g><g id="TEXTS"><text class="cls-118" transform="translate(189.34 258.16)">ERP</text></g></g></g></svg>