<svg xmlns="http://www.w3.org/2000/svg" xmlns:xlink="http://www.w3.org/1999/xlink" viewBox="0 0 260.77 130.39"><defs><clipPath id="clip-path" transform="translate(31.2 33.48)"><rect width="216" height="72" fill="none"/></clipPath></defs><g id="Layer_2" data-name="Layer 2"><g id="Layer_1-2" data-name="Layer 1"><g clip-path="url(#clip-path)"><path d="M-31.2,96.9V-33.45c.8,0,259.72,0,260.77,0V96.9ZM25.4,25.52h0l.18-.15h0s.06,0,.08,0l3.74-3.23a.58.58,0,0,0,.2-.46l0-3.73a.34.34,0,0,0,0-.17c0-.07-.08-.15-.18-.15l-.52,0-5.46-.05h-1a1.65,1.65,0,0,0-.32.07,1,1,0,0,0-.06.19v3.81a.47.47,0,0,0,0,.17c0,.05.08.11.12.11a3.34,3.34,0,0,0,.43.05l1.65,0s.07.06.11.1l-.24.35A22.58,22.58,0,0,0,22,24.45v3.78a.09.09,0,0,0,.11.1.28.28,0,0,0,.15-.06l3-2.6ZM8.24,37.18h0a7.06,7.06,0,0,0-1.18,1.14v4a.47.47,0,0,0,0,.17,1.5,1.5,0,0,0,.11.13c.07.13.2.1.31.1l6.15,0a2.92,2.92,0,0,0,.51,0c.05,0,.1-.06.12-.1a.33.33,0,0,0,.05-.16c0-1.27,0-2.54,0-3.81a.84.84,0,0,0-.06-.24,1,1,0,0,0-.52-.08l-1.3,0a.23.23,0,0,1-.14-.08c-.05,0,0-.1,0-.15l.55-.55,1.42-1.37c0-.15,0-.26,0-.38V31.82c0-.06,0-.13,0-.17a.16.16,0,0,0-.14-.06,1.39,1.39,0,0,0-.27.21L8.65,36.74a2.85,2.85,0,0,0-.23.26ZM133.66,54a1.54,1.54,0,0,0-1,.76,1.82,1.82,0,0,0-.14,1.59c0,.16.17.3.15.49s-.18.22-.26.34a1,1,0,0,0,.21,1.4,1.32,1.32,0,0,0,.62.29c.26,0,.52.06.78.07h1.21a1.86,1.86,0,0,1,.34,0c.12,0,.2.17.19.34a.26.26,0,0,1-.21.24h-2a.55.55,0,0,1-.4-.16.84.84,0,0,0-.81-.13s-.08.08-.08.13a.61.61,0,0,0,.16.48,1.44,1.44,0,0,0,1.13.55c.72,0,1.45,0,2.17,0a.86.86,0,0,0,.71-.43,1.42,1.42,0,0,0,.19-.92,1,1,0,0,0-1-1c-.49,0-1,0-1.47,0a5.38,5.38,0,0,1-.69-.07.8.8,0,0,1-.23-.11.21.21,0,0,1,0-.3.54.54,0,0,1,.22-.1c.29,0,.58,0,.87,0A1.74,1.74,0,0,0,136,55.74a4.08,4.08,0,0,0-.09-.69.25.25,0,0,1,.2-.32.2.2,0,0,0,.15-.19,1,1,0,0,0,0-.51c-.06-.05-.12-.14-.19-.14-.65,0-1.31,0-2,0A1.74,1.74,0,0,0,133.66,54ZM7,19.61c0,.12,0,.23,0,.35v4.67c0,.11,0,.23,0,.34a.24.24,0,0,0,.22.21l.18,0h3.72c.16,0,.24-.09.24-.28s0-.29,0-.44c0-.54,0-1.09,0-1.64,0-.23,0-.46,0-.69a.27.27,0,0,1,.24-.22h1l1.47,0a.25.25,0,0,0,.22-.23,1,1,0,0,0,0-.25c0-1.13,0-2.26,0-3.39a.69.69,0,0,0,0-.25.35.35,0,0,0-.15-.19.69.69,0,0,0-.25,0l-6.34,0c-.49,0-.54,0-.54.54S7,19.09,7,19.61Zm17.88,18.6-1.73,0h-.87c-.19,0-.29.12-.3.33v3.63a.75.75,0,0,0,0,.26s.08.08.12.12.1.07.14.07h2.09l4.25,0a3,3,0,0,0,.52,0,.3.3,0,0,0,.16-.17,1,1,0,0,0,0-.35q0-3.28,0-6.59l0-.35a.28.28,0,0,0-.24-.21H29l-3.64,0a1.09,1.09,0,0,0-.26,0,.2.2,0,0,0-.12.12,2,2,0,0,0,0,.43C24.93,36.41,24.92,37.31,24.92,38.21ZM104,34.72c0-.26,0-.52,0-.78v-9.7c0-.26,0-.52,0-.78a.41.41,0,0,0-.29-.29,2.3,2.3,0,0,0-.26,0c-1,0-2,0-3,0-.44,0-.57.13-.58.57V29.6c0,.2,0,.4,0,.6a3.28,3.28,0,0,0,0,.43V41.91c0,.14,0,.29,0,.43a.38.38,0,0,0,.29.29,2,2,0,0,0,.34,0c.93,0,1.86,0,2.78,0,.57,0,.65-.09.66-.65v-6.6C104,35.18,104,35,104,34.72ZM15.86,27.06c0,.14,0,.28,0,.43V42c0,.15,0,.29,0,.43a.27.27,0,0,0,.23.22H20a.69.69,0,0,0,.25,0c.07,0,.16-.1.17-.17s0-.4,0-.6V35.67c0-.2,0-.41,0-.61s0-.63,0-1l0-11.69v-4q0-.34,0-.69a.3.3,0,0,0-.16-.17,1,1,0,0,0-.34,0H16.16a.31.31,0,0,0-.31.34v.34l0,8.15C15.82,26.6,15.85,26.83,15.86,27.06ZM84.77,48.22a1.92,1.92,0,0,0,.08-.81v-5a1,1,0,0,1,.06-.58c.25-.08.36.14.51.24a4.67,4.67,0,0,0,1.17.56,6,6,0,0,0,2,.32A8.94,8.94,0,0,0,90,42.76a6.25,6.25,0,0,0,3.18-1.67,7.47,7.47,0,0,0,1.38-1.88,12.57,12.57,0,0,0,1.22-3.87A19,19,0,0,0,96,30.76a11.84,11.84,0,0,0-.67-3.22,7.75,7.75,0,0,0-1.37-2.4A6.53,6.53,0,0,0,87.73,23l-.25.06a4.84,4.84,0,0,0-2,1.12l-.46.38s-.07,0-.08,0a.3.3,0,0,1,0-.16c0-.28,0-.57,0-.86a.38.38,0,0,0-.33-.35l-.26,0h-3a.45.45,0,0,0-.47.5c0,.23,0,.46,0,.69V49.49c0,.2,0,.41,0,.61a2.28,2.28,0,0,0,0,.26.34.34,0,0,0,.42.21l.37-.22L83.65,49Zm70.58-26.34c0-.12,0-.2,0-.29V18.21a2.17,2.17,0,0,0,0-.26.37.37,0,0,0-.36-.4H140.25a4.53,4.53,0,0,0-.52,0,.37.37,0,0,0-.23.23,1.17,1.17,0,0,0,0,.26c0,1,0,2,0,3a.86.86,0,0,0,0,.17.39.39,0,0,0,.28.3l.78,0h9l.78,0c.07,0,.15.12.11.18-.13.23-.25.45-.39.67q-4,6-7.93,11.92-1.21,1.85-2.45,3.68a1.37,1.37,0,0,0-.26.81c0,1,0,2.08,0,3.12a2.11,2.11,0,0,0,0,.35.41.41,0,0,0,.34.34c.23,0,.46,0,.69,0H154.9a.74.74,0,0,0,.26,0,.33.33,0,0,0,.23-.24,3,3,0,0,0,.05-.43V40.34c0-.44,0-.87,0-1.31a.39.39,0,0,0-.42-.44h-9.72l-.78,0a.15.15,0,0,1-.11-.25l.47-.73,10-14.92Zm-26,13.36h5a4,4,0,0,0,.6-.05.31.31,0,0,0,.24-.23,1.33,1.33,0,0,0,.05-.34c0-.93,0-1.85,0-2.78a13.24,13.24,0,0,0-.37-3,8.78,8.78,0,0,0-.9-2.43A6.91,6.91,0,0,0,130,23a7.89,7.89,0,0,0-3.86-.25,7.09,7.09,0,0,0-3.88,2,8.61,8.61,0,0,0-1.87,2.89,13.17,13.17,0,0,0-.83,3.45,17,17,0,0,0,.24,5.6,9.31,9.31,0,0,0,1.08,2.82,6.55,6.55,0,0,0,3.6,3,10,10,0,0,0,1.86.41,8.34,8.34,0,0,0,4-.45,6.25,6.25,0,0,0,2.89-2.26.26.26,0,0,0,0-.32l-.06-.06-2.23-2.06a.71.71,0,0,0-.14-.1.35.35,0,0,0-.33,0l-.39.34a2.51,2.51,0,0,1-1.15.58,7.1,7.1,0,0,1-1,.15A4.23,4.23,0,0,1,125,37.8a3.2,3.2,0,0,1-1.34-2.24.26.26,0,0,1,.23-.3l.6,0Zm40.11,0h5.47a.41.41,0,0,0,.39-.4c0-.08,0-.17,0-.26,0-.69,0-1.38,0-2.08A15.63,15.63,0,0,0,175,29.2a9.6,9.6,0,0,0-1-2.85,6.82,6.82,0,0,0-4.45-3.48,8,8,0,0,0-3.27-.11,7.14,7.14,0,0,0-3.83,1.89A8.27,8.27,0,0,0,160.77,27a12.16,12.16,0,0,0-1.16,4.34,18.43,18.43,0,0,0,.15,4.75,10.21,10.21,0,0,0,1.11,3.27,6.41,6.41,0,0,0,3.79,3.13,9.07,9.07,0,0,0,4.71.25,6.37,6.37,0,0,0,3.86-2.47.28.28,0,0,0,0-.45l-2.1-2a.9.9,0,0,0-.28-.2.29.29,0,0,0-.24,0,2.51,2.51,0,0,0-.4.33,2.24,2.24,0,0,1-.9.51,4.4,4.4,0,0,1-3.91-.46,3.56,3.56,0,0,1-1.61-2.28,1,1,0,0,1,0-.34s.06-.12.1-.12a4,4,0,0,1,.6-.05ZM44.63,32.89v8.76c0,.23,0,.46,0,.69a.39.39,0,0,0,.3.29l.34,0h2.78l.34,0a.34.34,0,0,0,.29-.28c0-.26,0-.52,0-.78,0-3.53,0-7.06,0-10.59a6.74,6.74,0,0,1,.15-1.55,2.91,2.91,0,0,1,1.86-2.12,3.56,3.56,0,0,1,1.8-.19,2.47,2.47,0,0,1,2.14,1.54,2.9,2.9,0,0,1,.3,1.08c0,.46.05.92.05,1.39q0,5.11,0,10.24c0,.23,0,.46,0,.69a2.28,2.28,0,0,0,0,.26.41.41,0,0,0,.35.33l.26,0h2.87a2.3,2.3,0,0,0,.26,0,.36.36,0,0,0,.33-.33c0-.21,0-.41,0-.61V29.89A9.55,9.55,0,0,0,59,27.82a6.82,6.82,0,0,0-1.22-2.75,5.28,5.28,0,0,0-3.25-2,6.94,6.94,0,0,0-3,.11,4.76,4.76,0,0,0-2.26,1.24l-.25.23a.11.11,0,0,1-.16,0s-.05,0-.05-.06l0-.6c0-.18,0-.35,0-.52a.38.38,0,0,0-.28-.3l-.25,0h-3l-.26,0a.39.39,0,0,0-.29.28c0,.26,0,.52,0,.78Zm25.69-9.95a9.37,9.37,0,0,0-2.27.19,7.1,7.1,0,0,0-2.57,1,4.76,4.76,0,0,0-2,2.73,7.22,7.22,0,0,0-.19,2.66,4.79,4.79,0,0,0,2,3.49,6.05,6.05,0,0,0,1.69.88,16,16,0,0,0,1.92.52l1.62.34a3.35,3.35,0,0,1,1,.42,2,2,0,0,1,.83,1,1.7,1.7,0,0,1-.79,2.22,3.92,3.92,0,0,1-1.5.39,11.31,11.31,0,0,1-3.28-.29,5.15,5.15,0,0,1-1.58-.68l-.37-.22a.33.33,0,0,0-.38.12,2.87,2.87,0,0,0-.18.4c-.29.72-.57,1.45-.86,2.17-.1.24-.19.48-.28.73a.2.2,0,0,0,.07.23l.13.11a11.3,11.3,0,0,0,6.4,1.55,11.07,11.07,0,0,0,1.29-.15,7.86,7.86,0,0,0,2.71-.89,5.34,5.34,0,0,0,2.63-3.4,7.48,7.48,0,0,0,.15-3.09,4.65,4.65,0,0,0-2-3.24,8,8,0,0,0-2.5-1.15c-.48-.13-1-.23-1.44-.35a13.72,13.72,0,0,1-2.14-.7,2.5,2.5,0,0,1-.67-.39,1.1,1.1,0,0,1-.39-.84,1.25,1.25,0,0,1,1.13-1.39,8.07,8.07,0,0,1,3,0,4.53,4.53,0,0,1,2.19,1,2.78,2.78,0,0,0,.34.26.33.33,0,0,0,.44-.16c.36-1.19.71-2.38,1.06-3.57a.32.32,0,0,0-.15-.37,6.57,6.57,0,0,0-1.76-.92A8.85,8.85,0,0,0,70.32,22.94Zm115.52,0a8.61,8.61,0,0,0-2,.17A7.2,7.2,0,0,0,181,24.22a4.79,4.79,0,0,0-2,2.85,7.54,7.54,0,0,0-.11,2.76,4.11,4.11,0,0,0,.2.84,4.89,4.89,0,0,0,1.94,2.49,6.56,6.56,0,0,0,1.88.87c.51.14,1,.26,1.52.38s1,.21,1.53.32a3.9,3.9,0,0,1,1.05.39,1.9,1.9,0,0,1,1.07,1.93,1.48,1.48,0,0,1-.79,1.26,3.51,3.51,0,0,1-1.48.46,10.84,10.84,0,0,1-3.36-.26,4.66,4.66,0,0,1-1.67-.71l-.37-.22a.35.35,0,0,0-.32.09,1.67,1.67,0,0,0-.12.23c-.41,1-.81,2-1.21,3.06a.26.26,0,0,0,.09.31c.33.18.65.37,1,.53A11.24,11.24,0,0,0,184,42.88a11.62,11.62,0,0,0,2.76-.17,7.58,7.58,0,0,0,3-1.14,5.39,5.39,0,0,0,2.28-3.46,8.51,8.51,0,0,0,.12-2.25,5.64,5.64,0,0,0-.32-1.52,4.28,4.28,0,0,0-1.32-1.9,7,7,0,0,0-1.94-1.14,10.58,10.58,0,0,0-1.66-.5l-.93-.22a13.81,13.81,0,0,1-2-.66,2.14,2.14,0,0,1-.72-.47,1,1,0,0,1-.32-.69,1.63,1.63,0,0,1,.13-.76,1,1,0,0,1,.61-.59l.5-.14a7.79,7.79,0,0,1,3.19,0,4.25,4.25,0,0,1,1.87.88l.41.32a.34.34,0,0,0,.38-.11,2.44,2.44,0,0,0,.1-.24l1-3.24a1.22,1.22,0,0,0,0-.17.32.32,0,0,0-.12-.31,6.49,6.49,0,0,0-1.84-1A9.44,9.44,0,0,0,185.84,23Zm11.68-3c0,.11,0,.23,0,.34v2.17a3,3,0,0,1,0,.52.25.25,0,0,1-.16.17,1,1,0,0,1-.34,0c-.35,0-.7,0-1,0a.38.38,0,0,0-.4.38c0,.37,0,.75,0,1.13v1.9c0,.12,0,.23,0,.35a.36.36,0,0,0,.28.29l1.21,0c.39,0,.46.08.47.45v7.81c0,.43,0,.86,0,1.3a9.87,9.87,0,0,0,.46,2.9,5.18,5.18,0,0,0,.89,1.67,3.88,3.88,0,0,0,2.74,1.49,9.24,9.24,0,0,0,3.1-.25.39.39,0,0,0,.32-.36l.09-.69.42-2.65a1.11,1.11,0,0,0,0-.26.33.33,0,0,0-.32-.24c-.22.06-.44.11-.66.19a3.22,3.22,0,0,1-1.54.13,1.19,1.19,0,0,1-1.06-.78,5.4,5.4,0,0,1-.18-.57,8.16,8.16,0,0,1-.16-1.55V28.05c0-.14,0-.29,0-.43s.11-.34.3-.35h2.43a2.09,2.09,0,0,0,.43,0A.3.3,0,0,0,205,27a1.09,1.09,0,0,0,0-.26v-3a1,1,0,0,0,0-.25.31.31,0,0,0-.24-.23,2.09,2.09,0,0,0-.43,0h-2.43a.28.28,0,0,1-.28-.26c0-.2,0-.41,0-.61v-3.9a3.34,3.34,0,0,0-.05-.43.33.33,0,0,0-.27-.17.47.47,0,0,0-.17,0l-3.4,1.91A.82.82,0,0,0,197.52,19.93Zm-84.34,4.31-.06-.77a.44.44,0,0,0-.29-.3l-.34,0h-2.87l-.26,0a.44.44,0,0,0-.34.35c0,.26,0,.52,0,.78V41.56c0,.23,0,.46,0,.69a.44.44,0,0,0,.46.43h3.12a1.17,1.17,0,0,0,.26,0,.42.42,0,0,0,.28-.3c0-.26,0-.52,0-.78V31.24c0-.31,0-.63,0-.95a4.63,4.63,0,0,1,.21-1.28,3.48,3.48,0,0,1,.46-1,1.9,1.9,0,0,1,2.22-.72c.25.08.48.19.73.29a.38.38,0,0,0,.37-.16,2.56,2.56,0,0,0,.11-.24c.36-1.06.73-2.13,1.09-3.2a.3.3,0,0,0,0-.16.44.44,0,0,0-.1-.23,1,1,0,0,0-.29-.19,4.07,4.07,0,0,0-4.18.48c-.17.12-.3.27-.46.39S113.24,24.25,113.18,24.24ZM39.53,30.06V18a1.09,1.09,0,0,0,0-.25.35.35,0,0,0-.23-.23,2.3,2.3,0,0,0-.26,0H36a1.09,1.09,0,0,0-.25,0,.33.33,0,0,0-.23.23c0,.32,0,.63,0,.95V42.12c0,.08,0,.17,0,.25a.37.37,0,0,0,.24.23,1.17,1.17,0,0,0,.26,0h3a2.34,2.34,0,0,0,.26,0,.37.37,0,0,0,.23-.24c0-.26,0-.51,0-.77Zm64.74-11.12a3.22,3.22,0,0,0-.5-1.67,2.25,2.25,0,0,0-1.12-.92,2.12,2.12,0,0,0-2.51.85,3.26,3.26,0,0,0-.46,2.07,3.23,3.23,0,0,0,.5,1.46,2.1,2.1,0,0,0,3.18.35A3,3,0,0,0,104.27,18.94Zm100.3,32.38c0,.3,0,.59,0,.88,0,.58,0,1.16,0,1.74,0,.21-.12.27-.35.2s-.32-.12-.49-.16a2,2,0,0,0-2.32,2.71,2.05,2.05,0,0,0,3.89-.12,2.51,2.51,0,0,0,.1-.77V51.64c0-.06,0-.12,0-.18a.25.25,0,0,0-.21-.23A.82.82,0,0,0,204.57,51.32ZM161.7,55.17h0v2.26a3.1,3.1,0,0,0,0,.43.17.17,0,0,0,.18.15,3.09,3.09,0,0,0,.43,0,.22.22,0,0,0,.22-.21l0-1.13a.32.32,0,0,1,.27-.29c.2,0,.41,0,.61,0a4.83,4.83,0,0,0,.85-.12,2,2,0,0,0,.84-3.28,2,2,0,0,0-1.39-.62c-.61,0-1.22,0-1.82,0a.26.26,0,0,0-.22.23,2.11,2.11,0,0,0,0,.25ZM89.37,58h.26a1.92,1.92,0,0,0,1.56-1.08s0-.11-.08-.12A1.31,1.31,0,0,0,90,57a.91.91,0,0,1-.48.18,1.18,1.18,0,0,1-1.18-.56.33.33,0,0,1,0-.24s.09-.08.13-.08l1,0h1.73a.28.28,0,0,0,.26-.28,2.06,2.06,0,0,0-2.69-2,2.1,2.1,0,0,0-1.41,2.23A2.05,2.05,0,0,0,89.37,58Zm58-1.13a1.13,1.13,0,0,0-.7,0,1.61,1.61,0,0,0-.46.22,1.22,1.22,0,0,1-1.5-.29.75.75,0,0,1-.09-.15.2.2,0,0,1,.15-.31l1.39,0h1.22c.23,0,.35-.16.32-.41a2.15,2.15,0,0,0-.8-1.48,2.06,2.06,0,0,0-3.22,2.28A2,2,0,0,0,145.33,58a1.94,1.94,0,0,0,2-.91C147.38,57.05,147.36,57,147.37,56.87ZM101,54.55v2.77a3,3,0,0,0,0,.52.17.17,0,0,0,.17.16h.43a.23.23,0,0,0,.21-.23c0-.49,0-1,0-1.47,0-.23,0-.46,0-.69a1,1,0,0,1,.91-.88,1,1,0,0,1,1,.83,3,3,0,0,1,0,.43v1.55a1.86,1.86,0,0,0,0,.34.16.16,0,0,0,.12.11h.51a.19.19,0,0,0,.16-.18c0-.75,0-1.51,0-2.25a1.79,1.79,0,0,0-2.2-1.63l-.34.08a.17.17,0,0,1-.18-.13c0-.17,0-.35,0-.52,0-.6,0-1.21,0-1.82a1.07,1.07,0,0,0,0-.25.2.2,0,0,0-.13-.11.74.74,0,0,0-.51,0,.23.23,0,0,0-.16.18c0,.14,0,.29,0,.43Zm6.6-.62a.49.49,0,0,0,0,.16v3.63a.33.33,0,0,0,0,.17.23.23,0,0,0,.12.1,4.34,4.34,0,0,0,.51,0,.19.19,0,0,0,.12-.11,1.27,1.27,0,0,0,.05-.34V56.06c0-.2,0-.4,0-.6a.75.75,0,0,1,.23-.45.93.93,0,0,1,1.59.49,4.53,4.53,0,0,1,0,.52V57.4c0,.14,0,.29,0,.43a.2.2,0,0,0,.18.17.84.84,0,0,0,.58-.07,16,16,0,0,0,0-2.58,2.16,2.16,0,0,0-.16-.49,1.79,1.79,0,0,0-2-1,.78.78,0,0,1-.65,0A.76.76,0,0,0,107.61,53.93ZM127.27,58a2.07,2.07,0,1,0-2.11-2A2.07,2.07,0,0,0,127.27,58ZM118.21,56a2.06,2.06,0,1,0-4.12,0,2.06,2.06,0,1,0,4.12,0Zm71.67-.71v1.91c0,.2,0,.4,0,.6a.25.25,0,0,0,.26.28h2.6a.32.32,0,0,0,.16,0,.19.19,0,0,0,.11-.12,3,3,0,0,0,0-.43.29.29,0,0,0-.21-.24h-1.65c-.38,0-.42-.14-.43-.39s0-.46,0-.69v-3c0-.17,0-.34,0-.52a.27.27,0,0,0-.24-.2,3.11,3.11,0,0,0-.43,0s-.1.06-.11.11a2,2,0,0,0-.06.42Zm-107.76.27h0v1.82c0,.14,0,.29,0,.43a.27.27,0,0,0,.21.24h.35a.25.25,0,0,0,.29-.25c0-.23,0-.46,0-.69V53.94c0-.2,0-.4,0-.6a.18.18,0,0,1,.17-.17,3,3,0,0,1,.43,0c.2,0,.4,0,.6,0a.15.15,0,0,0,.12-.11,2,2,0,0,0,0-.42.27.27,0,0,0-.28-.27h-3.2c-.08,0-.16.08-.17.18s0,.23,0,.34a.28.28,0,0,0,.25.3l.87,0a.26.26,0,0,1,.26.28Zm15.37-.35.44-.35c.1-.08.09-.2,0-.3A2,2,0,0,0,95.85,54a2.06,2.06,0,1,0,2.05,3.43.22.22,0,0,0,0-.36.93.93,0,0,0-.48-.29l-.33.21a1.14,1.14,0,0,1-1.23,0,1.18,1.18,0,0,1-.61-1.16,1.2,1.2,0,0,1,1.65-1A6.55,6.55,0,0,1,97.49,55.16ZM176,57.91c.61.24.79.15.8-.39v-3c0-.21,0-.41,0-.61a.25.25,0,0,1,.21-.24c.11,0,.23,0,.34,0a.19.19,0,0,0,.13-.1.66.66,0,0,0,0-.58.25.25,0,0,0-.13-.09c-.09,0-.18,0-.26,0s-.27-.11-.28-.26,0-.41,0-.61,0-.29,0-.43a.24.24,0,0,0-.23-.21h-.26c-.18,0-.29.1-.29.25s0,.34,0,.52,0,.34,0,.51a.25.25,0,0,1-.21.23c-.11,0-.23,0-.34.06a.17.17,0,0,0-.12.11.72.72,0,0,0,0,.5c.06.16.22.15.36.17h.09c.14,0,.21.11.22.22s0,.41,0,.61v2.85C175.94,57.52,176,57.72,176,57.91Zm20.79,0a.82.82,0,0,0,.67.07.17.17,0,0,0,.12-.11,2,2,0,0,0,0-.42c0-1,0-2,0-3,0-.2,0-.4,0-.6a.19.19,0,0,1,.17-.17,1.72,1.72,0,0,0,.34-.06.31.31,0,0,0,.16-.18,1.55,1.55,0,0,0,0-.43c0-.05,0-.1-.1-.13a.38.38,0,0,0-.16,0c-.41-.09-.41-.09-.42-.49s0-.58,0-.86a.17.17,0,0,0-.17-.17l-.34,0a.27.27,0,0,0-.27.28c0,.31,0,.63,0,.95a.28.28,0,0,1-.26.29c-.11,0-.23,0-.34.05A.22.22,0,0,0,196,53a.81.81,0,0,0,0,.51.19.19,0,0,0,.11.12,2.13,2.13,0,0,0,.25,0c.3,0,.34.09.34.39,0,.8,0,1.61,0,2.42ZM151.83,58H152a1.3,1.3,0,0,0,1.08-.88,1.21,1.21,0,0,0-.54-1.35c-.17-.11-.36-.19-.54-.29l-.37-.23a.33.33,0,0,1-.09-.31.31.31,0,0,1,.28-.17,2.29,2.29,0,0,1,.34.07.39.39,0,0,0,.24,0,2.51,2.51,0,0,0,.41-.32.19.19,0,0,0,0-.15,1.17,1.17,0,0,0-1.08-.43,1.11,1.11,0,0,0-.57.19,1.06,1.06,0,0,0-.08,1.76,5.57,5.57,0,0,0,.67.39,3.23,3.23,0,0,1,.43.29.35.35,0,0,1-.07.52.46.46,0,0,1-.41.06,2.2,2.2,0,0,1-.31-.15.23.23,0,0,0-.16,0,.88.88,0,0,0-.47.36.18.18,0,0,0,0,.16A1.26,1.26,0,0,0,151.83,58Zm18.55-.21a.18.18,0,0,0,.23-.1c.51-1.16,1-2.33,1.52-3.5l0-.08c0-.06-.06-.19-.13-.19l-.08,0h-.26a.41.41,0,0,0-.42.25l-.6,1.35a.35.35,0,0,1-.24.22.88.88,0,0,1-.27-.43c-.18-.39-.35-.79-.53-1.18a.34.34,0,0,0-.35-.21h-.34a.19.19,0,0,0-.16.25l1.28,2.94ZM122.1,54.64c0-.92,0-1.84,0-2.76a2.84,2.84,0,0,0,0-.51.19.19,0,0,0-.11-.12.66.66,0,0,0-.5,0,.17.17,0,0,0-.11.12,1.24,1.24,0,0,0,0,.33q0,2.89,0,5.79a1.32,1.32,0,0,0,0,.34.22.22,0,0,0,.1.13.81.81,0,0,0,.51,0,.22.22,0,0,0,.11-.12,2,2,0,0,0,0-.42C122.11,56.48,122.1,55.56,122.1,54.64ZM140.53,56h0V54.61c0-.14,0-.28,0-.43s-.13-.29-.35-.3H140c-.18,0-.3.1-.3.24s0,.34,0,.52c0,.83,0,1.66,0,2.5,0,.2,0,.4,0,.6A.26.26,0,0,0,140,58a2,2,0,0,0,.42,0s.1-.06.11-.11a1.26,1.26,0,0,0,.05-.33C140.54,57,140.53,56.51,140.53,56ZM140,53.52h.33a.24.24,0,0,0,.21-.22,2,2,0,0,0,0-.42.27.27,0,0,0-.17-.16,1.88,1.88,0,0,0-.41,0,.26.26,0,0,0-.21.24,1.41,1.41,0,0,0,0,.41c0,.07.1.12.17.16S140,53.52,140,53.52ZM180.9,57.2a.44.44,0,0,0-.42.44.43.43,0,0,0,.4.38.42.42,0,0,0,.41-.35A.42.42,0,0,0,180.9,57.2Z" transform="translate(31.2 33.48)" fill="#fefeff"/><path d="M84.77,48.22,83.65,49l-2.11,1.38-.37.22a.34.34,0,0,1-.42-.21,2.28,2.28,0,0,1,0-.26c0-.2,0-.41,0-.61V24.33c0-.23,0-.46,0-.69a.45.45,0,0,1,.47-.5h3l.26,0a.38.38,0,0,1,.33.35c0,.29,0,.58,0,.86a.3.3,0,0,0,0,.16s.06,0,.08,0l.46-.38a4.84,4.84,0,0,1,2-1.12l.25-.06a6.53,6.53,0,0,1,6.18,2.17,7.75,7.75,0,0,1,1.37,2.4A11.84,11.84,0,0,1,96,30.76a19,19,0,0,1-.16,4.58,12.57,12.57,0,0,1-1.22,3.87,7.47,7.47,0,0,1-1.38,1.88A6.25,6.25,0,0,1,90,42.76a8.94,8.94,0,0,1-1.46.16,6,6,0,0,1-2-.32A4.67,4.67,0,0,1,85.42,42c-.15-.1-.26-.32-.51-.24a1,1,0,0,0-.06.58v5A1.92,1.92,0,0,1,84.77,48.22ZM92.1,32.61a11.92,11.92,0,0,0-.17-2.15,4.85,4.85,0,0,0-.69-1.95A3.41,3.41,0,0,0,88,27a1.4,1.4,0,0,0-.34.08A4.25,4.25,0,0,0,85.23,29a2.54,2.54,0,0,0-.38,1.4c0,1.64,0,3.29,0,4.93a2.8,2.8,0,0,0,.42,1.48A4.3,4.3,0,0,0,87,38.4a3.14,3.14,0,0,0,3.66-.64,4.16,4.16,0,0,0,.64-.93,6.63,6.63,0,0,0,.48-1.38A17,17,0,0,0,92.1,32.61Z" transform="translate(31.2 33.48)" fill="#7e2c7f"/><path d="M155.35,21.88l-.5.78-10,14.92-.47.73a.15.15,0,0,0,.11.25l.78,0H155a.39.39,0,0,1,.42.44c0,.44,0,.87,0,1.31V42a3,3,0,0,1-.05.43.33.33,0,0,1-.23.24.74.74,0,0,1-.26,0H140.49c-.23,0-.46,0-.69,0a.41.41,0,0,1-.34-.34,2.11,2.11,0,0,1,0-.35c0-1,0-2.08,0-3.12a1.37,1.37,0,0,1,.26-.81q1.23-1.83,2.45-3.68,4-6,7.93-11.92c.14-.22.26-.44.39-.67,0-.06,0-.18-.11-.18l-.78,0h-9l-.78,0a.39.39,0,0,1-.28-.3.86.86,0,0,1,0-.17c0-1,0-2,0-3a1.17,1.17,0,0,1,0-.26.37.37,0,0,1,.23-.23,4.53,4.53,0,0,1,.52,0H155a.37.37,0,0,1,.36.4,2.17,2.17,0,0,1,0,.26v3.38C155.38,21.68,155.36,21.76,155.35,21.88Z" transform="translate(31.2 33.48)" fill="#3c62ae"/><path d="M129.3,35.24h-4.78l-.6,0a.26.26,0,0,0-.23.3A3.2,3.2,0,0,0,125,37.8a4.23,4.23,0,0,0,2.84.89,7.1,7.1,0,0,0,1-.15,2.51,2.51,0,0,0,1.15-.58l.39-.34a.35.35,0,0,1,.33,0,.71.71,0,0,1,.14.1l2.23,2.06.06.06a.26.26,0,0,1,0,.32,6.25,6.25,0,0,1-2.89,2.26,8.34,8.34,0,0,1-4,.45,10,10,0,0,1-1.86-.41,6.55,6.55,0,0,1-3.6-3,9.31,9.31,0,0,1-1.08-2.82,17,17,0,0,1-.24-5.6,13.17,13.17,0,0,1,.83-3.45,8.61,8.61,0,0,1,1.87-2.89,7.09,7.09,0,0,1,3.88-2A7.89,7.89,0,0,1,130,23a6.91,6.91,0,0,1,4,3.41,8.78,8.78,0,0,1,.9,2.43,13.24,13.24,0,0,1,.37,3c0,.93,0,1.85,0,2.78a1.33,1.33,0,0,1-.05.34.31.31,0,0,1-.24.23,4,4,0,0,1-.6.05h-5Zm-1.88-4.14h2.86l.6,0a.25.25,0,0,0,.2-.24,5.12,5.12,0,0,0-1.36-3.19,2.44,2.44,0,0,0-1.15-.74,3.33,3.33,0,0,0-3.31.66,4.84,4.84,0,0,0-1.47,2.59c-.05.23-.08.46-.11.69a.22.22,0,0,0,.2.23h3.54Z" transform="translate(31.2 33.48)" fill="#3c62ae"/><path d="M169.41,35.22h-4.95a4,4,0,0,0-.6.05s-.1.07-.1.12a1,1,0,0,0,0,.34A3.56,3.56,0,0,0,165.36,38a4.4,4.4,0,0,0,3.91.46,2.24,2.24,0,0,0,.9-.51,2.51,2.51,0,0,1,.4-.33.29.29,0,0,1,.24,0,.9.9,0,0,1,.28.2l2.1,2a.28.28,0,0,1,0,.45,6.37,6.37,0,0,1-3.86,2.47,9.07,9.07,0,0,1-4.71-.25,6.41,6.41,0,0,1-3.79-3.13,10.21,10.21,0,0,1-1.11-3.27,18.43,18.43,0,0,1-.15-4.75A12.16,12.16,0,0,1,160.77,27a8.27,8.27,0,0,1,1.67-2.31,7.14,7.14,0,0,1,3.83-1.89,8,8,0,0,1,3.27.11A6.82,6.82,0,0,1,174,26.35a9.6,9.6,0,0,1,1,2.85,15.63,15.63,0,0,1,.32,3.27c0,.7,0,1.39,0,2.08,0,.09,0,.18,0,.26a.41.41,0,0,1-.39.4h-5.47Zm-1.92-4.09h3c.68,0,.74,0,.6-.75,0-.17-.07-.34-.11-.5a5,5,0,0,0-1.3-2.32,2.73,2.73,0,0,0-1.09-.67A3.46,3.46,0,0,0,164.94,28a5.43,5.43,0,0,0-1.2,2.83.47.47,0,0,0,0,.17c0,.05.06.12.1.12a3,3,0,0,0,.51.06Z" transform="translate(31.2 33.48)" fill="#3c62ae"/><path d="M44.63,32.89V24.21c0-.26,0-.52,0-.78a.39.39,0,0,1,.29-.28l.26,0h3l.25,0a.38.38,0,0,1,.28.3c0,.17,0,.34,0,.52l0,.6s0,0,.05.06a.11.11,0,0,0,.16,0l.25-.23a4.76,4.76,0,0,1,2.26-1.24,6.94,6.94,0,0,1,3-.11,5.28,5.28,0,0,1,3.25,2A6.82,6.82,0,0,1,59,27.82a9.55,9.55,0,0,1,.19,2.07v11.8c0,.2,0,.4,0,.61a.36.36,0,0,1-.33.33,2.3,2.3,0,0,1-.26,0H55.67l-.26,0a.41.41,0,0,1-.35-.33,2.28,2.28,0,0,1,0-.26c0-.23,0-.46,0-.69q0-5.13,0-10.24c0-.47,0-.93-.05-1.39a2.9,2.9,0,0,0-.3-1.08,2.47,2.47,0,0,0-2.14-1.54,3.56,3.56,0,0,0-1.8.19,2.91,2.91,0,0,0-1.86,2.12A6.74,6.74,0,0,0,48.73,31c0,3.53,0,7.06,0,10.59,0,.26,0,.52,0,.78a.34.34,0,0,1-.29.28l-.34,0H45.3l-.34,0a.39.39,0,0,1-.3-.29c0-.23,0-.46,0-.69V32.89Z" transform="translate(31.2 33.48)" fill="#7e2c7f"/><path d="M70.32,22.94a8.85,8.85,0,0,1,3.38.52,6.57,6.57,0,0,1,1.76.92.32.32,0,0,1,.15.37c-.35,1.19-.7,2.38-1.06,3.57a.33.33,0,0,1-.44.16,2.78,2.78,0,0,1-.34-.26,4.53,4.53,0,0,0-2.19-1,8.07,8.07,0,0,0-3,0,1.25,1.25,0,0,0-1.13,1.39,1.1,1.1,0,0,0,.39.84,2.5,2.5,0,0,0,.67.39,13.72,13.72,0,0,0,2.14.7c.48.12,1,.22,1.44.35a8,8,0,0,1,2.5,1.15,4.65,4.65,0,0,1,2,3.24,7.48,7.48,0,0,1-.15,3.09,5.34,5.34,0,0,1-2.63,3.4,7.86,7.86,0,0,1-2.71.89,11.07,11.07,0,0,1-1.29.15,11.3,11.3,0,0,1-6.4-1.55l-.13-.11a.2.2,0,0,1-.07-.23c.09-.25.18-.49.28-.73.29-.72.57-1.45.86-2.17a2.87,2.87,0,0,1,.18-.4.33.33,0,0,1,.38-.12l.37.22a5.15,5.15,0,0,0,1.58.68,11.31,11.31,0,0,0,3.28.29,3.92,3.92,0,0,0,1.5-.39,1.7,1.7,0,0,0,.79-2.22,2,2,0,0,0-.83-1,3.35,3.35,0,0,0-1-.42l-1.62-.34A16,16,0,0,1,67,33.89,6.05,6.05,0,0,1,65.28,33a4.79,4.79,0,0,1-2-3.49,7.22,7.22,0,0,1,.19-2.66,4.76,4.76,0,0,1,2-2.73,7.1,7.1,0,0,1,2.57-1A9.37,9.37,0,0,1,70.32,22.94Z" transform="translate(31.2 33.48)" fill="#7e2c7f"/><path d="M185.84,23a9.44,9.44,0,0,1,3.38.5,6.49,6.49,0,0,1,1.84,1,.32.32,0,0,1,.12.31,1.22,1.22,0,0,1,0,.17l-1,3.24a2.44,2.44,0,0,1-.1.24.34.34,0,0,1-.38.11l-.41-.32a4.25,4.25,0,0,0-1.87-.88,7.79,7.79,0,0,0-3.19,0l-.5.14a1,1,0,0,0-.61.59,1.63,1.63,0,0,0-.13.76,1,1,0,0,0,.32.69,2.14,2.14,0,0,0,.72.47,13.81,13.81,0,0,0,2,.66l.93.22a10.58,10.58,0,0,1,1.66.5,7,7,0,0,1,1.94,1.14,4.28,4.28,0,0,1,1.32,1.9,5.64,5.64,0,0,1,.32,1.52,8.51,8.51,0,0,1-.12,2.25,5.39,5.39,0,0,1-2.28,3.46,7.58,7.58,0,0,1-3,1.14,11.62,11.62,0,0,1-2.76.17,11.24,11.24,0,0,1-4.18-1.08c-.34-.16-.66-.35-1-.53a.26.26,0,0,1-.09-.31c.4-1,.8-2,1.21-3.06a1.67,1.67,0,0,1,.12-.23.35.35,0,0,1,.32-.09l.37.22a4.66,4.66,0,0,0,1.67.71,10.84,10.84,0,0,0,3.36.26,3.51,3.51,0,0,0,1.48-.46,1.48,1.48,0,0,0,.79-1.26A1.9,1.9,0,0,0,187,35.12a3.9,3.9,0,0,0-1.05-.39c-.51-.11-1-.2-1.53-.32s-1-.24-1.52-.38a6.56,6.56,0,0,1-1.88-.87,4.89,4.89,0,0,1-1.94-2.49,4.11,4.11,0,0,1-.2-.84,7.54,7.54,0,0,1,.11-2.76,4.79,4.79,0,0,1,2-2.85,7.2,7.2,0,0,1,2.82-1.08A8.61,8.61,0,0,1,185.84,23Z" transform="translate(31.2 33.48)" fill="#3c62ae"/><path d="M197.52,19.93a.82.82,0,0,1,.18-.19l3.4-1.91a.47.47,0,0,1,.17,0,.33.33,0,0,1,.27.17,3.34,3.34,0,0,1,.05.43v3.9c0,.2,0,.41,0,.61a.28.28,0,0,0,.28.26h2.43a2.09,2.09,0,0,1,.43,0,.31.31,0,0,1,.24.23,1,1,0,0,1,0,.25v3a1.09,1.09,0,0,1,0,.26.3.3,0,0,1-.23.23,2.09,2.09,0,0,1-.43,0H201.9c-.19,0-.3.13-.3.35s0,.29,0,.43v7.81a8.16,8.16,0,0,0,.16,1.55,5.4,5.4,0,0,0,.18.57,1.19,1.19,0,0,0,1.06.78,3.22,3.22,0,0,0,1.54-.13c.22-.08.44-.13.66-.19a.33.33,0,0,1,.32.24,1.11,1.11,0,0,1,0,.26l-.42,2.65-.09.69a.39.39,0,0,1-.32.36,9.24,9.24,0,0,1-3.1.25,3.88,3.88,0,0,1-2.74-1.49,5.18,5.18,0,0,1-.89-1.67,9.87,9.87,0,0,1-.46-2.9c0-.44,0-.87,0-1.3V27.72c0-.37-.08-.44-.47-.45l-1.21,0a.36.36,0,0,1-.28-.29c0-.12,0-.23,0-.35V24.7c0-.38,0-.76,0-1.13a.38.38,0,0,1,.4-.38c.34,0,.69,0,1,0a1,1,0,0,0,.34,0,.25.25,0,0,0,.16-.17,3,3,0,0,0,0-.52V20.27C197.49,20.16,197.51,20,197.52,19.93Z" transform="translate(31.2 33.48)" fill="#3c62ae"/><path d="M113.18,24.24c.06,0,.14,0,.17,0s.29-.27.46-.39a4.07,4.07,0,0,1,4.18-.48,1,1,0,0,1,.29.19.44.44,0,0,1,.1.23.3.3,0,0,1,0,.16c-.36,1.07-.73,2.14-1.09,3.2a2.56,2.56,0,0,1-.11.24.38.38,0,0,1-.37.16c-.25-.1-.48-.21-.73-.29a1.9,1.9,0,0,0-2.22.72,3.48,3.48,0,0,0-.46,1,4.63,4.63,0,0,0-.21,1.28c0,.32,0,.64,0,.95V41.57c0,.26,0,.52,0,.78a.42.42,0,0,1-.28.3,1.17,1.17,0,0,1-.26,0h-3.12a.44.44,0,0,1-.46-.43c0-.23,0-.46,0-.69V24.29c0-.26,0-.52,0-.78a.44.44,0,0,1,.34-.35l.26,0h2.87l.34,0a.44.44,0,0,1,.29.3Z" transform="translate(31.2 33.48)" fill="#3c62ae"/><path d="M39.53,30.06V41.59c0,.26,0,.51,0,.77a.37.37,0,0,1-.23.24,2.34,2.34,0,0,1-.26,0H36a1.17,1.17,0,0,1-.26,0,.37.37,0,0,1-.24-.23c0-.08,0-.17,0-.25V18.71c0-.32,0-.63,0-.95a.33.33,0,0,1,.23-.23,1.09,1.09,0,0,1,.25,0h3a2.3,2.3,0,0,1,.26,0,.35.35,0,0,1,.23.23,1.09,1.09,0,0,1,0,.25V30.06Z" transform="translate(31.2 33.48)" fill="#7e2c7f"/><path d="M15.86,27.06c0-.23,0-.46,0-.69l0-8.15v-.34a.31.31,0,0,1,.31-.34h3.73a1,1,0,0,1,.34,0,.3.3,0,0,1,.16.17q0,.35,0,.69v4l0,11.69c0,.32,0,.64,0,1a.38.38,0,0,1-.31-.12l-.21-.38q-1-2-2-4a2.81,2.81,0,0,1-.19-.39,28.29,28.29,0,0,0-1.29-2.73A.65.65,0,0,0,15.86,27.06Z" transform="translate(31.2 33.48)" fill="#3c62ae"/><path d="M15.86,27.06a.65.65,0,0,1,.55.36,28.29,28.29,0,0,1,1.29,2.73,2.81,2.81,0,0,0,.19.39q1,2,2,4l.21.38a.38.38,0,0,0,.31.12c0,.2,0,.41,0,.61v6.16q0,.3,0,.6c0,.07-.1.14-.17.17a.69.69,0,0,1-.25,0H16.08a.27.27,0,0,1-.23-.22c0-.14,0-.28,0-.43V27.49C15.83,27.34,15.85,27.2,15.86,27.06Z" transform="translate(31.2 33.48)" fill="#7e2c7f"/><path d="M24.06,22.38,24.3,22s-.07-.1-.11-.1l-1.65,0a3.34,3.34,0,0,1-.43-.05S22,21.8,22,21.75a.47.47,0,0,1,0-.17V17.77a1,1,0,0,1,.06-.19,1.65,1.65,0,0,1,.32-.07h1l5.46.05.52,0c.1,0,.14.08.18.15a.34.34,0,0,1,0,.17l0,3.73a.58.58,0,0,1-.2.46l-3.74,3.23s-.05,0-.08,0a.74.74,0,0,0-.11-.57c-.33-.47-.67-.93-1-1.37A1.47,1.47,0,0,1,24.06,22.38Z" transform="translate(31.2 33.48)" fill="#3c62ae"/><path d="M104,34.72c0,.23,0,.46,0,.69V42c0,.56-.09.65-.66.65-.92,0-1.85,0-2.78,0a2,2,0,0,1-.34,0,.38.38,0,0,1-.29-.29c0-.14,0-.29,0-.43V30.63a3.28,3.28,0,0,1,0-.43.6.6,0,0,1,.45.21c.38.5.79,1,1.13,1.52.46.73,1,1.38,1.51,2.09a3.2,3.2,0,0,0,.61.61C103.73,34.7,103.87,34.69,104,34.72Z" transform="translate(31.2 33.48)" fill="#7e2c7f"/><path d="M8.42,37a2.85,2.85,0,0,1,.23-.26l5.22-4.94a1.39,1.39,0,0,1,.27-.21.16.16,0,0,1,.14.06s0,.11,0,.17v3.89c0,.12,0,.23,0,.38l-1.42,1.37-.55.55c-.05.05-.06.1,0,.15a.23.23,0,0,0,.14.08l1.3,0a1,1,0,0,1,.52.08.84.84,0,0,1,.06.24c0,1.27,0,2.54,0,3.81a.33.33,0,0,1-.05.16s-.07.1-.12.1a2.92,2.92,0,0,1-.51,0l-6.15,0c-.11,0-.24,0-.31-.1l3.65,0h.6c.16,0,.27-.18.19-.3a7.31,7.31,0,0,0-.43-.65A19.8,19.8,0,0,1,10,39.92a1.86,1.86,0,0,0-.21-.28c-.48-.61-.93-1.24-1.36-1.89a1.18,1.18,0,0,1-.17-.57h0A.21.21,0,0,0,8.42,37Z" transform="translate(31.2 33.48)" fill="#3c62ae"/><path d="M24.92,38.21c0-.9,0-1.8,0-2.69a2,2,0,0,1,0-.43A.2.2,0,0,1,25.1,35a1.09,1.09,0,0,1,.26,0L29,35h.09a.28.28,0,0,1,.24.21l0,.35q0,3.3,0,6.59a1,1,0,0,1,0,.35.3.3,0,0,1-.16.17,3,3,0,0,1-.52,0l-4.25,0H22.32s-.09,0-.14-.07l2.51,0h.69c.11,0,.24,0,.31-.1s0-.22-.05-.31a2.93,2.93,0,0,0-.34-.5c-.26-.27-.43-.61-.66-.9s-.24-.33-.36-.49l-1-1.4a.24.24,0,0,1,.16-.39l.61,0c.2,0,.4,0,.6,0A.32.32,0,0,0,24.92,38.21Z" transform="translate(31.2 33.48)" fill="#3c62ae"/><path d="M104,34.72c-.11,0-.25,0-.33-.09A3.2,3.2,0,0,1,103,34c-.48-.71-1.05-1.36-1.51-2.09-.34-.53-.75-1-1.13-1.52a.6.6,0,0,0-.45-.21c0-.2,0-.4,0-.6V23.71c0-.44.14-.57.58-.57,1,0,2,0,3,0a2.3,2.3,0,0,1,.26,0,.41.41,0,0,1,.29.29c0,.26,0,.52,0,.78v9.7C104,34.2,104,34.46,104,34.72Z" transform="translate(31.2 33.48)" fill="#3c62ae"/><path d="M7,19.61c0-.52,0-1,0-1.56s0-.54.54-.54l6.34,0a.69.69,0,0,1,.25,0,.35.35,0,0,1,.15.19.69.69,0,0,1,0,.25c0,1.13,0,2.26,0,3.39a1,1,0,0,1,0,.25.25.25,0,0,1-.22.23l-1.47,0h-1a.27.27,0,0,0-.24.22c0,.23,0,.46,0,.69,0,.55,0,1.1,0,1.65a.54.54,0,0,1-.46-.2c-.27-.38-.6-.7-.86-1.07q-.88-1.28-1.8-2.52c-.22-.3-.43-.61-.66-.9a.72.72,0,0,0-.3-.16A2.11,2.11,0,0,0,7,19.61Z" transform="translate(31.2 33.48)" fill="#3c62ae"/><path d="M104.27,18.94a3,3,0,0,1-.91,2.14,2.1,2.1,0,0,1-3.18-.35,3.23,3.23,0,0,1-.5-1.46,3.26,3.26,0,0,1,.46-2.07,2.12,2.12,0,0,1,2.51-.85,2.25,2.25,0,0,1,1.12.92A3.22,3.22,0,0,1,104.27,18.94Z" transform="translate(31.2 33.48)" fill="#3c62ae"/><path d="M136.21,54a1,1,0,0,1,0,.51.2.2,0,0,1-.15.19.25.25,0,0,0-.2.32,4.08,4.08,0,0,1,.09.69,1.74,1.74,0,0,1-1.67,1.76c-.29,0-.58,0-.87,0a.54.54,0,0,0-.22.1.21.21,0,0,0,0,.3.8.8,0,0,0,.23.11,5.38,5.38,0,0,0,.69.07c.49,0,1,0,1.47,0a1,1,0,0,1,1,1,1.42,1.42,0,0,1-.19.92.86.86,0,0,1-.71.43c-.72,0-1.45,0-2.17,0a1.44,1.44,0,0,1-1.13-.55.61.61,0,0,1-.16-.48c0-.05,0-.13.08-.13a.84.84,0,0,1,.81.13.55.55,0,0,0,.4.16h2a.26.26,0,0,0,.21-.24c0-.17-.07-.32-.19-.34a1.86,1.86,0,0,0-.34,0H134c-.26,0-.52,0-.78-.07a1.32,1.32,0,0,1-.62-.29,1,1,0,0,1-.21-1.4c.08-.12.17-.23.26-.34s-.1-.33-.15-.49a1.82,1.82,0,0,1,.14-1.59,1.54,1.54,0,0,1,1-.76Zm-2,2.62a.92.92,0,0,0,1-.9,1,1,0,0,0-1-1,1,1,0,0,0-.92,1A.9.9,0,0,0,134.18,56.65Z" transform="translate(31.2 33.48)" fill="#7e2c7f"/><path d="M8.24,37.18a1.18,1.18,0,0,0,.17.57c.43.65.88,1.28,1.36,1.89a1.86,1.86,0,0,1,.21.28,19.8,19.8,0,0,0,1.22,1.67,7.31,7.31,0,0,1,.43.65c.08.12,0,.29-.19.3h-.6l-3.65,0a1.5,1.5,0,0,1-.11-.13.47.47,0,0,1,0-.17v-4A7.06,7.06,0,0,1,8.24,37.18Z" transform="translate(31.2 33.48)" fill="#7e2c7f"/><path d="M7,19.61a2.11,2.11,0,0,1,.26,0,.72.72,0,0,1,.3.16c.23.29.44.6.66.9q.91,1.24,1.8,2.52c.26.37.59.69.86,1.07a.54.54,0,0,0,.46.2c0,.14,0,.28,0,.43s-.08.27-.24.28H7.44l-.18,0A.24.24,0,0,1,7,25c0-.11,0-.23,0-.34V20C7,19.84,7,19.73,7,19.61Z" transform="translate(31.2 33.48)" fill="#7e2c7f"/><path d="M204.57,51.32a.82.82,0,0,1,.59-.09.25.25,0,0,1,.21.23c0,.06,0,.12,0,.18V55.8a2.51,2.51,0,0,1-.1.77,2.05,2.05,0,0,1-3.89.12A2,2,0,0,1,203.71,54c.17,0,.33.11.49.16s.35,0,.35-.2c0-.58,0-1.16,0-1.74C204.56,51.91,204.56,51.62,204.57,51.32Zm0,4.67a1.25,1.25,0,0,0-1.21-1.24,1.23,1.23,0,0,0-1.25,1.18,1.19,1.19,0,0,0,1.24,1.26A1.21,1.21,0,0,0,204.55,56Z" transform="translate(31.2 33.48)" fill="#3c62ae"/><path d="M24.06,22.38a1.47,1.47,0,0,0,.38,1c.36.44.7.9,1,1.37a.74.74,0,0,1,.11.57h0a.2.2,0,0,0-.18.15h0l-.17.15-3,2.6a.28.28,0,0,1-.15.06.09.09,0,0,1-.11-.1V24.45A22.58,22.58,0,0,1,24.06,22.38Z" transform="translate(31.2 33.48)" fill="#7e2c7f"/><path d="M161.7,55.17V52.83a2.11,2.11,0,0,1,0-.25.26.26,0,0,1,.22-.23c.6,0,1.21,0,1.82,0a2,2,0,0,1,1.39.62,2,2,0,0,1-.84,3.28,4.83,4.83,0,0,1-.85.12c-.2,0-.41,0-.61,0a.32.32,0,0,0-.27.29l0,1.13a.22.22,0,0,1-.22.21,3.09,3.09,0,0,1-.43,0,.17.17,0,0,1-.18-.15,3.1,3.1,0,0,1,0-.43V55.17Zm.85-.92h0v1c0,.2.13.3.34.31h.86a1,1,0,0,0,.56-.21,1.31,1.31,0,0,0,.35-1.64,1.11,1.11,0,0,0-1-.64c-1.12,0-1.07-.12-1.07,1Z" transform="translate(31.2 33.48)" fill="#3c62ae"/><path d="M89.37,58a2.05,2.05,0,0,1-2-1.78A2.1,2.1,0,0,1,88.76,54a2.06,2.06,0,0,1,2.69,2,.28.28,0,0,1-.26.28H89.46l-1,0s-.12,0-.13.08a.33.33,0,0,0,0,.24,1.18,1.18,0,0,0,1.18.56A.91.91,0,0,0,90,57a1.31,1.31,0,0,1,1.07-.17s.09.1.08.12A1.92,1.92,0,0,1,89.63,58Zm-.91-2.6h1.72a.27.27,0,0,0,.14-.07s0-.16-.06-.22a1.17,1.17,0,0,0-1.74,0A.77.77,0,0,0,88.46,55.4Z" transform="translate(31.2 33.48)" fill="#7e2c7f"/><path d="M147.37,56.87c0,.08,0,.18,0,.24a1.94,1.94,0,0,1-2,.91,2,2,0,0,1-1.65-1.37,2.06,2.06,0,0,1,3.22-2.28,2.15,2.15,0,0,1,.8,1.48c0,.25-.09.41-.32.41h-1.22l-1.39,0a.2.2,0,0,0-.15.31.75.75,0,0,0,.09.15,1.22,1.22,0,0,0,1.5.29,1.61,1.61,0,0,1,.46-.22A1.13,1.13,0,0,1,147.37,56.87Zm-1.71-1.43v0h.77a.18.18,0,0,0,.13-.09.21.21,0,0,0,0-.15.93.93,0,0,0-.48-.34,1.12,1.12,0,0,0-1.31.36.29.29,0,0,0,0,.16s0,0,.06,0Z" transform="translate(31.2 33.48)" fill="#3c62ae"/><path d="M101,54.55V51.78c0-.14,0-.29,0-.43a.23.23,0,0,1,.16-.18.74.74,0,0,1,.51,0,.2.2,0,0,1,.13.11,1.07,1.07,0,0,1,0,.25c0,.61,0,1.22,0,1.82,0,.17,0,.35,0,.52a.17.17,0,0,0,.18.13l.34-.08a1.79,1.79,0,0,1,2.2,1.63c0,.74,0,1.5,0,2.25a.19.19,0,0,1-.16.18h-.51a.16.16,0,0,1-.12-.11,1.86,1.86,0,0,1,0-.34V56a3,3,0,0,0,0-.43,1,1,0,0,0-1-.83,1,1,0,0,0-.91.88c0,.23,0,.46,0,.69,0,.49,0,1,0,1.47a.23.23,0,0,1-.21.23h-.43a.17.17,0,0,1-.17-.16,3,3,0,0,1,0-.52Z" transform="translate(31.2 33.48)" fill="#7e2c7f"/><path d="M24.92,38.21a.32.32,0,0,1-.27.19c-.2,0-.4,0-.6,0l-.61,0a.24.24,0,0,0-.16.39l1,1.4c.12.16.23.33.36.49s.4.63.66.9a2.93,2.93,0,0,1,.34.5c.06.09.14.19.05.31s-.2.1-.31.1h-.69l-2.51,0s-.1-.07-.12-.12a.75.75,0,0,1,0-.26V38.56c0-.21.11-.33.3-.33h.87Z" transform="translate(31.2 33.48)" fill="#7e2c7f"/><path d="M107.61,53.93a.76.76,0,0,1,.67,0,.78.78,0,0,0,.65,0,1.79,1.79,0,0,1,2,1,2.16,2.16,0,0,1,.16.49,16,16,0,0,1,0,2.58.84.84,0,0,1-.58.07.2.2,0,0,1-.18-.17c0-.14,0-.29,0-.43V56a4.53,4.53,0,0,0,0-.52.93.93,0,0,0-1.59-.49.75.75,0,0,0-.23.45c0,.2,0,.4,0,.6v1.47a1.27,1.27,0,0,1-.05.34.19.19,0,0,1-.12.11,4.34,4.34,0,0,1-.51,0,.23.23,0,0,1-.12-.1.33.33,0,0,1,0-.17V54.09A.49.49,0,0,1,107.61,53.93Z" transform="translate(31.2 33.48)" fill="#7e2c7f"/><path d="M127.27,58a2.07,2.07,0,1,1-.09-4.13,2.07,2.07,0,0,1,.09,4.13Zm1.17-2a1.24,1.24,0,0,0-1.19-1.24,1.22,1.22,0,1,0-.06,2.43A1.25,1.25,0,0,0,128.44,56Z" transform="translate(31.2 33.48)" fill="#7e2c7f"/><path d="M118.21,56a2.06,2.06,0,1,1-2.09-2.07A2,2,0,0,1,118.21,56Zm-.85,0a1.22,1.22,0,0,0-1.21-1.22,1.25,1.25,0,0,0-1.22,1.21,1.27,1.27,0,0,0,1.22,1.22A1.23,1.23,0,0,0,117.36,56Z" transform="translate(31.2 33.48)" fill="#7e2c7f"/><path d="M189.88,55.24V52.9a2,2,0,0,1,.06-.42s.07-.11.11-.11a3.11,3.11,0,0,1,.43,0,.27.27,0,0,1,.24.2c0,.18,0,.35,0,.52v3c0,.23,0,.46,0,.69s.05.4.43.39h1.65a.29.29,0,0,1,.21.24,3,3,0,0,1,0,.43.19.19,0,0,1-.11.12.32.32,0,0,1-.16,0h-2.6a.25.25,0,0,1-.26-.28c0-.2,0-.4,0-.6Z" transform="translate(31.2 33.48)" fill="#3c62ae"/><path d="M82.12,55.51V53.43a.26.26,0,0,0-.26-.28l-.87,0a.28.28,0,0,1-.25-.3c0-.11,0-.23,0-.34s.09-.14.17-.18h3.2a.27.27,0,0,1,.28.27,2,2,0,0,1,0,.42.15.15,0,0,1-.12.11c-.2,0-.4,0-.6,0a3,3,0,0,0-.43,0,.18.18,0,0,0-.17.17c0,.2,0,.4,0,.6v3.12c0,.23,0,.46,0,.69a.25.25,0,0,1-.29.25h-.35a.27.27,0,0,1-.21-.24c0-.14,0-.29,0-.43V55.51Z" transform="translate(31.2 33.48)" fill="#7e2c7f"/><path d="M97.49,55.16a6.55,6.55,0,0,0-.59-.33,1.2,1.2,0,0,0-1.65,1A1.18,1.18,0,0,0,95.86,57a1.14,1.14,0,0,0,1.23,0l.33-.21a.93.93,0,0,1,.48.29.22.22,0,0,1,0,.36A2.06,2.06,0,1,1,95.85,54a2,2,0,0,1,2.07.52c.1.1.11.22,0,.3Z" transform="translate(31.2 33.48)" fill="#7e2c7f"/><path d="M176,57.91c0-.19,0-.39,0-.59V54.47c0-.2,0-.4,0-.61s-.08-.18-.22-.22h-.09c-.14,0-.3,0-.36-.17a.72.72,0,0,1,0-.5.17.17,0,0,1,.12-.11c.11,0,.23,0,.34-.06a.25.25,0,0,0,.21-.23c0-.17,0-.34,0-.51s0-.35,0-.52.11-.24.29-.25h.26a.24.24,0,0,1,.23.21c0,.14,0,.29,0,.43s0,.4,0,.61.09.23.28.26.17,0,.26,0a.25.25,0,0,1,.13.09.66.66,0,0,1,0,.58.19.19,0,0,1-.13.1c-.11,0-.23,0-.34,0a.25.25,0,0,0-.21.24c0,.2,0,.4,0,.61v3C176.75,58.06,176.57,58.15,176,57.91Z" transform="translate(31.2 33.48)" fill="#3c62ae"/><path d="M196.75,57.92V56.44c0-.81,0-1.62,0-2.42,0-.3,0-.34-.34-.39a2.13,2.13,0,0,1-.25,0,.19.19,0,0,1-.11-.12.81.81,0,0,1,0-.51.22.22,0,0,1,.11-.12c.11,0,.23,0,.34-.05a.28.28,0,0,0,.26-.29c0-.32,0-.64,0-.95a.27.27,0,0,1,.27-.28l.34,0a.17.17,0,0,1,.17.17c0,.28,0,.57,0,.86s0,.4.42.49a.38.38,0,0,1,.16,0c.05,0,.1.08.1.13a1.55,1.55,0,0,1,0,.43.31.31,0,0,1-.16.18,1.72,1.72,0,0,1-.34.06.19.19,0,0,0-.17.17c0,.2,0,.4,0,.6,0,1,0,2,0,3a2,2,0,0,1,0,.42.17.17,0,0,1-.12.11A.82.82,0,0,1,196.75,57.92Z" transform="translate(31.2 33.48)" fill="#3c62ae"/><path d="M151.83,58a1.26,1.26,0,0,1-1-.52.18.18,0,0,1,0-.16.88.88,0,0,1,.47-.36.23.23,0,0,1,.16,0,2.2,2.2,0,0,0,.31.15.46.46,0,0,0,.41-.06.35.35,0,0,0,.07-.52,3.23,3.23,0,0,0-.43-.29,5.57,5.57,0,0,1-.67-.39,1.06,1.06,0,0,1,.08-1.76,1.11,1.11,0,0,1,.57-.19,1.17,1.17,0,0,1,1.08.43.19.19,0,0,1,0,.15,2.51,2.51,0,0,1-.41.32.39.39,0,0,1-.24,0,2.29,2.29,0,0,0-.34-.07.31.31,0,0,0-.28.17.33.33,0,0,0,.09.31l.37.23c.18.1.37.18.54.29a1.21,1.21,0,0,1,.54,1.35A1.3,1.3,0,0,1,152,58Z" transform="translate(31.2 33.48)" fill="#3c62ae"/><path d="M170.38,57.83l-.32-.69-1.28-2.94a.19.19,0,0,1,.16-.25h.34a.34.34,0,0,1,.35.21c.18.39.35.79.53,1.18a.88.88,0,0,0,.27.43.35.35,0,0,0,.24-.22l.6-1.35a.41.41,0,0,1,.42-.25H172l.08,0c.07,0,.15.13.13.19l0,.08c-.51,1.17-1,2.34-1.52,3.5A.18.18,0,0,1,170.38,57.83Z" transform="translate(31.2 33.48)" fill="#3c62ae"/><path d="M122.1,54.64c0,.92,0,1.84,0,2.76a2,2,0,0,1,0,.42.22.22,0,0,1-.11.12.81.81,0,0,1-.51,0,.22.22,0,0,1-.1-.13,1.32,1.32,0,0,1,0-.34q0-2.9,0-5.79a1.24,1.24,0,0,1,0-.33.17.17,0,0,1,.11-.12.66.66,0,0,1,.5,0,.19.19,0,0,1,.11.12,2.84,2.84,0,0,1,0,.51C122.11,52.8,122.1,53.72,122.1,54.64Z" transform="translate(31.2 33.48)" fill="#7e2c7f"/><path d="M140.53,56c0,.52,0,1,0,1.56a1.26,1.26,0,0,1-.05.33s-.06.11-.11.11a2,2,0,0,1-.42,0,.26.26,0,0,1-.26-.28c0-.2,0-.4,0-.6,0-.84,0-1.67,0-2.5,0-.18,0-.35,0-.52s.12-.23.3-.24h.17c.22,0,.34.11.35.3s0,.29,0,.43V56Z" transform="translate(31.2 33.48)" fill="#3c62ae"/><path d="M140,53.52s0,0-.09,0-.16-.09-.17-.16a1.41,1.41,0,0,1,0-.41.26.26,0,0,1,.21-.24,1.88,1.88,0,0,1,.41,0,.27.27,0,0,1,.17.16,2,2,0,0,1,0,.42.24.24,0,0,1-.21.22Z" transform="translate(31.2 33.48)" fill="#3c62ae"/><path d="M180.9,57.2a.42.42,0,0,1,.39.47.42.42,0,0,1-.41.35.43.43,0,0,1-.4-.38A.44.44,0,0,1,180.9,57.2Z" transform="translate(31.2 33.48)" fill="#3c62ae"/><path d="M136.21,54h-2.55a1.74,1.74,0,0,1,.4-.14c.65,0,1.31,0,2,0C136.09,53.89,136.15,54,136.21,54Z" transform="translate(31.2 33.48)" fill="#994091"/><path d="M25.41,25.51a.2.2,0,0,1,.18-.15Z" transform="translate(31.2 33.48)" fill="#3c62ae"/><path d="M25.23,25.67l.17-.15Z" transform="translate(31.2 33.48)" fill="#3c62ae"/><path d="M8.42,37a.21.21,0,0,1-.18.18Z" transform="translate(31.2 33.48)" fill="#7e2c7f"/><path d="M92.1,32.61a17,17,0,0,1-.3,2.84,6.63,6.63,0,0,1-.48,1.38,4.16,4.16,0,0,1-.64.93A3.14,3.14,0,0,1,87,38.4a4.3,4.3,0,0,1-1.76-1.62,2.8,2.8,0,0,1-.42-1.48c0-1.64,0-3.29,0-4.93a2.54,2.54,0,0,1,.38-1.4,4.25,4.25,0,0,1,2.47-1.91A1.4,1.4,0,0,1,88,27a3.41,3.41,0,0,1,3.2,1.53,4.85,4.85,0,0,1,.69,1.95A11.92,11.92,0,0,1,92.1,32.61Z" transform="translate(31.2 33.48)" fill="#fefeff"/><path d="M127.42,31.1h-3.54a.22.22,0,0,1-.2-.23c0-.23.06-.46.11-.69a4.84,4.84,0,0,1,1.47-2.59,3.33,3.33,0,0,1,3.31-.66,2.44,2.44,0,0,1,1.15.74,5.12,5.12,0,0,1,1.36,3.19.25.25,0,0,1-.2.24l-.6,0h-2.86Z" transform="translate(31.2 33.48)" fill="#fefeff"/><path d="M167.49,31.13h-3.12a3,3,0,0,1-.51-.06s-.08-.07-.1-.12a.47.47,0,0,1,0-.17,5.43,5.43,0,0,1,1.2-2.83,3.46,3.46,0,0,1,3.69-1.06,2.73,2.73,0,0,1,1.09.67,5,5,0,0,1,1.3,2.32c0,.16.08.33.11.5.14.71.08.76-.6.75h-3Z" transform="translate(31.2 33.48)" fill="#fefeff"/><path d="M134.18,56.65a.9.9,0,0,1-.92-.94,1,1,0,0,1,.92-1,1,1,0,0,1,1,1A.92.92,0,0,1,134.18,56.65Z" transform="translate(31.2 33.48)" fill="#fefeff"/><path d="M204.55,56a1.21,1.21,0,0,1-1.22,1.2,1.19,1.19,0,0,1-1.24-1.26,1.23,1.23,0,0,1,1.25-1.18A1.25,1.25,0,0,1,204.55,56Z" transform="translate(31.2 33.48)" fill="#fefeff"/><path d="M162.55,54.25v-.17c0-1.1-.05-1,1.07-1a1.11,1.11,0,0,1,1,.64,1.31,1.31,0,0,1-.35,1.64,1,1,0,0,1-.56.21h-.86c-.21,0-.33-.11-.34-.31v-1Z" transform="translate(31.2 33.48)" fill="#fefeff"/><path d="M88.46,55.4a.77.77,0,0,1,.06-.27,1.17,1.17,0,0,1,1.74,0c.06.06.1.2.06.22a.27.27,0,0,1-.14.07Z" transform="translate(31.2 33.48)" fill="#fefeff"/><path d="M145.66,55.44l-.86,0s-.06,0-.06,0a.29.29,0,0,1,0-.16,1.12,1.12,0,0,1,1.31-.36.93.93,0,0,1,.48.34.21.21,0,0,1,0,.15.18.18,0,0,1-.13.09h-.77Z" transform="translate(31.2 33.48)" fill="#fefeff"/><path d="M128.44,56a1.25,1.25,0,0,1-1.25,1.19,1.22,1.22,0,1,1,.06-2.43A1.24,1.24,0,0,1,128.44,56Z" transform="translate(31.2 33.48)" fill="#fefeff"/><path d="M117.36,56a1.23,1.23,0,0,1-1.21,1.21,1.27,1.27,0,0,1-1.22-1.22,1.25,1.25,0,0,1,1.22-1.21A1.22,1.22,0,0,1,117.36,56Z" transform="translate(31.2 33.48)" fill="#fefeff"/></g></g></g></svg>