<svg xmlns="http://www.w3.org/2000/svg" xmlns:xlink="http://www.w3.org/1999/xlink" viewBox="0 0 437.1 432.81"><defs><clipPath id="clip-path"><path d="M286,88.89a3.8,3.8,0,0,1,3,3.46c.1,2.84-3,2.65-3,2.65S283.24,91.56,286,88.89Z" style="fill:#fff"/></clipPath></defs><g id="Layer_2" data-name="Layer 2"><g id="OBJECTS"><path d="M365.9,121s3.1-8.93,12.38-9.16,6,5.49,15.72,4.58,6.19-11.91,21.43-14.21S437.1,121,437.1,121Z" style="fill:#fff"/><path d="M204.89,14.16s2.31-6.67,9.25-6.85,4.44,4.11,11.73,3.43,4.63-8.9,16-10.61,16.18,14,16.18,14Z" style="fill:#fff"/><path d="M0,81.46s2.07-6,8.26-6.12,4,3.67,10.49,3.06,4.13-8,14.3-9.48S47.51,81.46,47.51,81.46Z" style="fill:#fff"/><rect x="70.64" y="42.87" width="198.71" height="389.56" rx="28.47" style="fill:#e5edfd"/><path d="M240.88,52.62A18.73,18.73,0,0,1,259.6,71.34V404a18.74,18.74,0,0,1-18.72,18.72H99.11A18.74,18.74,0,0,1,80.39,404V71.34A18.74,18.74,0,0,1,99.11,52.62H240.88m0-9.75H99.11A28.47,28.47,0,0,0,70.64,71.34V404a28.47,28.47,0,0,0,28.47,28.46H240.88A28.46,28.46,0,0,0,269.35,404V71.34a28.46,28.46,0,0,0-28.47-28.47Z" style="fill:#060000"/><path d="M214.35,43.85H125.64V54.17a8.28,8.28,0,0,0,8.28,8.28h72.15a8.28,8.28,0,0,0,8.28-8.28V43.85Z" style="fill:#060000"/><line x1="153.48" y1="51.58" x2="187.5" y2="51.58" style="fill:none;stroke:#fff;stroke-linecap:round;stroke-linejoin:round;stroke-width:0.763983px"/><rect x="96.18" y="289.15" width="117.17" height="100.48" rx="7.93" style="fill:#9bbdf9"/><rect x="112.57" y="303.21" width="29.59" height="29.59" rx="3.15" style="fill:#fff"/><line x1="152.25" y1="312.55" x2="179" y2="312.55" style="fill:none;stroke:#000;stroke-linecap:round;stroke-linejoin:round;stroke-width:1.3px"/><line x1="152.25" y1="322.07" x2="195.38" y2="322.07" style="fill:none;stroke:#000;stroke-linecap:round;stroke-linejoin:round;stroke-width:1.3px"/><line x1="112.57" y1="345.12" x2="142.15" y2="345.12" style="fill:none;stroke:#fff;stroke-linecap:round;stroke-linejoin:round;stroke-width:1.3px"/><line x1="112.57" y1="354.95" x2="195.38" y2="354.95" style="fill:none;stroke:#fff;stroke-linecap:round;stroke-linejoin:round;stroke-width:1.3px"/><line x1="112.57" y1="365.78" x2="195.38" y2="365.78" style="fill:none;stroke:#fff;stroke-linecap:round;stroke-linejoin:round;stroke-width:1.3px"/><circle cx="29.2" cy="139.23" r="23.73" transform="translate(-113.01 135.32) rotate(-76.58)" style="fill:#dc761c"/><polyline points="19.64 140.36 27.09 145.88 39.85 132.64" style="fill:none;stroke:#fff;stroke-linecap:round;stroke-linejoin:round;stroke-width:2.13607px"/><rect x="37.25" y="202.1" width="89.83" height="65.73" rx="5.19" style="fill:#4479fa"/><path d="M96,229.62a14.2,14.2,0,1,0-26.43,7.17h0l0,.05a14.48,14.48,0,0,0,1.92,2.54L81.82,253,92.1,239.39A14.27,14.27,0,0,0,94,236.82l0,0h0A14.19,14.19,0,0,0,96,229.62Zm-14.2,6.18a6.25,6.25,0,1,1,6.25-6.25A6.25,6.25,0,0,1,81.82,235.8Z" style="fill:#fff"/><rect x="93.52" y="91.95" width="152.88" height="100.48" rx="7.93" style="fill:#fff"/><rect x="106.1" y="115.9" width="25.94" height="25.94" rx="2.76" style="fill:#9bbdf9"/><rect x="139.15" y="115.9" width="25.94" height="25.94" rx="2.76" style="fill:#9bbdf9"/><rect x="172.2" y="115.9" width="25.94" height="25.94" rx="2.76" style="fill:#9bbdf9"/><rect x="205.25" y="115.9" width="25.94" height="25.94" rx="2.76" style="fill:#dc761c"/><rect x="106.1" y="150.9" width="25.94" height="25.94" rx="2.76" style="fill:#9bbdf9"/><rect x="139.15" y="150.9" width="25.94" height="25.94" rx="2.76" style="fill:#9bbdf9"/><rect x="172.2" y="150.9" width="25.94" height="25.94" rx="2.76" style="fill:#9bbdf9"/><rect x="205.25" y="150.9" width="25.94" height="25.94" rx="2.76" style="fill:#9bbdf9"/><path d="M113.6,105.91a3.48,3.48,0,0,1-3.54,3.78,3.38,3.38,0,0,1-3.41-3.66,3.47,3.47,0,0,1,3.53-3.77A3.36,3.36,0,0,1,113.6,105.91ZM108,106c0,1.55.9,2.73,2.16,2.73s2.16-1.16,2.16-2.76c0-1.21-.6-2.74-2.13-2.74S108,104.64,108,106Z" style="fill:#dc761c"/><path d="M121,109.26a4.69,4.69,0,0,1-2,.42,3.38,3.38,0,0,1-3.54-3.63,3.62,3.62,0,0,1,3.82-3.78,4.25,4.25,0,0,1,1.79.37l-.29,1a3,3,0,0,0-1.5-.34,2.68,2.68,0,0,0,0,5.35,3.55,3.55,0,0,0,1.59-.36Z" style="fill:#dc761c"/><path d="M125,100.37v2h1.85v1H125v3.84c0,.88.25,1.38,1,1.38a3,3,0,0,0,.75-.09l.06,1a3.24,3.24,0,0,1-1.15.18,1.82,1.82,0,0,1-1.4-.55,2.66,2.66,0,0,1-.49-1.85V103.4h-1.11v-1h1.11v-1.71Z" style="fill:#dc761c"/><path d="M135.43,105.91a3.48,3.48,0,0,1-3.54,3.78,3.38,3.38,0,0,1-3.41-3.66,3.47,3.47,0,0,1,3.52-3.77A3.36,3.36,0,0,1,135.43,105.91Zm-5.64.08c0,1.55.89,2.73,2.16,2.73s2.16-1.16,2.16-2.76c0-1.21-.61-2.74-2.13-2.74S129.79,104.64,129.79,106Z" style="fill:#dc761c"/><path d="M137.74,109.53c0-.49.06-1.21.06-1.84V99.1h1.27v4.46h0a2.66,2.66,0,0,1,2.43-1.3c1.76,0,3,1.46,3,3.62,0,2.55-1.61,3.81-3.19,3.81a2.54,2.54,0,0,1-2.38-1.34h-.05l-.06,1.18Zm1.33-2.85a2.42,2.42,0,0,0,.06.47,2,2,0,0,0,1.94,1.51c1.35,0,2.16-1.1,2.16-2.73,0-1.43-.73-2.65-2.11-2.65a2.07,2.07,0,0,0-2,1.59,2.47,2.47,0,0,0-.08.53Z" style="fill:#dc761c"/><path d="M147.61,106.21a2.28,2.28,0,0,0,2.44,2.47,4.73,4.73,0,0,0,2-.37l.22.92a5.61,5.61,0,0,1-2.36.45,3.31,3.31,0,0,1-3.5-3.59c0-2.15,1.26-3.83,3.33-3.83,2.33,0,2.94,2,2.94,3.35,0,.26,0,.47,0,.6Zm3.79-.93a1.83,1.83,0,0,0-1.79-2.1,2.14,2.14,0,0,0-2,2.1Z" style="fill:#dc761c"/><path d="M155,104.64c0-.84,0-1.56-.06-2.22h1.13l.05,1.39h.06a2.13,2.13,0,0,1,2-1.55,1.32,1.32,0,0,1,.36,0v1.22a1.84,1.84,0,0,0-.44,0,1.82,1.82,0,0,0-1.73,1.67,3.47,3.47,0,0,0-.06.6v3.79H155Z" style="fill:#dc761c"/><rect x="146.39" y="202.1" width="100.02" height="65.73" rx="5.19" style="fill:#fff"/><rect x="158.99" y="209.56" width="76.58" height="14.94" rx="2.76" style="fill:#9bbdf9"/><line x1="159.99" y1="234.29" x2="194.89" y2="234.29" style="fill:none;stroke:#000;stroke-linecap:round;stroke-linejoin:round;stroke-width:1.3px"/><line x1="159.99" y1="242.79" x2="234.57" y2="242.79" style="fill:none;stroke:#000;stroke-linecap:round;stroke-linejoin:round;stroke-width:1.3px"/><line x1="159.99" y1="252.16" x2="234.57" y2="252.16" style="fill:none;stroke:#000;stroke-linecap:round;stroke-linejoin:round;stroke-width:1.3px"/><rect x="231.02" y="310.54" width="64.59" height="57.69" rx="6.31" style="fill:#dc761c"/><path d="M276.11,336.88l-2.12-.37a11,11,0,0,0-1.1-2.65l1.24-1.76A1.64,1.64,0,0,0,274,330l-1.28-1.27a1.62,1.62,0,0,0-2.08-.15l-1.77,1.24a11.09,11.09,0,0,0-2.64-1.1l-.36-2.17a1.65,1.65,0,0,0-1.58-1.35h-1.83a1.64,1.64,0,0,0-1.61,1.35l-.37,2.12a11.3,11.3,0,0,0-2.64,1.09L256,328.59a1.64,1.64,0,0,0-2.09.18L252.67,330a1.62,1.62,0,0,0-.18,2.09l1.24,1.77a10.92,10.92,0,0,0-1.1,2.64l-2.11.37a1.64,1.64,0,0,0-1.36,1.61v1.8a1.64,1.64,0,0,0,1.36,1.61l2.11.37a11.09,11.09,0,0,0,1.1,2.64l-1.24,1.76a1.62,1.62,0,0,0,.18,2.09l1.27,1.27a1.62,1.62,0,0,0,2.09.18l1.76-1.23a11,11,0,0,0,2.65,1.09l.37,2.12a1.62,1.62,0,0,0,1.61,1.35h1.82a1.64,1.64,0,0,0,1.61-1.35l.37-2.12a10.89,10.89,0,0,0,2.64-1.09l1.73,1.21a1.62,1.62,0,0,0,2.08-.19l1.28-1.27a1.62,1.62,0,0,0,.18-2.08l-1.24-1.78a11.09,11.09,0,0,0,1.1-2.64l2.12-.38a1.62,1.62,0,0,0,1.35-1.6v-1.8A1.62,1.62,0,0,0,276.11,336.88ZM263.31,345a5.64,5.64,0,1,1,5.63-5.63v0A5.62,5.62,0,0,1,263.31,345Z" style="fill:#fff"/><line x1="14.72" y1="432.43" x2="424.66" y2="432.43" style="fill:none;stroke:#000;stroke-miterlimit:10;stroke-width:0.75px"/><path d="M349.78,62h40.31a18,18,0,0,0,18.05-18.05h0a18,18,0,0,0-18.05-18H349.78a18,18,0,0,0-18,18h0A18,18,0,0,0,349.78,62Z" style="fill:#9bbdf9"/><polygon points="363.97 58.01 350.89 70.85 348.51 57.06 363.97 58.01" style="fill:#9bbdf9"/><path d="M363.89,38.22a4.76,4.76,0,0,0-6.73.07l-1.22,1.24-1.25-1.23A4.76,4.76,0,1,0,348,45.08l4.64,4.56,0,0a4.74,4.74,0,0,0,6.73-.07L364,45A4.76,4.76,0,0,0,363.89,38.22Z" style="fill:#fff"/><line x1="372.99" y1="39.82" x2="391.54" y2="39.82" style="fill:none;stroke:#fff;stroke-linecap:round;stroke-linejoin:round;stroke-width:1.01864px"/><line x1="372.99" y1="44.96" x2="382.78" y2="44.96" style="fill:none;stroke:#fff;stroke-linecap:round;stroke-linejoin:round;stroke-width:1.01864px"/><path d="M312.12,420l-11.86,6.53a3.41,3.41,0,0,0-1.63,3.77c.31,1.19,1.32,2.1,4,2.15,5.86.12,31.81-4.21,31.81-4.21V432l12.12.07s.76-17.64-2.9-19.89Z" style="fill:#200902"/><path d="M328,407l-15.89,13s2.05,5.86,11.1,1.95,20.4-9.8,20.4-9.8L342,405.35Z" style="fill:#ecc696"/><polygon points="341.96 405.35 343.62 358.27 327.87 356.99 327.87 412.13 341.96 405.35" style="fill:#ecc696"/><polygon points="313.92 216.91 320.51 400.25 351.05 400.25 352.61 202.1 313.92 216.91" style="fill:#3a2222"/><path d="M317.35,213.7,332.71,303a18.13,18.13,0,0,0,23.75,14.13h0a18.11,18.11,0,0,0,12.2-18.44l-2.94-40.57c-1.48-13.77,1.94-31.58-13.11-56Z" style="fill:#523332"/><path d="M398.12,415.48l-6.59,11.82a3.42,3.42,0,0,0,.63,4.07c.89.84,2.23,1.07,4.49-.28,5-3,24.73-20.44,24.73-20.44l2,3.16,10.31-6.38s-8.71-15.35-13-15.31Z" style="fill:#200902"/><path d="M404.71,396.05l-6.59,19.43s4.85,3.88,10.45-4.23,12.09-19.13,12.09-19.13l-5-4.88Z" style="fill:#ecc696"/><polygon points="415.66 387.25 392.08 346.46 378.06 353.73 407.31 400.47 415.66 387.25" style="fill:#ecc696"/><polygon points="335 309.27 391.77 393.93 418.23 376.97 363.36 284.85 335 309.27" style="fill:#523332"/><path d="M292.65,68.62S280,67,278.39,78.92c-1.23,8.88,2.86,13.26-.34,20.41s2.8,13.54,2.8,13.54,14.95,6.94,31.18-7.26Z" style="fill:#dc761c"/><polygon points="297.55 108.56 304.39 126.34 318.71 122.53 305.49 96.97 297.55 108.56" style="fill:#ecc696"/><polygon points="300.82 117.06 303.75 104.03 298.42 110.81 300.82 117.06"/><path d="M291.05,71.29s-8.5,1.8-8.51,12.59c0,0-.4,4.12.14,15.36.38,8,4.13,13.47,11.6,12.71,3.63-.37,7.42-2.58,10.82-5.44l4.76-4.85c11-13.43-.48-33.66-17.57-30.61Z" style="fill:#ecc696"/><path d="M283.22,93l-3,5.29c-.36.56-.17,1.42.56,1.46l3.91.51Z" style="fill:#ecc696"/><path d="M303.31,89.82c.31-2.44,2-19.43-10.76-17.23a1.83,1.83,0,0,1-1.28-3.35c4.55-2.84,11.77-4.8,22.22-.78,4.24,1.64,10.08,7.22,10.08,12.71,0,11.79-3.92,17.77-10.83,23.83a.72.72,0,0,1-1.13-.21l-4.45-8.6a.36.36,0,0,1,0-.09c-.49-1.57-3-4.85-3.66-5.75A.72.72,0,0,1,303.31,89.82Z" style="fill:#dc761c"/><path d="M294.79,68.42c-16,7.37,7.42,24.94,7.42,24.94h0l6.59-13S297.47,67.18,294.79,68.42Z" style="fill:#dc761c"/><path d="M284.18,83.11,292.65,86a11.08,11.08,0,0,0-4.48-4.18C284.14,79.84,284.18,83.11,284.18,83.11Z"/><path d="M286,88.89a3.8,3.8,0,0,1,3,3.46c.1,2.84-3,2.65-3,2.65S283.24,91.56,286,88.89Z" style="fill:#fff"/><g style="clip-path:url(#clip-path)"><path d="M286.54,88.16s2.21,4.11-.63,6.84h0l-1.59-.16-.07-4.52Z"/></g><path d="M285.28,88.18a4.48,4.48,0,0,1,1.39.32,4.23,4.23,0,0,1,1.18.73,3.59,3.59,0,0,1,.83,1.07,4.52,4.52,0,0,1,.43,1.25.17.17,0,0,1-.12.2.16.16,0,0,1-.19-.11h0a3.92,3.92,0,0,0-.54-1.06,3,3,0,0,0-.83-.79,3.26,3.26,0,0,0-1-.45,3.73,3.73,0,0,0-1.08-.09h0a.54.54,0,0,1-.58-.49.53.53,0,0,1,.49-.57Z"/><path d="M283.2,101.74a.87.87,0,0,0-.16,1.71s-1.23,1.25.63,1.66,3.6-2.75,3.6-2.75C285,102.86,284.53,101.53,283.2,101.74Z" style="fill:#c7181b"/><path d="M304.5,97a71.24,71.24,0,0,1,.17,15s20.19,6.49,29.37-16.49c0,0-5.86-2.26-7.66-7.3s0-22.56-23.6-22C302.78,66.19,303.38,89,304.5,97Z" style="fill:#dc761c"/><path d="M312.26,93.21a5.44,5.44,0,1,1-6.07-4.72A5.45,5.45,0,0,1,312.26,93.21Z" style="fill:#ecc696"/><path d="M304.5,96.19s.21-4.15,3.63-4.22" style="fill:none;stroke:#000;stroke-linecap:round;stroke-linejoin:round;stroke-width:0.511053px"/><path d="M339.66,136.18l33.47,27.11a11,11,0,0,1,.8,15.93h0a11,11,0,0,1-14.95.83l-36.33-28.78Z" style="fill:#ecc696"/><path d="M359.74,146.13s-1.43,10.8-20.24,23.19l-25.57-19a15.13,15.13,0,0,1-2.25-22.23h0A15.12,15.12,0,0,1,331,125.34Z" style="fill:#467ac9"/><path d="M359.12,180.44l33.21,42.66,8.14-9.54-24.82-47.39a11,11,0,0,0-16.7-1.06h0A11,11,0,0,0,359.12,180.44Z" style="fill:#ecc696"/><path d="M390.39,221.29l-.34,2.14a18.44,18.44,0,0,0,.65,8.57l1.56,4.87A2,2,0,0,0,395,238h0a2.51,2.51,0,0,0,1.35-2.47l-.51-5.41,10.8,15.29a1.53,1.53,0,0,0,2.27.3l.46-.4a1.51,1.51,0,0,0,.32-1.9l-6.89-10.55,9.59,11a1.53,1.53,0,0,0,2.28.16l.32-.32a1.52,1.52,0,0,0,.14-2l-7.93-10.22,7.72,6.43a1.52,1.52,0,0,0,2.34-.39l.1-.18a1.53,1.53,0,0,0-.23-1.79l-7.55-7.25,4.74,2.84a1.52,1.52,0,0,0,2.44-.84h0a1.52,1.52,0,0,0-.42-1.43l-19.26-18-3.94,4.5A11.89,11.89,0,0,0,390.39,221.29Z" style="fill:#ecc696"/><path d="M314.07,122s-13.16-1.27-13.33,22.5,7.35,35.06,13.18,72.43c0,0,22.31-2.73,38.69-14.81C352.61,202.1,353.63,114.56,314.07,122Z" style="fill:#4479fa"/><path d="M311.41,153.83l-31.12,29.78a11,11,0,0,1-15.9-1.22h0a11,11,0,0,1,1.06-14.93l33.14-32.41Z" style="fill:#ecc696"/><path d="M302.93,172.71s-10.86-.37-22-22.5l21.89-23.16a15.13,15.13,0,0,1,22.34.38h0a15.13,15.13,0,0,1,.44,19.5Z" style="fill:#4479fa"/><line x1="305.93" y1="169.29" x2="320.89" y2="152.27" style="fill:none;stroke:#000;stroke-linecap:round;stroke-linejoin:round;stroke-width:0.511053px"/><path d="M279.75,167.79l-44.34-33.55-5.82,9.13,35,39.35a10.65,10.65,0,0,0,16.28-.06h0A10.65,10.65,0,0,0,279.75,167.79Z" style="fill:#ecc696"/><path d="M241.28,143.5c-1.67,5.62-7.09,5.4-17.75,2.41-5.65-1.58-7.69-5.58-6-11.2a10.61,10.61,0,0,1,13.2-7.15C236.33,129.23,243,137.89,241.28,143.5Z" style="fill:#ecc696"/><path d="M232.66,128.36l-13.55-7.88a2,2,0,0,0-2.76.48h0a1.75,1.75,0,0,0,.29,2.36l10.51,8.89Z" style="fill:#ecc696"/></g></g></svg>