<svg xmlns="http://www.w3.org/2000/svg" viewBox="0 0 3267.95 1936.09"><defs><style>.cls-1{isolation:isolate;}.cls-2{fill:#e4f0ff;}.cls-17,.cls-22,.cls-3,.cls-49,.cls-56{opacity:0.5;}.cls-4,.cls-44{fill:#fff;}.cls-5{fill:#ffc0bb;}.cls-6{fill:#7683c4;}.cls-7{fill:#3c2340;}.cls-8{fill:#07085b;}.cls-40,.cls-9{fill:#f99893;}.cls-10{fill:#333;}.cls-11{fill:#2c377a;}.cls-12{fill:#404996;}.cls-13{fill:#838ccf;}.cls-14{fill:#ff5b7e;}.cls-15{fill:#e5426e;}.cls-16,.cls-17{fill:#4c2816;}.cls-17{mix-blend-mode:screen;}.cls-18{fill:#f484a2;}.cls-19{fill:#fcb7b4;}.cls-20{fill:#f24c78;}.cls-21,.cls-22{fill:#fee4cb;}.cls-22,.cls-32,.cls-40,.cls-46,.cls-47,.cls-48{mix-blend-mode:multiply;}.cls-23{fill:#e8b891;}.cls-24,.cls-49{fill:#88c7ff;}.cls-25{fill:#b0d6ff;}.cls-26{fill:#c9eafd;}.cls-26,.cls-32,.cls-40,.cls-42,.cls-48,.cls-54{opacity:0.3;}.cls-27{fill:#142666;}.cls-28{fill:#feb546;}.cls-29,.cls-32{fill:#e87b50;}.cls-30{fill:#f3fdff;}.cls-31{fill:#ea426e;}.cls-33{fill:#f76390;}.cls-34{fill:#06062d;}.cls-35{fill:#09083c;}.cls-36{fill:#29589b;}.cls-37{fill:#3660ac;}.cls-38{fill:#f9a435;}.cls-39{fill:#ef972e;}.cls-41,.cls-56{fill:#70c0fd;}.cls-42,.cls-50{fill:#4188e4;}.cls-43{fill:#e6f7ff;}.cls-44,.cls-46{opacity:0.2;}.cls-45{fill:#183658;}.cls-46{fill:#e0a689;}.cls-47,.cls-48,.cls-53,.cls-54{fill:#daeef7;}.cls-51{fill:#18196b;}.cls-52{fill:#ff7b8c;}.cls-55{fill:#afdbfe;}.cls-57{fill:#97cef7;}</style></defs><g class="cls-1"><g id="Layer_2" data-name="Layer 2"><g id="Layer_1-2" data-name="Layer 1"><path class="cls-2" d="M3213.84,1570.22c-56.23-198.34,53.25-407.29-59-595.24-35.65-59.69-91.36-112.23-138.17-168-70.67-84.24-121.49-176.86-149.18-271.89-18.11-62.16-26.48-125.46-52.05-186.6C2744.5,178.87,2532.61,39.23,2299.37,8.37c-188-24.88-382.47,7-536.19,79.05C1072.7,411.2,713,258,471.93,369.75c-151.09,70-225.5,200.22-270.37,330.38s-62.84,358.76-128,506C-143,1695,174,1868.94,315.42,1920.09c5.05,1.83,26.38,4.37,31.58,6l360.25,5.29c71.67-10,235.27-6.4,293.48-4.78,228.61,6.37,418-5.71,617.35-3.61,496.6,5.22,961.63,7.11,1429.43,4.27,68.45-.41,108.12-18,158.95-49.16,54.18-33.25,67.83-92.4,59-146.76S3229.13,1624.17,3213.84,1570.22Z"/><g class="cls-3"><polygon class="cls-4" points="1658.22 480.68 2008.8 480.68 2169.83 146.43 1819.25 146.43 1658.22 480.68"/><polygon class="cls-4" points="2223.29 146.43 2062.26 480.68 2412.84 480.68 2573.87 146.43 2223.29 146.43"/><polygon class="cls-4" points="1481.06 848.43 1831.64 848.43 1992.67 514.17 1642.09 514.17 1481.06 848.43"/><polygon class="cls-4" points="1885.1 848.43 2235.68 848.43 2396.71 514.17 2046.13 514.17 1885.1 848.43"/></g><path class="cls-5" d="M1955.19,1303a1.53,1.53,0,0,0,.75,2.58c9.16,1.94,38,8.23,38,10.67,0,2.91-25.84-2.08-27.2.24s24,6.56,23.54,9.68-23.46-1.52-24.1-.27,20.91,8,21.74,10-23.07-2.46-24.29-1.17,14.26,9.85,13.68,11.26-.73,2.45-41.09-6.84l-15.73-4.33-10.93-10.48,6.8-16.88s48.68-21.69,50.53-20.52S1968.42,1289.89,1955.19,1303Z"/><path class="cls-6" d="M1754.88,1086.42l44.82,177.95,123.08,38.55s-2.77,35.36-2.44,35.14-163.5,1.42-181.4-12.77-22.87-206.75-22.87-206.75Z"/><path class="cls-7" d="M1544.42,1883.26l25.55-.1a4.59,4.59,0,0,0,4.28-4h0a2.65,2.65,0,0,1,2.82-2.36l.34,0c2.62.34,0,1.45,0,4.46l8.31,9.09,5,4.57a32.55,32.55,0,0,0,19.94,8.57l7.59.44a8.22,8.22,0,0,1,6,3.25l.73.93a21.53,21.53,0,0,1,4.42,13.39h0l-59.07.73a9.58,9.58,0,0,1-5.65-1.92l-8.14-5.83-.06,7.66-16.52-.11.24-31.24C1540.22,1886.63,1540.75,1883.27,1544.42,1883.26Z"/><rect class="cls-8" x="1539.96" y="1921.9" width="16.54" height="2.02" transform="translate(-16.98 13.79) rotate(-0.51)"/><path class="cls-8" d="M1567.54,1921.45h61.85a0,0,0,0,1,0,0v2a0,0,0,0,1,0,0H1568a.43.43,0,0,1-.43-.43v-1.59A0,0,0,0,1,1567.54,1921.45Z" transform="translate(-17.08 14.33) rotate(-0.51)"/><path class="cls-7" d="M1713.76,1883.26l25.55-.1a4.57,4.57,0,0,0,4.27-4h0a2.67,2.67,0,0,1,2.83-2.36l.34,0c2.62.34,0,1.45,0,4.46l8.31,9.09,5,4.57a32.55,32.55,0,0,0,19.94,8.57l7.59.44a8.22,8.22,0,0,1,5.95,3.25l.73.93a21.53,21.53,0,0,1,4.42,13.39h0l-59.07.73a9.58,9.58,0,0,1-5.65-1.92l-8.14-5.83-.06,7.66-16.52-.11.24-31.24C1709.56,1886.63,1710.09,1883.27,1713.76,1883.26Z"/><rect class="cls-8" x="1709.3" y="1921.9" width="16.54" height="2.02" transform="translate(-16.97 15.29) rotate(-0.51)"/><path class="cls-8" d="M1736.88,1921.45h61.85a0,0,0,0,1,0,0v2a0,0,0,0,1,0,0h-61.42a.43.43,0,0,1-.43-.43v-1.59A0,0,0,0,1,1736.88,1921.45Z" transform="translate(-17.07 15.84) rotate(-0.51)"/><path class="cls-8" d="M1624.44,985.45s-11.87-49.86,15.68-68.77,56.88-17.06,76.9-6,32.19,50,23.36,72.43L1674,962.29Z"/><polygon class="cls-5" points="1656.38 1029.89 1654.08 1086.24 1703.52 1081.72 1695.65 1032.25 1656.38 1029.89"/><path class="cls-9" d="M1699.39,1055.78l-3.74-23.53-39.27-2.36-.8,19.52C1663.69,1056.82,1678,1064.24,1699.39,1055.78Z"/><path class="cls-9" d="M1726.92,988.93c-2.71,6.29-.83,13.15,4.2,15.32s11.31-1.18,14-7.47.83-13.15-4.2-15.32S1729.63,982.64,1726.92,988.93Z"/><path class="cls-5" d="M1724.36,1026a51.22,51.22,0,0,0,4.16-8.59,98.32,98.32,0,0,0,5.79-24.27c.18-1.62.47-3.22.78-4.82a53,53,0,1,0-105-11.25,11.47,11.47,0,0,0-10.3-1c-6.34,2.69-8.77,11.29-5.41,19.22s11.21,12.18,17.56,9.49a10.23,10.23,0,0,0,2.4-1.45c2.12,26,23,46.43,48.48,46.52a47.55,47.55,0,0,0,32.51-12.79,23.22,23.22,0,0,0,1.83-1.64A46.1,46.1,0,0,0,1724.36,1026Z"/><path class="cls-9" d="M1695,977.83c.23,3,.38,6,.67,8.88s.75,5.85,2,7.8l.24.31c.09.11.12.17.3.38a6.66,6.66,0,0,1,.85,1.11,5.8,5.8,0,0,1,.91,2.74,6.23,6.23,0,0,1-2.09,5,10.21,10.21,0,0,1-9,2.17c2.94-.65,5.73-1.79,7.3-3.79a4,4,0,0,0,1-3.09,3.35,3.35,0,0,0-.58-1.42,4.93,4.93,0,0,0-.52-.65l-.4-.48-.45-.57a11.81,11.81,0,0,1-1.64-4.78,24.47,24.47,0,0,1-.18-4.67A31.59,31.59,0,0,1,1695,977.83Z"/><path class="cls-10" d="M1677.59,982.6A4.63,4.63,0,1,1,1673,978,4.62,4.62,0,0,1,1677.59,982.6Z"/><path class="cls-10" d="M1717.3,985.34a4.63,4.63,0,1,1-4.61-4.64A4.62,4.62,0,0,1,1717.3,985.34Z"/><path class="cls-8" d="M1682.94,971.92a46.35,46.35,0,0,0-6.83-1.33,23.3,23.3,0,0,0-6.42.14,21.73,21.73,0,0,0-6.11,1.9c-1,.38-1.95,1-3,1.55s-2,1.26-3.09,1.82a20.22,20.22,0,0,1,1.91-3.17,16.4,16.4,0,0,1,2.69-2.64,14.91,14.91,0,0,1,7-3.06,15.67,15.67,0,0,1,7.64.68A14.21,14.21,0,0,1,1682.94,971.92Z"/><path class="cls-8" d="M1703.39,973.32a14.19,14.19,0,0,1,6.59-3.41,15.58,15.58,0,0,1,7.67.15,14.86,14.86,0,0,1,6.66,3.81,15.75,15.75,0,0,1,2.39,2.91,19.26,19.26,0,0,1,1.56,3.36c-1.07-.68-1.93-1.47-2.88-2.15s-1.82-1.37-2.82-1.86a21.64,21.64,0,0,0-5.86-2.55,23.5,23.5,0,0,0-6.38-.84A48.93,48.93,0,0,0,1703.39,973.32Z"/><path class="cls-8" d="M1630.88,977.78c-3.05-2.62-5.38-2.42-5.38-2.42l1.3-16.15,5-9.74s19.53-26.26,20.22-26.92,15.65-9.18,16.57-9.62,22,2.64,22,2.64,36.91-7.71,30.76,11.64S1688.2,956.8,1686.81,956c4.36-4.35,4.76-16.65,4.76-16.65C1672.55,960.1,1636.5,975.46,1630.88,977.78Z"/><path class="cls-4" d="M1706.63,1012.9c-1,5.8-6.42,10.3-13,10.48s-12.2-4-13.54-9.78Z"/><path class="cls-5" d="M1641.51,1072.92l69.6-.19,8.82,41.12-38.19,99.89s-38.2-41.13-38.2-47-17.62-49.94-14.68-55.81S1641.51,1072.92,1641.51,1072.92Z"/><path class="cls-11" d="M1768.17,1357.15c-29.46,44.32-88.33,108.26-88.33,108.26h0L1707,1894.9s39.3,4.24,52.81-6.19C1759.79,1888.71,1770.09,1481.54,1768.17,1357.15Z"/><path class="cls-12" d="M1757,1373.62c-.1-6.28,11.37,12.25,11.16,7.23-4.51-104.32-147.49-16.85-147.49-16.85l-30-6.31-55.17,535.48s35.9,7.91,56.45,0l87.9-422.52S1711.3,1457.16,1757,1373.62Z"/><path class="cls-5" d="M1574.72,1449a1.52,1.52,0,0,0-2.61.59c-2.5,9-10.53,37.41-13,37.3-2.9-.13,3.65-25.66,1.41-27.17s-8,23.55-11.09,22.91,3-23.32,1.74-24-9.3,20.38-11.34,21.09,3.86-22.88,2.65-24.17-10.7,13.63-12.07,13-2.4-.88,9.32-40.6l5.28-15.44,11.12-10.27,16.44,7.81s18.69,49.91,17.41,51.69S1587,1463,1574.72,1449Z"/><path class="cls-7" d="M1647.68,1079.39s34.74,21,62.28,0c0,0,15.67,41.35,14.18,42.84s-17.82,46-17.82,47.53-19.31,19.31-28.23,5.94-14.85-11.88-26.73-40.1-20.8-37.14-17.83-40.11S1647.68,1079.39,1647.68,1079.39Z"/><path class="cls-13" d="M1643.54,1072.73s-70.5,5.87-85.19,29.37-49.94,158.64-47,199.77,29.38,120.45,29.38,120.45,23.5,2.94,32.32-11.75c0,0-17.63-111.64-14.69-120.45s35.25-99.88,35.25-99.88l-5.87,179.2s70.5,44.07,182.14,8.81c0,0,14.69-290.84-23.5-299.65l-35.26-5.87-14.69,85.19Z"/><polygon class="cls-5" points="2157.29 1030.65 2157.18 1039.68 2156.15 1062.13 2200.34 1056.31 2205.16 1049.76 2205.54 1032.71 2206.99 1016.73 2177.62 1016.73 2157.29 1030.65"/><path class="cls-8" d="M2225,914.59a36.62,36.62,0,0,1,36.9-1.67c20.16,10.43,21.89,48.62,14.57,58.1s1.37,21.49-13.57,34.12-39.38,18.13-54.08,4.83-5.79-44.85-5.79-44.85Z"/><path class="cls-9" d="M2130.53,964.81c2.77,6.61.74,13.77-4.53,16s-11.8-1.34-14.57-7.94-.75-13.77,4.53-16S2127.76,958.2,2130.53,964.81Z"/><path class="cls-9" d="M2207.47,1012.69s-1.17,9.06-1.93,20a47.28,47.28,0,0,1-35.95,10.38,46.49,46.49,0,0,1-12.41-3.41c.31-7.15.2-13.77-.9-17C2153.24,1014,2207.47,1012.69,2207.47,1012.69Z"/><path class="cls-5" d="M2132.85,1003.62a54.13,54.13,0,0,1-4.25-9,102.4,102.4,0,0,1-5.82-25.45c-.18-1.69-.47-3.37-.78-5a55.34,55.34,0,1,1,109.72-10.76,11.9,11.9,0,0,1,10.76-1c6.6,2.87,9.05,11.89,5.47,20.15s-11.82,12.64-18.42,9.77a10.38,10.38,0,0,1-2.49-1.54c-2.47,27.17-24.43,48.37-51.06,48.21a49.54,49.54,0,0,1-33.83-13.69,23.68,23.68,0,0,1-1.89-1.73A48.62,48.62,0,0,1,2132.85,1003.62Z"/><path class="cls-10" d="M2180.83,963.24a5.2,5.2,0,1,0,5.23-5.18A5.21,5.21,0,0,0,2180.83,963.24Z"/><path class="cls-10" d="M2138.21,965.17a5.2,5.2,0,1,0,5.23-5.18A5.21,5.21,0,0,0,2138.21,965.17Z"/><path class="cls-9" d="M2164.53,954c.11,1.68.2,3.35.21,5s0,3.34-.08,5a35.07,35.07,0,0,1-.58,4.94,12.17,12.17,0,0,1-1.66,4.51,5.55,5.55,0,0,1-.35.46c-.13.15-.24.28-.41.45a8.22,8.22,0,0,0-.83,1.05,5.6,5.6,0,0,0-.91,2.54,6.18,6.18,0,0,0,1.85,4.87,10.27,10.27,0,0,0,4.41,2.61,14.77,14.77,0,0,0,5,.58,20.67,20.67,0,0,1-2.49-.32,14.09,14.09,0,0,1-2.38-.69,10.25,10.25,0,0,1-4-2.67,5.49,5.49,0,0,1-1.52-4.28,4.89,4.89,0,0,1,.8-2.14,4.1,4.1,0,0,1,.35-.47,3.23,3.23,0,0,1,.39-.44l.44-.49a4.17,4.17,0,0,0,.41-.53,9.81,9.81,0,0,0,1.14-2.38,16.94,16.94,0,0,0,.63-2.5,32,32,0,0,0,.43-5.07A53.74,53.74,0,0,0,2164.53,954Z"/><path class="cls-8" d="M2176.07,954.76a32.57,32.57,0,0,1,7.19-3.14,23.06,23.06,0,0,1,7.54-.92,19.83,19.83,0,0,1,3.75.54c.62.12,1.22.33,1.84.51.3.09.6.22.9.32s.61.21.9.35a38.76,38.76,0,0,1,6.83,3.87,21,21,0,0,0-6.2-5.18,17.69,17.69,0,0,0-3.82-1.58,17.41,17.41,0,0,0-4.11-.69,19,19,0,0,0-8.11,1.42,20.69,20.69,0,0,0-3.61,1.9A16.84,16.84,0,0,0,2176.07,954.76Z"/><path class="cls-8" d="M2155.15,955.71a16.3,16.3,0,0,0-3.32-2.31,20.13,20.13,0,0,0-3.77-1.57,18.92,18.92,0,0,0-8.2-.68,17.48,17.48,0,0,0-4,1.06,18.19,18.19,0,0,0-3.66,1.91,21,21,0,0,0-5.71,5.73,40,40,0,0,1,6.46-4.48,8.55,8.55,0,0,1,.86-.42c.29-.13.57-.29.87-.41.59-.23,1.17-.49,1.78-.67a19.41,19.41,0,0,1,3.69-.87,23.07,23.07,0,0,1,7.59.23A32.05,32.05,0,0,1,2155.15,955.71Z"/><path class="cls-8" d="M2122.89,914.18c8.63-35.66,55.23-39,55.23-39,72.39,1.75,63.9,65.69,62,76.3a11.74,11.74,0,0,0-8.39,1.86,19.8,19.8,0,0,0-3.51,2.65c-8.62-2.21-11.83-16.24-16.54-22.85-6.39-9-32.48-3-42.76-9.12a24.66,24.66,0,0,1-11.76-16.21c-38.22,7.86-35.77,48.59-35.77,48.59a14.67,14.67,0,0,0-3.73,0S2115.19,946,2122.89,914.18Z"/><path class="cls-4" d="M2152.11,993.09c1.56,5.35,8,9.21,15.65,8.95s13.81-4.56,15-10Z"/><path class="cls-5" d="M1956.92,1195.81l-48.22-22.36,10.2-25.13s23,8,46.61,15.8Z"/><path class="cls-5" d="M2064.88,1905.24l41.57-26,36.12,21.63-12.54,9-43.64,6.38s-17.06-2.1-17.81-2.61S2064.88,1905.24,2064.88,1905.24Z"/><path class="cls-5" d="M2165.17,1528.43s-6,143.93-6.5,168.78-13.22,209.27-18.74,225.28l-30.85-2.21s-21-357.06-14.44-391.85S2165.17,1528.43,2165.17,1528.43Z"/><path class="cls-13" d="M2064.88,1905.24l-10.54,6.86a5.8,5.8,0,0,0,3.12,10.69h80a5.11,5.11,0,0,0,5.11-5.12v-16.78C2089.29,1917.89,2070.88,1912.72,2064.88,1905.24Z"/><path class="cls-5" d="M2261,1906.5l37.58-31.48,38.76,16.43-11.17,10.68-42.34,12.35s-17.18.28-18-.11S2261,1906.5,2261,1906.5Z"/><path class="cls-5" d="M2308.16,1519.44s14,143.37,16.92,168,15.88,209.09,12.64,225.71l-30.87,2.08s-70.27-350.71-68.54-386.07S2308.16,1519.44,2308.16,1519.44Z"/><path class="cls-8" d="M2261,1906.5l-9.48,8.26a5.8,5.8,0,0,0,4.56,10.16l79.23-11.08a5.12,5.12,0,0,0,4.35-5.78l-2.32-16.61C2286.92,1915.66,2268,1913.08,2261,1906.5Z"/><path class="cls-5" d="M2295.57,1311.65l31.21-34.54-22.61-23.52L2266,1303.06s22.27,59.82,23.6,62.48,5.81,0,5.81,0c-1.34-10.25-.71-39.11-.28-53.74Z"/><path class="cls-13" d="M2116.41,1269s-41.23,46.14-44.74,194.16,4.21,201.32,4.21,201.32,113.18,27.6,270.78-24.55c0,0-38.82-279.89-95.87-375.3C2250.79,1264.58,2184.3,1224.91,2116.41,1269Z"/><path class="cls-5" d="M1925.67,1153.89c-.19-2.31-6.37-5.33-6.37-5.33a67.21,67.21,0,0,0-25.56-4.53,4.42,4.42,0,0,0-4,6h0l5.44.23a1.31,1.31,0,0,1-.62.35c-1.47.32-3.57.79-6,1.36l2.25,24.4c4.78-1,11,3.64,20.06,1.45l12.08-3.45a35.8,35.8,0,0,1-2.3-4.54,49.71,49.71,0,0,1-2.28-7.52C1917.86,1159.74,1925.89,1156.49,1925.67,1153.89Z"/><path class="cls-14" d="M1876.83,1181.78l6.48-1.53a22.19,22.19,0,0,0,9-4.56l1.48-1.23a18.7,18.7,0,0,0,6.26-11.68l.36-2.44a11.44,11.44,0,0,0-1.22-7.12h0a8.1,8.1,0,0,0-6.22-4.42l-7.35-.71Zm3.65-5.8,6-22.93,5,.48a5.5,5.5,0,0,1,4.24,3h0a7.82,7.82,0,0,1,.83,4.85l-.25,1.66a12.69,12.69,0,0,1-4.26,8l-1,.84a15.17,15.17,0,0,1-6.13,3.1Z"/><path class="cls-14" d="M1819.81,1142.44l.35,0,33.1,1,33.45-1,.06,0s.1.06.1.26c0,3.46-1.51,37.1-15.43,51.3a121.79,121.79,0,0,1-18.18,1.28c-8.64.19-19.51-2.92-19.51-2.92-13.88-14.14-14.12-46-14.1-49.62A.28.28,0,0,1,1819.81,1142.44Z"/><path class="cls-15" d="M1819.65,1142.72a.28.28,0,0,1,.16-.28l.35,0,33.1,1,2-.06c-7.07,4.39-13.64,10.85-14,19.79-.54,14.48,7.89,28.63,20.24,31.59a52.61,52.61,0,0,1-8.27.58c-8.64.19-19.51-2.92-19.51-2.92C1819.87,1178.2,1819.63,1146.37,1819.65,1142.72Z"/><path class="cls-14" d="M1819.65,1142.72c0,5,15.09,9,33.64,9s33.58-4,33.58-9-15-9-33.58-9S1819.65,1137.76,1819.65,1142.72Z"/><path class="cls-16" d="M1882.73,1147l-10.38,2.8-8.24,1.23-11.18.28-10.94-.56-7.07-.89-6.22-1.46-4.4-1.85s-1.13-1-2-1.76c4.8-3.4,17.11-5.82,31.49-5.82,14.59,0,27,2.49,31.64,6Z"/><path class="cls-17" d="M1826.41,1143.68a.58.58,0,0,1,.38-.38,99.43,99.43,0,0,1,25.76-3.36h.13a99.43,99.43,0,0,1,25.76,3.36.58.58,0,0,1,.38.38c.13.36.08,1-1.16,1.68a18.8,18.8,0,0,1-10.37.58,60.07,60.07,0,0,0-29.35,0,18.8,18.8,0,0,1-10.37-.58C1826.33,1144.65,1826.28,1144,1826.41,1143.68Z"/><path class="cls-4" d="M1881.35,1143a31.87,31.87,0,0,0-3.48-1.21c-1.17-.34-2.36-.64-3.54-.9s-2.39-.5-3.58-.7c-.6-.11-1.2-.2-1.8-.29s-1.2-.18-1.8-.25c-2.4-.32-4.82-.52-7.23-.66s-4.84-.2-7.25-.19a106.42,106.42,0,0,0-14.48,1c-2.4.35-4.79.79-7.16,1.37-1.18.3-2.36.63-3.52,1a27.27,27.27,0,0,0-3.45,1.33c.28-.13.56-.25.85-.36l.87-.32c.57-.21,1.16-.4,1.74-.58,1.17-.36,2.35-.67,3.54-.94,2.36-.56,4.76-1,7.15-1.29s4.81-.55,7.22-.7,4.82-.22,7.24-.22a118.43,118.43,0,0,1,14.46.78l1.8.23,1.8.27c1.19.19,2.39.41,3.58.66s2.37.53,3.55.85c.59.16,1.17.33,1.75.51S1880.78,1142.76,1881.35,1143Z"/><path class="cls-18" d="M1819.65,1142.72c0,5,15.09,9,33.64,9s33.58-4,33.58-9-15-9-33.58-9S1819.65,1137.76,1819.65,1142.72Zm1.4,0c0-4.6,14.47-8.32,32.24-8.32s32.18,3.73,32.18,8.32-14.41,8.33-32.18,8.33S1821.05,1147.32,1821.05,1142.72Z"/><path class="cls-19" d="M1902.65,1154.08c0,2-3.69,3.56-8.25,3.56s-8.25-1.59-8.25-3.56,3.69-3.55,8.25-3.55S1902.65,1152.12,1902.65,1154.08Z"/><path class="cls-19" d="M1902,1159.71c0,2-3.7,3.56-8.25,3.56s-8.25-1.6-8.25-3.56,3.69-3.56,8.25-3.56S1902,1157.74,1902,1159.71Z"/><path class="cls-19" d="M1901.4,1166c0,2-3.7,3.56-8.25,3.56s-8.25-1.6-8.25-3.56,3.69-3.56,8.25-3.56S1901.4,1164,1901.4,1166Z"/><path class="cls-19" d="M1901,1172.19c0,2-3.69,3.56-8.25,3.56s-8.25-1.6-8.25-3.56,3.69-3.56,8.25-3.56S1901,1170.22,1901,1172.19Z"/><path class="cls-14" d="M2387.34,1182c-10.91-36.79-94.77-132.81-124.08-137.8a116.1,116.1,0,0,0-53.94,4s-29.93,19-55.81,5.61a57.93,57.93,0,0,0-17,.46h0s-55.08,48.36-28.86,108.35c0,0,8.11,59.86,8.73,106.32,0,0,11.54,24.63,69.22,23.07s65.16-27.44,65.16-27.44,6.86-113.48,16.52-131.88c0,0,61.42,49.26,62.67,54.87s-32.12,67.35-43.34,81.07c0,0,7.8,17.29,34.3,23.45C2320.94,1292.09,2398.26,1218.75,2387.34,1182Z"/><path class="cls-20" d="M2136.54,1054.28h0c-15,2.4-36.9,10.93-53.49,38.51-27.75,46.15-56.43,75.45-56.43,75.45l-67-7.48s-8.11,25.57-4,37.1c0,0,49,29.31,77.32,20s74.82-55.19,74.82-55.19C2081.46,1102.64,2136.54,1054.28,2136.54,1054.28Z"/><polygon class="cls-4" points="2729.61 1585.17 2753.83 1931.35 2741.72 1931.35 2703.37 1588.92 2729.61 1585.17"/><polygon class="cls-4" points="2475.21 1585.17 2450.99 1931.35 2463.09 1931.35 2501.45 1588.92 2475.21 1585.17"/><path class="cls-21" d="M2835.31,1230.06s-193.61-5.74-206.14-4.84-24.12,41.18-24.12,41.18-56.55,209.83-55.43,215.6-52.76,141-52.76,141,46.49-1.23,48.54,0,179.77-15.25,182.24-16.9,11.52-32.57,11.93-34.21,14-122,14-122l7-66.36s26.74-57,27.15-57.13,25.1-50,26.74-52.53,27.15-30.09,28-32.56S2835.31,1230.06,2835.31,1230.06Z"/><path class="cls-22" d="M2835.31,1230.06s-66.75-2-124.4-3.43c22.41,13.19,35,50.06,25.65,115.66-7.93,55.75-16.73,116.25-51.84,188.8-18.08,37.37-95.93,16.44-159.73,20.14-13.75,35.68-28.13,71.75-28.13,71.75s46.49-1.23,48.54,0,179.77-15.25,182.24-16.9,11.52-32.57,11.93-34.21,14-122,14-122l7-66.36s26.74-57,27.15-57.13,25.1-50,26.74-52.53,27.15-30.09,28-32.56S2835.31,1230.06,2835.31,1230.06Z"/><path class="cls-23" d="M2461.49,1630.37h0a12,12,0,0,1,11.18-12.77c20.69-1.41,65.43-4.61,111.45-9,88.21-8.37,120.1-15.22,131.52-18.8a11.89,11.89,0,0,0,8-8.45c3.1-12.33,4.91-37.92,6.43-59.33,5.76-81.24,15.26-215.2,98.73-288.75a12,12,0,0,1,17.46,1.74h0a12,12,0,0,1-1.56,16.35c-76,66.78-84.77,189.9-90.62,272.37-3.34,47-5.39,70.08-15.66,80.82-4.95,5.18-14.17,14.81-148.29,27.7-47.58,4.57-94.42,7.93-115.81,9.38A12,12,0,0,1,2461.49,1630.37Z"/><polygon class="cls-4" points="1066.9 1585.17 1042.68 1931.35 1054.79 1931.35 1093.14 1588.92 1066.9 1585.17"/><polygon class="cls-4" points="1321.31 1585.17 1345.53 1931.35 1333.42 1931.35 1295.07 1588.92 1321.31 1585.17"/><path class="cls-21" d="M961.2,1230.06s193.62-5.74,206.14-4.84,24.12,41.18,24.12,41.18,56.56,209.83,55.43,215.6,52.76,141,52.76,141-46.48-1.23-48.54,0-179.77-15.25-182.24-16.9-11.52-32.57-11.93-34.21-14-122-14-122l-7-66.36s-26.74-57-27.15-57.13-25.09-50-26.74-52.53-27.15-30.09-28-32.56S961.2,1230.06,961.2,1230.06Z"/><path class="cls-22" d="M961.2,1230.06s66.75-2,124.4-3.43c-22.4,13.19-35,50.06-25.64,115.66,7.92,55.75,16.73,116.25,51.83,188.8,18.08,37.37,95.93,16.44,159.74,20.14,13.74,35.68,28.12,71.75,28.12,71.75s-46.48-1.23-48.54,0-179.77-15.25-182.24-16.9-11.52-32.57-11.93-34.21-14-122-14-122l-7-66.36s-26.74-57-27.15-57.13-25.09-50-26.74-52.53-27.15-30.09-28-32.56S961.2,1230.06,961.2,1230.06Z"/><path class="cls-23" d="M1322.22,1641.65c-21.39-1.45-68.23-4.81-115.81-9.38-134.12-12.89-143.33-22.52-148.28-27.7-10.27-10.74-12.33-33.81-15.66-80.82-5.85-82.47-14.58-205.59-90.63-272.37a12,12,0,0,1-1.55-16.35h0a12,12,0,0,1,17.45-1.74c83.47,73.55,93,207.51,98.73,288.75,1.52,21.41,3.33,47,6.43,59.33a11.92,11.92,0,0,0,8,8.45c11.41,3.58,43.3,10.43,131.51,18.8,46,4.36,90.77,7.56,111.45,9a12,12,0,0,1,11.19,12.77h0A12,12,0,0,1,1322.22,1641.65Z"/><path class="cls-24" d="M2994.76,1666.08c-1.46-12.87-3.19-26-9.18-37.52-7.28-14-20.06-24-31.24-35.14a195,195,0,0,1-46.58-74.09c-7.45-21.5-11.17-44.41-21.44-64.71-6.28-12.39-14.83-23.48-22-35.4-13.54-22.68-22.12-48.66-36.85-70.24a7.14,7.14,0,0,0-13,4.31,102.28,102.28,0,0,0,24.18,61.74c5.62,6.55,12.15,12.45,16.43,20,7.78,13.6,7.07,30.19,8,45.83a201,201,0,0,0,24.12,84.25c15,27.45,36.62,51.91,44.63,82.15,6,22.66,4.22,48.07,17,67.71,1.38,2.13,3,4.27,3.31,6.78a14.89,14.89,0,0,1-.25,4.26c-.29,1.83-.57,3.65-.86,5.48-2.91,18.54-5.92,42.14,10,56,11.07,9.62,25.31,9.83,33.26-2.94s7.29-31.7,6.7-46.18C3000.07,1714.23,2997.48,1690.05,2994.76,1666.08Z"/><path class="cls-25" d="M3023.53,1651.16c-6.21-21.47-15.86-41.91-20.69-63.73-4.69-21.17-4.72-43-4.74-64.73q0-35.62,0-71.26c0-14.79,0-29.66-2.48-44.25-5.27-31.38-21.61-60.39-24.38-92.09-1.2-13.71.2-27.56-1.32-41.24a64.82,64.82,0,0,0-6.49-22.72,10.15,10.15,0,0,0-18.2.51c-7.94,17.16-13,35.72-9.76,54.1,1.92,11,6.71,21.32,10.28,31.94,15.92,47.25,7.47,99.56,19.79,147.88,3.71,14.59,9.34,28.89,10,43.93,1.57,36-25.37,68.87-22.9,104.81,2,29.46,23.26,53.85,32.17,82,5,15.76,6.05,32.59,11.4,48.24,4.15,12.15,13.8,26.92,28.8,23.23,14.24-3.51,9.94-15.1,9.3-26.18C3032.1,1724.13,3034.12,1687.77,3023.53,1651.16Z"/><path class="cls-24" d="M3056.12,1670.84c-.63-11.16-2.51-22.38-.95-33.44,1.32-9.34,5-18.15,7.71-27.2,5-17,6.22-34.77,7.43-52.41q3.29-48.11,6.59-96.2c3.41-49.85,6.84-99.83,16.18-148.92,2.59-13.62,5.5-28.39-.63-40.83-1.3-2.62-3.84-5.4-6.64-4.53-2,.62-3,2.81-3.68,4.76-20.41,55.37-28.13,115-50.92,169.41-5.46,13-11.81,25.86-14.63,39.71-3.39,16.64-1.53,33.81-1.09,50.78.62,24.34-1.75,48.86-8.48,72.25-3.53,12.24-8.24,24.21-10.17,36.8-2.41,15.69-.39,31.68,1.12,47.49a729.67,729.67,0,0,1,2.93,91.49c-.55,18,14.63,17.48,24.68,6.45,7-7.71,7-16.17,9.38-25.76C3042.85,1729.18,3058,1705,3056.12,1670.84Z"/><path class="cls-25" d="M2961.3,1719.49c-13.42-21.52-40.16-33.76-48.73-57.62-2.19-6.08-3-12.61-5.71-18.48-5.92-13.05-19.38-20.43-32.62-26.44a2.81,2.81,0,0,0-4,2.52h0a9.55,9.55,0,0,0,4.15,8.06,53.58,53.58,0,0,1,21.4,29.12c4.09,14,2.31,29.32,7.39,43,4.27,11.46,13.05,20.83,17.18,32.35,3.77,10.53,3.38,22,5.15,33.07s6.69,22.76,16.85,27.43C2979.16,1809.39,2970,1733.39,2961.3,1719.49Z"/><path class="cls-24" d="M3114.19,1712.38c-.57,10.41,1,21.32-3.05,30.9-2.61,6.14-7.31,11.1-11.16,16.54-13.53,19.1-18.44,46.16-39.23,56.91a7.07,7.07,0,0,1-4.43,1.06c-2.13-.39-3.52-2.44-4.38-4.43-5.1-11.86.62-25.21,4-37.66.59-2.17,1.09-4.6.05-6.61-1.14-2.2-3.75-3.15-5.54-4.88-3.55-3.45-3.21-9.16-2.51-14.06a317.1,317.1,0,0,1,7.42-36.34c1.8-6.77,3.88-13.61,7.79-19.43,4.31-6.41,10.57-11.19,16.43-16.22a194.22,194.22,0,0,0,56.82-83.71c2.41-7,4.55-14.36,9.51-19.83s13.82-8.29,19.86-4c4.3,3-13.32,31.3-15.37,34.69-5.87,9.69-5.95,18.12-9.27,28.89C3133,1660.53,3115.75,1684.13,3114.19,1712.38Z"/><path class="cls-25" d="M3093.7,1724.42c3.85-9.93,7.73-20,9-30.55,1.41-11.75-.46-23.76,1.55-35.42,2.59-15,11.35-28.18,15.68-42.76,3.13-10.53,3.9-21.59,5.78-32.41,5.38-31,20-61.19,15.78-92.32-.91-6.78-4-14.67-10.71-15.82-6.1-1.05-11.65,4.51-13.23,10.49s-.41,12.29,0,18.46A76.16,76.16,0,0,1,3103.9,1553c-9.58,13.52-23.48,23.7-32.1,37.86-10.57,17.36-12,38.56-17.4,58.15-10.73,39-37.64,73-42.55,113.11-1.95,16,1.81,35.38,16.57,41.75C3071.13,1822.27,3084,1749.38,3093.7,1724.42Z"/><path class="cls-4" d="M3019,1753.74h-98a10.38,10.38,0,0,0-10.1,12.78l35.73,150.35a10.38,10.38,0,0,0,10.1,8h117.73a10.38,10.38,0,0,0,10.1-8l35.73-150.35a10.38,10.38,0,0,0-10.1-12.78Z"/><path class="cls-26" d="M2929.53,1753.74H2921a10.38,10.38,0,0,0-10.1,12.78l35.73,150.35a10.38,10.38,0,0,0,10.1,8h117.73a10.38,10.38,0,0,0,10.1-8l1.32-5.57C3019,1873.86,2953.75,1821.73,2929.53,1753.74Z"/><path class="cls-27" d="M2527,75.32V212.81c-9.26,1.44-16.65,13.71-17.16,28.89-29.39,12.87-51.35,55.88-52,107.23l138.93,1.66c.61-51.35-20.31-94.88-49.39-108.44a45.53,45.53,0,0,0-2-13,36.05,36.05,0,0,0-8-13.1,16.36,16.36,0,0,0-2.61-1.79V79.09Q2530.92,77.18,2527,75.32Z"/><path class="cls-27" d="M1393.92,228.35v247c-8.12,3-14.33,14.41-14.79,28.28-29.39,12.86-51.35,55.88-52,107.22l138.93,1.66c.61-51.34-20.31-94.87-49.39-108.43a45.48,45.48,0,0,0-2-13,35.94,35.94,0,0,0-8-13.1,14.65,14.65,0,0,0-5-2.82V226.05C1399.16,226.82,1396.53,227.6,1393.92,228.35Z"/><path class="cls-27" d="M1815.06,273.89a45.53,45.53,0,0,0-2-13,36.05,36.05,0,0,0-8-13.1,14.32,14.32,0,0,0-6.19-3.15v-173c-2.63,1.09-5.25,2.18-7.86,3.29v170.7c-7.52,3.62-13.14,14.59-13.58,27.76-29.39,12.87-51.35,55.88-52,107.23l138.93,1.66C1865.06,331,1844.14,287.45,1815.06,273.89Z"/><path class="cls-27" d="M2297.19,566.89c.61-51.35-20.31-94.88-49.39-108.44a45.18,45.18,0,0,0-2-13,36.11,36.11,0,0,0-8-13.1,14.19,14.19,0,0,0-6.19-3.14V1.85q-3.93-.24-7.86-.45V430.24c-7.52,3.62-13.14,14.6-13.58,27.76-29.39,12.87-51.35,55.88-52,107.23Z"/><path class="cls-5" d="M2546,1155.81v48.06a7,7,0,0,1-3.45,6.24c-6.43,3.44-20.8,9.08-34.22.09a7.06,7.06,0,0,1-2.87-5.89V1160.9Z"/><path class="cls-9" d="M2546,1188.16v-22.55l-40.54,4.46v19.13C2513,1191.51,2527.18,1193.82,2546,1188.16Z"/><path class="cls-5" d="M2492.19,1202.16c1.46,1,64.65,0,64.65,0s7,6.9,5.81,8.06-25.22,17.7-25.22,17.7l-32-4.35Z"/><path class="cls-5" d="M2310,1227s-25,162.61,10.71,195.91,102.92-55.17,102.92-55.17l14.37-57.8-62.82,19.66-22.73,28-11.75-150.86Z"/><path class="cls-28" d="M2333.46,1173.9l.34.29,18.47,16.06a4.6,4.6,0,0,1,.24,6.72l-41.19,41.49a4.6,4.6,0,0,1-5.22.93,79.81,79.81,0,0,1-33.36-29,4.59,4.59,0,0,1,.19-5.3l35.38-46.55a4.59,4.59,0,0,1,6.68-.69Z"/><path class="cls-10" d="M2315.6,1148c2-1.35,4.27-1.45,5.65-.26l19.89,17.3.33.29,19.9,17.3c1.37,1.2,1.58,3.44.53,5.64l-3.53,7.3a3.45,3.45,0,0,1-5.37,1.11l-22.08-19.21-.33-.29L2308.5,1158a3.46,3.46,0,0,1,.35-5.48Z"/><path class="cls-10" d="M2324.06,1144.6a2,2,0,0,1,2.79-.2l18.37,16,.33.29,18.38,16a2,2,0,0,1,.19,2.79l-3.89,4.47-18.93-18.68-21.12-16.16Z"/><path class="cls-29" d="M2346.48,1205.88l-19.08,18.55a1.07,1.07,0,0,1-1.22.2,107.38,107.38,0,0,1-41.61-36.19,1.08,1.08,0,0,1,0-1.24l15.72-21.47a1.07,1.07,0,0,1,1.72,0c8,10.61,32.6,32,44.22,38.46A1.07,1.07,0,0,1,2346.48,1205.88Z"/><path class="cls-30" d="M2308.38,1190.6a10.55,10.55,0,1,0,14.82,1.82A10.55,10.55,0,0,0,2308.38,1190.6Z"/><polygon class="cls-5" points="2320.43 1831.95 2313.98 1883.79 2279.3 1886.48 2279.84 1838.41 2320.43 1831.95"/><path class="cls-4" d="M2226.59,1924.43l94.76.64a3.65,3.65,0,0,0,3.72-3.65l0-2.74a3.77,3.77,0,0,0-3.78-3.69l-94.75-.64a3.63,3.63,0,0,0-3.72,3.64l0,2.74A3.79,3.79,0,0,0,2226.59,1924.43Z"/><path class="cls-31" d="M2320.06,1884.36l3.64,28.06c.45,3.45-1.5,6.58-4.09,6.56l-90.12-.61a6.69,6.69,0,0,1-5.92-4.16c-1.28-2.76-1.57-6.92,2.42-12.48,8-11.11,34.45-13.66,47.33-23.11l42,.29C2317.64,1878.92,2319.66,1881.23,2320.06,1884.36Z"/><path class="cls-4" d="M2279.84,1894.94h0a1.86,1.86,0,0,0,.49-2.28c-1.8-3.85-7.42-13.24-18.65-11.39-.65.1-1.09.94-1,1.82v0c.11.84.7,1.4,1.33,1.3,10.07-1.62,14.84,6.65,16.3,9.88A1,1,0,0,0,2279.84,1894.94Z"/><path class="cls-4" d="M2270.51,1898.49h0a1.85,1.85,0,0,0,.49-2.28c-1.8-3.86-7.41-13.24-18.65-11.4a1.54,1.54,0,0,0-1,1.82v0c.11.85.71,1.4,1.33,1.3,10.07-1.62,14.85,6.66,16.31,9.89A1,1,0,0,0,2270.51,1898.49Z"/><path class="cls-4" d="M2261.83,1901.8h0a1.85,1.85,0,0,0,.5-2.28c-1.81-3.86-7.42-13.25-18.65-11.4a1.55,1.55,0,0,0-1,1.82v0c.11.84.7,1.4,1.33,1.3,10.07-1.62,14.84,6.66,16.3,9.89A1,1,0,0,0,2261.83,1901.8Z"/><path class="cls-32" d="M2295.55,1918.82c6.9-22.6,19.12-25,25.81-24.45l2.34,18.05c.45,3.45-1.5,6.58-4.09,6.56Z"/><polygon class="cls-5" points="2373.67 1833.06 2358.34 1883.08 2323.04 1883.32 2329.19 1846.81 2373.67 1833.06"/><path class="cls-4" d="M2272.34,1925.35l94.75.64a3.63,3.63,0,0,0,3.72-3.64l0-2.74a3.79,3.79,0,0,0-3.78-3.7l-94.76-.64a3.65,3.65,0,0,0-3.72,3.65l0,2.73A3.79,3.79,0,0,0,2272.34,1925.35Z"/><path class="cls-33" d="M2365.81,1885.28l3.63,28.06c.45,3.46-1.5,6.59-4.09,6.57l-90.11-.61a6.69,6.69,0,0,1-5.92-4.16c-1.29-2.77-1.58-6.92,2.41-12.48,8-11.12,34.45-13.66,47.33-23.11l42,.28C2363.38,1879.85,2365.4,1882.16,2365.81,1885.28Z"/><path class="cls-4" d="M2325.58,1895.87h0a1.85,1.85,0,0,0,.49-2.28c-1.8-3.85-7.41-13.24-18.65-11.4a1.54,1.54,0,0,0-1,1.82v0c.11.85.7,1.41,1.33,1.3,10.07-1.61,14.85,6.66,16.31,9.89A1,1,0,0,0,2325.58,1895.87Z"/><path class="cls-4" d="M2316.25,1899.42h0a1.85,1.85,0,0,0,.49-2.29c-1.8-3.85-7.41-13.24-18.65-11.39-.65.1-1.08,1-1,1.82v0c.12.84.71,1.4,1.34,1.3,10.07-1.62,14.84,6.66,16.3,9.89A1,1,0,0,0,2316.25,1899.42Z"/><path class="cls-4" d="M2307.58,1902.72h0a1.85,1.85,0,0,0,.49-2.28c-1.8-3.85-7.42-13.24-18.65-11.39-.65.1-1.08,1-1,1.82v0c.11.84.7,1.4,1.33,1.3,10.07-1.62,14.85,6.65,16.31,9.88C2306.41,1902.77,2307,1903.05,2307.58,1902.72Z"/><path class="cls-32" d="M2341.3,1919.75c6.9-22.6,19.11-25,25.8-24.45l2.34,18c.45,3.46-1.5,6.59-4.09,6.57Z"/><path class="cls-34" d="M2485.18,1499.14s-175.64,19.34-209.13,51-11,270.28-5.45,292.16c0,0,30.57,14.57,54.76,7.11s14.89-111.88,14.89-111.88-2.8-99.75.93-113.74,54.89-24.24,54.89-24.24,123-64.58,118.38-64.58S2485.18,1499.14,2485.18,1499.14Z"/><path class="cls-35" d="M2679.61,1540.67c.74-45.17-12.27-84-12.27-84l-78.83,68.07-.7-6.08s-197.32-23.49-224.31,66-47.44,266.64-47.44,266.64,26.05,15.85,61.4,0c0,0,50-190.19,68.73-208.83,11.94-11.89,86.13-25.58,129.52-26.22C2620.54,1615.59,2678.74,1594.18,2679.61,1540.67Z"/><path class="cls-36" d="M2492.19,1202.16s-44.19,8.06-66.83,33.31-53.54,87.94-53.54,87.94,23.25,46.54,48,50.5l55.17-53.55Z"/><path class="cls-37" d="M2492.19,1202.16s-41.14,34-47,64.65,4.58,241.63,4.58,241.63,31.34,34,125.38,22.86c0,0,88.16-81,90.12-82.94s-39.84-80.52-39.84-80.52,47.68-12.21,59.43-27.88c0,0-14.37-145-128-137.8C2556.84,1202.16,2528.76,1227,2492.19,1202.16Z"/><path class="cls-5" d="M2684.84,1340s-7.84,12.67-59.43,27.88c0,0,16.33,55.05,15,67.46-1.26,12-101,120.62-108,128.22l-.69-.35s-53.44,16.94-54.08,19.16.85,3.34,20.41,4.4a1.6,1.6,0,0,1,1.21,2.54c-5.85,7.92-24.12,33-22.44,34.89,2,2.31,18.86-19.66,21.56-18.79s-14.29,21.89-11.76,24,17.39-17.55,18.77-17-10.83,20.89-10.09,23,16.42-18,18.28-17.86-4.34,17.67-2.89,18.37,2.29,1.41,27.54-34l9.34-14.37.09-1c10-5.38,136.45-74.33,150.87-127C2713.57,1404.61,2684.84,1340,2684.84,1340Z"/><path class="cls-5" d="M2307.35,1160.34c4.87,4.77,6.52,11,3.69,13.87s-9.07,1.37-13.94-3.4-6.52-11-3.69-13.86S2302.48,1155.58,2307.35,1160.34Z"/><path class="cls-5" d="M2300,1167.9c4.87,4.77,6.52,11,3.69,13.87s-9.07,1.37-13.94-3.4-6.52-11-3.69-13.86S2295.08,1163.14,2300,1167.9Z"/><path class="cls-5" d="M2292.55,1175.47c4.86,4.76,6.52,11,3.69,13.86s-9.08,1.37-13.94-3.39-6.52-11-3.69-13.87S2287.68,1170.7,2292.55,1175.47Z"/><path class="cls-5" d="M2285.14,1183c4.87,4.76,6.52,11,3.69,13.86s-9.07,1.37-13.94-3.39-6.52-11-3.69-13.87S2280.28,1178.26,2285.14,1183Z"/><path class="cls-4" d="M2496.17,1147.39c.87,6.19,6.37,11.19,13.34,11.64s13.07-3.78,14.72-9.8Z"/><path class="cls-8" d="M2584.23,1121.69s14.62-52.35-13.74-73.54-59.46-20.42-81.09-9.53-36.11,51.7-27.69,75.8l71.06-19.32Z"/><path class="cls-9" d="M2475.7,1121.15c2.61,6.78.33,14-5.08,16.06s-11.91-1.71-14.52-8.49-.33-14,5.08-16.06S2473.09,1114.37,2475.7,1121.15Z"/><path class="cls-5" d="M2476.88,1160.54a54.59,54.59,0,0,1-4-9.29,103.92,103.92,0,0,1-5.12-26c-.14-1.72-.37-3.43-.64-5.14a56.1,56.1,0,1,1,111.5-7.58,12.11,12.11,0,0,1,10.93-.65c6.6,3.11,8.81,12.33,4.93,20.59s-12.36,12.45-19,9.34a10.47,10.47,0,0,1-2.48-1.64c-3.32,27.46-26.22,48.27-53.19,47.31a50.31,50.31,0,0,1-33.87-14.9,26,26,0,0,1-1.86-1.82A48.7,48.7,0,0,1,2476.88,1160.54Z"/><path class="cls-9" d="M2509.94,1110.71c-.37,3.2-.65,6.33-1.07,9.38s-1,6.16-2.41,8.18l-.27.32a4.6,4.6,0,0,1-.33.39,8.09,8.09,0,0,0-1,1.14,6.41,6.41,0,0,0-1.07,2.87,6.64,6.64,0,0,0,2,5.39,10.79,10.79,0,0,0,9.46,2.67c-3.08-.81-6-2.13-7.56-4.32a4.3,4.3,0,0,1-.89-3.31,3.53,3.53,0,0,1,.67-1.48,5.15,5.15,0,0,1,.58-.67l.44-.5.5-.58a12.64,12.64,0,0,0,1.94-5,26.73,26.73,0,0,0,.38-4.94A33.35,33.35,0,0,0,2509.94,1110.71Z"/><path class="cls-10" d="M2528.14,1116.48a4.89,4.89,0,1,0,5.06-4.73A4.9,4.9,0,0,0,2528.14,1116.48Z"/><path class="cls-10" d="M2486,1117.74a4.9,4.9,0,1,0,5.07-4.73A4.91,4.91,0,0,0,2486,1117.74Z"/><path class="cls-8" d="M2522.92,1104.93a51,51,0,0,1,7.28-1.12,24.7,24.7,0,0,1,6.79.41,23.15,23.15,0,0,1,6.37,2.27c1.1.44,2,1.19,3.12,1.76s2,1.43,3.2,2.07a19.6,19.6,0,0,0-1.9-3.44,16.32,16.32,0,0,0-2.73-2.91,15.87,15.87,0,0,0-7.32-3.54,16.31,16.31,0,0,0-8.1.41A15,15,0,0,0,2522.92,1104.93Z"/><path class="cls-8" d="M2501.23,1105.58a15,15,0,0,0-6.83-3.89,16.52,16.52,0,0,0-8.12-.16,15.81,15.81,0,0,0-7.2,3.76,17.42,17.42,0,0,0-2.65,3,21.79,21.79,0,0,0-1.79,3.5c1.17-.68,2.1-1.49,3.14-2.16s2-1.38,3.06-1.86a23,23,0,0,1,6.31-2.46,24.46,24.46,0,0,1,6.77-.62A48.89,48.89,0,0,1,2501.23,1105.58Z"/><path class="cls-8" d="M2577.74,1113.29c3.33-2.65,5.79-2.33,5.79-2.33l-.71-17.17-4.86-10.54s-19.58-28.64-20.28-29.36-16.18-10.38-17.13-10.88-23.32,1.89-23.32,1.89-38.73-9.7-33,11.06,33.77,32.74,35.27,31.89c-4.43-4.79-4.34-17.84-4.34-17.84C2534.39,1092.84,2571.89,1110.61,2577.74,1113.29Z"/><path class="cls-4" d="M2500.07,1149.17c1.63,6,7.73,10.29,14.7,9.86s12.49-5.4,13.36-11.58Z"/><polygon class="cls-5" points="1491.15 1837.26 1497.09 1885.06 1529.08 1887.55 1528.58 1843.21 1491.15 1837.26"/><path class="cls-4" d="M1577.69,1922.54l-87.4.59a3.35,3.35,0,0,1-3.42-3.36l0-2.52a3.5,3.5,0,0,1,3.49-3.42l87.39-.59a3.37,3.37,0,0,1,3.43,3.37l0,2.52A3.49,3.49,0,0,1,1577.69,1922.54Z"/><path class="cls-38" d="M1491.48,1885.59l-3.35,25.87c-.41,3.19,1.38,6.08,3.78,6.06l83.1-.56a6.18,6.18,0,0,0,5.46-3.84c1.19-2.55,1.45-6.38-2.22-11.51-7.35-10.25-31.78-12.6-43.66-21.31l-38.71.26C1493.72,1880.57,1491.86,1882.7,1491.48,1885.59Z"/><path class="cls-4" d="M1528.58,1895.35h0a1.72,1.72,0,0,1-.45-2.1c1.66-3.56,6.84-12.22,17.2-10.52.6.1,1,.88.89,1.69v0c-.11.78-.65,1.29-1.23,1.2-9.29-1.49-13.69,6.14-15,9.12C1529.66,1895.39,1529.08,1895.65,1528.58,1895.35Z"/><path class="cls-4" d="M1537.19,1898.62h0a1.71,1.71,0,0,1-.46-2.1c1.66-3.56,6.84-12.22,17.2-10.52.6.1,1,.88.89,1.69v0c-.11.78-.65,1.29-1.23,1.2-9.29-1.49-13.69,6.14-15,9.12A1,1,0,0,1,1537.19,1898.62Z"/><path class="cls-4" d="M1545.19,1901.67h0a1.71,1.71,0,0,1-.46-2.1c1.66-3.56,6.84-12.22,17.2-10.52.6.1,1,.88.89,1.69v0c-.11.78-.65,1.29-1.23,1.2-9.29-1.49-13.69,6.14-15,9.12A1,1,0,0,1,1545.19,1901.67Z"/><path class="cls-32" d="M1514.09,1917.37c-6.37-20.84-17.63-23.07-23.8-22.55l-2.16,16.64c-.41,3.19,1.38,6.08,3.78,6.06Z"/><polygon class="cls-5" points="1442.04 1838.27 1456.18 1884.4 1488.74 1884.63 1483.07 1850.95 1442.04 1838.27"/><path class="cls-4" d="M1535.5,1923.4l-87.39.59a3.37,3.37,0,0,1-3.43-3.37l0-2.52a3.49,3.49,0,0,1,3.49-3.41l87.39-.59a3.36,3.36,0,0,1,3.43,3.36l0,2.52A3.5,3.5,0,0,1,1535.5,1923.4Z"/><path class="cls-28" d="M1449.29,1886.44l-3.35,25.88c-.41,3.19,1.39,6.07,3.78,6.06l83.1-.57a6.16,6.16,0,0,0,5.46-3.83c1.19-2.56,1.46-6.39-2.22-11.52-7.35-10.25-31.78-12.59-43.66-21.31l-38.71.26C1451.53,1881.43,1449.67,1883.56,1449.29,1886.44Z"/><path class="cls-4" d="M1486.4,1896.21h0a1.72,1.72,0,0,1-.46-2.11c1.66-3.55,6.84-12.21,17.2-10.51a1.42,1.42,0,0,1,.89,1.68v0c-.11.78-.65,1.29-1.23,1.2-9.29-1.5-13.69,6.14-15,9.11A1,1,0,0,1,1486.4,1896.21Z"/><path class="cls-4" d="M1495,1899.47h0a1.7,1.7,0,0,1-.46-2.1c1.67-3.55,6.84-12.21,17.2-10.51a1.42,1.42,0,0,1,.89,1.68v0c-.1.78-.65,1.29-1.23,1.2-9.29-1.5-13.69,6.14-15,9.11A1,1,0,0,1,1495,1899.47Z"/><path class="cls-4" d="M1503,1902.53h0a1.72,1.72,0,0,1-.46-2.11c1.67-3.55,6.84-12.21,17.21-10.51.59.1,1,.88.88,1.68v0c-.1.78-.65,1.29-1.23,1.2-9.29-1.49-13.69,6.14-15,9.11A1,1,0,0,1,1503,1902.53Z"/><path class="cls-32" d="M1471.9,1918.23c-6.37-20.85-17.63-23.08-23.8-22.55l-2.16,16.64c-.41,3.19,1.39,6.07,3.78,6.06Z"/><path class="cls-34" d="M1339.2,1504.89s162,17.83,192.87,47.07,6.83,282.06,1.68,302.23c0,0-28.19,13.44-50.5,6.56s-10.38-136-10.38-136,2.57-92-.86-104.9-50.62-22.36-50.62-22.36-155.42-74.36-151.13-74.36S1339.2,1504.89,1339.2,1504.89Z"/><path class="cls-35" d="M1159.88,1543.19a327.9,327.9,0,0,1,11.31-77.47l72.71,62.77.64-5.6s182-21.66,206.88,60.88,41.22,278,41.22,278-18.24,24-50.85,9.37c0,0-49.36-216.86-66.63-234.06C1364.15,1626.12,1158.15,1639,1159.88,1543.19Z"/><path class="cls-5" d="M1407.93,1221a1.2,1.2,0,0,0,2-.64c1.3-7.25,5.56-30,7.48-30.12,2.28-.1-1,20.35.84,21.38s4.58-19,7-18.72-.64,18.47.35,18.95,5.82-16.62,7.37-17.31-1.39,18.18-.35,19.11,7.4-11.42,8.52-11,1.94.53-4.39,32.45l-3,12.46-8,8.82-13.42-5s-18.19-37.78-17.31-39.26S1397.32,1210.88,1407.93,1221Z"/><path class="cls-39" d="M1352.52,1347.56s24.8,58.75,67.24,59.4,17.63-163.86,17.63-163.86h-32s-4.55,87.48-6.84,88.14-22.54-48.31-22.54-48.31Z"/><polygon class="cls-5" points="1257.64 1155.89 1255.71 1184.22 1283.33 1201.24 1294.32 1195.83 1294.93 1160.75 1257.64 1155.89"/><path class="cls-9" d="M1294.54,1183.56l.4-22.81-37.3-4.86-.8,11.74A74,74,0,0,0,1294.54,1183.56Z"/><path class="cls-10" d="M1219.26,1113.13s-18.12-45.18,7.77-66.48,56.08-23.36,77.87-15.6,38.9,42.72,32.56,64.86L1267.12,1085Z"/><path class="cls-9" d="M1329.77,1105.35c-1.56,6.61,1.61,12.91,7.1,14.06s11.19-3.28,12.76-9.89-1.61-12.92-7.09-14.07S1331.34,1098.73,1329.77,1105.35Z"/><path class="cls-5" d="M1334.09,1141.79a48.91,48.91,0,0,0,2.59-9.13A93.22,93.22,0,0,0,1338,1108c-.11-1.6-.12-3.21-.11-4.82a50.39,50.39,0,0,0-3.8-19.81c-8.74-21.3-31.46-34.64-55.23-32.37-32,3-54.09,31.45-49,61.14a12.18,12.18,0,0,0-10.58,1c-5.91,3.8-6.75,12.61-1.89,19.66s13.59,9.7,19.49,5.89a10.76,10.76,0,0,0,2.16-1.86,50.45,50.45,0,0,0,57.6,36,49.69,49.69,0,0,0,30.44-18.56,21.22,21.22,0,0,0,1.53-1.94A45.21,45.21,0,0,0,1334.09,1141.79Z"/><path class="cls-10" d="M1280.79,1112.58a5,5,0,0,1-4.12,5.76,5,5,0,0,1-5.93-3.9,5.11,5.11,0,0,1,10-1.86Z"/><path class="cls-10" d="M1322.39,1107a5,5,0,0,1-4.11,5.76,5,5,0,0,1-5.94-3.91,5.11,5.11,0,0,1,10.05-1.85Z"/><path class="cls-10" d="M1284,1103.89a32.51,32.51,0,0,0-7.49-1.68,23.58,23.58,0,0,0-7.46.45,19.75,19.75,0,0,0-3.54,1.14c-.58.23-1.13.52-1.69.79-.28.14-.55.31-.82.46a8.21,8.21,0,0,0-.81.48,38.43,38.43,0,0,0-6,4.78,20.26,20.26,0,0,1,5.13-5.89,18.24,18.24,0,0,1,3.43-2.13,17.82,17.82,0,0,1,3.86-1.34,19.2,19.2,0,0,1,8.09-.09,20.76,20.76,0,0,1,3.82,1.14A15.94,15.94,0,0,1,1284,1103.89Z"/><path class="cls-10" d="M1304.39,1101.15a16.16,16.16,0,0,1,2.82-2.72,20.59,20.59,0,0,1,3.38-2.11,19.4,19.4,0,0,1,7.83-2,18,18,0,0,1,4.08.29,17.62,17.62,0,0,1,3.87,1.15,20.17,20.17,0,0,1,6.5,4.33,38.87,38.87,0,0,0-7-3,9.36,9.36,0,0,0-.91-.24c-.3-.07-.6-.17-.91-.23-.61-.11-1.22-.25-1.84-.32a20,20,0,0,0-3.71-.17,23.53,23.53,0,0,0-7.32,1.54A31.94,31.94,0,0,0,1304.39,1101.15Z"/><path class="cls-10" d="M1229.84,1112.16s34.79-19.18,51.4-43.48c0,0,1.16,11.94-2.4,16.67,1.41.66,25.47-12.45,28.84-31.89s-30.38-7.6-30.38-7.6-20.15-.49-21,.05-13.82,10.55-14.39,11.26-15.67,28.42-15.67,28.42l-3.46,10-3.56,17.52Z"/><path class="cls-40" d="M1289.81,1140.26a14.63,14.63,0,0,1,11.74-.07s5.56-4.45,10.79-1.61a11.48,11.48,0,0,1-11.07,9.7C1291.26,1149,1289.81,1140.26,1289.81,1140.26Z"/><path class="cls-9" d="M1284.19,1137.86a31.19,31.19,0,0,0,3.84,1.91,30.73,30.73,0,0,0,4,1.42,26.77,26.77,0,0,0,8.43,1,23,23,0,0,0,8.23-2,31.46,31.46,0,0,0,7.17-4.7,26.13,26.13,0,0,1-3.12,3,25.3,25.3,0,0,1-3.67,2.42,21.47,21.47,0,0,1-4.14,1.63,22.74,22.74,0,0,1-4.42.7,23.31,23.31,0,0,1-8.75-1.29A25,25,0,0,1,1284.19,1137.86Z"/><path class="cls-9" d="M1299.23,1107.83a56.88,56.88,0,0,1,4.67,6.4,52.54,52.54,0,0,1,3.81,7A20.11,20.11,0,0,1,1309,1125a6.39,6.39,0,0,1,.11,1.09c0,.19,0,.41,0,.61a2.71,2.71,0,0,1-.21.67l-.21.34-.19.21c-.13.13-.25.27-.38.39s-.53.48-.81.69a20.15,20.15,0,0,1-3.54,2.15,27.62,27.62,0,0,1-3.8,1.52,45.62,45.62,0,0,0,6.48-4.6c.24-.22.44-.45.66-.68l.29-.34.14-.17a.14.14,0,0,1,0-.09,2.86,2.86,0,0,0-.08-1.48,20.81,20.81,0,0,0-1.27-3.53c-1-2.35-2.24-4.65-3.41-7S1300.37,1110.21,1299.23,1107.83Z"/><path class="cls-10" d="M1255.71,1040.58s-32-61.59-85.5-56.32-65.23,48.62-62.8,70.1,17,45.38,3.24,75.36-10.54,75,31.6,71.52,32.82-46.53,33.23-61.86,30-13.73,22.69-41.68-26.74-56.71.4-60.77,43.36,8.51,43.36,8.51Z"/><path class="cls-41" d="M1364.58,1182.13v45.35a16.22,16.22,0,0,0,16.23,16.23h21.78a16.24,16.24,0,0,0,15.61-11.77,20.33,20.33,0,0,0,.62-40.64v-9.17Zm54.24,42.83v-26.69a13.38,13.38,0,0,1,0,26.69Z"/><path class="cls-42" d="M1407.43,1182.13h11.39v45.35a16.23,16.23,0,0,1-16.23,16.23h-21.78a16.23,16.23,0,0,1-13-6.53C1413.44,1238.51,1407.43,1182.13,1407.43,1182.13Z"/><path class="cls-43" d="M1364.58,1182.64c0,2.81,12.17,5.08,27.19,5.08s27.18-2.27,27.18-5.08-12.17-5.08-27.18-5.08S1364.58,1179.83,1364.58,1182.64Z"/><path class="cls-41" d="M1366.77,1182.64c0,2.16,11.19,3.91,25,3.91s25-1.75,25-3.91-11.19-3.91-25-3.91S1366.77,1180.48,1366.77,1182.64Z"/><ellipse class="cls-16" cx="1391.77" cy="1183.67" rx="24.12" ry="2.88"/><path class="cls-42" d="M1433.29,1211.61a13.39,13.39,0,0,1-12.41,13.35v-.31a13.38,13.38,0,0,0,0-26.07v-.31A13.39,13.39,0,0,1,1433.29,1211.61Z"/><path class="cls-44" d="M1370.57,1223.88h0a2.21,2.21,0,0,0,2.21-2.22V1193a2.21,2.21,0,0,0-2.21-2.21h0a2.21,2.21,0,0,0-2.22,2.21v28.62A2.21,2.21,0,0,0,1370.57,1223.88Z"/><path class="cls-5" d="M1368.1,1225.37a1.2,1.2,0,0,0,2.11-.09c3.16-6.65,13.26-27.51,15.13-27.09,2.23.51-6.34,19.37-4.81,20.85s9.41-17.14,11.71-16.22-5.47,17.66-4.64,18.38,10-14.5,11.66-14.76-6.12,17.18-5.36,18.35,10.14-9.08,11.11-8.37,1.74,1-12.76,30.14l-6.2,11.23-10,6.42-11.64-8.32s-7.62-41.23-6.38-42.44S1360.52,1212.84,1368.1,1225.37Z"/><path class="cls-28" d="M1252.63,1179.13s-60.71,14.36-68.54,52.87-41.79,242.86-28.08,309.45c0,0,37.22,57.45,125.35-3.27,0,0,34.6-30,59.41-33.29l-22.2-99.23L1361,1275.75s5.23-75.73-51.57-86.18C1309.43,1189.57,1279.4,1200,1252.63,1179.13Z"/><path class="cls-38" d="M1201.39,1219.92c9.43-8.88,24.85-6,31,5.44,15.13,28.08,58.27,107.76,62,110.45,4.57,3.26,64.63-88.31,64.63-88.31s21.54.83,31.33,8.66c0,0-32.64,176.26-91.39,162.56-45-10.49-86.08-89.36-102.92-125.85a79.19,79.19,0,0,1-5.13-52.95C1193,1232.17,1196.19,1224.81,1201.39,1219.92Z"/><rect class="cls-45" x="1249.09" y="1437.93" width="25.11" height="484.91"/><rect class="cls-45" x="1486.04" y="1437.93" width="25.11" height="484.91"/><rect class="cls-45" x="2202.74" y="1437.93" width="25.11" height="484.91"/><rect class="cls-45" x="2439.7" y="1437.93" width="25.11" height="484.91"/><rect class="cls-4" x="1181.85" y="1412.74" width="1353.67" height="30.92" rx="2.51"/><rect class="cls-46" x="2193.95" y="1412.74" width="341.56" height="30.92" rx="2.51"/><rect class="cls-8" x="215.55" y="1922.65" width="2922.77" height="13.44"/><path class="cls-47" d="M644.17,1038.39h0a25.13,25.13,0,0,0-21.71-24.89v-32a40.92,40.92,0,0,0-40.93-40.93H416.72a40.93,40.93,0,0,0-40.93,40.93v32.13A25.13,25.13,0,0,0,355,1038.39h0a25.13,25.13,0,0,0,20.76,24.74v167.62A25.12,25.12,0,0,0,355,1255.48h0a25.12,25.12,0,0,0,20.76,24.74v3.7a40.94,40.94,0,0,0,40.93,40.93h32.57a10.65,10.65,0,0,1,10.65,10.65v11.68h78.37V1335.5A10.65,10.65,0,0,1,549,1324.85h32.57a40.93,40.93,0,0,0,40.93-40.93v-3.55a25.13,25.13,0,0,0,21.71-24.89h0a25.12,25.12,0,0,0-21.71-24.88V1063.27A25.11,25.11,0,0,0,644.17,1038.39Z"/><polygon class="cls-24" points="375.79 1063.13 543.76 1065.26 375.79 1067.39 375.79 1063.13"/><polygon class="cls-24" points="622.45 1009.24 454.48 1011.38 622.45 1013.51 622.45 1009.24"/><polygon class="cls-24" points="375.79 1280.19 543.76 1282.32 375.79 1284.45 375.79 1280.19"/><polygon class="cls-24" points="622.45 1226.3 454.48 1228.43 622.45 1230.57 622.45 1226.3"/><path class="cls-48" d="M644.17,1038.39h0a25.13,25.13,0,0,0-21.71-24.89v-32a40.92,40.92,0,0,0-40.93-40.93H552.34c-13.3,115.69-49.11,290.71-145.42,383.07a41.09,41.09,0,0,0,9.8,1.19h32.57a10.65,10.65,0,0,1,10.65,10.65v11.68h78.37V1335.5A10.65,10.65,0,0,1,549,1324.85h32.57a40.93,40.93,0,0,0,40.93-40.93v-3.55a25.13,25.13,0,0,0,21.71-24.89h0a25.12,25.12,0,0,0-21.71-24.88V1063.27A25.11,25.11,0,0,0,644.17,1038.39Z"/><ellipse class="cls-24" cx="499.13" cy="1139.45" rx="123.34" ry="7.48"/><path class="cls-49" d="M622.46,1230.6v-91.11c-.4,4.11-55.46,7.43-123.33,7.43-68.12,0-123.34-3.34-123.34-7.47v91.3a25.12,25.12,0,0,0,0,49.47v3.7a40.94,40.94,0,0,0,40.93,40.93h32.57a10.65,10.65,0,0,1,10.65,10.65v11.68h78.37V1335.5A10.65,10.65,0,0,1,549,1324.85h32.57a40.93,40.93,0,0,0,40.93-40.93v-3.55a25.12,25.12,0,0,0,0-49.77Z"/><rect class="cls-50" x="434.71" y="1340.01" width="129.77" height="52.27" rx="4.44"/><rect class="cls-24" x="360.24" y="1347.18" width="278.72" height="575.57" rx="23.66"/><path class="cls-50" d="M429.9,1435.19H569.3a14.25,14.25,0,0,1,14.25,14.25v165.34a0,0,0,0,1,0,0H415.65a0,0,0,0,1,0,0V1449.44A14.25,14.25,0,0,1,429.9,1435.19Z"/><path class="cls-25" d="M441.61,1448h116a11.86,11.86,0,0,1,11.86,11.86v154.89a0,0,0,0,1,0,0H429.75a0,0,0,0,1,0,0V1459.89A11.86,11.86,0,0,1,441.61,1448Z"/><rect class="cls-50" x="398.64" y="1614.78" width="204.3" height="11.85" rx="1.01"/><path class="cls-51" d="M592.84,1910.75H406.36A32.39,32.39,0,0,1,374,1878.4V1409.66a32.39,32.39,0,0,1,32.35-32.35H592.84a32.39,32.39,0,0,1,32.35,32.35V1878.4A32.39,32.39,0,0,1,592.84,1910.75ZM406.36,1379.44a30.25,30.25,0,0,0-30.21,30.22V1878.4a30.25,30.25,0,0,0,30.21,30.22H592.84a30.25,30.25,0,0,0,30.21-30.22V1409.66a30.25,30.25,0,0,0-30.21-30.22Z"/><path class="cls-50" d="M402.27,1885.46a5.77,5.77,0,1,1-5.77-5.77A5.76,5.76,0,0,1,402.27,1885.46Z"/><path class="cls-50" d="M402.27,1404.81a5.77,5.77,0,1,1-5.77-5.77A5.77,5.77,0,0,1,402.27,1404.81Z"/><path class="cls-50" d="M608.7,1885.46a5.77,5.77,0,1,1-5.77-5.77A5.76,5.76,0,0,1,608.7,1885.46Z"/><path class="cls-50" d="M608.7,1404.81a5.77,5.77,0,1,1-5.77-5.77A5.77,5.77,0,0,1,608.7,1404.81Z"/><path class="cls-51" d="M568.9,1839.79H430.3a16.09,16.09,0,0,1-16.08-16.07V1774a16.09,16.09,0,0,1,16.08-16.08H568.9A16.09,16.09,0,0,1,585,1774v49.71A16.09,16.09,0,0,1,568.9,1839.79Zm-138.6-79A13.24,13.24,0,0,0,417.07,1774v49.71A13.24,13.24,0,0,0,430.3,1837H568.9a13.24,13.24,0,0,0,13.23-13.23V1774a13.24,13.24,0,0,0-13.23-13.23Z"/><path class="cls-4" d="M468.85,1526.81h-1.22l3.2-29a3.17,3.17,0,0,0-3.16-3.52H456.22a3.17,3.17,0,0,0-3.16,3.52l3.21,29H455a2.38,2.38,0,0,0-2.37,2.37v7.94a2.37,2.37,0,0,0,2.37,2.37h13.81a2.37,2.37,0,0,0,2.37-2.37v-7.94A2.38,2.38,0,0,0,468.85,1526.81Z"/><rect class="cls-52" x="450.62" y="1530.95" width="22.85" height="4.86" rx="0.41"/><path class="cls-4" d="M544,1526.81h-1.22l3.2-29a3.17,3.17,0,0,0-3.15-3.52H531.33a3.17,3.17,0,0,0-3.16,3.52l3.21,29h-1.23a2.38,2.38,0,0,0-2.37,2.37v7.94a2.37,2.37,0,0,0,2.37,2.37H544a2.37,2.37,0,0,0,2.37-2.37v-7.94A2.38,2.38,0,0,0,544,1526.81Z"/><rect class="cls-53" x="525.73" y="1530.95" width="22.85" height="4.86" rx="0.41"/><polygon class="cls-14" points="543.02 1555.45 531.09 1555.45 513.9 1555.45 523.91 1614.9 531.09 1614.9 543.02 1614.9 550.2 1614.9 560.21 1555.45 543.02 1555.45"/><rect class="cls-53" x="510.21" y="1554.71" width="53.69" height="6.35" rx="0.54"/><path class="cls-54" d="M522.05,1570.4a18.43,18.43,0,0,0-5.49.84l6,35.8a18.32,18.32,0,0,0-.54-36.64Z"/><path class="cls-8" d="M1648.51,1285.33H1476l-48.91,119.3H1344a4.21,4.21,0,0,0-4.21,4.21h0a4.21,4.21,0,0,0,4.21,4.2h247.22Z"/><path class="cls-53" d="M1563,1353.41c-1,5.08-5.45,8.48-9.91,7.59s-7.23-5.73-6.22-10.82,5.46-8.48,9.91-7.59S1564,1348.32,1563,1353.41Z"/><rect class="cls-4" x="2554.13" y="845.59" width="26.67" height="107.9"/><rect class="cls-55" x="2750.4" y="887.67" width="21.2" height="107.9" transform="translate(3702.62 -1819.37) rotate(90)"/><rect class="cls-4" x="2764.75" y="866.41" width="21.2" height="107.9" transform="translate(3695.71 -1855) rotate(90)"/><rect class="cls-27" x="2742.42" y="845.67" width="21.2" height="107.9" transform="translate(3652.64 -1853.4) rotate(90)"/><rect class="cls-55" x="2584.37" y="802.13" width="27.27" height="149.77"/><rect class="cls-27" x="2525.84" y="818.64" width="25.12" height="133.26"/><rect class="cls-27" x="2639.62" y="818.64" width="25.12" height="133.26" transform="translate(-119.53 1253.21) rotate(-26.02)"/><path class="cls-55" d="M2901.84,806.7a12,12,0,0,0-12,12V832a4.43,4.43,0,0,1-4.43,4.43H2880v-24.3a16.06,16.06,0,0,0-32.12,0v51.16h-3.08a7.07,7.07,0,0,1-7.07-7.07V845.53a12,12,0,0,0-12-12h0a12,12,0,0,0-12,12v17.78a24,24,0,0,0,24,24h10.15v30.55H2880V860.41h9.91a24,24,0,0,0,24-24V818.68A12,12,0,0,0,2901.84,806.7Z"/><path class="cls-56" d="M2863.65,917.82V796.1a16.05,16.05,0,0,0-15.82,16v51.16h-3.08a7.07,7.07,0,0,1-7.07-7.07V845.53a12,12,0,0,0-12-12h0a12,12,0,0,0-12,12v17.78a24,24,0,0,0,24,24h10.15v30.55Z"/><path class="cls-8" d="M2873.72,951.14h-20.15a17,17,0,0,1-17-16.95v-37.1h54.06v37.1A17,17,0,0,1,2873.72,951.14Z"/><rect class="cls-8" x="2505.9" y="951.14" width="431.45" height="12.19"/><ellipse class="cls-27" cx="574.81" cy="567.14" rx="121.65" ry="121.91"/><ellipse class="cls-4" cx="574.81" cy="567.14" rx="104.17" ry="104.38"/><rect class="cls-27" x="480.5" y="547.37" width="2.96" height="38.4" transform="translate(-84.58 1048.55) rotate(-90)"/><rect class="cls-27" x="666.39" y="547.37" width="2.96" height="38.4" transform="translate(101.3 1234.44) rotate(-90)"/><rect class="cls-27" x="573.17" y="455.67" width="2.95" height="38.48"/><rect class="cls-27" x="573.17" y="641.2" width="2.95" height="38.48"/><path class="cls-27" d="M578,567.14a3.18,3.18,0,1,1-3.18-3.18A3.19,3.19,0,0,1,578,567.14Z"/><path class="cls-27" d="M574.81,568.57a1.42,1.42,0,0,1-1-.42l-57.11-57.24a1.42,1.42,0,1,1,2-2l57.11,57.24a1.43,1.43,0,0,1-1,2.43Z"/><path class="cls-27" d="M593.17,625a1.05,1.05,0,0,1-.51-.6L574.19,568.5a1,1,0,0,1,2-.65l18.46,55.89a1,1,0,0,1-1.45,1.25Z"/><rect class="cls-27" x="735.66" y="834.8" width="29.03" height="117.69"/><rect class="cls-41" x="949.28" y="880.82" width="23.12" height="117.45" transform="translate(1900.38 -21.29) rotate(90)"/><rect class="cls-27" x="964.9" y="857.62" width="23.12" height="117.45" transform="translate(1892.81 -60.11) rotate(90)"/><rect class="cls-4" x="940.59" y="835.01" width="23.12" height="117.45" transform="translate(1845.89 -58.42) rotate(90)"/><rect class="cls-4" x="768.58" y="787.39" width="29.69" height="163.36"/><rect class="cls-41" x="704.87" y="805.4" width="27.34" height="145.36"/><polygon class="cls-41" points="886.49 937.37 861.92 949.4 798.28 818.77 822.86 806.75 886.49 937.37"/><rect class="cls-50" x="683.17" y="949.93" width="359.91" height="13.3"/><rect class="cls-4" x="704.87" y="816.84" width="27.34" height="9.43"/><rect class="cls-57" x="742.04" y="844.76" width="16.28" height="44.9"/><rect class="cls-57" x="768.58" y="805.4" width="29.69" height="7.09"/><rect class="cls-57" x="768.58" y="927.91" width="29.69" height="9.3"/><rect class="cls-4" x="1001.3" y="558.83" width="203.81" height="203.81"/><rect class="cls-25" x="1022.18" y="579.71" width="162.04" height="162.04"/><rect class="cls-4" x="2640.97" y="479.22" width="161.69" height="161.69"/><rect class="cls-25" x="2657.53" y="495.79" width="128.56" height="128.56"/><rect class="cls-4" x="798.39" y="444.3" width="139.72" height="139.72"/><rect class="cls-25" x="812.71" y="458.62" width="111.09" height="111.09"/><rect class="cls-4" x="2473.56" y="586.66" width="109.08" height="109.07"/><rect class="cls-25" x="2484.74" y="597.84" width="86.72" height="86.72"/></g></g></g></svg>