<svg xmlns="http://www.w3.org/2000/svg" viewBox="0 0 1592.42 1291.46"><defs><style>.cls-1,.cls-10,.cls-22,.cls-5{opacity:0.4;}.cls-2,.cls-5{fill:#e0e0ff;}.cls-22,.cls-3{fill:#fff;}.cls-4{fill:#5254cf;}.cls-6{fill:#ffb147;}.cls-15,.cls-7,.cls-8{fill:#1b1b43;}.cls-8{opacity:0.2;}.cls-9{fill:#ffbc96;}.cls-10,.cls-19{fill:#fe5b52;}.cls-11{fill:#d28572;}.cls-12{fill:#cbcbff;}.cls-13{fill:#9192ff;}.cls-14{fill:#b0b0d2;}.cls-15,.cls-18{opacity:0.3;}.cls-16{fill:#925d4f;}.cls-17{fill:#fed3d1;}.cls-18,.cls-20{fill:#be443d;}.cls-21{fill:#393a8f;}</style></defs><g id="Layer_2" data-name="Layer 2"><g id="OBJECTS"><g class="cls-1"><path class="cls-2" d="M1548.67,943.34c33.48-164.35,21.39-316.24-64.4-460.84-61.12-103-167.29-189.07-288.73-191.34C1081,289,977.89,359.46,864.72,377.27,678.55,406.57,486.13,291.39,305.31,344,208.55,372.22,129.87,447.2,85.44,536.27s-57,191-50,289.88c12.43,175.68,91.25,350.4,225.9,464.06H1358.08C1450.22,1184.72,1527,1049.65,1548.67,943.34Z"/></g><rect class="cls-2" x="547.23" y="1099.31" width="102.82" height="37.57" rx="6.79"/><rect class="cls-2" x="663.9" y="1099.31" width="102.82" height="37.57" rx="6.79"/><rect class="cls-2" x="604.73" y="1047.64" width="102.82" height="37.57" rx="6.79"/><path class="cls-3" d="M1197.55,204.38A23.38,23.38,0,0,0,1174.17,181H395.93a23.38,23.38,0,0,0-23.38,23.38v19.17h825Z"/><path class="cls-4" d="M1198.78,224.78H371.31v-20.4a24.64,24.64,0,0,1,24.62-24.62h778.24a24.64,24.64,0,0,1,24.61,24.62Zm-825-2.47h822.53V204.38a22.17,22.17,0,0,0-22.14-22.15H395.93a22.18,22.18,0,0,0-22.15,22.15Z"/><path class="cls-3" d="M372.55,223.55V720a23.38,23.38,0,0,0,23.38,23.38h778.24A23.38,23.38,0,0,0,1197.55,720V223.55Z"/><path class="cls-4" d="M1174.17,744.64H395.93A24.64,24.64,0,0,1,371.31,720V222.31h827.47V720A24.64,24.64,0,0,1,1174.17,744.64ZM373.78,224.78V720a22.18,22.18,0,0,0,22.15,22.15h778.24A22.17,22.17,0,0,0,1196.31,720V224.78Z"/><circle class="cls-3" cx="412.55" cy="202.27" r="8.33" transform="translate(-16.5 37.87) rotate(-5.15)"/><path class="cls-4" d="M412.55,211.86a9.59,9.59,0,1,1,9.58-9.59A9.6,9.6,0,0,1,412.55,211.86Zm0-16.67a7.09,7.09,0,1,0,7.08,7.08A7.1,7.1,0,0,0,412.55,195.19Z"/><circle class="cls-3" cx="445.05" cy="202.27" r="8.33" transform="translate(-16.37 40.79) rotate(-5.15)"/><path class="cls-4" d="M445.05,211.86a9.59,9.59,0,1,1,9.58-9.59A9.6,9.6,0,0,1,445.05,211.86Zm0-16.67a7.09,7.09,0,1,0,7.08,7.08A7.1,7.1,0,0,0,445.05,195.19Z"/><circle class="cls-3" cx="477.55" cy="202.27" r="8.33" transform="translate(-16.24 43.7) rotate(-5.15)"/><path class="cls-4" d="M477.55,211.86a9.59,9.59,0,1,1,9.58-9.59A9.6,9.6,0,0,1,477.55,211.86Zm0-16.67a7.09,7.09,0,1,0,7.08,7.08A7.1,7.1,0,0,0,477.55,195.19Z"/><rect class="cls-5" x="458.53" y="277.68" width="653.03" height="392.02"/><path class="cls-6" d="M903.75,742H690.55c-7.88-73.62-9.9-139.62-2.85-183.5,1.92-12,4.5-22.25,7.82-30.62l89.78-18.28,104.37,9.35C907.22,564.33,910,646,903.75,742Z"/><rect class="cls-7" x="790.67" y="530.01" width="2.5" height="85"/><path class="cls-8" d="M889.67,518.93s-84,59-202,39.55c1.92-12,4.5-22.25,7.82-30.62l89.78-18.28Z"/><path class="cls-7" d="M743,185.76s-40.49,51.63-30.74,95.5l142.23-5.94s1.22-85.9-29.85-93.22Z"/><path class="cls-7" d="M865.46,270.21H863c0-56.27-29.27-82.13-29.56-82.38l1.63-1.9C835.33,186.2,865.46,212.81,865.46,270.21Z"/><path class="cls-9" d="M708.35,479.08a53.28,53.28,0,0,1-33.18,47.65,49.09,49.09,0,0,1-10.6,3,140.27,140.27,0,0,1-23.67,1.8c-46,0-79.4-34.94-83.35-45.59s7.19-6.87,7.19-6.87c4.06-9.06,13.11-1.76,13.11-1.76,2.72-9.45,11.27-.63,11.27-.63s.3-5.17,5.18-4.87c3,.2,12.82,6.17,19.92,10.72a22.47,22.47,0,0,0,12.1,3.53,21.88,21.88,0,0,0,5.08-.58,22.48,22.48,0,0,0,17.05-17.82l13.77-75.05h32.6L705.27,406C709.37,422.53,709.12,456.38,708.35,479.08Z"/><path class="cls-10" d="M705.05,495.91a52.83,52.83,0,0,1-29.88,30.82,23.36,23.36,0,0,1,29.88-30.82Z"/><path class="cls-4" d="M778.8,248.83l-67,13.66a63.12,63.12,0,0,0-49.17,48.8l-18.24,86.2L705.28,406Z"/><path class="cls-4" d="M802.15,248.83l67,13.66a63.12,63.12,0,0,1,49.17,48.8l8.28,61.22-59.09,10.35Z"/><path class="cls-4" d="M705.28,406s-3.25,98.3-9.75,121.86c0,0,91,31.68,194.15-8.94l-8.12-181.15-79.41-88.95H778.8L699.59,351.59Z"/><path class="cls-9" d="M1004.62,251.26c.38,6.42-10.2,25.87-18.32,39.8a86.32,86.32,0,0,0-11.2,33.37c-10.48,88-17.4,161.63-48,182.25-7.1,4.78-15.45,6.73-25.4,5.35a32.34,32.34,0,0,1-17.52-8c-32.25-28.7-16.6-121.15-16.6-121.15l40-6.9s9-75.55,14.62-101.55,14.63-12.18,14.63-12.18C940.05,254.11,949,259,949,259c6.5-10.55,14.63-2.45,14.63-2.45,4.87-9.72,18.7,7.33,18.7,7.33C991.22,259.78,1003.82,237.76,1004.62,251.26Z"/><rect class="cls-7" x="665.97" y="363.53" width="82.56" height="2.5" transform="translate(309.16 1053.83) rotate(-87.27)"/><polygon class="cls-7" points="866.41 384.33 861.3 318.64 863.79 318.45 868.68 381.4 907.34 374.73 907.77 377.19 866.41 384.33"/><rect class="cls-11" x="838.19" y="373.96" width="139.54" height="2.5" transform="translate(416.81 1226.07) rotate(-82.46)"/><path class="cls-10" d="M927.07,506.68c-7.1,4.78-15.45,6.73-25.4,5.35a32.34,32.34,0,0,1-17.52-8,23.34,23.34,0,0,1,42.92,2.67Z"/><rect class="cls-11" x="936.7" y="262.14" width="2.5" height="15.14" transform="translate(-30.19 146.43) rotate(-8.79)"/><rect class="cls-11" x="950.45" y="258.72" width="2.5" height="15.42" transform="translate(-35.62 310.33) rotate(-18.19)"/><rect class="cls-11" x="965.14" y="254.89" width="2.5" height="16.21" transform="translate(-32.23 339.32) rotate(-19.59)"/><rect class="cls-12" x="814.74" y="313.44" width="29.06" height="9.06" rx="1.51"/><path class="cls-7" d="M788.43,294.27c-17.16,0-29-10.47-29.22-10.63l1.67-1.85c1,.92,25.46,22.34,55.08-.07l1.51,2C807,291.63,797.05,294.27,788.43,294.27Z"/><path class="cls-11" d="M604.28,489.92c-5.32-2.07-11.11-6.51-16.73-12.83l1.87-1.66c5.36,6,10.81,10.23,15.77,12.16Z"/><path class="cls-11" d="M590,493.56c-5.11-3.23-9.64-8.48-13.86-16.07l2.19-1.22c4,7.22,8.26,12.18,13,15.18Z"/><path class="cls-11" d="M579.93,498.2c-6.11-4.55-11.73-10.89-17.18-19.39l2.1-1.35c5.29,8.24,10.71,14.37,16.57,18.73Z"/><path class="cls-9" d="M763,209.83h50.77a0,0,0,0,1,0,0v42.85a25.39,25.39,0,0,1-25.39,25.39h0A25.39,25.39,0,0,1,763,252.68V209.83A0,0,0,0,1,763,209.83Z"/><path class="cls-11" d="M763,214.17c15.7,26.38,32.54,28.55,50.84.21Z"/><path class="cls-9" d="M753.14,130.44h70.43a0,0,0,0,1,0,0v59.41a35.22,35.22,0,0,1-35.22,35.22h0a35.22,35.22,0,0,1-35.22-35.22V130.44A0,0,0,0,1,753.14,130.44Z"/><path class="cls-7" d="M787.69,190.74c-4.12-3.89-5.67-7-4.74-9.4s3.76-3.08,5.45-3.31l-.09-7.68,2.5,0,.12,10.07-1.24,0c-1.22,0-3.91.52-4.4,1.82-.24.62-.31,2.5,4.11,6.68Z"/><path class="cls-3" d="M800.87,198.4a24.78,24.78,0,0,0,2.3-4.41c-8.53.71-26.61.71-26.61.71a16.5,16.5,0,0,0,2,4.46A136.08,136.08,0,0,0,800.87,198.4Z"/><path class="cls-7" d="M778.59,199.16a13,13,0,0,0,10.87,6.31c5.51.17,9.24-3.76,11.41-7.07A136.08,136.08,0,0,1,778.59,199.16Z"/><path class="cls-7" d="M823.17,167.82c0,1.35,1.25-28.13-44.68-34.38,0,0-25.94,14.85-23,36.25L741.43,167c-5.44-14.84-3.57-54.52,28.31-51.71,0,0,6.87-9.82,18.12-10,57.19-.94,48.16,62.47,46.79,64.3Z"/><ellipse class="cls-9" cx="829.07" cy="177.42" rx="15.56" ry="12.9" transform="translate(400.91 909.2) rotate(-71.75)"/><path class="cls-7" d="M827.25,181.86l-2.48-.31c.43-3.45,2.91-10.06,9.19-10.43l.15,2.49C828.31,174,827.26,181.78,827.25,181.86Z"/><ellipse class="cls-9" cx="747.41" cy="177.42" rx="12.9" ry="15.56" transform="translate(-17.96 243.03) rotate(-18.25)"/><path class="cls-7" d="M749.23,181.86c-.05-.32-1.09-7.91-6.86-8.25l.15-2.49c6.28.37,8.76,7,9.19,10.43Z"/><path class="cls-7" d="M806.52,163a3.8,3.8,0,1,1-3.8-4.08A3.94,3.94,0,0,1,806.52,163Z"/><rect class="cls-7" x="796.02" y="148.77" width="15.84" height="4.61" rx="2.02" transform="translate(23.81 -94.98) rotate(6.86)"/><path class="cls-7" d="M770,163a3.8,3.8,0,1,0,3.8-4.08A3.94,3.94,0,0,0,770,163Z"/><rect class="cls-7" x="764.62" y="148.77" width="15.84" height="4.61" rx="2.02" transform="translate(1557.6 208.76) rotate(173.14)"/><circle class="cls-10" cx="809.81" cy="179.12" r="8.18"/><circle class="cls-10" cx="766.67" cy="179.12" r="8.18"/><rect class="cls-3" x="300.69" y="314.65" width="269.3" height="125.56" rx="12.59"/><path class="cls-4" d="M557.4,441.42H313.28a13.81,13.81,0,0,1-13.79-13.79V327.24a13.81,13.81,0,0,1,13.79-13.79H557.4a13.81,13.81,0,0,1,13.79,13.79V427.63A13.81,13.81,0,0,1,557.4,441.42ZM313.28,315.86a11.39,11.39,0,0,0-11.39,11.38V427.63A11.4,11.4,0,0,0,313.28,439H557.4a11.4,11.4,0,0,0,11.39-11.38V327.24a11.39,11.39,0,0,0-11.39-11.38Z"/><rect class="cls-2" x="330.65" y="345.56" width="209.37" height="2.5"/><rect class="cls-2" x="330.65" y="376.18" width="209.37" height="2.5"/><rect class="cls-2" x="330.65" y="406.81" width="209.37" height="2.5"/><polygon class="cls-4" points="334.15 409.53 332.19 407.98 347.12 389.16 372.81 397.94 394.92 373.92 417.41 392.04 443.81 362.49 467.75 390.12 489.15 334.75 511.34 369.62 537.14 332.42 539.2 333.84 511.25 374.14 489.7 340.26 468.59 394.9 443.78 366.27 417.69 395.48 395.17 377.34 373.54 400.83 347.98 392.1 334.15 409.53"/><path class="cls-3" d="M1009.11,99.48,997.06,2a98.22,98.22,0,1,0,110.29,97.47c0-2.87-.15-5.71-.4-8.52Z"/><path class="cls-4" d="M1009.11,199A99.47,99.47,0,0,1,996.91.77l1.24-.15,12.06,97.51,97.88-8.52.11,1.25c.27,3.09.4,5.92.4,8.62A99.59,99.59,0,0,1,1009.11,199ZM996,3.41A97,97,0,1,0,1106.1,99.48c0-2.27-.1-4.62-.29-7.16L1008,100.83Z"/><path class="cls-13" d="M1060.36,79.48,1158.2,71a97.56,97.56,0,0,0-18.43-49.28Z"/><path class="cls-2" d="M1088.52,41.68a98.09,98.09,0,0,0-79.41-40.43A99.82,99.82,0,0,0,997.06,2l12.05,97.47Z"/><path class="cls-4" d="M1008.13,101.74,995.67.92l1.24-.15a99.19,99.19,0,0,1,92.62,40.17l.74,1ZM998.46,3.11l11.63,94.11,76.67-55.81A97.35,97.35,0,0,0,1009.11,2.5,95.38,95.38,0,0,0,998.46,3.11Z"/><rect class="cls-3" x="1060.67" y="379.84" width="210.47" height="227.89" rx="15.51"/><path class="cls-4" d="M1255.63,608.93H1076.19a16.73,16.73,0,0,1-16.72-16.71V395.35a16.74,16.74,0,0,1,16.72-16.71h179.44a16.73,16.73,0,0,1,16.71,16.71V592.22A16.73,16.73,0,0,1,1255.63,608.93ZM1076.19,381a14.33,14.33,0,0,0-14.32,14.31V592.22a14.33,14.33,0,0,0,14.32,14.31h179.44a14.33,14.33,0,0,0,14.31-14.31V395.35A14.33,14.33,0,0,0,1255.63,381Z"/><rect class="cls-2" x="1084.66" y="412.47" width="162.5" height="2.63"/><rect class="cls-2" x="1084.66" y="452.47" width="162.5" height="2.63"/><rect class="cls-2" x="1084.66" y="492.47" width="162.5" height="2.63"/><rect class="cls-2" x="1084.66" y="532.47" width="162.5" height="2.63"/><rect class="cls-2" x="1084.66" y="572.47" width="162.5" height="2.63"/><rect class="cls-12" x="1084.66" y="466.23" width="13.84" height="108.87"/><rect class="cls-2" x="1114.75" y="506.69" width="13.84" height="68.42"/><rect class="cls-12" x="1144.84" y="481.55" width="13.84" height="93.55"/><rect class="cls-2" x="1174.93" y="464.66" width="13.84" height="110.44"/><rect class="cls-12" x="1205.02" y="444.27" width="13.84" height="130.83"/><rect class="cls-2" x="1235.11" y="422.56" width="13.84" height="152.54"/><path class="cls-3" d="M658,15.63H535.41A14.56,14.56,0,0,0,520.85,30.2V79.81a14.56,14.56,0,0,0,14.56,14.57h83.71l32.18,27.5V94.38H658a14.57,14.57,0,0,0,14.57-14.57V30.2A14.57,14.57,0,0,0,658,15.63Z"/><path class="cls-4" d="M652.61,124.73l-34-29H535.41a15.9,15.9,0,0,1-15.88-15.88V30.2a15.9,15.9,0,0,1,15.88-15.88H658A15.89,15.89,0,0,1,673.86,30.2V79.81A15.89,15.89,0,0,1,658,95.69h-5.37ZM535.41,16.94A13.27,13.27,0,0,0,522.16,30.2V79.81a13.27,13.27,0,0,0,13.25,13.26H619.6L650,119v-26h8a13.27,13.27,0,0,0,13.25-13.26V30.2A13.27,13.27,0,0,0,658,16.94Z"/><rect class="cls-13" x="539.42" y="35.63" width="98.12" height="2.5"/><rect class="cls-13" x="539.42" y="52.51" width="111.25" height="2.5"/><rect class="cls-13" x="539.42" y="69.38" width="78.12" height="2.5"/><rect class="cls-14" x="590.29" y="865.12" width="35" height="425"/><rect class="cls-14" x="946.54" y="865.12" width="35" height="425"/><rect class="cls-15" x="590.29" y="863.96" width="35" height="74.91"/><rect class="cls-15" x="946.54" y="863.96" width="35" height="74.91"/><rect class="cls-14" x="392.89" y="850.63" width="786.06" height="35.22"/><rect class="cls-7" x="995.47" y="838.6" width="91.03" height="12.07"/><path class="cls-7" d="M1008.94,850.67H995.47L941.82,709.12a6.3,6.3,0,0,1,5.89-8.53h0a6.29,6.29,0,0,1,5.88,4.07Z"/><rect class="cls-7" x="506.08" y="838.6" width="91.03" height="12.07" transform="translate(1103.18 1689.27) rotate(180)"/><path class="cls-7" d="M583.64,850.67H597.1l53.66-141.55a6.3,6.3,0,0,0-5.89-8.53h0a6.3,6.3,0,0,0-5.89,4.07Z"/><polygon class="cls-11" points="327.12 687.7 376.78 695.68 377.33 668.47 377.85 641.38 378.31 618.22 364.54 611.72 340.94 639.37 327.12 687.7"/><path class="cls-16" d="M357,641.1s6,12.57,20.29,27.37l.52-27.09Z"/><path class="cls-16" d="M412.25,607.61c.58.32,15.73,23.51,8.92,25.61s-15.39,1.29-15.39,1.29Z"/><path class="cls-11" d="M417.24,587.87,411,645.53a13.2,13.2,0,0,1-8.33,10.86h0a13.18,13.18,0,0,1-9.93-.15L357,641.1l-4.81-32.51,28.89-30.26Z"/><polygon class="cls-17" points="331.4 656.05 314.32 693.97 380.57 704.38 385.15 674.8 331.4 656.05"/><path class="cls-7" d="M374.92,608.52s29.29-4.95,42.32-20.65c0,0,4.83-30.36-39.83-34.38-48.45-4.36-93.89,64.2-93.89,64.2l59.19,51.7Z"/><ellipse class="cls-11" cx="373.02" cy="611.13" rx="10.12" ry="13.2" transform="translate(-238.17 238.21) rotate(-27.21)"/><path class="cls-7" d="M375.06,615.81c-.2-1.38-1.2-5.29-3.34-6.76a3.41,3.41,0,0,0-2.81-.48l-.54-2.44a5.82,5.82,0,0,1,4.77.86c3.48,2.39,4.36,8.22,4.39,8.46Z"/><circle class="cls-18" cx="396.14" cy="622.98" r="9.69"/><path class="cls-19" d="M402.18,779a48.79,48.79,0,0,1-28.3,32.63c-.85.35-1.7.67-2.57,1s-1.68.62-2.5.92c-26.73,10.5-47.65,32.5-56,60.05-.48,1.6-.88,3.13-1.2,4.55,0,0-55.63,8.13-111.88-23.12,0,0,31-110,99.43-162.3a61.12,61.12,0,0,1,55.6-9.58A81.74,81.74,0,0,1,396.18,713l1.23,1.7,6,44.15A50.91,50.91,0,0,1,402.18,779Z"/><path class="cls-20" d="M402.18,779a48.79,48.79,0,0,1-28.3,32.63c-.85.35-1.7.67-2.57,1s-1.68.62-2.5.92c-8.65-21.22-15.75-55-15.75-55l41.67,5.52Z"/><path class="cls-11" d="M492.23,731.88s36.61-39.13,48.13-36.25c5,1.25-10,16.88-10,16.88s14.31.27,37.24-11.57a4.83,4.83,0,0,1,6.68,2.42h0a4.84,4.84,0,0,1-.7,4.89c-4.86,6-19.32,22.2-39.47,29.26l-8.55,11-21.45,10.2Z"/><path class="cls-19" d="M525.56,748.56l-47.88,85.35A33.54,33.54,0,0,1,423,839.43l-70-80.87,44.35-43.9L446,781.26l46.25-49.38Z"/><path class="cls-7" d="M459.62,806c-28.08-43.84-65.38-95.74-85.39-112.85l1.63-1.9C399,711,440.69,771.81,461.72,804.64Z"/><path class="cls-7" d="M449.66,853.42a33.34,33.34,0,0,1-15.8-4.31c-15.31-8.28-79.06-86.44-81.77-89.76l1.94-1.58c.66.81,66.14,81.1,81,89.14,16.93,9.14,28.42.83,33.77-4.94,8.51-9.19,55.18-93.17,55.65-94l2.18,1.21c-1.92,3.47-47.28,85.1-56,94.51C464.67,850.13,457.42,853.42,449.66,853.42Z"/><path class="cls-7" d="M371,1191.46l-43.11,85,9.42,1.33,15.63-22.19,49,34.59,28.73-.12s5.83-5.78-9.09-21.29c-17.55-18.24-27.58-42.15-27.12-67.1l0-2.15-11.75-12Z"/><path class="cls-21" d="M372.79,1218l-9.51,72h9.51l12.36-24.16,45.66,23.24H467s5-6.55-12-19.81c-19.93-15.6-33.21-37.87-36.25-62.64l-.27-2.14-13.31-10.22Z"/><path class="cls-7" d="M423.48,1226.88,490.4,991.59A40.56,40.56,0,0,0,469,944l-60.26-29-3.59,279.35Z"/><path class="cls-4" d="M199.73,855l-13.48,64.17a60.31,60.31,0,0,0,59,72.7H371.4c-12.62,61.66-4.42,146.48,0,233.75l52.08,1.25,35.93-224.31A80.13,80.13,0,0,0,408.72,915l-97.11-36.85Z"/><path class="cls-22" d="M408.47,1227l-2.48-.32c.28-2.11,27.39-211.91,20-250.44-7.63-39.8-84.36-51.29-125.59-57.46-3.67-.55-7-1.06-10.05-1.54-10.33-1.64-17.67-6.1-21.83-13.25-8.21-14.1-1.12-33.44-.81-34.25l2.34.87c-.07.19-7,19.06.63,32.13,3.77,6.47,10.52,10.52,20.06,12,3,.48,6.37,1,10,1.53,41.84,6.27,119.72,17.93,127.67,59.47,3.13,16.37.72,63.63-7.17,140.47C415.42,1173.45,408.54,1226.51,408.47,1227Z"/><polygon class="cls-14" points="228.38 1002.03 219.76 1051.88 178.48 1290.46 161.13 1290.46 202.41 1051.88 211.03 1002.03 228.38 1002.03"/><polygon class="cls-14" points="343.38 1290.46 326.03 1290.46 284.76 1051.88 276.13 1002.03 293.48 1002.03 302.11 1051.88 343.38 1290.46"/><polygon class="cls-15" points="228.38 1002.03 219.76 1051.88 202.41 1051.88 211.03 1002.03 228.38 1002.03"/><polygon class="cls-15" points="302.11 1051.88 284.76 1051.88 276.13 1002.03 293.48 1002.03 302.11 1051.88"/><path class="cls-12" d="M328.89,1015.63H166.53V991.88H328.89a11.87,11.87,0,0,1,11.87,11.88h0A11.87,11.87,0,0,1,328.89,1015.63Z"/><path class="cls-12" d="M189.45,1015.63H166.53L89.12,825.89a10.73,10.73,0,0,1,5.37-13.76h0A10.72,10.72,0,0,1,109,817.79Z"/><path class="cls-11" d="M1244,606c-.59.3-16.65,22.68-10,25.06s15.24,2,15.24,2Z"/><polygon class="cls-9" points="1325.11 689.25 1271.63 695.59 1272.62 668.47 1273.62 641.48 1274.48 618.41 1289.56 612.38 1313.15 640.68 1325.11 689.25"/><path class="cls-11" d="M1295.86,641.88s-7.13,12.33-23.24,26.59l1-27Z"/><path class="cls-9" d="M1239.91,586.15l3.72,57.55a13.09,13.09,0,0,0,7.8,11.16h0a13.08,13.08,0,0,0,9.87.28l36.12-13.49,6.2-32.09-27.39-31.32Z"/><path class="cls-7" d="M1281.71,609.54s-8.87-17.22-18.11-19.85c0,0-35.56,11.59-43.39-15.68,0,0,20,.19,37.21-11.83s35.09-6.26,47.49,5c0,0,40.52,2,8.58,73.5,0,0-8,2.66-28.48-25.9Z"/><path class="cls-9" d="M1291.67,615.43c-3.59,6.3-10.39,9.18-15.18,6.45s-5.75-10-2.16-16.35,10.39-9.18,15.18-6.45S1295.26,609.14,1291.67,615.43Z"/><ellipse class="cls-10" cx="1260.83" cy="620.01" rx="9.84" ry="10"/><path class="cls-7" d="M1280.06,614.88c-.49-3.24.41-9.89,7.3-11.86l.69,2.41c-6.53,1.86-5.56,8.78-5.52,9.08Z"/><polygon class="cls-12" points="1271.63 695.59 1272.23 667.72 1319.32 655.63 1333.07 690.22 1271.63 695.59"/><path class="cls-7" d="M1278.9,684.38c-23.63,23-40.83,57.5-62.5,92.5,0,0-73.44,19-94.48,40l37.81,19.17,129.17-35.84Z"/><path class="cls-7" d="M1087.94,1206.33,1058.48,1290l-92.17-23s14.34-19.61,57.6-14l23-64.65Z"/><path class="cls-21" d="M1272.23,875.63,1139.11,918.9a95.84,95.84,0,0,0-63.25,67.47l-53.63,221.76,72.5,18.75c28.42-67.37,56-147.77,75-225.83Z"/><path class="cls-7" d="M1223.9,1212.67l10.83,77.5H1133.9s9.17-22.5,52.5-27.5l-2.5-46.67Z"/><path class="cls-4" d="M1392.92,853.54l13.48,64.17c7.87,37.48-20.25,74.8-58.54,74.8H1226.61c6.81,62.3,13.37,144.38,9,231.65l-66.4,1.25-35.93-224.31a80.14,80.14,0,0,1,50.7-87.59l88.29-37.88Z"/><path class="cls-7" d="M1397.23,874.38c-10.91-104.31-26.54-202.73-105.11-198.21a19.14,19.14,0,0,0-12.34,5.66h0a65.28,65.28,0,0,0-18.9,51.33l11.35,142.47S1333.48,886.88,1397.23,874.38Z"/><path class="cls-9" d="M1121.92,815.94s-46.25,8.75-53.75,35h65.63l12.5-8.75Z"/><path class="cls-7" d="M1292.55,699.07l-60,93.12-110.63,23.75,11.88,35,92.75-.47c24.9-.49,46.21-13.51,60.06-34.21l51.56-74.07Z"/><path class="cls-4" d="M1122.18,817.17l-.52-2.45,109.94-23.6c2.93-8.27,5.84-16.83,8.66-25.12,11.55-34,22.46-66.09,36-83.63l2,1.52c-13.27,17.21-24.12,49.13-35.6,82.92-2.89,8.51-5.88,17.32-8.9,25.8l-.23.66-.68.15Z"/><path class="cls-4" d="M1188.22,852.68c-25.72,0-52.43-.45-54.45-.49l0-2.5c.9,0,90.29,1.54,101.27-.9l.33-.08A83.31,83.31,0,0,0,1294.31,799l12.39-30.13,2.32,1L1296.62,800A85.8,85.8,0,0,1,1236,851.15l-.34.08C1230.51,852.37,1209.71,852.68,1188.22,852.68Z"/><polygon class="cls-14" points="1419.64 1290.45 1436.99 1290.45 1387.09 1002.02 1369.74 1002.02 1419.64 1290.45"/><polygon class="cls-14" points="1272.09 1290.45 1254.74 1290.45 1304.64 1002.02 1321.99 1002.02 1272.09 1290.45"/><polygon class="cls-15" points="1321.96 1002.02 1313.34 1051.88 1295.99 1051.88 1304.61 1002.02 1321.96 1002.02"/><polygon class="cls-15" points="1395.69 1051.88 1378.34 1051.88 1369.71 1002.02 1387.06 1002.02 1395.69 1051.88"/><path class="cls-12" d="M1269.24,1015.63H1431.6V991.88H1269.24a11.88,11.88,0,0,0-11.88,11.88h0A11.88,11.88,0,0,0,1269.24,1015.63Z"/><path class="cls-12" d="M1408.68,1015.63h22.92L1509,825.89a10.72,10.72,0,0,0-5.36-13.76h0a10.73,10.73,0,0,0-14.52,5.66Z"/><rect class="cls-7" y="1288.96" width="1592.42" height="2.5"/></g></g></svg>