<svg xmlns="http://www.w3.org/2000/svg" viewBox="0 0 2000 2000"><g id="Layer_2" data-name="Layer 2"><g id="BACKGROUND"><rect width="2000" height="2000" style="fill:#fff"/></g><g id="OBJECTS"><g style="opacity:0.4"><path d="M1766.44,1334c33.48-164.35,21.38-316.24-64.4-460.84-61.12-103-167.29-189.07-288.73-191.34-114.55-2.14-217.66,68.29-330.83,86.11C896.32,797.19,703.9,682,523.08,734.66,426.32,762.84,347.64,837.82,303.2,926.89s-57,191-50,289.88c12.43,175.68,91.26,350.4,225.9,464.06H1575.85C1668,1575.34,1744.78,1440.26,1766.44,1334Z" style="fill:#e0e0ff"/></g><rect x="765" y="1489.93" width="102.82" height="37.57" rx="6.79" style="fill:#e0e0ff"/><rect x="881.67" y="1489.93" width="102.82" height="37.57" rx="6.79" style="fill:#e0e0ff"/><rect x="822.5" y="1438.26" width="102.82" height="37.57" rx="6.79" style="fill:#e0e0ff"/><path d="M1415.31,595a23.37,23.37,0,0,0-23.38-23.38H613.69A23.38,23.38,0,0,0,590.31,595v19.17h825Z" style="fill:#fff"/><path d="M1416.55,615.4H589.08V595a24.64,24.64,0,0,1,24.61-24.62h778.24A24.64,24.64,0,0,1,1416.55,595Zm-825-2.47h822.53V595a22.18,22.18,0,0,0-22.15-22.15H613.69A22.17,22.17,0,0,0,591.55,595Z" style="fill:#5254cf"/><path d="M590.31,614.17v496.47A23.38,23.38,0,0,0,613.69,1134h778.24a23.37,23.37,0,0,0,23.38-23.38V614.17Z" style="fill:#fff"/><path d="M1391.93,1135.26H613.69a24.64,24.64,0,0,1-24.61-24.62V612.93h827.47v497.71A24.64,24.64,0,0,1,1391.93,1135.26ZM591.55,615.4v495.24a22.17,22.17,0,0,0,22.14,22.15h778.24a22.18,22.18,0,0,0,22.15-22.15V615.4Z" style="fill:#5254cf"/><circle cx="630.31" cy="592.89" r="8.33" transform="translate(-50.7 59) rotate(-5.15)" style="fill:#fff"/><path d="M630.31,602.47a9.58,9.58,0,1,1,9.59-9.58A9.59,9.59,0,0,1,630.31,602.47Zm0-16.66a7.08,7.08,0,1,0,7.09,7.08A7.09,7.09,0,0,0,630.31,585.81Z" style="fill:#5254cf"/><circle cx="662.81" cy="592.89" r="8.33" transform="translate(-50.57 61.92) rotate(-5.15)" style="fill:#fff"/><path d="M662.81,602.47a9.58,9.58,0,1,1,9.59-9.58A9.59,9.59,0,0,1,662.81,602.47Zm0-16.66a7.08,7.08,0,1,0,7.09,7.08A7.09,7.09,0,0,0,662.81,585.81Z" style="fill:#5254cf"/><circle cx="695.31" cy="592.89" r="8.33" transform="translate(-50.44 64.84) rotate(-5.15)" style="fill:#fff"/><path d="M695.31,602.47a9.58,9.58,0,1,1,9.59-9.58A9.59,9.59,0,0,1,695.31,602.47Zm0-16.66a7.08,7.08,0,1,0,7.09,7.08A7.09,7.09,0,0,0,695.31,585.81Z" style="fill:#5254cf"/><rect x="676.3" y="668.3" width="653.03" height="392.02" style="fill:#e0e0ff;opacity:0.4"/><path d="M1121.51,1132.6H908.31c-7.87-73.63-9.9-139.62-2.85-183.5,1.93-12,4.5-22.25,7.83-30.62l89.77-18.28,104.38,9.35C1125,955,1127.74,1036.58,1121.51,1132.6Z" style="fill:#ffb147"/><rect x="1008.44" y="920.63" width="2.5" height="85" style="fill:#1b1b43"/><path d="M1107.44,909.55s-84.05,59-202,39.55c1.93-12,4.5-22.25,7.83-30.62l89.77-18.28Z" style="fill:#1b1b43;opacity:0.2"/><path d="M960.74,576.38S920.25,628,930,671.88l142.24-5.94s1.21-85.91-29.86-93.22Z" style="fill:#1b1b43"/><path d="M1083.23,660.83h-2.5c0-56.27-29.27-82.13-29.56-82.38l1.63-1.9C1053.1,576.81,1083.23,603.42,1083.23,660.83Z" style="fill:#1b1b43"/><path d="M926.11,869.7a52.23,52.23,0,0,1-3.3,16.82,52.83,52.83,0,0,1-29.87,30.83,49.09,49.09,0,0,1-10.6,3,140.31,140.31,0,0,1-23.68,1.8c-46,0-79.4-34.94-83.35-45.59s7.19-6.87,7.19-6.87c4.06-9.07,13.11-1.76,13.11-1.76,2.73-9.45,11.28-.63,11.28-.63s.3-5.18,5.17-4.88c3,.2,12.83,6.18,19.93,10.73a22.47,22.47,0,0,0,12.1,3.53,21.73,21.73,0,0,0,5.07-.58,22.47,22.47,0,0,0,17.05-17.83l13.78-75h32.6L923,796.62C927.14,813.15,926.89,847,926.11,869.7Z" style="fill:#ffbc96"/><path d="M922.81,886.52a52.83,52.83,0,0,1-29.87,30.83,23.58,23.58,0,0,1-1.8-9A23.34,23.34,0,0,1,914.49,885,23.75,23.75,0,0,1,922.81,886.52Z" style="fill:#fe5b52;opacity:0.4"/><path d="M996.56,639.44l-67,13.67a63.14,63.14,0,0,0-49.17,48.8L862.12,788.1l60.93,8.53Z" style="fill:#5254cf"/><path d="M1019.92,639.44l67,13.67a63.14,63.14,0,0,1,49.17,48.8l8.28,61.21-59.1,10.36Z" style="fill:#5254cf"/><path d="M923.05,796.63s-3.25,98.3-9.75,121.86c0,0,91,31.68,194.15-8.94l-8.13-181.15-79.4-89H996.56l-79.2,102.77Z" style="fill:#5254cf"/><path d="M1222.39,641.88c.37,6.42-10.2,25.87-18.33,39.8a86.43,86.43,0,0,0-11.2,33.37c-10.47,88-17.4,161.63-48,182.25-7.1,4.77-15.45,6.72-25.4,5.35a32.31,32.31,0,0,1-17.53-8c-32.25-28.69-16.6-121.14-16.6-121.14l40-6.91s9-75.55,14.63-101.55,14.62-12.17,14.62-12.17c3.25-8.12,12.18-3.25,12.18-3.25,6.5-10.55,14.62-2.45,14.62-2.45,4.88-9.73,18.7,7.32,18.7,7.32C1209,650.4,1221.59,628.37,1222.39,641.88Z" style="fill:#ffbc96"/><rect x="883.73" y="754.15" width="82.56" height="2.5" transform="translate(126.36 1643.34) rotate(-87.27)" style="fill:#1b1b43"/><polygon points="1084.17 774.95 1079.07 709.26 1081.56 709.07 1086.45 772.02 1125.11 765.35 1125.53 767.81 1084.17 774.95" style="fill:#1b1b43"/><rect x="1055.96" y="764.58" width="139.54" height="2.5" transform="translate(218.75 1781.29) rotate(-82.46)" style="fill:#d28572"/><path d="M1144.84,897.3c-7.1,4.77-15.45,6.72-25.4,5.35a32.31,32.31,0,0,1-17.53-8,23.35,23.35,0,0,1,42.93,2.68Z" style="fill:#fe5b52;opacity:0.4"/><rect x="1154.47" y="652.76" width="2.5" height="15.14" transform="translate(-87.3 184.27) rotate(-8.79)" style="fill:#d28572"/><rect x="1168.22" y="649.34" width="2.5" height="15.42" transform="translate(-146.65 397.8) rotate(-18.19)" style="fill:#d28572"/><rect x="1182.91" y="645.51" width="2.5" height="16.21" transform="translate(-150.62 434.97) rotate(-19.59)" style="fill:#d28572"/><rect x="1032.5" y="704.06" width="29.06" height="9.06" rx="1.51" style="fill:#cbcbff"/><path d="M1006.2,684.89A47.61,47.61,0,0,1,977,674.26l1.67-1.85c1,.92,25.45,22.34,55.08-.07l1.5,2C1024.77,682.25,1014.82,684.89,1006.2,684.89Z" style="fill:#1b1b43"/><path d="M822.05,880.54c-5.32-2.07-11.11-6.51-16.73-12.83l1.87-1.67c5.36,6,10.81,10.24,15.76,12.17Z" style="fill:#d28572"/><path d="M807.77,884.18c-5.11-3.23-9.65-8.49-13.86-16.07l2.18-1.22c4,7.21,8.27,12.18,13,15.18Z" style="fill:#d28572"/><path d="M797.69,888.82c-6.1-4.55-11.72-10.89-17.18-19.4l2.11-1.34c5.29,8.24,10.71,14.37,16.56,18.73Z" style="fill:#d28572"/><path d="M980.74,600.45h50.77a0,0,0,0,1,0,0V643.3a25.39,25.39,0,0,1-25.39,25.39h0a25.39,25.39,0,0,1-25.39-25.39V600.45A0,0,0,0,1,980.74,600.45Z" style="fill:#ffbc96"/><path d="M980.73,604.79c15.7,26.38,32.54,28.54,50.83.21Z" style="fill:#d28572"/><path d="M970.91,521.06h70.43a0,0,0,0,1,0,0v59.41a35.22,35.22,0,0,1-35.22,35.22h0a35.22,35.22,0,0,1-35.22-35.22V521.06A0,0,0,0,1,970.91,521.06Z" style="fill:#ffbc96"/><path d="M1005.45,581.36c-4.12-3.89-5.66-7-4.73-9.4s3.75-3.08,5.44-3.31l-.08-7.68,2.5,0,.11,10.06-1.23,0c-1.22,0-3.91.52-4.41,1.82-.23.62-.3,2.5,4.12,6.68Z" style="fill:#1b1b43"/><path d="M1018.64,589a24.28,24.28,0,0,0,2.29-4.41c-8.53.71-26.6.71-26.6.71a16.64,16.64,0,0,0,2,4.46A137.36,137.36,0,0,0,1018.64,589Z" style="fill:#fff"/><path d="M996.35,589.78a13,13,0,0,0,10.87,6.31c5.52.17,9.25-3.76,11.42-7.07A137.36,137.36,0,0,1,996.35,589.78Z" style="fill:#1b1b43"/><path d="M1040.94,558.44c0,1.35,1.25-28.13-44.69-34.38,0,0-25.94,14.85-23,36.25l-14.09-2.66c-5.44-14.84-3.56-54.53,28.31-51.71,0,0,6.87-9.82,18.13-10,57.18-.94,48.15,62.47,46.78,64.3Z" style="fill:#1b1b43"/><ellipse cx="1046.83" cy="568.03" rx="15.56" ry="12.9" transform="translate(179.5 1384.28) rotate(-71.75)" style="fill:#ffbc96"/><path d="M1045,572.48l-2.48-.31c.43-3.45,2.91-10.07,9.19-10.44l.15,2.5C1046.08,564.57,1045,572.4,1045,572.48Z" style="fill:#1b1b43"/><ellipse cx="965.18" cy="568.03" rx="12.9" ry="15.56" transform="translate(-129.35 330.89) rotate(-18.25)" style="fill:#ffbc96"/><path d="M967,572.48c0-.32-1.08-7.91-6.85-8.25l.14-2.5c6.29.37,8.76,7,9.19,10.44Z" style="fill:#1b1b43"/><path d="M1024.28,553.62a3.8,3.8,0,1,1-3.79-4.08A3.93,3.93,0,0,1,1024.28,553.62Z" style="fill:#1b1b43"/><rect x="1013.79" y="539.39" width="15.84" height="4.61" rx="2.02" transform="translate(72.05 -118.2) rotate(6.86)" style="fill:#1b1b43"/><path d="M987.73,553.62a3.8,3.8,0,1,0,3.79-4.08A3.94,3.94,0,0,0,987.73,553.62Z" style="fill:#1b1b43"/><rect x="982.39" y="539.39" width="15.84" height="4.61" rx="2.02" transform="translate(2038.24 961.18) rotate(173.14)" style="fill:#1b1b43"/><circle cx="1027.58" cy="569.74" r="8.18" style="fill:#fe5b52;opacity:0.4"/><circle cx="984.43" cy="569.74" r="8.18" style="fill:#fe5b52;opacity:0.4"/><rect x="518.46" y="705.27" width="269.3" height="125.56" rx="12.59" style="fill:#fff"/><path d="M775.17,832H531.05a13.8,13.8,0,0,1-13.79-13.79V717.86a13.8,13.8,0,0,1,13.79-13.79H775.17A13.81,13.81,0,0,1,789,717.86V818.25A13.81,13.81,0,0,1,775.17,832ZM531.05,706.48a11.39,11.39,0,0,0-11.39,11.38V818.25a11.4,11.4,0,0,0,11.39,11.38H775.17a11.4,11.4,0,0,0,11.38-11.38V717.86a11.39,11.39,0,0,0-11.38-11.38Z" style="fill:#5254cf"/><rect x="548.42" y="736.18" width="209.37" height="2.5" style="fill:#e0e0ff"/><rect x="548.42" y="766.8" width="209.37" height="2.5" style="fill:#e0e0ff"/><rect x="548.42" y="797.43" width="209.37" height="2.5" style="fill:#e0e0ff"/><polygon points="551.92 800.15 549.96 798.6 564.88 779.78 590.57 788.55 612.69 764.54 635.17 782.66 661.58 753.11 685.52 780.74 706.91 725.37 729.11 760.24 754.91 723.04 756.97 724.46 729.02 764.76 707.46 730.88 686.36 785.51 661.55 756.89 635.45 786.09 612.94 767.96 591.31 791.45 565.75 782.72 551.92 800.15" style="fill:#5254cf"/><path d="M1226.88,490.1l-12.05-97.47a98.22,98.22,0,1,0,110.28,97.47c0-2.87-.15-5.71-.39-8.52Z" style="fill:#fff"/><path d="M1226.88,589.58a99.47,99.47,0,0,1-12.21-198.19l1.24-.15L1228,488.75l97.89-8.52.11,1.25c.26,3.09.39,5.92.39,8.62A99.59,99.59,0,0,1,1226.88,589.58ZM1213.74,394a97,97,0,1,0,110.12,96.07c0-2.27-.09-4.62-.28-7.16l-97.79,8.51Z" style="fill:#5254cf"/><path d="M1278.13,470.1l97.84-8.52a97.73,97.73,0,0,0-18.44-49.29Z" style="fill:#9192ff"/><path d="M1306.28,432.29a98.07,98.07,0,0,0-79.4-40.42,99.82,99.82,0,0,0-12.05.76l12.05,97.47Z" style="fill:#e0e0ff"/><path d="M1225.9,492.36l-12.47-100.82,1.24-.15a99.19,99.19,0,0,1,92.62,40.17l.74,1Zm-9.68-98.63,11.64,94.11L1304.53,432a97.37,97.37,0,0,0-77.65-38.9A95.56,95.56,0,0,0,1216.22,393.73Z" style="fill:#5254cf"/><rect x="1278.44" y="770.46" width="210.47" height="227.89" rx="15.51" style="fill:#fff"/><path d="M1473.39,999.55H1294a16.73,16.73,0,0,1-16.71-16.71V786A16.73,16.73,0,0,1,1294,769.26h179.44A16.74,16.74,0,0,1,1490.11,786V982.84A16.73,16.73,0,0,1,1473.39,999.55ZM1294,771.66A14.33,14.33,0,0,0,1279.64,786V982.84A14.33,14.33,0,0,0,1294,997.15h179.44a14.33,14.33,0,0,0,14.32-14.31V786a14.33,14.33,0,0,0-14.32-14.31Z" style="fill:#5254cf"/><rect x="1302.42" y="803.09" width="162.5" height="2.63" style="fill:#e0e0ff"/><rect x="1302.42" y="843.09" width="162.5" height="2.63" style="fill:#e0e0ff"/><rect x="1302.42" y="883.09" width="162.5" height="2.63" style="fill:#e0e0ff"/><rect x="1302.42" y="923.09" width="162.5" height="2.63" style="fill:#e0e0ff"/><rect x="1302.42" y="963.09" width="162.5" height="2.63" style="fill:#e0e0ff"/><rect x="1302.42" y="856.85" width="13.84" height="108.87" style="fill:#cbcbff"/><rect x="1332.51" y="897.3" width="13.84" height="68.42" style="fill:#e0e0ff"/><rect x="1362.6" y="872.17" width="13.84" height="93.55" style="fill:#cbcbff"/><rect x="1392.69" y="855.28" width="13.84" height="110.44" style="fill:#e0e0ff"/><rect x="1422.78" y="834.89" width="13.84" height="130.83" style="fill:#cbcbff"/><rect x="1452.87" y="813.18" width="13.84" height="152.54" style="fill:#e0e0ff"/><path d="M875.75,406.25H753.18a14.57,14.57,0,0,0-14.57,14.57v49.61A14.57,14.57,0,0,0,753.18,485h83.7l32.18,27.5V485h6.69a14.56,14.56,0,0,0,14.56-14.57V420.82A14.56,14.56,0,0,0,875.75,406.25Z" style="fill:#fff"/><path d="M870.38,515.35l-34-29H753.18a15.89,15.89,0,0,1-15.88-15.88V420.82a15.89,15.89,0,0,1,15.88-15.88H875.75a15.9,15.9,0,0,1,15.88,15.88v49.61a15.9,15.9,0,0,1-15.88,15.88h-5.37ZM753.18,407.56a13.28,13.28,0,0,0-13.26,13.26v49.61a13.28,13.28,0,0,0,13.26,13.26h84.19l30.38,26v-26h8A13.27,13.27,0,0,0,889,470.43V420.82a13.27,13.27,0,0,0-13.25-13.26Z" style="fill:#5254cf"/><rect x="757.19" y="426.25" width="98.12" height="2.5" style="fill:#9192ff"/><rect x="757.19" y="443.13" width="111.25" height="2.5" style="fill:#9192ff"/><rect x="757.19" y="460" width="78.12" height="2.5" style="fill:#9192ff"/><rect x="808.06" y="1255.74" width="35" height="425" style="fill:#b0b0d2"/><rect x="1164.31" y="1255.74" width="35" height="425" style="fill:#b0b0d2"/><rect x="808.06" y="1254.58" width="35" height="74.91" style="fill:#1b1b43;opacity:0.30000000000000004"/><rect x="1164.31" y="1254.58" width="35" height="74.91" style="fill:#1b1b43;opacity:0.30000000000000004"/><rect x="610.65" y="1241.25" width="786.06" height="35.22" style="fill:#b0b0d2"/><rect x="1213.24" y="1229.22" width="91.03" height="12.07" style="fill:#1b1b43"/><path d="M1226.7,1241.29h-13.46l-53.66-141.55a6.3,6.3,0,0,1,5.89-8.53h0a6.3,6.3,0,0,1,5.89,4.07Z" style="fill:#1b1b43"/><rect x="723.84" y="1229.22" width="91.03" height="12.07" transform="translate(1538.71 2470.51) rotate(180)" style="fill:#1b1b43"/><path d="M801.4,1241.29h13.47l53.65-141.55a6.29,6.29,0,0,0-5.88-8.53h0a6.3,6.3,0,0,0-5.89,4.07Z" style="fill:#1b1b43"/><polygon points="544.89 1078.31 594.55 1086.3 595.1 1059.09 595.62 1032 596.08 1008.84 582.3 1002.34 558.71 1029.99 544.89 1078.31" style="fill:#d28572"/><path d="M574.81,1031.71s6,12.58,20.29,27.37l.52-27.08Z" style="fill:#925d4f"/><path d="M630,998.22c.58.33,15.72,23.52,8.92,25.62s-15.4,1.29-15.4,1.29Z" style="fill:#925d4f"/><path d="M635,978.49l-6.27,57.66a13.19,13.19,0,0,1-8.32,10.86h0a13.25,13.25,0,0,1-9.94-.15l-35.68-15.14L570,999.21,598.87,969Z" style="fill:#d28572"/><polygon points="549.17 1046.67 532.08 1084.58 598.33 1095 602.92 1065.42 549.17 1046.67" style="fill:#fed3d1"/><path d="M592.68,999.14S622,994.19,635,978.49c0,0,4.83-30.36-39.83-34.38-48.46-4.36-93.89,64.2-93.89,64.2l59.19,51.7Z" style="fill:#1b1b43"/><ellipse cx="590.79" cy="1001.75" rx="10.12" ry="13.2" transform="translate(-392.69 381.02) rotate(-27.21)" style="fill:#d28572"/><path d="M592.83,1006.43c-.21-1.38-1.21-5.3-3.35-6.76a3.36,3.36,0,0,0-2.8-.48l-.55-2.44a5.84,5.84,0,0,1,4.78.86c3.47,2.39,4.35,8.21,4.39,8.46Z" style="fill:#1b1b43"/><circle cx="613.91" cy="1013.59" r="9.69" style="fill:#be443d;opacity:0.30000000000000004"/><path d="M620,1169.6a48.84,48.84,0,0,1-28.3,32.63c-.85.34-1.7.67-2.58,1s-1.67.63-2.5.93a94.39,94.39,0,0,0-56,60c-.47,1.6-.87,3.13-1.19,4.55,0,0-55.63,8.13-111.88-23.13,0,0,31-110,99.43-162.3a61.1,61.1,0,0,1,55.59-9.57A81.82,81.82,0,0,1,614,1103.58l1.23,1.69,6.05,44.15A51,51,0,0,1,620,1169.6Z" style="fill:#fe5b52"/><path d="M620,1169.6a48.84,48.84,0,0,1-28.3,32.63c-.85.34-1.7.67-2.58,1s-1.67.63-2.5.93c-8.64-21.23-15.75-55-15.75-55l41.68,5.53Z" style="fill:#be443d"/><path d="M710,1122.5s36.6-39.13,48.12-36.25c5,1.25-10,16.87-10,16.87s14.31.28,37.24-11.56a4.84,4.84,0,0,1,6.69,2.42h0a4.82,4.82,0,0,1-.71,4.89c-4.85,6-19.32,22.2-39.46,29.25l-8.56,11.05-21.44,10.21Z" style="fill:#d28572"/><path d="M743.32,1139.17l-47.87,85.35a33.56,33.56,0,0,1-54.65,5.53l-70-80.88,44.36-43.9,48.57,66.61L710,1122.5Z" style="fill:#fe5b52"/><path d="M677.38,1196.61C649.3,1152.77,612,1100.87,592,1083.76l1.62-1.9c23.09,19.74,64.84,80.57,85.87,113.4Z" style="fill:#1b1b43"/><path d="M667.42,1244a33.21,33.21,0,0,1-15.79-4.32c-15.32-8.27-79.07-86.43-81.77-89.76l1.93-1.57c.66.81,66.15,81.1,81,89.14,16.93,9.14,28.42.83,33.76-4.94,8.51-9.19,55.18-93.17,55.65-94l2.19,1.21c-1.93,3.47-47.29,85.09-56,94.51C682.43,1240.75,675.18,1244,667.42,1244Z" style="fill:#1b1b43"/><path d="M588.75,1582.08l-43.11,85,9.41,1.33,15.63-22.19,49,34.59,28.73-.12s5.83-5.78-9.1-21.29c-17.54-18.24-27.57-42.15-27.11-67.1l0-2.15-11.76-12Z" style="fill:#1b1b43"/><path d="M590.55,1608.65l-9.51,72h9.51l12.37-24.16,45.65,23.23h36.15s5-6.54-12-19.81c-19.93-15.59-33.22-37.86-36.26-62.63l-.26-2.14L622.89,1585Z" style="fill:#393a8f"/><path d="M641.25,1617.5l66.91-235.3a40.53,40.53,0,0,0-21.42-47.62l-60.26-29L622.89,1585Z" style="fill:#1b1b43"/><path d="M417.5,1245.62,404,1309.8a60.3,60.3,0,0,0,59,72.7H589.17c-12.62,61.66-4.42,146.48,0,233.75l52.08,1.25,35.93-224.31a80.14,80.14,0,0,0-50.7-87.59l-97.1-36.85Z" style="fill:#5254cf"/><path d="M626.24,1617.66l-2.48-.32c.28-2.12,27.39-211.92,20-250.44-7.62-39.8-84.36-51.29-125.58-57.47-3.67-.54-7.05-1-10.05-1.53-10.33-1.64-17.68-6.1-21.84-13.25-8.21-14.1-1.11-33.44-.8-34.26l2.34.88c-.07.19-7,19.06.63,32.13,3.76,6.47,10.51,10.51,20.06,12,3,.48,6.37,1,10,1.53,41.84,6.27,119.71,17.93,127.67,59.47,3.13,16.36.72,63.62-7.17,140.47C633.18,1564.07,626.31,1617.13,626.24,1617.66Z" style="fill:#fff;opacity:0.4"/><polygon points="446.15 1392.65 437.52 1442.5 396.25 1681.08 378.9 1681.08 420.18 1442.5 428.8 1392.65 446.15 1392.65" style="fill:#b0b0d2"/><polygon points="561.15 1681.08 543.8 1681.08 502.52 1442.5 493.9 1392.65 511.25 1392.65 519.88 1442.5 561.15 1681.08" style="fill:#b0b0d2"/><polygon points="446.15 1392.65 437.52 1442.5 420.18 1442.5 428.8 1392.65 446.15 1392.65" style="fill:#1b1b43;opacity:0.30000000000000004"/><polygon points="519.88 1442.5 502.52 1442.5 493.9 1392.65 511.25 1392.65 519.88 1442.5" style="fill:#1b1b43;opacity:0.30000000000000004"/><path d="M546.65,1406.25H384.3V1382.5H546.65a11.88,11.88,0,0,1,11.88,11.88h0A11.88,11.88,0,0,1,546.65,1406.25Z" style="fill:#cbcbff"/><path d="M407.21,1406.25H384.3l-77.41-189.74a10.72,10.72,0,0,1,5.36-13.76h0a10.73,10.73,0,0,1,14.52,5.66Z" style="fill:#cbcbff"/><path d="M1461.77,996.59c-.58.3-16.64,22.68-10,25.06s15.24,2,15.24,2Z" style="fill:#d28572"/><polygon points="1542.88 1079.87 1489.39 1086.2 1490.38 1059.09 1491.39 1032.1 1492.24 1009.03 1507.32 1003 1530.92 1031.3 1542.88 1079.87" style="fill:#ffbc96"/><path d="M1513.63,1032.5s-7.13,12.32-23.25,26.59l1-27Z" style="fill:#d28572"/><path d="M1457.68,976.77l3.71,57.55a13.12,13.12,0,0,0,7.81,11.16h0a13.07,13.07,0,0,0,9.87.28l36.11-13.49,6.2-32.09L1494,968.86Z" style="fill:#ffbc96"/><path d="M1499.48,1000.16s-8.87-17.22-18.11-19.85c0,0-35.56,11.59-43.39-15.68,0,0,20,.19,37.21-11.84s35.09-6.25,47.49,5c0,0,40.52,2,8.57,73.5,0,0-8,2.66-28.48-25.9Z" style="fill:#1b1b43"/><path d="M1509.44,1006.05c-3.6,6.3-10.39,9.18-15.18,6.45s-5.76-10-2.16-16.35,10.39-9.18,15.17-6.45S1513,999.75,1509.44,1006.05Z" style="fill:#ffbc96"/><ellipse cx="1478.59" cy="1010.63" rx="9.84" ry="10" style="fill:#fe5b52;opacity:0.4"/><path d="M1497.83,1005.5c-.49-3.24.4-9.89,7.29-11.86l.69,2.41c-6.52,1.86-5.56,8.78-5.51,9.08Z" style="fill:#1b1b43"/><polygon points="1489.39 1086.2 1490 1058.33 1537.08 1046.25 1550.83 1080.83 1489.39 1086.2" style="fill:#cbcbff"/><path d="M1496.67,1075c-23.64,23-40.84,57.5-62.5,92.5,0,0-73.44,19-94.48,40l37.81,19.17,129.17-35.84Z" style="fill:#1b1b43"/><path d="M1305.71,1597l-29.46,83.65-92.17-23s14.34-19.61,57.59-14l23-64.64Z" style="fill:#1b1b43"/><path d="M1490,1266.25l-133.13,43.27a95.82,95.82,0,0,0-63.24,67.47L1240,1598.75l72.5,18.75c28.42-67.37,56-147.77,75-225.83Z" style="fill:#393a8f"/><path d="M1441.67,1603.29l10.83,77.5H1351.67s9.16-22.5,52.5-27.5l-2.5-46.67Z" style="fill:#1b1b43"/><path d="M1610.69,1244.16l13.48,64.17c7.87,37.48-20.25,74.79-58.55,74.79H1444.38c6.81,62.3,13.37,144.39,8.95,231.66l-66.39,1.25L1351,1391.72a80.13,80.13,0,0,1,50.69-87.59l88.3-37.88Z" style="fill:#5254cf"/><path d="M1615,1265c-10.92-104.31-26.54-202.73-105.11-198.21a19.12,19.12,0,0,0-12.34,5.66h0a65.27,65.27,0,0,0-18.91,51.33L1490,1266.25S1551.25,1277.5,1615,1265Z" style="fill:#1b1b43"/><path d="M1339.69,1206.56s-46.25,8.75-53.75,35h65.62l12.5-8.75Z" style="fill:#ffbc96"/><path d="M1510.31,1089.69l-60,93.12-110.62,23.75,11.87,35,92.76-.47c24.9-.49,46.21-13.51,60.06-34.21l51.56-74.07Z" style="fill:#1b1b43"/><path d="M1340,1207.78l-.53-2.44,109.95-23.6c2.93-8.27,5.84-16.83,8.65-25.12,11.55-34,22.46-66.1,36-83.63l2,1.52c-13.28,17.21-24.12,49.13-35.6,82.92-2.89,8.51-5.89,17.32-8.9,25.8l-.23.66-.68.14Z" style="fill:#5254cf"/><path d="M1406,1243.3c-25.73,0-52.44-.45-54.45-.49l0-2.5c.91,0,90.3,1.53,101.27-.91l.34-.07a83.31,83.31,0,0,0,58.89-49.67l12.39-30.14,2.31,1-12.39,30.13a85.83,85.83,0,0,1-60.65,51.16l-.34.07C1448.27,1243,1427.47,1243.3,1406,1243.3Z" style="fill:#5254cf"/><polygon points="1637.41 1681.07 1654.76 1681.07 1604.86 1392.64 1587.5 1392.64 1637.41 1681.07" style="fill:#b0b0d2"/><polygon points="1489.86 1681.07 1472.5 1681.07 1522.41 1392.64 1539.76 1392.64 1489.86 1681.07" style="fill:#b0b0d2"/><polygon points="1539.73 1392.64 1531.1 1442.49 1513.75 1442.49 1522.38 1392.64 1539.73 1392.64" style="fill:#1b1b43;opacity:0.30000000000000004"/><polygon points="1613.45 1442.49 1596.1 1442.49 1587.48 1392.64 1604.83 1392.64 1613.45 1442.49" style="fill:#1b1b43;opacity:0.30000000000000004"/><path d="M1487,1406.25h162.36V1382.5H1487a11.87,11.87,0,0,0-11.87,11.88h0A11.87,11.87,0,0,0,1487,1406.25Z" style="fill:#cbcbff"/><path d="M1626.44,1406.25h22.92l77.41-189.74a10.73,10.73,0,0,0-5.37-13.76h0a10.72,10.72,0,0,0-14.51,5.66Z" style="fill:#cbcbff"/><rect x="217.77" y="1679.58" width="1592.42" height="2.5" style="fill:#1b1b43"/></g></g></svg>