<svg xmlns="http://www.w3.org/2000/svg" xmlns:xlink="http://www.w3.org/1999/xlink" viewBox="0 0 35.38 35.38"><defs><style>.cls-1{fill:url(#linear-gradient);}.cls-2{fill:url(#linear-gradient-2);}.cls-3{fill:url(#linear-gradient-3);}</style><linearGradient id="linear-gradient" x1="10.85" y1="-7.12" x2="42.94" y2="23.59" gradientUnits="userSpaceOnUse"><stop offset="0" stop-color="#fbe18a"/><stop offset="0.21" stop-color="#fcbb45"/><stop offset="0.38" stop-color="#f75274"/><stop offset="0.52" stop-color="#d53692"/><stop offset="0.74" stop-color="#8f39ce"/><stop offset="1" stop-color="#5b4fe9"/></linearGradient><linearGradient id="linear-gradient-2" x1="1.8" y1="2.34" x2="33.88" y2="33.05" xlink:href="#linear-gradient"/><linearGradient id="linear-gradient-3" x1="1.73" y1="2.41" x2="33.81" y2="33.12" xlink:href="#linear-gradient"/></defs><g id="Layer_2" data-name="Layer 2"><g id="ELEMENTS"><path class="cls-1" d="M27.06,6.32a2.08,2.08,0,1,0,2.07,2.07A2.08,2.08,0,0,0,27.06,6.32Z"/><path class="cls-2" d="M17.84,9a8.71,8.71,0,1,0,8.71,8.71A8.73,8.73,0,0,0,17.84,9Zm0,14.29a5.58,5.58,0,1,1,5.58-5.58A5.59,5.59,0,0,1,17.84,23.27Z"/><path class="cls-3" d="M24.75,35.38H10.63A10.64,10.64,0,0,1,0,24.75V10.63A10.64,10.64,0,0,1,10.63,0H24.75A10.64,10.64,0,0,1,35.38,10.63V24.75A10.64,10.64,0,0,1,24.75,35.38ZM10.63,3.33a7.3,7.3,0,0,0-7.3,7.3V24.75a7.3,7.3,0,0,0,7.3,7.3H24.75a7.3,7.3,0,0,0,7.3-7.3V10.63a7.3,7.3,0,0,0-7.3-7.3Z"/></g></g></svg>