<svg xmlns="http://www.w3.org/2000/svg" viewBox="0 0 32.65 36.9"><defs><style>.cls-1{fill:#ee1d52;}.cls-1,.cls-2,.cls-3{fill-rule:evenodd;}.cls-3{fill:#69c9d0;}</style></defs><g id="Layer_2" data-name="Layer 2"><g id="ELEMENTS"><path class="cls-1" d="M24.2,13.32A14.49,14.49,0,0,0,32.65,16V10a8.13,8.13,0,0,1-1.77-.19v4.78a14.48,14.48,0,0,1-8.46-2.71V24.22A11.22,11.22,0,0,1,5,33.53,11.22,11.22,0,0,0,24.2,25.69V13.32ZM26.39,7.2A8.39,8.39,0,0,1,24.2,2.26V1.48H22.52A8.48,8.48,0,0,0,26.39,7.2ZM8.89,28.78A5.12,5.12,0,0,1,13,20.55a5.18,5.18,0,0,1,1.56.24v-6.2a11.81,11.81,0,0,0-1.78-.1v4.82a5.13,5.13,0,0,0-3.86,9.47Z"/><path class="cls-2" d="M22.42,11.84a14.48,14.48,0,0,0,8.46,2.71V9.77A8.44,8.44,0,0,1,26.39,7.2a8.48,8.48,0,0,1-3.87-5.72H18.1V25.69a5.13,5.13,0,0,1-9.21,3.09,5.13,5.13,0,0,1,2.3-9.71,5.3,5.3,0,0,1,1.56.24V14.49A11.21,11.21,0,0,0,5,33.53a11.22,11.22,0,0,0,17.45-9.31Z"/><path class="cls-3" d="M30.88,9.77V8.48A8.39,8.39,0,0,1,26.39,7.2,8.37,8.37,0,0,0,30.88,9.77ZM22.52,1.48c0-.23-.07-.47-.1-.7V0h-6.1V24.22a5.12,5.12,0,0,1-5.13,5.1,5.06,5.06,0,0,1-2.3-.54,5.13,5.13,0,0,0,9.21-3.09V1.48Zm-9.77,13V13.11A11.21,11.21,0,0,0,5,33.53a11.21,11.21,0,0,1,7.78-19Z"/></g></g></svg>